G04 EAGLE Gerber RS-274X export*
G75*
%MOMM*%
%FSLAX34Y34*%
%LPD*%
%INBottom Copper*%
%IPPOS*%
%AMOC8*
5,1,8,0,0,1.08239X$1,22.5*%
G01*
%ADD10P,1.732040X8X22.500000*%
%ADD11P,1.732040X8X202.500000*%
%ADD12C,0.854800*%
%ADD13C,0.812800*%
%ADD14C,1.422400*%
%ADD15C,2.240281*%
%ADD16P,1.732040X8X112.500000*%
%ADD17C,1.600200*%
%ADD18P,2.089446X8X202.500000*%
%ADD19C,1.137919*%
%ADD20P,1.814519X8X292.500000*%
%ADD21C,2.098038*%
%ADD22C,1.000000*%
%ADD23C,1.260000*%
%ADD24C,0.406400*%

G36*
X673626Y10163D02*
X673626Y10163D01*
X673644Y10161D01*
X673826Y10182D01*
X674009Y10201D01*
X674026Y10206D01*
X674043Y10208D01*
X674218Y10265D01*
X674394Y10319D01*
X674409Y10327D01*
X674426Y10333D01*
X674586Y10423D01*
X674748Y10511D01*
X674761Y10522D01*
X674777Y10531D01*
X674916Y10651D01*
X675057Y10768D01*
X675068Y10782D01*
X675082Y10794D01*
X675194Y10939D01*
X675309Y11082D01*
X675317Y11098D01*
X675328Y11112D01*
X675410Y11277D01*
X675495Y11439D01*
X675500Y11456D01*
X675508Y11472D01*
X675555Y11651D01*
X675606Y11826D01*
X675608Y11844D01*
X675612Y11861D01*
X675639Y12192D01*
X675639Y36408D01*
X675631Y36489D01*
X675633Y36572D01*
X675611Y36689D01*
X675599Y36808D01*
X675575Y36887D01*
X675561Y36968D01*
X675516Y37079D01*
X675481Y37193D01*
X675442Y37266D01*
X675412Y37342D01*
X675346Y37442D01*
X675289Y37547D01*
X675237Y37610D01*
X675192Y37679D01*
X675108Y37765D01*
X675032Y37856D01*
X674968Y37908D01*
X674910Y37967D01*
X674811Y38034D01*
X674718Y38109D01*
X674645Y38147D01*
X674577Y38193D01*
X674467Y38239D01*
X674361Y38294D01*
X674282Y38317D01*
X674206Y38349D01*
X674089Y38373D01*
X673974Y38406D01*
X673892Y38412D01*
X673811Y38429D01*
X673692Y38429D01*
X673572Y38439D01*
X673491Y38429D01*
X673409Y38429D01*
X673258Y38402D01*
X673173Y38392D01*
X673134Y38379D01*
X673082Y38370D01*
X672952Y38335D01*
X672776Y38268D01*
X672599Y38204D01*
X672586Y38197D01*
X672575Y38192D01*
X672569Y38189D01*
X672512Y38189D01*
X672349Y38159D01*
X672262Y38148D01*
X672229Y38137D01*
X672185Y38129D01*
X671607Y37974D01*
X671596Y37970D01*
X671585Y37968D01*
X671274Y37853D01*
X670731Y37600D01*
X670666Y37561D01*
X670597Y37531D01*
X670494Y37459D01*
X670385Y37395D01*
X670380Y37390D01*
X670323Y37380D01*
X670309Y37375D01*
X670298Y37373D01*
X670291Y37370D01*
X670234Y37380D01*
X670069Y37379D01*
X669982Y37383D01*
X669947Y37378D01*
X669902Y37378D01*
X669306Y37326D01*
X669295Y37324D01*
X669283Y37324D01*
X668957Y37264D01*
X668379Y37109D01*
X668308Y37083D01*
X668234Y37065D01*
X668120Y37012D01*
X668002Y36967D01*
X667996Y36963D01*
X667938Y36963D01*
X667923Y36961D01*
X667912Y36960D01*
X667905Y36959D01*
X667851Y36979D01*
X667688Y37006D01*
X667603Y37026D01*
X667568Y37027D01*
X667524Y37035D01*
X666927Y37087D01*
X666916Y37087D01*
X666905Y37089D01*
X666573Y37087D01*
X665976Y37035D01*
X665902Y37020D01*
X665827Y37016D01*
X665705Y36983D01*
X665581Y36960D01*
X665574Y36957D01*
X665518Y36967D01*
X665503Y36967D01*
X665491Y36969D01*
X665484Y36969D01*
X665434Y36998D01*
X665278Y37053D01*
X665198Y37087D01*
X665164Y37094D01*
X665121Y37109D01*
X664543Y37264D01*
X664532Y37266D01*
X664521Y37270D01*
X664194Y37326D01*
X663598Y37378D01*
X663522Y37377D01*
X663447Y37386D01*
X663321Y37375D01*
X663195Y37373D01*
X663188Y37372D01*
X663134Y37391D01*
X663119Y37394D01*
X663108Y37398D01*
X663101Y37399D01*
X663057Y37436D01*
X662914Y37518D01*
X662840Y37565D01*
X662808Y37578D01*
X662769Y37600D01*
X662226Y37853D01*
X662216Y37857D01*
X662206Y37863D01*
X661893Y37974D01*
X661315Y38129D01*
X661240Y38141D01*
X661168Y38163D01*
X661042Y38174D01*
X660918Y38194D01*
X660910Y38194D01*
X660861Y38223D01*
X660847Y38228D01*
X660837Y38234D01*
X660830Y38236D01*
X660793Y38280D01*
X660666Y38385D01*
X660602Y38445D01*
X660572Y38463D01*
X660537Y38492D01*
X660047Y38835D01*
X660037Y38841D01*
X660028Y38848D01*
X659740Y39013D01*
X659197Y39266D01*
X659126Y39291D01*
X659058Y39324D01*
X658936Y39357D01*
X658817Y39399D01*
X658810Y39400D01*
X658766Y39437D01*
X658753Y39444D01*
X658744Y39452D01*
X658738Y39455D01*
X658709Y39505D01*
X658602Y39631D01*
X658550Y39700D01*
X658523Y39724D01*
X658494Y39758D01*
X658071Y40181D01*
X658062Y40188D01*
X658055Y40197D01*
X657800Y40409D01*
X657309Y40752D01*
X657243Y40789D01*
X657183Y40834D01*
X657068Y40887D01*
X656958Y40949D01*
X656951Y40952D01*
X656914Y40996D01*
X656903Y41005D01*
X656895Y41014D01*
X656889Y41019D01*
X656870Y41073D01*
X656786Y41215D01*
X656747Y41293D01*
X656725Y41320D01*
X656702Y41359D01*
X656359Y41850D01*
X656352Y41858D01*
X656346Y41868D01*
X656131Y42121D01*
X655708Y42544D01*
X655649Y42592D01*
X655597Y42647D01*
X655494Y42719D01*
X655396Y42799D01*
X655390Y42803D01*
X655361Y42853D01*
X655352Y42864D01*
X655346Y42874D01*
X655341Y42879D01*
X655331Y42936D01*
X655273Y43091D01*
X655248Y43174D01*
X655231Y43205D01*
X655215Y43247D01*
X654962Y43790D01*
X654957Y43799D01*
X654953Y43810D01*
X654786Y44097D01*
X654442Y44587D01*
X654393Y44644D01*
X654351Y44708D01*
X654262Y44797D01*
X654179Y44893D01*
X654174Y44897D01*
X654154Y44951D01*
X654147Y44964D01*
X654143Y44975D01*
X654139Y44981D01*
X654139Y45038D01*
X654109Y45201D01*
X654098Y45288D01*
X654087Y45321D01*
X654079Y45365D01*
X653924Y45943D01*
X653920Y45954D01*
X653918Y45965D01*
X653803Y46276D01*
X653550Y46819D01*
X653511Y46884D01*
X653481Y46953D01*
X653409Y47056D01*
X653345Y47165D01*
X653340Y47170D01*
X653330Y47227D01*
X653325Y47241D01*
X653323Y47252D01*
X653320Y47259D01*
X653330Y47316D01*
X653329Y47481D01*
X653333Y47568D01*
X653328Y47603D01*
X653328Y47648D01*
X653276Y48244D01*
X653274Y48256D01*
X653274Y48267D01*
X653214Y48593D01*
X653059Y49171D01*
X653033Y49242D01*
X653015Y49316D01*
X652962Y49430D01*
X652917Y49548D01*
X652913Y49554D01*
X652913Y49612D01*
X652911Y49627D01*
X652910Y49638D01*
X652909Y49645D01*
X652929Y49699D01*
X652956Y49862D01*
X652976Y49947D01*
X652977Y49982D01*
X652985Y50026D01*
X653037Y50623D01*
X653037Y50634D01*
X653039Y50645D01*
X653038Y50760D01*
X653043Y50821D01*
X653037Y50869D01*
X653037Y50977D01*
X652985Y51574D01*
X652970Y51648D01*
X652966Y51723D01*
X652933Y51845D01*
X652910Y51969D01*
X652907Y51976D01*
X652917Y52032D01*
X652917Y52047D01*
X652919Y52059D01*
X652919Y52066D01*
X652948Y52116D01*
X653003Y52272D01*
X653037Y52352D01*
X653044Y52386D01*
X653059Y52429D01*
X653214Y53007D01*
X653216Y53018D01*
X653220Y53029D01*
X653276Y53356D01*
X653328Y53952D01*
X653327Y54028D01*
X653336Y54103D01*
X653325Y54229D01*
X653323Y54355D01*
X653322Y54362D01*
X653341Y54416D01*
X653344Y54431D01*
X653348Y54442D01*
X653349Y54449D01*
X653386Y54493D01*
X653468Y54636D01*
X653515Y54710D01*
X653528Y54742D01*
X653550Y54781D01*
X653803Y55324D01*
X653807Y55334D01*
X653813Y55344D01*
X653924Y55657D01*
X654079Y56235D01*
X654091Y56310D01*
X654113Y56382D01*
X654124Y56508D01*
X654144Y56632D01*
X654144Y56640D01*
X654173Y56689D01*
X654178Y56703D01*
X654184Y56713D01*
X654186Y56720D01*
X654230Y56757D01*
X654335Y56884D01*
X654395Y56948D01*
X654413Y56978D01*
X654442Y57013D01*
X654786Y57503D01*
X654791Y57513D01*
X654798Y57522D01*
X654962Y57810D01*
X655215Y58353D01*
X655240Y58424D01*
X655274Y58492D01*
X655307Y58613D01*
X655349Y58733D01*
X655350Y58740D01*
X655387Y58784D01*
X655394Y58797D01*
X655402Y58806D01*
X655405Y58812D01*
X655455Y58841D01*
X655581Y58948D01*
X655650Y59000D01*
X655674Y59027D01*
X655708Y59056D01*
X656131Y59479D01*
X656138Y59488D01*
X656147Y59495D01*
X656359Y59750D01*
X656702Y60241D01*
X656739Y60307D01*
X656784Y60367D01*
X656837Y60482D01*
X656899Y60592D01*
X656902Y60599D01*
X656946Y60636D01*
X656955Y60647D01*
X656964Y60655D01*
X656969Y60661D01*
X657023Y60680D01*
X657165Y60764D01*
X657243Y60803D01*
X657270Y60825D01*
X657309Y60848D01*
X657800Y61191D01*
X657808Y61198D01*
X657818Y61204D01*
X658071Y61419D01*
X658494Y61842D01*
X658542Y61901D01*
X658597Y61953D01*
X658669Y62056D01*
X658749Y62154D01*
X658753Y62160D01*
X658803Y62189D01*
X658814Y62198D01*
X658824Y62204D01*
X658829Y62209D01*
X658886Y62219D01*
X659041Y62277D01*
X659124Y62302D01*
X659155Y62319D01*
X659197Y62335D01*
X659740Y62588D01*
X659749Y62593D01*
X659760Y62597D01*
X660047Y62764D01*
X660537Y63108D01*
X660594Y63157D01*
X660658Y63199D01*
X660747Y63288D01*
X660843Y63371D01*
X660847Y63376D01*
X660901Y63396D01*
X660914Y63403D01*
X660925Y63407D01*
X660931Y63411D01*
X660989Y63411D01*
X661151Y63441D01*
X661238Y63452D01*
X661271Y63463D01*
X661315Y63471D01*
X661893Y63626D01*
X661904Y63630D01*
X661915Y63632D01*
X662226Y63747D01*
X662769Y64000D01*
X662834Y64039D01*
X662903Y64069D01*
X663006Y64141D01*
X663115Y64205D01*
X663120Y64210D01*
X663177Y64220D01*
X663191Y64225D01*
X663202Y64227D01*
X663209Y64230D01*
X663266Y64220D01*
X663431Y64221D01*
X663518Y64217D01*
X663553Y64222D01*
X663598Y64222D01*
X664194Y64274D01*
X664206Y64276D01*
X664217Y64276D01*
X664543Y64336D01*
X665121Y64491D01*
X665192Y64517D01*
X665266Y64535D01*
X665380Y64588D01*
X665498Y64633D01*
X665504Y64637D01*
X665562Y64637D01*
X665576Y64639D01*
X665588Y64640D01*
X665595Y64641D01*
X665649Y64621D01*
X665812Y64594D01*
X665897Y64574D01*
X665932Y64573D01*
X665977Y64565D01*
X666573Y64513D01*
X666584Y64513D01*
X666595Y64511D01*
X666927Y64513D01*
X667524Y64565D01*
X667598Y64580D01*
X667673Y64584D01*
X667795Y64617D01*
X667919Y64640D01*
X667926Y64643D01*
X667982Y64633D01*
X667997Y64633D01*
X668009Y64631D01*
X668016Y64631D01*
X668066Y64602D01*
X668222Y64547D01*
X668302Y64513D01*
X668336Y64506D01*
X668379Y64491D01*
X668957Y64336D01*
X668968Y64334D01*
X668979Y64330D01*
X669306Y64274D01*
X669902Y64222D01*
X669978Y64223D01*
X670053Y64214D01*
X670179Y64225D01*
X670305Y64227D01*
X670312Y64228D01*
X670366Y64209D01*
X670381Y64206D01*
X670392Y64202D01*
X670399Y64201D01*
X670443Y64164D01*
X670586Y64082D01*
X670660Y64035D01*
X670692Y64022D01*
X670731Y64000D01*
X671274Y63747D01*
X671284Y63743D01*
X671294Y63737D01*
X671607Y63626D01*
X672185Y63471D01*
X672260Y63459D01*
X672332Y63437D01*
X672458Y63426D01*
X672582Y63406D01*
X672590Y63406D01*
X672639Y63377D01*
X672653Y63372D01*
X672663Y63366D01*
X672726Y63346D01*
X672952Y63265D01*
X673082Y63230D01*
X673163Y63217D01*
X673242Y63194D01*
X673361Y63185D01*
X673479Y63165D01*
X673562Y63168D01*
X673644Y63161D01*
X673762Y63175D01*
X673882Y63180D01*
X673962Y63199D01*
X674043Y63208D01*
X674157Y63245D01*
X674273Y63273D01*
X674348Y63308D01*
X674426Y63333D01*
X674530Y63392D01*
X674639Y63442D01*
X674705Y63491D01*
X674777Y63531D01*
X674867Y63609D01*
X674964Y63680D01*
X675019Y63741D01*
X675082Y63794D01*
X675155Y63889D01*
X675236Y63977D01*
X675278Y64047D01*
X675328Y64112D01*
X675382Y64219D01*
X675443Y64322D01*
X675471Y64399D01*
X675508Y64473D01*
X675539Y64588D01*
X675579Y64701D01*
X675591Y64782D01*
X675612Y64862D01*
X675625Y65013D01*
X675637Y65099D01*
X675635Y65140D01*
X675639Y65192D01*
X675639Y137672D01*
X675639Y137677D01*
X675639Y137681D01*
X675619Y137875D01*
X675599Y138073D01*
X675598Y138077D01*
X675598Y138082D01*
X675539Y138269D01*
X675481Y138458D01*
X675479Y138462D01*
X675478Y138466D01*
X675382Y138641D01*
X675289Y138812D01*
X675287Y138815D01*
X675284Y138819D01*
X675156Y138972D01*
X675032Y139121D01*
X675028Y139124D01*
X675025Y139127D01*
X674870Y139251D01*
X674718Y139373D01*
X674714Y139375D01*
X674710Y139378D01*
X674532Y139470D01*
X674361Y139559D01*
X674356Y139560D01*
X674352Y139562D01*
X674159Y139617D01*
X673974Y139670D01*
X673969Y139671D01*
X673965Y139672D01*
X673769Y139687D01*
X673572Y139703D01*
X673568Y139703D01*
X673564Y139703D01*
X673370Y139679D01*
X673173Y139656D01*
X673168Y139655D01*
X673164Y139654D01*
X672979Y139593D01*
X672790Y139531D01*
X672786Y139529D01*
X672782Y139528D01*
X672613Y139431D01*
X672439Y139334D01*
X672436Y139331D01*
X672432Y139328D01*
X672283Y139199D01*
X672135Y139070D01*
X672132Y139067D01*
X672128Y139064D01*
X672006Y138905D01*
X671888Y138752D01*
X671886Y138748D01*
X671883Y138745D01*
X671731Y138450D01*
X671057Y136822D01*
X625178Y90943D01*
X623311Y90169D01*
X250596Y90169D01*
X250569Y90167D01*
X250543Y90169D01*
X250369Y90147D01*
X250195Y90129D01*
X250170Y90122D01*
X250143Y90118D01*
X249977Y90063D01*
X249810Y90011D01*
X249787Y89998D01*
X249761Y89990D01*
X249610Y89903D01*
X249456Y89819D01*
X249436Y89802D01*
X249413Y89789D01*
X249160Y89574D01*
X234276Y74690D01*
X234259Y74670D01*
X234238Y74652D01*
X234131Y74514D01*
X234021Y74379D01*
X234008Y74355D01*
X233992Y74334D01*
X233914Y74177D01*
X233832Y74023D01*
X233824Y73998D01*
X233812Y73974D01*
X233767Y73804D01*
X233717Y73637D01*
X233715Y73611D01*
X233708Y73585D01*
X233681Y73254D01*
X233681Y53382D01*
X233683Y53355D01*
X233681Y53328D01*
X233703Y53154D01*
X233721Y52981D01*
X233728Y52956D01*
X233732Y52929D01*
X233788Y52763D01*
X233839Y52596D01*
X233852Y52573D01*
X233860Y52547D01*
X233947Y52396D01*
X234031Y52242D01*
X234048Y52222D01*
X234061Y52198D01*
X234276Y51945D01*
X236525Y49696D01*
X237949Y46260D01*
X237949Y29940D01*
X236525Y26504D01*
X233896Y23875D01*
X230460Y22451D01*
X226740Y22451D01*
X223304Y23875D01*
X220675Y26504D01*
X219251Y29940D01*
X219251Y46260D01*
X220675Y49696D01*
X222924Y51945D01*
X222941Y51966D01*
X222962Y51984D01*
X223069Y52122D01*
X223179Y52257D01*
X223192Y52281D01*
X223208Y52302D01*
X223286Y52458D01*
X223368Y52613D01*
X223376Y52638D01*
X223388Y52662D01*
X223433Y52831D01*
X223483Y52999D01*
X223485Y53025D01*
X223492Y53051D01*
X223519Y53382D01*
X223519Y77211D01*
X224293Y79078D01*
X244772Y99557D01*
X246639Y100331D01*
X619354Y100331D01*
X619381Y100333D01*
X619407Y100331D01*
X619581Y100353D01*
X619755Y100371D01*
X619780Y100378D01*
X619807Y100382D01*
X619973Y100437D01*
X620140Y100489D01*
X620163Y100502D01*
X620189Y100510D01*
X620340Y100597D01*
X620494Y100681D01*
X620514Y100698D01*
X620537Y100711D01*
X620790Y100926D01*
X661074Y141210D01*
X661091Y141230D01*
X661112Y141248D01*
X661219Y141386D01*
X661329Y141521D01*
X661342Y141545D01*
X661358Y141566D01*
X661436Y141723D01*
X661518Y141877D01*
X661526Y141902D01*
X661538Y141926D01*
X661583Y142096D01*
X661633Y142263D01*
X661635Y142289D01*
X661642Y142315D01*
X661669Y142646D01*
X661669Y251054D01*
X661667Y251081D01*
X661669Y251107D01*
X661647Y251281D01*
X661629Y251455D01*
X661622Y251480D01*
X661618Y251507D01*
X661563Y251673D01*
X661511Y251840D01*
X661498Y251863D01*
X661490Y251889D01*
X661403Y252040D01*
X661319Y252194D01*
X661302Y252214D01*
X661289Y252237D01*
X661074Y252490D01*
X660160Y253404D01*
X660140Y253421D01*
X660122Y253442D01*
X659984Y253549D01*
X659849Y253659D01*
X659825Y253672D01*
X659804Y253688D01*
X659647Y253766D01*
X659493Y253848D01*
X659468Y253856D01*
X659444Y253868D01*
X659274Y253913D01*
X659107Y253963D01*
X659081Y253965D01*
X659055Y253972D01*
X658724Y253999D01*
X648789Y253999D01*
X641349Y261439D01*
X641349Y271961D01*
X648789Y279401D01*
X659311Y279401D01*
X666751Y271961D01*
X666751Y262026D01*
X666752Y262013D01*
X666751Y262000D01*
X666753Y261988D01*
X666751Y261973D01*
X666773Y261799D01*
X666791Y261625D01*
X666798Y261602D01*
X666798Y261600D01*
X666799Y261598D01*
X666802Y261573D01*
X666857Y261407D01*
X666909Y261240D01*
X666922Y261217D01*
X666930Y261191D01*
X667017Y261040D01*
X667101Y260886D01*
X667118Y260866D01*
X667131Y260843D01*
X667346Y260590D01*
X671057Y256878D01*
X671731Y255250D01*
X671733Y255246D01*
X671735Y255242D01*
X671828Y255069D01*
X671922Y254896D01*
X671924Y254892D01*
X671927Y254888D01*
X672052Y254738D01*
X672178Y254585D01*
X672181Y254582D01*
X672184Y254579D01*
X672335Y254457D01*
X672491Y254331D01*
X672495Y254329D01*
X672498Y254327D01*
X672670Y254237D01*
X672847Y254144D01*
X672851Y254143D01*
X672855Y254141D01*
X673043Y254087D01*
X673234Y254031D01*
X673238Y254031D01*
X673242Y254030D01*
X673440Y254013D01*
X673635Y253997D01*
X673639Y253997D01*
X673644Y253997D01*
X673839Y254020D01*
X674035Y254042D01*
X674039Y254043D01*
X674043Y254044D01*
X674231Y254105D01*
X674418Y254165D01*
X674422Y254167D01*
X674426Y254169D01*
X674599Y254266D01*
X674770Y254361D01*
X674773Y254364D01*
X674777Y254366D01*
X674925Y254495D01*
X675075Y254623D01*
X675078Y254627D01*
X675082Y254630D01*
X675202Y254784D01*
X675324Y254940D01*
X675326Y254944D01*
X675328Y254948D01*
X675416Y255124D01*
X675504Y255300D01*
X675506Y255304D01*
X675508Y255308D01*
X675559Y255499D01*
X675611Y255688D01*
X675611Y255693D01*
X675612Y255697D01*
X675639Y256028D01*
X675639Y826008D01*
X675637Y826026D01*
X675639Y826044D01*
X675618Y826226D01*
X675599Y826409D01*
X675594Y826426D01*
X675592Y826443D01*
X675535Y826618D01*
X675481Y826794D01*
X675473Y826809D01*
X675467Y826826D01*
X675377Y826986D01*
X675289Y827148D01*
X675278Y827161D01*
X675269Y827177D01*
X675149Y827316D01*
X675032Y827457D01*
X675018Y827468D01*
X675006Y827482D01*
X674861Y827594D01*
X674718Y827709D01*
X674702Y827717D01*
X674688Y827728D01*
X674523Y827810D01*
X674361Y827895D01*
X674344Y827900D01*
X674328Y827908D01*
X674149Y827955D01*
X673974Y828006D01*
X673956Y828008D01*
X673939Y828012D01*
X673608Y828039D01*
X518930Y828039D01*
X518906Y828037D01*
X518881Y828039D01*
X518705Y828017D01*
X518530Y827999D01*
X518506Y827992D01*
X518481Y827989D01*
X518314Y827933D01*
X518145Y827881D01*
X518123Y827869D01*
X518099Y827861D01*
X517946Y827774D01*
X517791Y827689D01*
X517772Y827674D01*
X517750Y827661D01*
X517617Y827544D01*
X517481Y827432D01*
X517466Y827412D01*
X517447Y827396D01*
X517340Y827255D01*
X517229Y827118D01*
X517218Y827096D01*
X517202Y827076D01*
X517125Y826917D01*
X517044Y826761D01*
X517037Y826737D01*
X517026Y826714D01*
X516981Y826544D01*
X516932Y826374D01*
X516930Y826349D01*
X516924Y826325D01*
X516914Y826149D01*
X516899Y825972D01*
X516902Y825948D01*
X516901Y825923D01*
X516926Y825748D01*
X516946Y825573D01*
X516954Y825549D01*
X516957Y825524D01*
X517016Y825358D01*
X517071Y825190D01*
X517083Y825168D01*
X517092Y825145D01*
X517182Y824993D01*
X517269Y824839D01*
X517285Y824820D01*
X517298Y824799D01*
X517417Y824668D01*
X517532Y824535D01*
X517552Y824519D01*
X517569Y824501D01*
X517832Y824299D01*
X523896Y820402D01*
X532036Y811009D01*
X537199Y799703D01*
X538968Y787400D01*
X537199Y775097D01*
X532036Y763791D01*
X523896Y754398D01*
X513440Y747678D01*
X501515Y744177D01*
X489085Y744177D01*
X477160Y747678D01*
X466704Y754398D01*
X458564Y763791D01*
X453401Y775097D01*
X451632Y787400D01*
X453401Y799703D01*
X458564Y811009D01*
X466704Y820402D01*
X472768Y824299D01*
X472788Y824315D01*
X472809Y824327D01*
X472945Y824439D01*
X473083Y824549D01*
X473099Y824568D01*
X473119Y824584D01*
X473229Y824722D01*
X473343Y824857D01*
X473355Y824879D01*
X473371Y824898D01*
X473452Y825054D01*
X473538Y825210D01*
X473545Y825233D01*
X473556Y825255D01*
X473605Y825425D01*
X473658Y825594D01*
X473661Y825618D01*
X473668Y825642D01*
X473682Y825819D01*
X473701Y825994D01*
X473699Y826019D01*
X473701Y826044D01*
X473680Y826219D01*
X473664Y826395D01*
X473657Y826419D01*
X473654Y826443D01*
X473599Y826612D01*
X473548Y826781D01*
X473537Y826802D01*
X473529Y826826D01*
X473442Y826980D01*
X473359Y827136D01*
X473343Y827155D01*
X473331Y827177D01*
X473215Y827311D01*
X473103Y827447D01*
X473084Y827463D01*
X473068Y827482D01*
X472928Y827590D01*
X472791Y827701D01*
X472769Y827713D01*
X472750Y827728D01*
X472592Y827807D01*
X472435Y827889D01*
X472412Y827897D01*
X472389Y827908D01*
X472218Y827954D01*
X472049Y828003D01*
X472025Y828006D01*
X472000Y828012D01*
X471670Y828039D01*
X214130Y828039D01*
X214106Y828037D01*
X214081Y828039D01*
X213905Y828017D01*
X213730Y827999D01*
X213706Y827992D01*
X213681Y827989D01*
X213514Y827933D01*
X213345Y827881D01*
X213323Y827869D01*
X213299Y827861D01*
X213146Y827774D01*
X212991Y827689D01*
X212972Y827674D01*
X212950Y827661D01*
X212817Y827544D01*
X212681Y827432D01*
X212666Y827412D01*
X212647Y827396D01*
X212540Y827255D01*
X212429Y827118D01*
X212418Y827096D01*
X212402Y827076D01*
X212325Y826917D01*
X212244Y826761D01*
X212237Y826737D01*
X212226Y826714D01*
X212181Y826544D01*
X212132Y826374D01*
X212130Y826349D01*
X212124Y826325D01*
X212114Y826149D01*
X212099Y825972D01*
X212102Y825948D01*
X212101Y825923D01*
X212126Y825748D01*
X212146Y825573D01*
X212154Y825549D01*
X212157Y825524D01*
X212216Y825358D01*
X212271Y825190D01*
X212283Y825168D01*
X212292Y825145D01*
X212382Y824993D01*
X212469Y824839D01*
X212485Y824820D01*
X212498Y824799D01*
X212617Y824668D01*
X212732Y824535D01*
X212752Y824519D01*
X212769Y824501D01*
X213032Y824299D01*
X219096Y820402D01*
X227236Y811009D01*
X232399Y799703D01*
X234168Y787400D01*
X232399Y775097D01*
X227236Y763791D01*
X219096Y754398D01*
X208640Y747678D01*
X196715Y744177D01*
X184285Y744177D01*
X172360Y747678D01*
X161904Y754398D01*
X153764Y763791D01*
X148601Y775097D01*
X146832Y787400D01*
X148601Y799703D01*
X153764Y811009D01*
X161904Y820402D01*
X167968Y824299D01*
X167988Y824315D01*
X168009Y824327D01*
X168145Y824439D01*
X168283Y824549D01*
X168299Y824568D01*
X168319Y824584D01*
X168429Y824722D01*
X168543Y824857D01*
X168555Y824879D01*
X168571Y824898D01*
X168652Y825054D01*
X168738Y825210D01*
X168745Y825233D01*
X168756Y825255D01*
X168805Y825425D01*
X168858Y825594D01*
X168861Y825618D01*
X168868Y825642D01*
X168882Y825819D01*
X168901Y825994D01*
X168899Y826019D01*
X168901Y826044D01*
X168880Y826219D01*
X168864Y826395D01*
X168857Y826419D01*
X168854Y826443D01*
X168799Y826612D01*
X168748Y826781D01*
X168737Y826802D01*
X168729Y826826D01*
X168642Y826980D01*
X168559Y827136D01*
X168543Y827155D01*
X168531Y827177D01*
X168415Y827311D01*
X168303Y827447D01*
X168284Y827463D01*
X168268Y827482D01*
X168128Y827590D01*
X167991Y827701D01*
X167969Y827713D01*
X167950Y827728D01*
X167792Y827807D01*
X167635Y827889D01*
X167612Y827897D01*
X167589Y827908D01*
X167418Y827954D01*
X167249Y828003D01*
X167225Y828006D01*
X167200Y828012D01*
X166870Y828039D01*
X12192Y828039D01*
X12174Y828037D01*
X12156Y828039D01*
X11974Y828018D01*
X11791Y827999D01*
X11774Y827994D01*
X11757Y827992D01*
X11582Y827935D01*
X11406Y827881D01*
X11391Y827873D01*
X11374Y827867D01*
X11214Y827777D01*
X11052Y827689D01*
X11039Y827678D01*
X11023Y827669D01*
X10884Y827549D01*
X10743Y827432D01*
X10732Y827418D01*
X10718Y827406D01*
X10606Y827261D01*
X10491Y827118D01*
X10483Y827102D01*
X10472Y827088D01*
X10390Y826923D01*
X10305Y826761D01*
X10300Y826744D01*
X10292Y826728D01*
X10245Y826549D01*
X10194Y826374D01*
X10192Y826356D01*
X10188Y826339D01*
X10161Y826008D01*
X10161Y12192D01*
X10163Y12174D01*
X10161Y12156D01*
X10182Y11974D01*
X10201Y11791D01*
X10206Y11774D01*
X10208Y11757D01*
X10265Y11582D01*
X10319Y11406D01*
X10327Y11391D01*
X10333Y11374D01*
X10423Y11214D01*
X10511Y11052D01*
X10522Y11039D01*
X10531Y11023D01*
X10651Y10884D01*
X10768Y10743D01*
X10782Y10732D01*
X10794Y10718D01*
X10939Y10606D01*
X11082Y10491D01*
X11098Y10483D01*
X11112Y10472D01*
X11277Y10390D01*
X11439Y10305D01*
X11456Y10300D01*
X11472Y10292D01*
X11651Y10245D01*
X11826Y10194D01*
X11844Y10192D01*
X11861Y10188D01*
X12192Y10161D01*
X673608Y10161D01*
X673626Y10163D01*
G37*
%LPC*%
G36*
X184285Y388577D02*
X184285Y388577D01*
X172360Y392078D01*
X161904Y398798D01*
X153764Y408191D01*
X148601Y419497D01*
X146832Y431800D01*
X148601Y444103D01*
X153764Y455409D01*
X161904Y464802D01*
X172360Y471522D01*
X184285Y475023D01*
X196715Y475023D01*
X208640Y471522D01*
X219096Y464802D01*
X227236Y455409D01*
X232399Y444103D01*
X234168Y431800D01*
X232399Y419497D01*
X227236Y408191D01*
X219096Y398798D01*
X208640Y392078D01*
X196715Y388577D01*
X184285Y388577D01*
G37*
%LPD*%
%LPC*%
G36*
X489085Y388577D02*
X489085Y388577D01*
X477160Y392078D01*
X466704Y398798D01*
X458564Y408191D01*
X453401Y419497D01*
X451632Y431800D01*
X453401Y444103D01*
X458564Y455409D01*
X466704Y464802D01*
X477160Y471522D01*
X489085Y475023D01*
X501515Y475023D01*
X513440Y471522D01*
X523896Y464802D01*
X532036Y455409D01*
X537199Y444103D01*
X538968Y431800D01*
X537199Y419497D01*
X532036Y408191D01*
X523896Y398798D01*
X513440Y392078D01*
X501515Y388577D01*
X489085Y388577D01*
G37*
%LPD*%
%LPC*%
G36*
X598104Y668248D02*
X598104Y668248D01*
X592867Y670417D01*
X588858Y674426D01*
X586688Y679663D01*
X586688Y685333D01*
X588858Y690570D01*
X592867Y694579D01*
X598104Y696748D01*
X626176Y696748D01*
X631413Y694579D01*
X635422Y690570D01*
X637592Y685333D01*
X637592Y679663D01*
X635422Y674426D01*
X631413Y670417D01*
X626176Y668248D01*
X598104Y668248D01*
G37*
%LPD*%
%LPC*%
G36*
X598104Y620750D02*
X598104Y620750D01*
X592867Y622919D01*
X588858Y626928D01*
X586688Y632165D01*
X586688Y637835D01*
X588858Y643072D01*
X592867Y647081D01*
X598104Y649250D01*
X626176Y649250D01*
X631413Y647081D01*
X635422Y643072D01*
X637592Y637835D01*
X637592Y632165D01*
X635422Y626928D01*
X631413Y622919D01*
X627767Y621409D01*
X626176Y620750D01*
X598104Y620750D01*
G37*
%LPD*%
%LPC*%
G36*
X598104Y573252D02*
X598104Y573252D01*
X592867Y575421D01*
X588858Y579430D01*
X586688Y584667D01*
X586688Y590337D01*
X588858Y595574D01*
X592867Y599583D01*
X598104Y601752D01*
X626176Y601752D01*
X631413Y599583D01*
X635422Y595574D01*
X637592Y590337D01*
X637592Y584667D01*
X635422Y579430D01*
X631413Y575421D01*
X629649Y574690D01*
X629648Y574690D01*
X626176Y573252D01*
X598104Y573252D01*
G37*
%LPD*%
%LPC*%
G36*
X47853Y586409D02*
X47853Y586409D01*
X42877Y588470D01*
X39068Y592279D01*
X37007Y597255D01*
X37007Y602678D01*
X37006Y602687D01*
X37007Y602696D01*
X36986Y602887D01*
X36967Y603078D01*
X36965Y603087D01*
X36964Y603096D01*
X36906Y603278D01*
X36849Y603463D01*
X36845Y603471D01*
X36842Y603480D01*
X36749Y603648D01*
X36657Y603817D01*
X36652Y603824D01*
X36647Y603832D01*
X36523Y603979D01*
X36400Y604127D01*
X36393Y604132D01*
X36387Y604139D01*
X36236Y604258D01*
X36086Y604379D01*
X36078Y604383D01*
X36071Y604389D01*
X35898Y604476D01*
X35728Y604564D01*
X35720Y604567D01*
X35712Y604571D01*
X35525Y604623D01*
X35342Y604676D01*
X35333Y604677D01*
X35324Y604679D01*
X35131Y604693D01*
X34940Y604709D01*
X34931Y604708D01*
X34923Y604708D01*
X34730Y604684D01*
X34540Y604662D01*
X34532Y604659D01*
X34523Y604658D01*
X34340Y604596D01*
X34158Y604537D01*
X34150Y604532D01*
X34141Y604530D01*
X33975Y604434D01*
X33807Y604339D01*
X33800Y604333D01*
X33793Y604329D01*
X33540Y604114D01*
X30389Y600963D01*
X20919Y600963D01*
X14223Y607659D01*
X14223Y617129D01*
X20919Y623825D01*
X30389Y623825D01*
X37085Y617129D01*
X37085Y610538D01*
X37086Y610529D01*
X37085Y610520D01*
X37106Y610328D01*
X37125Y610137D01*
X37127Y610128D01*
X37128Y610119D01*
X37186Y609937D01*
X37243Y609752D01*
X37247Y609744D01*
X37250Y609736D01*
X37343Y609567D01*
X37435Y609398D01*
X37440Y609391D01*
X37445Y609383D01*
X37569Y609236D01*
X37692Y609089D01*
X37699Y609083D01*
X37705Y609076D01*
X37856Y608957D01*
X38006Y608836D01*
X38014Y608832D01*
X38021Y608827D01*
X38194Y608739D01*
X38363Y608651D01*
X38372Y608648D01*
X38380Y608644D01*
X38566Y608592D01*
X38750Y608539D01*
X38759Y608539D01*
X38768Y608536D01*
X38961Y608522D01*
X39152Y608507D01*
X39160Y608508D01*
X39169Y608507D01*
X39362Y608531D01*
X39551Y608553D01*
X39560Y608556D01*
X39569Y608557D01*
X39752Y608619D01*
X39934Y608678D01*
X39942Y608683D01*
X39950Y608686D01*
X40116Y608781D01*
X40285Y608876D01*
X40292Y608882D01*
X40299Y608887D01*
X40552Y609101D01*
X42877Y611426D01*
X47853Y613487D01*
X53239Y613487D01*
X58215Y611426D01*
X62024Y607617D01*
X64085Y602641D01*
X64085Y597255D01*
X62024Y592279D01*
X58215Y588470D01*
X53239Y586409D01*
X47853Y586409D01*
G37*
%LPD*%
%LPC*%
G36*
X47853Y370509D02*
X47853Y370509D01*
X42877Y372570D01*
X39068Y376379D01*
X37007Y381355D01*
X37007Y386778D01*
X37006Y386787D01*
X37007Y386796D01*
X36986Y386987D01*
X36967Y387178D01*
X36965Y387187D01*
X36964Y387196D01*
X36906Y387378D01*
X36849Y387563D01*
X36845Y387571D01*
X36842Y387580D01*
X36749Y387748D01*
X36657Y387917D01*
X36652Y387924D01*
X36647Y387932D01*
X36523Y388079D01*
X36400Y388227D01*
X36393Y388232D01*
X36387Y388239D01*
X36236Y388358D01*
X36086Y388479D01*
X36078Y388483D01*
X36071Y388489D01*
X35898Y388576D01*
X35728Y388664D01*
X35720Y388667D01*
X35712Y388671D01*
X35525Y388723D01*
X35342Y388776D01*
X35333Y388777D01*
X35324Y388779D01*
X35131Y388793D01*
X34940Y388809D01*
X34931Y388808D01*
X34923Y388808D01*
X34730Y388784D01*
X34540Y388762D01*
X34532Y388759D01*
X34523Y388758D01*
X34340Y388696D01*
X34158Y388637D01*
X34150Y388632D01*
X34141Y388630D01*
X33975Y388534D01*
X33807Y388439D01*
X33800Y388433D01*
X33793Y388429D01*
X33540Y388214D01*
X30389Y385063D01*
X20919Y385063D01*
X14223Y391759D01*
X14223Y401229D01*
X20919Y407925D01*
X30389Y407925D01*
X37085Y401229D01*
X37085Y394638D01*
X37086Y394629D01*
X37085Y394620D01*
X37106Y394428D01*
X37125Y394237D01*
X37127Y394228D01*
X37128Y394219D01*
X37186Y394037D01*
X37243Y393852D01*
X37247Y393844D01*
X37250Y393836D01*
X37343Y393667D01*
X37435Y393498D01*
X37440Y393491D01*
X37445Y393483D01*
X37569Y393336D01*
X37692Y393189D01*
X37699Y393183D01*
X37705Y393176D01*
X37856Y393057D01*
X38006Y392936D01*
X38014Y392932D01*
X38021Y392927D01*
X38194Y392839D01*
X38363Y392751D01*
X38372Y392748D01*
X38380Y392744D01*
X38566Y392692D01*
X38750Y392639D01*
X38759Y392639D01*
X38768Y392636D01*
X38961Y392622D01*
X39152Y392607D01*
X39160Y392608D01*
X39169Y392607D01*
X39362Y392631D01*
X39551Y392653D01*
X39560Y392656D01*
X39569Y392657D01*
X39752Y392719D01*
X39934Y392778D01*
X39942Y392783D01*
X39950Y392786D01*
X40116Y392881D01*
X40285Y392976D01*
X40292Y392982D01*
X40299Y392987D01*
X40552Y393201D01*
X42877Y395526D01*
X44640Y396256D01*
X47853Y397587D01*
X53239Y397587D01*
X58215Y395526D01*
X62024Y391717D01*
X64085Y386741D01*
X64085Y381355D01*
X62024Y376379D01*
X58215Y372570D01*
X55789Y371565D01*
X53239Y370509D01*
X47853Y370509D01*
G37*
%LPD*%
%LPC*%
G36*
X47853Y440613D02*
X47853Y440613D01*
X42877Y442674D01*
X40044Y445507D01*
X40037Y445512D01*
X40032Y445519D01*
X39882Y445640D01*
X39733Y445762D01*
X39725Y445766D01*
X39718Y445772D01*
X39548Y445860D01*
X39377Y445950D01*
X39368Y445953D01*
X39361Y445957D01*
X39176Y446010D01*
X38991Y446065D01*
X38982Y446066D01*
X38974Y446069D01*
X38783Y446084D01*
X38590Y446102D01*
X38581Y446101D01*
X38572Y446101D01*
X38383Y446079D01*
X38190Y446058D01*
X38181Y446056D01*
X38173Y446055D01*
X37991Y445995D01*
X37806Y445937D01*
X37798Y445932D01*
X37790Y445930D01*
X37621Y445835D01*
X37454Y445742D01*
X37447Y445736D01*
X37439Y445732D01*
X37293Y445606D01*
X37147Y445481D01*
X37141Y445474D01*
X37134Y445469D01*
X37017Y445317D01*
X36897Y445166D01*
X36893Y445158D01*
X36888Y445151D01*
X36802Y444978D01*
X36715Y444807D01*
X36712Y444798D01*
X36708Y444790D01*
X36658Y444604D01*
X36607Y444419D01*
X36606Y444410D01*
X36604Y444401D01*
X36591Y444245D01*
X28193Y444245D01*
X28193Y452629D01*
X30178Y452629D01*
X33788Y449019D01*
X33791Y449016D01*
X33794Y449013D01*
X33948Y448888D01*
X34099Y448764D01*
X34103Y448762D01*
X34107Y448759D01*
X34283Y448667D01*
X34455Y448576D01*
X34459Y448574D01*
X34463Y448572D01*
X34653Y448517D01*
X34841Y448461D01*
X34845Y448460D01*
X34850Y448459D01*
X35042Y448443D01*
X35242Y448424D01*
X35246Y448425D01*
X35251Y448425D01*
X35441Y448446D01*
X35642Y448468D01*
X35646Y448469D01*
X35651Y448470D01*
X35834Y448528D01*
X36026Y448589D01*
X36030Y448592D01*
X36034Y448593D01*
X36207Y448689D01*
X36378Y448784D01*
X36382Y448787D01*
X36386Y448789D01*
X36536Y448918D01*
X36685Y449045D01*
X36688Y449048D01*
X36691Y449051D01*
X36813Y449207D01*
X36935Y449361D01*
X36937Y449365D01*
X36940Y449368D01*
X37029Y449545D01*
X37117Y449719D01*
X37118Y449724D01*
X37120Y449728D01*
X37172Y449915D01*
X37225Y450107D01*
X37226Y450112D01*
X37227Y450116D01*
X37240Y450312D01*
X37255Y450509D01*
X37254Y450513D01*
X37254Y450518D01*
X37229Y450714D01*
X37204Y450908D01*
X37203Y450913D01*
X37202Y450917D01*
X37101Y451233D01*
X37007Y451459D01*
X37007Y456845D01*
X39068Y461821D01*
X42877Y465630D01*
X47853Y467691D01*
X53239Y467691D01*
X58215Y465630D01*
X62024Y461821D01*
X64085Y456845D01*
X64085Y451459D01*
X62024Y446483D01*
X58215Y442674D01*
X53239Y440613D01*
X47853Y440613D01*
G37*
%LPD*%
%LPC*%
G36*
X47853Y656513D02*
X47853Y656513D01*
X42877Y658574D01*
X40044Y661407D01*
X40037Y661412D01*
X40032Y661419D01*
X39882Y661540D01*
X39733Y661662D01*
X39725Y661666D01*
X39718Y661672D01*
X39548Y661760D01*
X39377Y661850D01*
X39368Y661853D01*
X39361Y661857D01*
X39176Y661910D01*
X38991Y661965D01*
X38982Y661966D01*
X38974Y661969D01*
X38783Y661984D01*
X38590Y662002D01*
X38581Y662001D01*
X38572Y662001D01*
X38383Y661979D01*
X38190Y661958D01*
X38181Y661956D01*
X38173Y661955D01*
X37991Y661895D01*
X37806Y661837D01*
X37798Y661832D01*
X37790Y661830D01*
X37621Y661735D01*
X37454Y661642D01*
X37447Y661636D01*
X37439Y661632D01*
X37293Y661506D01*
X37147Y661381D01*
X37141Y661374D01*
X37134Y661369D01*
X37017Y661217D01*
X36897Y661066D01*
X36893Y661058D01*
X36888Y661051D01*
X36802Y660878D01*
X36715Y660707D01*
X36712Y660698D01*
X36708Y660690D01*
X36658Y660504D01*
X36607Y660319D01*
X36606Y660310D01*
X36604Y660301D01*
X36591Y660145D01*
X28193Y660145D01*
X28193Y668529D01*
X30178Y668529D01*
X33788Y664919D01*
X33791Y664916D01*
X33794Y664913D01*
X33948Y664788D01*
X34099Y664664D01*
X34103Y664662D01*
X34107Y664659D01*
X34283Y664567D01*
X34455Y664476D01*
X34459Y664474D01*
X34463Y664472D01*
X34653Y664417D01*
X34841Y664361D01*
X34845Y664360D01*
X34850Y664359D01*
X35042Y664343D01*
X35242Y664324D01*
X35246Y664325D01*
X35251Y664325D01*
X35441Y664346D01*
X35642Y664368D01*
X35646Y664369D01*
X35651Y664370D01*
X35834Y664428D01*
X36026Y664489D01*
X36030Y664492D01*
X36034Y664493D01*
X36206Y664589D01*
X36378Y664684D01*
X36382Y664687D01*
X36386Y664689D01*
X36537Y664819D01*
X36685Y664945D01*
X36688Y664948D01*
X36691Y664951D01*
X36813Y665107D01*
X36935Y665261D01*
X36937Y665265D01*
X36940Y665268D01*
X37029Y665445D01*
X37117Y665619D01*
X37118Y665624D01*
X37120Y665628D01*
X37172Y665814D01*
X37225Y666007D01*
X37226Y666012D01*
X37227Y666016D01*
X37240Y666212D01*
X37255Y666409D01*
X37254Y666413D01*
X37254Y666418D01*
X37229Y666614D01*
X37204Y666808D01*
X37203Y666813D01*
X37202Y666817D01*
X37101Y667133D01*
X37007Y667359D01*
X37007Y672745D01*
X39068Y677721D01*
X42877Y681530D01*
X45611Y682662D01*
X45612Y682663D01*
X47853Y683591D01*
X53239Y683591D01*
X58215Y681530D01*
X62024Y677721D01*
X64085Y672745D01*
X64085Y667359D01*
X62024Y662383D01*
X58215Y658574D01*
X53239Y656513D01*
X47853Y656513D01*
G37*
%LPD*%
%LPC*%
G36*
X341443Y509103D02*
X341443Y509103D01*
X338752Y510218D01*
X337374Y511597D01*
X337360Y511608D01*
X337348Y511622D01*
X337205Y511735D01*
X337062Y511852D01*
X337046Y511860D01*
X337032Y511871D01*
X336869Y511954D01*
X336706Y512040D01*
X336689Y512045D01*
X336673Y512053D01*
X336497Y512102D01*
X336321Y512155D01*
X336303Y512157D01*
X336285Y512161D01*
X336104Y512175D01*
X335920Y512191D01*
X335902Y512189D01*
X335884Y512191D01*
X335703Y512168D01*
X335519Y512148D01*
X335502Y512143D01*
X335484Y512140D01*
X335310Y512082D01*
X335135Y512026D01*
X335120Y512018D01*
X335103Y512012D01*
X334944Y511921D01*
X334783Y511832D01*
X334769Y511820D01*
X334754Y511811D01*
X334501Y511596D01*
X334410Y511506D01*
X333328Y510783D01*
X332231Y510329D01*
X332231Y520700D01*
X332231Y531071D01*
X333328Y530617D01*
X334410Y529894D01*
X334501Y529804D01*
X334515Y529792D01*
X334526Y529779D01*
X334671Y529665D01*
X334812Y529548D01*
X334828Y529540D01*
X334842Y529529D01*
X335005Y529446D01*
X335168Y529360D01*
X335185Y529355D01*
X335201Y529347D01*
X335378Y529297D01*
X335554Y529245D01*
X335572Y529243D01*
X335589Y529239D01*
X335772Y529225D01*
X335955Y529209D01*
X335973Y529211D01*
X335991Y529209D01*
X336174Y529232D01*
X336355Y529252D01*
X336372Y529257D01*
X336390Y529260D01*
X336565Y529318D01*
X336739Y529373D01*
X336755Y529382D01*
X336772Y529388D01*
X336930Y529479D01*
X337091Y529568D01*
X337105Y529580D01*
X337121Y529589D01*
X337374Y529803D01*
X338752Y531182D01*
X341443Y532297D01*
X344357Y532297D01*
X347048Y531182D01*
X347814Y530416D01*
X347828Y530405D01*
X347839Y530391D01*
X347983Y530278D01*
X348125Y530161D01*
X348141Y530153D01*
X348155Y530142D01*
X348319Y530059D01*
X348481Y529973D01*
X348498Y529967D01*
X348514Y529959D01*
X348691Y529910D01*
X348867Y529858D01*
X348885Y529856D01*
X348902Y529851D01*
X349085Y529838D01*
X349268Y529821D01*
X349286Y529823D01*
X349303Y529822D01*
X349485Y529845D01*
X349668Y529865D01*
X349685Y529870D01*
X349703Y529872D01*
X349876Y529930D01*
X350052Y529986D01*
X350068Y529995D01*
X350084Y530001D01*
X350243Y530092D01*
X350404Y530181D01*
X350418Y530193D01*
X350433Y530202D01*
X350686Y530416D01*
X351452Y531182D01*
X354143Y532297D01*
X357057Y532297D01*
X359748Y531182D01*
X361808Y529122D01*
X362923Y526431D01*
X362923Y514969D01*
X361808Y512278D01*
X359748Y510218D01*
X357057Y509103D01*
X354143Y509103D01*
X351452Y510218D01*
X350686Y510984D01*
X350673Y510995D01*
X350661Y511009D01*
X350517Y511122D01*
X350375Y511239D01*
X350359Y511247D01*
X350345Y511258D01*
X350181Y511341D01*
X350019Y511427D01*
X350002Y511433D01*
X349986Y511441D01*
X349809Y511490D01*
X349633Y511542D01*
X349615Y511544D01*
X349598Y511549D01*
X349415Y511562D01*
X349232Y511579D01*
X349214Y511577D01*
X349197Y511578D01*
X349015Y511555D01*
X348832Y511535D01*
X348815Y511530D01*
X348797Y511528D01*
X348624Y511469D01*
X348448Y511414D01*
X348432Y511405D01*
X348416Y511399D01*
X348257Y511308D01*
X348096Y511219D01*
X348082Y511207D01*
X348067Y511198D01*
X347814Y510984D01*
X347048Y510218D01*
X344357Y509103D01*
X341443Y509103D01*
G37*
%LPD*%
%LPC*%
G36*
X380669Y488042D02*
X380669Y488042D01*
X380668Y488042D01*
X380668Y488043D01*
X376699Y497624D01*
X377887Y497624D01*
X379163Y497370D01*
X379282Y497321D01*
X379299Y497316D01*
X379315Y497308D01*
X379491Y497258D01*
X379667Y497205D01*
X379685Y497203D01*
X379702Y497198D01*
X379885Y497184D01*
X380068Y497167D01*
X380086Y497169D01*
X380103Y497167D01*
X380285Y497189D01*
X380468Y497208D01*
X380485Y497214D01*
X380503Y497216D01*
X380677Y497273D01*
X380853Y497328D01*
X380868Y497337D01*
X380885Y497342D01*
X381044Y497433D01*
X381206Y497521D01*
X381219Y497533D01*
X381235Y497542D01*
X381373Y497662D01*
X381514Y497781D01*
X381525Y497795D01*
X381538Y497806D01*
X381650Y497952D01*
X381765Y498095D01*
X381773Y498111D01*
X381784Y498125D01*
X381936Y498421D01*
X382682Y500222D01*
X384741Y502282D01*
X387433Y503396D01*
X390346Y503396D01*
X391346Y502982D01*
X391364Y502977D01*
X391379Y502969D01*
X391556Y502919D01*
X391732Y502866D01*
X391750Y502864D01*
X391767Y502859D01*
X391950Y502845D01*
X392133Y502827D01*
X392150Y502829D01*
X392168Y502828D01*
X392350Y502850D01*
X392533Y502869D01*
X392550Y502874D01*
X392568Y502876D01*
X392742Y502934D01*
X392917Y502989D01*
X392933Y502997D01*
X392950Y503003D01*
X393110Y503094D01*
X393271Y503182D01*
X393284Y503194D01*
X393300Y503202D01*
X393438Y503323D01*
X393579Y503441D01*
X393590Y503455D01*
X393603Y503467D01*
X393716Y503613D01*
X393830Y503756D01*
X393838Y503772D01*
X393849Y503786D01*
X394000Y504081D01*
X394415Y505082D01*
X396475Y507142D01*
X398487Y507975D01*
X399166Y508256D01*
X402079Y508256D01*
X404771Y507142D01*
X406831Y505082D01*
X411217Y494493D01*
X411217Y491580D01*
X410102Y488888D01*
X408042Y486828D01*
X405350Y485714D01*
X402437Y485714D01*
X401437Y486128D01*
X401420Y486133D01*
X401404Y486141D01*
X401228Y486191D01*
X401051Y486245D01*
X401034Y486246D01*
X401016Y486251D01*
X400833Y486265D01*
X400651Y486283D01*
X400633Y486281D01*
X400615Y486282D01*
X400433Y486260D01*
X400250Y486241D01*
X400233Y486236D01*
X400215Y486234D01*
X400041Y486176D01*
X399866Y486121D01*
X399850Y486113D01*
X399833Y486107D01*
X399674Y486016D01*
X399513Y485928D01*
X399499Y485916D01*
X399483Y485908D01*
X399345Y485787D01*
X399204Y485669D01*
X399193Y485655D01*
X399180Y485643D01*
X399067Y485497D01*
X398954Y485354D01*
X398945Y485338D01*
X398934Y485324D01*
X398783Y485029D01*
X398368Y484028D01*
X396309Y481968D01*
X394581Y481253D01*
X393617Y480854D01*
X390704Y480854D01*
X388903Y481600D01*
X388886Y481605D01*
X388870Y481613D01*
X388693Y481663D01*
X388518Y481716D01*
X388500Y481718D01*
X388483Y481723D01*
X388299Y481737D01*
X388117Y481754D01*
X388099Y481752D01*
X388081Y481754D01*
X387900Y481732D01*
X387716Y481713D01*
X387699Y481707D01*
X387682Y481705D01*
X387508Y481648D01*
X387332Y481593D01*
X387316Y481584D01*
X387299Y481579D01*
X387140Y481488D01*
X386979Y481399D01*
X386965Y481388D01*
X386950Y481379D01*
X386811Y481259D01*
X386671Y481140D01*
X386660Y481126D01*
X386646Y481115D01*
X386534Y480969D01*
X386420Y480826D01*
X386412Y480810D01*
X386401Y480795D01*
X386249Y480500D01*
X386200Y480382D01*
X385477Y479300D01*
X384637Y478460D01*
X380669Y488042D01*
G37*
%LPD*%
%LPC*%
G36*
X456293Y552118D02*
X456293Y552118D01*
X456292Y552118D01*
X456292Y552119D01*
X446710Y556087D01*
X447550Y556927D01*
X448632Y557650D01*
X448750Y557699D01*
X448766Y557707D01*
X448783Y557713D01*
X448943Y557802D01*
X449105Y557889D01*
X449119Y557901D01*
X449135Y557909D01*
X449274Y558029D01*
X449415Y558146D01*
X449427Y558159D01*
X449440Y558171D01*
X449554Y558316D01*
X449669Y558458D01*
X449678Y558474D01*
X449689Y558488D01*
X449771Y558652D01*
X449856Y558815D01*
X449861Y558832D01*
X449869Y558848D01*
X449918Y559025D01*
X449969Y559201D01*
X449971Y559219D01*
X449976Y559236D01*
X449988Y559420D01*
X450004Y559602D01*
X450002Y559620D01*
X450003Y559638D01*
X449980Y559819D01*
X449959Y560002D01*
X449953Y560019D01*
X449951Y560037D01*
X449850Y560353D01*
X449104Y562154D01*
X449104Y565067D01*
X450218Y567759D01*
X452278Y569818D01*
X453279Y570233D01*
X453295Y570241D01*
X453312Y570247D01*
X453472Y570336D01*
X453634Y570423D01*
X453647Y570434D01*
X453663Y570443D01*
X453802Y570563D01*
X453944Y570679D01*
X453955Y570693D01*
X453969Y570705D01*
X454082Y570850D01*
X454198Y570992D01*
X454206Y571008D01*
X454217Y571022D01*
X454300Y571187D01*
X454385Y571349D01*
X454390Y571366D01*
X454398Y571382D01*
X454446Y571559D01*
X454498Y571735D01*
X454499Y571753D01*
X454504Y571770D01*
X454517Y571953D01*
X454533Y572136D01*
X454531Y572154D01*
X454532Y572172D01*
X454508Y572354D01*
X454487Y572536D01*
X454482Y572553D01*
X454480Y572571D01*
X454378Y572887D01*
X453964Y573887D01*
X453964Y576800D01*
X455078Y579492D01*
X457138Y581552D01*
X459830Y582667D01*
X462743Y582667D01*
X473332Y578281D01*
X475392Y576221D01*
X476506Y573529D01*
X476506Y570616D01*
X475392Y567925D01*
X473332Y565865D01*
X472331Y565450D01*
X472316Y565442D01*
X472299Y565436D01*
X472138Y565347D01*
X471976Y565260D01*
X471963Y565249D01*
X471947Y565240D01*
X471808Y565121D01*
X471666Y565004D01*
X471655Y564990D01*
X471641Y564978D01*
X471528Y564833D01*
X471412Y564691D01*
X471404Y564675D01*
X471393Y564661D01*
X471310Y564496D01*
X471225Y564335D01*
X471220Y564318D01*
X471212Y564302D01*
X471164Y564124D01*
X471112Y563948D01*
X471111Y563930D01*
X471106Y563913D01*
X471093Y563730D01*
X471078Y563547D01*
X471080Y563529D01*
X471078Y563512D01*
X471102Y563329D01*
X471123Y563147D01*
X471128Y563130D01*
X471130Y563112D01*
X471232Y562796D01*
X471646Y561796D01*
X471646Y558883D01*
X470532Y556191D01*
X468472Y554132D01*
X466671Y553386D01*
X466655Y553377D01*
X466638Y553372D01*
X466476Y553281D01*
X466316Y553195D01*
X466302Y553184D01*
X466286Y553175D01*
X466146Y553055D01*
X466005Y552939D01*
X465994Y552925D01*
X465981Y552913D01*
X465867Y552769D01*
X465752Y552626D01*
X465743Y552610D01*
X465732Y552596D01*
X465650Y552432D01*
X465565Y552270D01*
X465560Y552253D01*
X465552Y552237D01*
X465503Y552060D01*
X465452Y551883D01*
X465450Y551866D01*
X465445Y551848D01*
X465433Y551665D01*
X465417Y551482D01*
X465419Y551464D01*
X465418Y551447D01*
X465442Y551264D01*
X465462Y551082D01*
X465468Y551065D01*
X465470Y551047D01*
X465571Y550732D01*
X465620Y550613D01*
X465874Y549337D01*
X465874Y548149D01*
X456293Y552118D01*
G37*
%LPD*%
%LPC*%
G36*
X328743Y686903D02*
X328743Y686903D01*
X326052Y688018D01*
X323992Y690078D01*
X322877Y692769D01*
X322877Y704231D01*
X323992Y706922D01*
X326052Y708982D01*
X328743Y710097D01*
X331657Y710097D01*
X334348Y708982D01*
X335114Y708216D01*
X335127Y708205D01*
X335139Y708191D01*
X335283Y708078D01*
X335425Y707961D01*
X335441Y707953D01*
X335455Y707942D01*
X335619Y707859D01*
X335781Y707773D01*
X335798Y707767D01*
X335814Y707759D01*
X335991Y707710D01*
X336167Y707658D01*
X336185Y707656D01*
X336202Y707651D01*
X336385Y707638D01*
X336568Y707621D01*
X336586Y707623D01*
X336603Y707622D01*
X336785Y707645D01*
X336968Y707665D01*
X336985Y707670D01*
X337003Y707672D01*
X337176Y707731D01*
X337352Y707786D01*
X337368Y707795D01*
X337384Y707801D01*
X337543Y707892D01*
X337704Y707981D01*
X337718Y707993D01*
X337733Y708002D01*
X337986Y708216D01*
X338752Y708982D01*
X341443Y710097D01*
X344357Y710097D01*
X347048Y708982D01*
X348426Y707603D01*
X348440Y707592D01*
X348452Y707578D01*
X348595Y707465D01*
X348738Y707348D01*
X348754Y707340D01*
X348768Y707329D01*
X348931Y707246D01*
X349094Y707160D01*
X349111Y707155D01*
X349127Y707147D01*
X349303Y707098D01*
X349479Y707045D01*
X349497Y707043D01*
X349515Y707039D01*
X349696Y707025D01*
X349880Y707009D01*
X349898Y707011D01*
X349916Y707009D01*
X350097Y707032D01*
X350281Y707052D01*
X350298Y707057D01*
X350316Y707060D01*
X350490Y707118D01*
X350665Y707174D01*
X350680Y707182D01*
X350697Y707188D01*
X350856Y707279D01*
X351017Y707368D01*
X351031Y707380D01*
X351046Y707389D01*
X351299Y707604D01*
X351390Y707694D01*
X352472Y708417D01*
X353569Y708871D01*
X353569Y698500D01*
X353569Y688129D01*
X352472Y688583D01*
X351390Y689306D01*
X351299Y689396D01*
X351285Y689408D01*
X351274Y689421D01*
X351129Y689535D01*
X350988Y689652D01*
X350972Y689660D01*
X350958Y689671D01*
X350795Y689754D01*
X350632Y689840D01*
X350615Y689845D01*
X350599Y689853D01*
X350422Y689903D01*
X350246Y689955D01*
X350228Y689957D01*
X350211Y689961D01*
X350028Y689975D01*
X349845Y689991D01*
X349827Y689989D01*
X349809Y689991D01*
X349626Y689968D01*
X349445Y689948D01*
X349428Y689943D01*
X349410Y689940D01*
X349235Y689882D01*
X349061Y689827D01*
X349045Y689818D01*
X349028Y689812D01*
X348870Y689721D01*
X348709Y689632D01*
X348695Y689620D01*
X348679Y689611D01*
X348426Y689397D01*
X347048Y688018D01*
X344357Y686903D01*
X341443Y686903D01*
X338752Y688018D01*
X337986Y688784D01*
X337972Y688795D01*
X337961Y688809D01*
X337817Y688922D01*
X337675Y689039D01*
X337659Y689047D01*
X337645Y689058D01*
X337481Y689141D01*
X337319Y689227D01*
X337302Y689233D01*
X337286Y689241D01*
X337109Y689290D01*
X336933Y689342D01*
X336915Y689344D01*
X336898Y689349D01*
X336715Y689362D01*
X336532Y689379D01*
X336514Y689377D01*
X336497Y689378D01*
X336315Y689355D01*
X336132Y689335D01*
X336115Y689330D01*
X336097Y689328D01*
X335924Y689270D01*
X335748Y689214D01*
X335732Y689205D01*
X335716Y689199D01*
X335557Y689108D01*
X335396Y689019D01*
X335382Y689007D01*
X335367Y688998D01*
X335114Y688784D01*
X334348Y688018D01*
X331657Y686903D01*
X328743Y686903D01*
G37*
%LPD*%
%LPC*%
G36*
X223057Y636533D02*
X223057Y636533D01*
X212468Y640919D01*
X210408Y642979D01*
X209294Y645671D01*
X209294Y648584D01*
X210408Y651275D01*
X212468Y653335D01*
X213469Y653750D01*
X213484Y653758D01*
X213501Y653763D01*
X213662Y653853D01*
X213824Y653940D01*
X213837Y653951D01*
X213853Y653960D01*
X213993Y654079D01*
X214134Y654196D01*
X214145Y654210D01*
X214159Y654222D01*
X214272Y654366D01*
X214388Y654509D01*
X214396Y654525D01*
X214407Y654539D01*
X214489Y654702D01*
X214575Y654865D01*
X214580Y654883D01*
X214588Y654898D01*
X214636Y655075D01*
X214688Y655252D01*
X214689Y655270D01*
X214694Y655287D01*
X214707Y655470D01*
X214722Y655653D01*
X214720Y655671D01*
X214722Y655688D01*
X214698Y655870D01*
X214677Y656053D01*
X214672Y656070D01*
X214670Y656088D01*
X214568Y656404D01*
X214154Y657404D01*
X214154Y660317D01*
X215268Y663009D01*
X217328Y665068D01*
X219129Y665814D01*
X219145Y665823D01*
X219162Y665828D01*
X219322Y665918D01*
X219484Y666005D01*
X219498Y666016D01*
X219514Y666025D01*
X219653Y666144D01*
X219795Y666261D01*
X219806Y666275D01*
X219819Y666287D01*
X219932Y666431D01*
X220048Y666574D01*
X220057Y666590D01*
X220068Y666604D01*
X220150Y666767D01*
X220235Y666930D01*
X220240Y666947D01*
X220248Y666963D01*
X220297Y667141D01*
X220348Y667317D01*
X220350Y667334D01*
X220355Y667352D01*
X220367Y667535D01*
X220383Y667718D01*
X220381Y667736D01*
X220382Y667753D01*
X220359Y667934D01*
X220338Y668118D01*
X220332Y668135D01*
X220330Y668153D01*
X220229Y668468D01*
X220180Y668587D01*
X219926Y669863D01*
X219926Y671050D01*
X229507Y667082D01*
X229508Y667082D01*
X229508Y667081D01*
X239090Y663112D01*
X238250Y662273D01*
X237168Y661550D01*
X237050Y661501D01*
X237034Y661492D01*
X237017Y661487D01*
X236857Y661398D01*
X236695Y661311D01*
X236681Y661299D01*
X236665Y661291D01*
X236526Y661171D01*
X236384Y661054D01*
X236373Y661040D01*
X236360Y661029D01*
X236247Y660884D01*
X236131Y660742D01*
X236122Y660726D01*
X236111Y660712D01*
X236029Y660548D01*
X235944Y660385D01*
X235939Y660368D01*
X235931Y660352D01*
X235882Y660175D01*
X235831Y659999D01*
X235829Y659981D01*
X235824Y659964D01*
X235812Y659780D01*
X235796Y659598D01*
X235798Y659580D01*
X235797Y659562D01*
X235821Y659380D01*
X235841Y659197D01*
X235847Y659181D01*
X235849Y659163D01*
X235950Y658847D01*
X236696Y657046D01*
X236696Y654133D01*
X235582Y651441D01*
X233522Y649382D01*
X232521Y648967D01*
X232505Y648959D01*
X232488Y648953D01*
X232328Y648864D01*
X232166Y648777D01*
X232153Y648766D01*
X232137Y648757D01*
X231997Y648637D01*
X231856Y648521D01*
X231845Y648507D01*
X231831Y648495D01*
X231718Y648350D01*
X231602Y648208D01*
X231594Y648192D01*
X231583Y648178D01*
X231501Y648014D01*
X231415Y647851D01*
X231410Y647834D01*
X231402Y647818D01*
X231354Y647641D01*
X231302Y647465D01*
X231301Y647447D01*
X231296Y647430D01*
X231283Y647247D01*
X231267Y647064D01*
X231269Y647046D01*
X231268Y647028D01*
X231292Y646846D01*
X231313Y646664D01*
X231318Y646647D01*
X231320Y646629D01*
X231422Y646313D01*
X231836Y645313D01*
X231836Y642400D01*
X230722Y639708D01*
X228662Y637648D01*
X225970Y636533D01*
X223057Y636533D01*
G37*
%LPD*%
%LPC*%
G36*
X395573Y714250D02*
X395573Y714250D01*
X394850Y715332D01*
X394801Y715450D01*
X394793Y715466D01*
X394787Y715483D01*
X394698Y715643D01*
X394611Y715805D01*
X394599Y715819D01*
X394591Y715835D01*
X394471Y715974D01*
X394354Y716115D01*
X394341Y716127D01*
X394329Y716140D01*
X394184Y716254D01*
X394042Y716369D01*
X394026Y716378D01*
X394012Y716389D01*
X393848Y716471D01*
X393685Y716556D01*
X393668Y716561D01*
X393652Y716569D01*
X393475Y716618D01*
X393299Y716669D01*
X393281Y716671D01*
X393264Y716676D01*
X393081Y716688D01*
X392898Y716704D01*
X392880Y716702D01*
X392862Y716703D01*
X392680Y716679D01*
X392498Y716659D01*
X392481Y716653D01*
X392463Y716651D01*
X392147Y716550D01*
X390346Y715804D01*
X387433Y715804D01*
X384741Y716918D01*
X382682Y718978D01*
X382267Y719979D01*
X382259Y719995D01*
X382253Y720011D01*
X382164Y720171D01*
X382077Y720334D01*
X382066Y720347D01*
X382057Y720363D01*
X381938Y720502D01*
X381821Y720644D01*
X381807Y720655D01*
X381795Y720669D01*
X381650Y720782D01*
X381508Y720898D01*
X381492Y720906D01*
X381478Y720917D01*
X381314Y721000D01*
X381151Y721085D01*
X381134Y721090D01*
X381118Y721098D01*
X380941Y721146D01*
X380765Y721198D01*
X380747Y721199D01*
X380730Y721204D01*
X380546Y721217D01*
X380364Y721232D01*
X380346Y721230D01*
X380328Y721232D01*
X380145Y721208D01*
X379964Y721187D01*
X379947Y721182D01*
X379929Y721180D01*
X379613Y721078D01*
X378613Y720664D01*
X375700Y720664D01*
X373008Y721778D01*
X370948Y723838D01*
X369833Y726530D01*
X369833Y729443D01*
X374219Y740032D01*
X376279Y742092D01*
X378971Y743206D01*
X381884Y743206D01*
X384575Y742092D01*
X386635Y740032D01*
X387050Y739031D01*
X387058Y739015D01*
X387064Y738999D01*
X387153Y738839D01*
X387240Y738676D01*
X387251Y738663D01*
X387260Y738647D01*
X387379Y738508D01*
X387496Y738366D01*
X387510Y738355D01*
X387522Y738341D01*
X387666Y738228D01*
X387809Y738112D01*
X387825Y738104D01*
X387839Y738093D01*
X388003Y738011D01*
X388165Y737925D01*
X388182Y737920D01*
X388198Y737912D01*
X388376Y737864D01*
X388552Y737812D01*
X388570Y737811D01*
X388587Y737806D01*
X388771Y737793D01*
X388953Y737778D01*
X388971Y737780D01*
X388988Y737778D01*
X389172Y737802D01*
X389353Y737823D01*
X389370Y737828D01*
X389388Y737830D01*
X389704Y737932D01*
X390704Y738346D01*
X393617Y738346D01*
X396309Y737232D01*
X398368Y735172D01*
X399114Y733371D01*
X399123Y733355D01*
X399128Y733338D01*
X399218Y733177D01*
X399305Y733016D01*
X399316Y733002D01*
X399325Y732986D01*
X399444Y732847D01*
X399561Y732705D01*
X399575Y732694D01*
X399587Y732680D01*
X399731Y732567D01*
X399874Y732452D01*
X399890Y732443D01*
X399904Y732432D01*
X400067Y732350D01*
X400230Y732265D01*
X400248Y732260D01*
X400263Y732252D01*
X400440Y732203D01*
X400617Y732152D01*
X400634Y732150D01*
X400652Y732145D01*
X400835Y732133D01*
X401018Y732117D01*
X401036Y732119D01*
X401053Y732118D01*
X401236Y732142D01*
X401418Y732162D01*
X401435Y732167D01*
X401453Y732170D01*
X401769Y732271D01*
X401887Y732320D01*
X403163Y732574D01*
X404351Y732574D01*
X400382Y722993D01*
X400382Y722992D01*
X400381Y722992D01*
X396413Y713410D01*
X395573Y714250D01*
G37*
%LPD*%
%LPC*%
G36*
X303916Y475994D02*
X303916Y475994D01*
X301225Y477108D01*
X299165Y479168D01*
X298750Y480169D01*
X298743Y480183D01*
X298738Y480198D01*
X298737Y480201D01*
X298647Y480361D01*
X298560Y480524D01*
X298549Y480537D01*
X298540Y480553D01*
X298421Y480692D01*
X298304Y480834D01*
X298290Y480845D01*
X298278Y480859D01*
X298134Y480972D01*
X297991Y481088D01*
X297975Y481096D01*
X297961Y481107D01*
X297797Y481189D01*
X297635Y481275D01*
X297618Y481280D01*
X297602Y481288D01*
X297424Y481336D01*
X297248Y481388D01*
X297230Y481389D01*
X297213Y481394D01*
X297030Y481407D01*
X296847Y481422D01*
X296829Y481420D01*
X296812Y481422D01*
X296629Y481398D01*
X296447Y481377D01*
X296430Y481372D01*
X296412Y481370D01*
X296096Y481268D01*
X295096Y480854D01*
X292183Y480854D01*
X289491Y481968D01*
X287432Y484028D01*
X286686Y485829D01*
X286677Y485845D01*
X286672Y485862D01*
X286582Y486023D01*
X286495Y486184D01*
X286484Y486198D01*
X286475Y486214D01*
X286356Y486353D01*
X286239Y486495D01*
X286225Y486506D01*
X286213Y486520D01*
X286069Y486633D01*
X285926Y486748D01*
X285910Y486757D01*
X285896Y486768D01*
X285732Y486850D01*
X285570Y486935D01*
X285553Y486940D01*
X285537Y486948D01*
X285359Y486997D01*
X285183Y487048D01*
X285166Y487050D01*
X285148Y487055D01*
X284965Y487067D01*
X284782Y487083D01*
X284764Y487081D01*
X284747Y487082D01*
X284564Y487058D01*
X284382Y487038D01*
X284365Y487032D01*
X284347Y487030D01*
X284031Y486929D01*
X283913Y486880D01*
X282637Y486626D01*
X281450Y486626D01*
X285418Y496207D01*
X285418Y496208D01*
X285419Y496208D01*
X289387Y505790D01*
X290227Y504950D01*
X290950Y503868D01*
X290999Y503750D01*
X291007Y503734D01*
X291013Y503717D01*
X291102Y503557D01*
X291189Y503395D01*
X291201Y503381D01*
X291209Y503365D01*
X291328Y503226D01*
X291446Y503085D01*
X291459Y503073D01*
X291471Y503060D01*
X291616Y502947D01*
X291758Y502831D01*
X291774Y502822D01*
X291788Y502811D01*
X291952Y502729D01*
X292115Y502644D01*
X292132Y502639D01*
X292148Y502631D01*
X292325Y502582D01*
X292501Y502531D01*
X292519Y502529D01*
X292536Y502524D01*
X292720Y502512D01*
X292902Y502496D01*
X292920Y502498D01*
X292938Y502497D01*
X293120Y502521D01*
X293302Y502541D01*
X293319Y502547D01*
X293337Y502549D01*
X293653Y502650D01*
X295454Y503396D01*
X298367Y503396D01*
X301059Y502282D01*
X303118Y500222D01*
X303533Y499221D01*
X303541Y499205D01*
X303547Y499188D01*
X303636Y499029D01*
X303723Y498866D01*
X303734Y498852D01*
X303743Y498837D01*
X303862Y498698D01*
X303979Y498556D01*
X303993Y498545D01*
X304005Y498531D01*
X304149Y498418D01*
X304292Y498302D01*
X304308Y498294D01*
X304322Y498283D01*
X304486Y498200D01*
X304649Y498115D01*
X304666Y498110D01*
X304682Y498102D01*
X304859Y498054D01*
X305035Y498002D01*
X305053Y498001D01*
X305070Y497996D01*
X305253Y497983D01*
X305436Y497967D01*
X305454Y497969D01*
X305472Y497968D01*
X305654Y497992D01*
X305836Y498013D01*
X305853Y498018D01*
X305871Y498020D01*
X306187Y498122D01*
X307187Y498536D01*
X310100Y498536D01*
X312792Y497422D01*
X314852Y495362D01*
X315967Y492670D01*
X315967Y489757D01*
X311581Y479168D01*
X309521Y477108D01*
X306829Y475994D01*
X303916Y475994D01*
G37*
%LPD*%
%LPC*%
G36*
X454876Y644587D02*
X454876Y644587D01*
X455130Y645863D01*
X455179Y645981D01*
X455184Y645999D01*
X455192Y646015D01*
X455242Y646191D01*
X455295Y646367D01*
X455297Y646385D01*
X455302Y646402D01*
X455316Y646585D01*
X455333Y646768D01*
X455331Y646785D01*
X455333Y646803D01*
X455311Y646986D01*
X455292Y647168D01*
X455286Y647185D01*
X455284Y647203D01*
X455226Y647378D01*
X455172Y647552D01*
X455163Y647568D01*
X455158Y647585D01*
X455067Y647745D01*
X454979Y647906D01*
X454967Y647919D01*
X454958Y647935D01*
X454837Y648073D01*
X454719Y648214D01*
X454705Y648225D01*
X454694Y648239D01*
X454549Y648350D01*
X454405Y648465D01*
X454389Y648473D01*
X454375Y648484D01*
X454079Y648636D01*
X452278Y649382D01*
X450218Y651441D01*
X449104Y654133D01*
X449104Y657046D01*
X449518Y658046D01*
X449523Y658063D01*
X449531Y658079D01*
X449581Y658256D01*
X449634Y658432D01*
X449636Y658450D01*
X449641Y658467D01*
X449655Y658650D01*
X449673Y658833D01*
X449671Y658850D01*
X449672Y658868D01*
X449650Y659051D01*
X449631Y659233D01*
X449626Y659250D01*
X449624Y659268D01*
X449566Y659443D01*
X449511Y659617D01*
X449503Y659633D01*
X449497Y659650D01*
X449406Y659810D01*
X449318Y659971D01*
X449306Y659984D01*
X449298Y660000D01*
X449177Y660138D01*
X449059Y660279D01*
X449045Y660290D01*
X449033Y660303D01*
X448887Y660415D01*
X448744Y660530D01*
X448728Y660538D01*
X448714Y660549D01*
X448419Y660700D01*
X447418Y661115D01*
X445358Y663175D01*
X444244Y665866D01*
X444244Y668779D01*
X445358Y671471D01*
X447418Y673531D01*
X458007Y677917D01*
X460920Y677917D01*
X463612Y676802D01*
X465672Y674742D01*
X466786Y672050D01*
X466786Y669137D01*
X466372Y668137D01*
X466367Y668120D01*
X466359Y668104D01*
X466308Y667927D01*
X466255Y667751D01*
X466254Y667734D01*
X466249Y667716D01*
X466235Y667533D01*
X466217Y667351D01*
X466219Y667333D01*
X466218Y667315D01*
X466240Y667133D01*
X466259Y666950D01*
X466264Y666933D01*
X466266Y666915D01*
X466325Y666740D01*
X466379Y666566D01*
X466387Y666550D01*
X466393Y666533D01*
X466484Y666373D01*
X466572Y666213D01*
X466584Y666199D01*
X466592Y666183D01*
X466713Y666045D01*
X466831Y665904D01*
X466845Y665893D01*
X466857Y665880D01*
X467003Y665768D01*
X467146Y665654D01*
X467162Y665645D01*
X467176Y665634D01*
X467471Y665483D01*
X468472Y665068D01*
X470532Y663009D01*
X471646Y660317D01*
X471646Y657404D01*
X470900Y655603D01*
X470895Y655586D01*
X470887Y655570D01*
X470837Y655393D01*
X470784Y655218D01*
X470782Y655200D01*
X470777Y655183D01*
X470763Y654999D01*
X470746Y654817D01*
X470748Y654799D01*
X470746Y654781D01*
X470768Y654600D01*
X470787Y654416D01*
X470793Y654399D01*
X470795Y654382D01*
X470852Y654208D01*
X470907Y654032D01*
X470916Y654016D01*
X470921Y653999D01*
X471012Y653840D01*
X471101Y653679D01*
X471112Y653665D01*
X471121Y653650D01*
X471241Y653511D01*
X471360Y653371D01*
X471374Y653360D01*
X471385Y653346D01*
X471532Y653233D01*
X471674Y653120D01*
X471690Y653112D01*
X471705Y653101D01*
X472000Y652949D01*
X472118Y652900D01*
X473200Y652177D01*
X474040Y651337D01*
X470440Y649846D01*
X465536Y647815D01*
X464458Y647369D01*
X464458Y647368D01*
X464457Y647368D01*
X454876Y643399D01*
X454876Y644587D01*
G37*
%LPD*%
%LPC*%
G36*
X224880Y541283D02*
X224880Y541283D01*
X222188Y542398D01*
X220128Y544458D01*
X219014Y547150D01*
X219014Y550063D01*
X219428Y551063D01*
X219433Y551080D01*
X219441Y551096D01*
X219491Y551272D01*
X219545Y551449D01*
X219546Y551466D01*
X219551Y551484D01*
X219565Y551667D01*
X219583Y551849D01*
X219581Y551867D01*
X219582Y551885D01*
X219560Y552066D01*
X219541Y552250D01*
X219536Y552267D01*
X219534Y552285D01*
X219476Y552457D01*
X219421Y552634D01*
X219413Y552650D01*
X219407Y552667D01*
X219317Y552826D01*
X219228Y552987D01*
X219216Y553001D01*
X219208Y553017D01*
X219087Y553155D01*
X218969Y553296D01*
X218955Y553307D01*
X218943Y553320D01*
X218797Y553432D01*
X218654Y553546D01*
X218638Y553555D01*
X218624Y553566D01*
X218329Y553717D01*
X217328Y554132D01*
X215268Y556191D01*
X214154Y558883D01*
X214154Y561796D01*
X214900Y563597D01*
X214905Y563614D01*
X214913Y563630D01*
X214963Y563807D01*
X215016Y563982D01*
X215018Y564000D01*
X215023Y564017D01*
X215037Y564201D01*
X215054Y564383D01*
X215052Y564401D01*
X215054Y564419D01*
X215032Y564601D01*
X215013Y564784D01*
X215007Y564801D01*
X215005Y564819D01*
X214947Y564993D01*
X214893Y565168D01*
X214884Y565184D01*
X214879Y565201D01*
X214788Y565360D01*
X214699Y565521D01*
X214688Y565535D01*
X214679Y565550D01*
X214558Y565689D01*
X214440Y565829D01*
X214426Y565840D01*
X214415Y565854D01*
X214269Y565966D01*
X214126Y566080D01*
X214110Y566088D01*
X214095Y566099D01*
X213800Y566251D01*
X213682Y566300D01*
X212600Y567023D01*
X211760Y567863D01*
X221342Y571831D01*
X221342Y571832D01*
X221343Y571832D01*
X230924Y575800D01*
X230924Y574613D01*
X230670Y573337D01*
X230621Y573219D01*
X230616Y573201D01*
X230608Y573185D01*
X230558Y573009D01*
X230505Y572833D01*
X230503Y572815D01*
X230498Y572798D01*
X230484Y572616D01*
X230467Y572432D01*
X230469Y572414D01*
X230467Y572397D01*
X230489Y572215D01*
X230508Y572032D01*
X230514Y572015D01*
X230516Y571997D01*
X230574Y571823D01*
X230628Y571647D01*
X230637Y571632D01*
X230642Y571615D01*
X230733Y571455D01*
X230821Y571294D01*
X230833Y571281D01*
X230842Y571265D01*
X230963Y571126D01*
X231081Y570986D01*
X231095Y570975D01*
X231106Y570961D01*
X231252Y570850D01*
X231395Y570735D01*
X231411Y570727D01*
X231426Y570716D01*
X231721Y570564D01*
X233522Y569818D01*
X235582Y567759D01*
X236696Y565067D01*
X236696Y562154D01*
X236282Y561154D01*
X236277Y561136D01*
X236269Y561121D01*
X236219Y560945D01*
X236166Y560768D01*
X236164Y560750D01*
X236159Y560733D01*
X236145Y560550D01*
X236127Y560367D01*
X236129Y560350D01*
X236128Y560332D01*
X236150Y560150D01*
X236169Y559967D01*
X236174Y559950D01*
X236177Y559932D01*
X236234Y559759D01*
X236289Y559583D01*
X236297Y559567D01*
X236303Y559550D01*
X236394Y559391D01*
X236482Y559229D01*
X236494Y559216D01*
X236502Y559200D01*
X236623Y559062D01*
X236741Y558921D01*
X236755Y558910D01*
X236767Y558897D01*
X236913Y558784D01*
X237056Y558670D01*
X237072Y558662D01*
X237086Y558651D01*
X237381Y558500D01*
X238382Y558085D01*
X240442Y556025D01*
X241556Y553334D01*
X241556Y550421D01*
X240442Y547729D01*
X238382Y545669D01*
X227793Y541283D01*
X224880Y541283D01*
G37*
%LPD*%
%LPC*%
G36*
X415297Y640802D02*
X415297Y640802D01*
X415382Y642100D01*
X415416Y642224D01*
X415419Y642242D01*
X415425Y642259D01*
X415451Y642440D01*
X415481Y642622D01*
X415480Y642640D01*
X415483Y642657D01*
X415473Y642841D01*
X415466Y643024D01*
X415462Y643041D01*
X415461Y643059D01*
X415415Y643237D01*
X415373Y643416D01*
X415365Y643432D01*
X415361Y643449D01*
X415281Y643614D01*
X415204Y643781D01*
X415193Y643796D01*
X415185Y643812D01*
X415074Y643958D01*
X414966Y644106D01*
X414953Y644118D01*
X414942Y644132D01*
X414804Y644254D01*
X414669Y644378D01*
X414654Y644387D01*
X414640Y644399D01*
X414481Y644491D01*
X414324Y644585D01*
X414307Y644591D01*
X414292Y644600D01*
X413979Y644712D01*
X412096Y645217D01*
X409785Y646990D01*
X408329Y649513D01*
X407948Y652401D01*
X408229Y653447D01*
X408232Y653465D01*
X408238Y653482D01*
X408264Y653663D01*
X408294Y653845D01*
X408293Y653862D01*
X408296Y653880D01*
X408286Y654064D01*
X408279Y654247D01*
X408275Y654264D01*
X408274Y654282D01*
X408228Y654461D01*
X408186Y654639D01*
X408178Y654655D01*
X408174Y654672D01*
X408094Y654838D01*
X408017Y655004D01*
X408006Y655018D01*
X407998Y655034D01*
X407887Y655181D01*
X407779Y655329D01*
X407766Y655341D01*
X407755Y655355D01*
X407618Y655476D01*
X407482Y655601D01*
X407467Y655610D01*
X407453Y655622D01*
X407295Y655713D01*
X407137Y655808D01*
X407120Y655814D01*
X407105Y655823D01*
X406792Y655935D01*
X405746Y656215D01*
X403435Y657989D01*
X401979Y660512D01*
X401598Y663400D01*
X402352Y666214D01*
X404126Y668525D01*
X414051Y674255D01*
X416940Y674636D01*
X419754Y673882D01*
X422065Y672108D01*
X423521Y669585D01*
X423902Y666697D01*
X423621Y665651D01*
X423618Y665634D01*
X423612Y665617D01*
X423586Y665435D01*
X423556Y665254D01*
X423557Y665236D01*
X423554Y665218D01*
X423564Y665035D01*
X423571Y664852D01*
X423575Y664834D01*
X423576Y664816D01*
X423622Y664638D01*
X423664Y664460D01*
X423672Y664444D01*
X423676Y664426D01*
X423756Y664261D01*
X423833Y664095D01*
X423844Y664080D01*
X423852Y664064D01*
X423963Y663917D01*
X424071Y663770D01*
X424084Y663758D01*
X424095Y663743D01*
X424232Y663622D01*
X424368Y663498D01*
X424383Y663489D01*
X424397Y663477D01*
X424555Y663385D01*
X424713Y663290D01*
X424730Y663284D01*
X424745Y663275D01*
X425058Y663163D01*
X426104Y662883D01*
X428415Y661110D01*
X429871Y658587D01*
X430252Y655699D01*
X429747Y653816D01*
X429744Y653798D01*
X429738Y653781D01*
X429712Y653599D01*
X429682Y653418D01*
X429683Y653401D01*
X429680Y653383D01*
X429690Y653199D01*
X429696Y653016D01*
X429701Y652999D01*
X429701Y652981D01*
X429748Y652802D01*
X429790Y652624D01*
X429797Y652608D01*
X429802Y652591D01*
X429882Y652425D01*
X429959Y652259D01*
X429969Y652245D01*
X429977Y652229D01*
X430089Y652081D01*
X430197Y651934D01*
X430210Y651922D01*
X430221Y651908D01*
X430359Y651786D01*
X430494Y651662D01*
X430509Y651653D01*
X430523Y651641D01*
X430681Y651549D01*
X430839Y651455D01*
X430855Y651449D01*
X430871Y651440D01*
X431183Y651328D01*
X431307Y651295D01*
X432474Y650719D01*
X433416Y649996D01*
X424435Y644811D01*
X424434Y644811D01*
X415452Y639625D01*
X415297Y640802D01*
G37*
%LPD*%
%LPC*%
G36*
X283721Y710944D02*
X283721Y710944D01*
X281029Y712058D01*
X278969Y714118D01*
X274583Y724707D01*
X274583Y727620D01*
X275698Y730312D01*
X277758Y732372D01*
X280347Y733444D01*
X280450Y733486D01*
X283363Y733486D01*
X284363Y733072D01*
X284380Y733067D01*
X284396Y733059D01*
X284573Y733009D01*
X284749Y732955D01*
X284766Y732954D01*
X284784Y732949D01*
X284967Y732935D01*
X285149Y732917D01*
X285167Y732919D01*
X285185Y732918D01*
X285367Y732940D01*
X285550Y732959D01*
X285567Y732964D01*
X285585Y732966D01*
X285758Y733024D01*
X285934Y733079D01*
X285950Y733087D01*
X285967Y733093D01*
X286126Y733184D01*
X286287Y733272D01*
X286301Y733283D01*
X286317Y733292D01*
X286455Y733413D01*
X286596Y733531D01*
X286607Y733545D01*
X286620Y733557D01*
X286732Y733702D01*
X286846Y733846D01*
X286855Y733862D01*
X286866Y733876D01*
X287017Y734171D01*
X287432Y735172D01*
X289491Y737232D01*
X292183Y738346D01*
X295096Y738346D01*
X296897Y737600D01*
X296914Y737595D01*
X296930Y737587D01*
X297107Y737537D01*
X297282Y737484D01*
X297300Y737482D01*
X297317Y737477D01*
X297501Y737463D01*
X297683Y737446D01*
X297701Y737448D01*
X297719Y737446D01*
X297901Y737468D01*
X298084Y737487D01*
X298101Y737493D01*
X298119Y737495D01*
X298293Y737553D01*
X298468Y737607D01*
X298484Y737616D01*
X298501Y737621D01*
X298660Y737712D01*
X298821Y737801D01*
X298835Y737812D01*
X298851Y737821D01*
X298989Y737942D01*
X299129Y738060D01*
X299141Y738074D01*
X299154Y738085D01*
X299266Y738231D01*
X299380Y738374D01*
X299389Y738391D01*
X299399Y738405D01*
X299551Y738700D01*
X299600Y738818D01*
X300323Y739900D01*
X301163Y740740D01*
X305131Y731158D01*
X305132Y731158D01*
X305132Y731157D01*
X309101Y721576D01*
X307913Y721576D01*
X306637Y721830D01*
X306518Y721879D01*
X306501Y721884D01*
X306485Y721892D01*
X306309Y721942D01*
X306133Y721995D01*
X306115Y721997D01*
X306098Y722002D01*
X305915Y722016D01*
X305732Y722033D01*
X305714Y722031D01*
X305697Y722033D01*
X305515Y722011D01*
X305332Y721992D01*
X305315Y721986D01*
X305297Y721984D01*
X305123Y721927D01*
X304947Y721872D01*
X304932Y721863D01*
X304915Y721858D01*
X304755Y721767D01*
X304594Y721679D01*
X304581Y721667D01*
X304565Y721658D01*
X304427Y721538D01*
X304286Y721419D01*
X304275Y721405D01*
X304261Y721394D01*
X304150Y721248D01*
X304035Y721105D01*
X304027Y721089D01*
X304016Y721074D01*
X303864Y720779D01*
X303118Y718978D01*
X301059Y716918D01*
X300960Y716878D01*
X298367Y715804D01*
X295454Y715804D01*
X294454Y716218D01*
X294436Y716223D01*
X294421Y716231D01*
X294244Y716281D01*
X294068Y716334D01*
X294050Y716336D01*
X294033Y716341D01*
X293850Y716355D01*
X293667Y716373D01*
X293650Y716371D01*
X293632Y716372D01*
X293450Y716350D01*
X293267Y716331D01*
X293250Y716326D01*
X293232Y716323D01*
X293059Y716266D01*
X292883Y716211D01*
X292867Y716203D01*
X292850Y716197D01*
X292691Y716106D01*
X292529Y716018D01*
X292516Y716006D01*
X292500Y715998D01*
X292362Y715877D01*
X292221Y715759D01*
X292210Y715745D01*
X292197Y715733D01*
X292085Y715588D01*
X291970Y715444D01*
X291962Y715428D01*
X291951Y715414D01*
X291800Y715119D01*
X291385Y714118D01*
X289325Y712058D01*
X286634Y710944D01*
X283721Y710944D01*
G37*
%LPD*%
%LPC*%
G36*
X261651Y633844D02*
X261651Y633844D01*
X251726Y639575D01*
X249952Y641886D01*
X249198Y644700D01*
X249579Y647588D01*
X251035Y650111D01*
X253346Y651885D01*
X254392Y652165D01*
X254409Y652171D01*
X254427Y652174D01*
X254597Y652242D01*
X254769Y652307D01*
X254784Y652317D01*
X254801Y652323D01*
X254954Y652423D01*
X255110Y652521D01*
X255123Y652533D01*
X255138Y652543D01*
X255269Y652671D01*
X255403Y652798D01*
X255413Y652812D01*
X255426Y652825D01*
X255529Y652977D01*
X255635Y653127D01*
X255642Y653143D01*
X255652Y653158D01*
X255723Y653327D01*
X255797Y653495D01*
X255801Y653513D01*
X255808Y653529D01*
X255844Y653708D01*
X255884Y653888D01*
X255884Y653906D01*
X255888Y653924D01*
X255888Y654106D01*
X255891Y654291D01*
X255888Y654308D01*
X255888Y654326D01*
X255829Y654653D01*
X255548Y655699D01*
X255929Y658587D01*
X257385Y661110D01*
X259696Y662883D01*
X261579Y663388D01*
X261596Y663394D01*
X261614Y663397D01*
X261784Y663465D01*
X261956Y663530D01*
X261971Y663539D01*
X261988Y663546D01*
X262142Y663646D01*
X262297Y663744D01*
X262310Y663756D01*
X262325Y663766D01*
X262457Y663895D01*
X262590Y664021D01*
X262600Y664035D01*
X262613Y664048D01*
X262716Y664199D01*
X262822Y664350D01*
X262829Y664366D01*
X262839Y664381D01*
X262910Y664550D01*
X262984Y664718D01*
X262988Y664735D01*
X262995Y664752D01*
X263031Y664932D01*
X263071Y665111D01*
X263071Y665129D01*
X263075Y665147D01*
X263075Y665329D01*
X263078Y665514D01*
X263075Y665531D01*
X263075Y665549D01*
X263016Y665876D01*
X262982Y665999D01*
X262897Y667298D01*
X263052Y668475D01*
X272034Y663289D01*
X272035Y663289D01*
X281016Y658103D01*
X280074Y657381D01*
X278907Y656805D01*
X278783Y656772D01*
X278767Y656766D01*
X278749Y656762D01*
X278578Y656694D01*
X278407Y656630D01*
X278392Y656620D01*
X278375Y656614D01*
X278221Y656513D01*
X278066Y656416D01*
X278053Y656404D01*
X278038Y656394D01*
X277907Y656266D01*
X277773Y656139D01*
X277763Y656125D01*
X277750Y656112D01*
X277647Y655960D01*
X277541Y655810D01*
X277534Y655794D01*
X277524Y655779D01*
X277453Y655610D01*
X277379Y655442D01*
X277375Y655424D01*
X277368Y655408D01*
X277332Y655228D01*
X277292Y655049D01*
X277292Y655031D01*
X277288Y655013D01*
X277288Y654831D01*
X277284Y654646D01*
X277288Y654628D01*
X277288Y654611D01*
X277347Y654284D01*
X277852Y652401D01*
X277471Y649513D01*
X276015Y646990D01*
X273704Y645217D01*
X272658Y644937D01*
X272641Y644930D01*
X272623Y644927D01*
X272453Y644859D01*
X272281Y644794D01*
X272266Y644785D01*
X272249Y644778D01*
X272096Y644678D01*
X271940Y644581D01*
X271927Y644568D01*
X271912Y644559D01*
X271781Y644430D01*
X271647Y644304D01*
X271637Y644289D01*
X271624Y644277D01*
X271521Y644125D01*
X271415Y643975D01*
X271408Y643958D01*
X271398Y643944D01*
X271327Y643774D01*
X271253Y643606D01*
X271249Y643589D01*
X271242Y643572D01*
X271206Y643393D01*
X271166Y643213D01*
X271166Y643195D01*
X271162Y643178D01*
X271162Y642995D01*
X271159Y642811D01*
X271162Y642793D01*
X271162Y642775D01*
X271221Y642449D01*
X271502Y641403D01*
X271121Y638514D01*
X269665Y635992D01*
X267354Y634218D01*
X264540Y633464D01*
X261651Y633844D01*
G37*
%LPD*%
%LPC*%
G36*
X413766Y555911D02*
X413766Y555911D01*
X413765Y555911D01*
X404784Y561096D01*
X405726Y561819D01*
X406892Y562395D01*
X407016Y562428D01*
X407033Y562434D01*
X407051Y562437D01*
X407221Y562505D01*
X407393Y562570D01*
X407408Y562580D01*
X407425Y562586D01*
X407579Y562687D01*
X407734Y562784D01*
X407747Y562796D01*
X407762Y562806D01*
X407894Y562935D01*
X408027Y563061D01*
X408037Y563075D01*
X408050Y563088D01*
X408153Y563240D01*
X408259Y563390D01*
X408266Y563406D01*
X408276Y563421D01*
X408347Y563590D01*
X408421Y563758D01*
X408425Y563776D01*
X408432Y563792D01*
X408469Y563972D01*
X408508Y564151D01*
X408508Y564169D01*
X408512Y564187D01*
X408512Y564370D01*
X408516Y564554D01*
X408512Y564571D01*
X408512Y564589D01*
X408453Y564916D01*
X407948Y566799D01*
X408329Y569687D01*
X409785Y572210D01*
X412096Y573983D01*
X413142Y574263D01*
X413159Y574270D01*
X413177Y574273D01*
X413347Y574341D01*
X413519Y574406D01*
X413534Y574415D01*
X413551Y574422D01*
X413704Y574521D01*
X413860Y574619D01*
X413873Y574632D01*
X413888Y574641D01*
X414018Y574769D01*
X414153Y574896D01*
X414163Y574911D01*
X414176Y574923D01*
X414278Y575075D01*
X414385Y575225D01*
X414392Y575242D01*
X414402Y575256D01*
X414473Y575426D01*
X414547Y575594D01*
X414551Y575611D01*
X414558Y575628D01*
X414594Y575808D01*
X414634Y575987D01*
X414634Y576005D01*
X414638Y576022D01*
X414638Y576204D01*
X414641Y576389D01*
X414638Y576407D01*
X414638Y576425D01*
X414579Y576751D01*
X414298Y577797D01*
X414679Y580685D01*
X416135Y583208D01*
X418446Y584982D01*
X421260Y585736D01*
X424149Y585355D01*
X434074Y579625D01*
X435848Y577314D01*
X436602Y574500D01*
X436221Y571612D01*
X434765Y569089D01*
X432454Y567315D01*
X431408Y567035D01*
X431391Y567029D01*
X431373Y567026D01*
X431203Y566958D01*
X431031Y566893D01*
X431016Y566883D01*
X430999Y566877D01*
X430846Y566777D01*
X430690Y566679D01*
X430677Y566667D01*
X430662Y566657D01*
X430532Y566529D01*
X430397Y566402D01*
X430387Y566388D01*
X430374Y566375D01*
X430272Y566224D01*
X430165Y566073D01*
X430158Y566057D01*
X430148Y566042D01*
X430077Y565872D01*
X430003Y565705D01*
X429999Y565687D01*
X429992Y565671D01*
X429956Y565491D01*
X429916Y565312D01*
X429916Y565294D01*
X429912Y565276D01*
X429912Y565093D01*
X429909Y564909D01*
X429912Y564892D01*
X429912Y564874D01*
X429971Y564547D01*
X430252Y563501D01*
X429871Y560613D01*
X428415Y558090D01*
X426104Y556317D01*
X424221Y555812D01*
X424204Y555806D01*
X424186Y555803D01*
X424016Y555735D01*
X423844Y555670D01*
X423829Y555660D01*
X423812Y555654D01*
X423658Y555554D01*
X423503Y555456D01*
X423490Y555444D01*
X423475Y555434D01*
X423344Y555306D01*
X423210Y555179D01*
X423200Y555165D01*
X423187Y555152D01*
X423084Y555000D01*
X422978Y554850D01*
X422971Y554834D01*
X422961Y554819D01*
X422890Y554650D01*
X422816Y554482D01*
X422812Y554465D01*
X422805Y554448D01*
X422769Y554268D01*
X422729Y554089D01*
X422729Y554071D01*
X422725Y554053D01*
X422725Y553870D01*
X422722Y553686D01*
X422725Y553669D01*
X422725Y553651D01*
X422784Y553324D01*
X422818Y553201D01*
X422903Y551902D01*
X422748Y550725D01*
X413766Y555911D01*
G37*
%LPD*%
%LPC*%
G36*
X266046Y545318D02*
X266046Y545318D01*
X263735Y547092D01*
X262279Y549615D01*
X261898Y552503D01*
X262179Y553549D01*
X262182Y553566D01*
X262188Y553583D01*
X262214Y553765D01*
X262244Y553946D01*
X262243Y553964D01*
X262246Y553982D01*
X262236Y554165D01*
X262229Y554348D01*
X262225Y554366D01*
X262224Y554384D01*
X262178Y554562D01*
X262136Y554740D01*
X262128Y554756D01*
X262124Y554774D01*
X262044Y554939D01*
X261967Y555105D01*
X261956Y555120D01*
X261948Y555136D01*
X261838Y555282D01*
X261729Y555430D01*
X261716Y555442D01*
X261705Y555457D01*
X261567Y555579D01*
X261432Y555702D01*
X261417Y555711D01*
X261403Y555723D01*
X261244Y555816D01*
X261087Y555910D01*
X261070Y555916D01*
X261055Y555925D01*
X260742Y556037D01*
X259696Y556317D01*
X257385Y558090D01*
X255929Y560613D01*
X255548Y563501D01*
X256053Y565384D01*
X256056Y565402D01*
X256062Y565419D01*
X256088Y565599D01*
X256118Y565782D01*
X256117Y565800D01*
X256120Y565817D01*
X256110Y566000D01*
X256104Y566184D01*
X256099Y566201D01*
X256098Y566219D01*
X256053Y566398D01*
X256010Y566575D01*
X256003Y566592D01*
X255998Y566609D01*
X255918Y566774D01*
X255841Y566941D01*
X255830Y566955D01*
X255823Y566972D01*
X255712Y567117D01*
X255603Y567266D01*
X255590Y567278D01*
X255579Y567292D01*
X255442Y567414D01*
X255306Y567538D01*
X255291Y567547D01*
X255277Y567559D01*
X255118Y567651D01*
X254961Y567745D01*
X254944Y567751D01*
X254929Y567760D01*
X254616Y567872D01*
X254492Y567905D01*
X253326Y568481D01*
X252384Y569204D01*
X261365Y574389D01*
X261366Y574389D01*
X270348Y579575D01*
X270503Y578398D01*
X270418Y577099D01*
X270384Y576976D01*
X270381Y576958D01*
X270375Y576941D01*
X270349Y576759D01*
X270319Y576578D01*
X270320Y576560D01*
X270317Y576543D01*
X270327Y576359D01*
X270334Y576176D01*
X270338Y576159D01*
X270339Y576141D01*
X270385Y575962D01*
X270427Y575784D01*
X270435Y575768D01*
X270439Y575751D01*
X270520Y575585D01*
X270596Y575419D01*
X270607Y575404D01*
X270615Y575388D01*
X270726Y575242D01*
X270834Y575094D01*
X270847Y575082D01*
X270858Y575068D01*
X270996Y574946D01*
X271131Y574822D01*
X271146Y574813D01*
X271160Y574801D01*
X271318Y574709D01*
X271476Y574614D01*
X271493Y574608D01*
X271508Y574600D01*
X271821Y574488D01*
X273704Y573983D01*
X276015Y572210D01*
X277471Y569687D01*
X277852Y566799D01*
X277571Y565753D01*
X277568Y565735D01*
X277562Y565718D01*
X277536Y565537D01*
X277506Y565355D01*
X277507Y565338D01*
X277504Y565320D01*
X277514Y565136D01*
X277521Y564953D01*
X277525Y564936D01*
X277526Y564918D01*
X277572Y564739D01*
X277614Y564561D01*
X277622Y564545D01*
X277626Y564528D01*
X277706Y564363D01*
X277783Y564196D01*
X277794Y564182D01*
X277802Y564165D01*
X277912Y564019D01*
X278021Y563871D01*
X278034Y563859D01*
X278045Y563845D01*
X278183Y563723D01*
X278318Y563599D01*
X278333Y563590D01*
X278347Y563578D01*
X278506Y563486D01*
X278663Y563392D01*
X278680Y563386D01*
X278695Y563377D01*
X279008Y563265D01*
X280054Y562985D01*
X282365Y561211D01*
X283821Y558688D01*
X284202Y555800D01*
X283448Y552986D01*
X281674Y550675D01*
X271749Y544945D01*
X268860Y544564D01*
X266046Y545318D01*
G37*
%LPD*%
%LPC*%
G36*
X575067Y364489D02*
X575067Y364489D01*
X571332Y366036D01*
X568474Y368894D01*
X566927Y372629D01*
X566927Y376671D01*
X568474Y380406D01*
X571332Y383264D01*
X575067Y384811D01*
X593333Y384811D01*
X597068Y383264D01*
X599926Y380406D01*
X601473Y376671D01*
X601473Y372629D01*
X599926Y368894D01*
X597068Y366036D01*
X593333Y364489D01*
X575067Y364489D01*
G37*
%LPD*%
%LPC*%
G36*
X575067Y339089D02*
X575067Y339089D01*
X571332Y340636D01*
X568474Y343494D01*
X566927Y347229D01*
X566927Y351271D01*
X568474Y355006D01*
X571332Y357864D01*
X575067Y359411D01*
X593333Y359411D01*
X597068Y357864D01*
X599926Y355006D01*
X601473Y351271D01*
X601473Y347229D01*
X599926Y343494D01*
X597068Y340636D01*
X593333Y339089D01*
X575067Y339089D01*
G37*
%LPD*%
%LPC*%
G36*
X575067Y415289D02*
X575067Y415289D01*
X571332Y416836D01*
X568474Y419694D01*
X566927Y423429D01*
X566927Y427471D01*
X568474Y431206D01*
X571332Y434064D01*
X575067Y435611D01*
X593333Y435611D01*
X597068Y434064D01*
X599926Y431206D01*
X601473Y427471D01*
X601473Y423429D01*
X599926Y419694D01*
X597068Y416836D01*
X593333Y415289D01*
X575067Y415289D01*
G37*
%LPD*%
%LPC*%
G36*
X575067Y389889D02*
X575067Y389889D01*
X571332Y391436D01*
X568474Y394294D01*
X566927Y398029D01*
X566927Y402071D01*
X568474Y405806D01*
X571332Y408664D01*
X575067Y410211D01*
X593333Y410211D01*
X597068Y408664D01*
X599926Y405806D01*
X601473Y402071D01*
X601473Y398029D01*
X599926Y394294D01*
X597068Y391436D01*
X593333Y389889D01*
X575067Y389889D01*
G37*
%LPD*%
%LPC*%
G36*
X646468Y786267D02*
X646468Y786267D01*
X646453Y786267D01*
X646441Y786269D01*
X646434Y786269D01*
X646384Y786298D01*
X646228Y786353D01*
X646148Y786387D01*
X646114Y786394D01*
X646071Y786409D01*
X645493Y786564D01*
X645482Y786566D01*
X645471Y786570D01*
X645144Y786626D01*
X644548Y786678D01*
X644472Y786677D01*
X644397Y786686D01*
X644271Y786675D01*
X644145Y786673D01*
X644138Y786672D01*
X644084Y786691D01*
X644069Y786694D01*
X644058Y786698D01*
X644051Y786699D01*
X644007Y786736D01*
X643864Y786818D01*
X643790Y786865D01*
X643758Y786878D01*
X643719Y786900D01*
X643176Y787153D01*
X643166Y787157D01*
X643156Y787163D01*
X642843Y787274D01*
X642265Y787429D01*
X642190Y787441D01*
X642118Y787463D01*
X641992Y787474D01*
X641868Y787494D01*
X641860Y787494D01*
X641811Y787523D01*
X641797Y787528D01*
X641787Y787534D01*
X641780Y787536D01*
X641743Y787580D01*
X641616Y787685D01*
X641552Y787745D01*
X641522Y787763D01*
X641487Y787792D01*
X640997Y788136D01*
X640987Y788141D01*
X640978Y788148D01*
X640690Y788312D01*
X640147Y788565D01*
X640076Y788590D01*
X640008Y788624D01*
X639887Y788657D01*
X639767Y788699D01*
X639760Y788700D01*
X639716Y788737D01*
X639703Y788744D01*
X639694Y788752D01*
X639688Y788755D01*
X639659Y788805D01*
X639552Y788931D01*
X639500Y789000D01*
X639473Y789024D01*
X639444Y789058D01*
X639021Y789481D01*
X639012Y789488D01*
X639005Y789497D01*
X638750Y789709D01*
X638259Y790052D01*
X638193Y790089D01*
X638133Y790134D01*
X638018Y790187D01*
X637908Y790249D01*
X637901Y790252D01*
X637864Y790296D01*
X637853Y790305D01*
X637845Y790314D01*
X637839Y790319D01*
X637820Y790373D01*
X637736Y790515D01*
X637697Y790593D01*
X637675Y790620D01*
X637652Y790659D01*
X637309Y791150D01*
X637302Y791158D01*
X637296Y791168D01*
X637081Y791421D01*
X636658Y791844D01*
X636599Y791892D01*
X636547Y791947D01*
X636444Y792019D01*
X636346Y792099D01*
X636340Y792103D01*
X636311Y792153D01*
X636302Y792164D01*
X636296Y792174D01*
X636291Y792179D01*
X636281Y792236D01*
X636223Y792391D01*
X636198Y792474D01*
X636181Y792505D01*
X636165Y792547D01*
X635912Y793090D01*
X635907Y793099D01*
X635903Y793110D01*
X635736Y793397D01*
X635392Y793887D01*
X635343Y793944D01*
X635301Y794008D01*
X635212Y794097D01*
X635129Y794193D01*
X635124Y794197D01*
X635104Y794251D01*
X635097Y794264D01*
X635093Y794275D01*
X635089Y794281D01*
X635089Y794339D01*
X635059Y794501D01*
X635048Y794588D01*
X635037Y794621D01*
X635029Y794665D01*
X634874Y795243D01*
X634870Y795254D01*
X634868Y795265D01*
X634753Y795576D01*
X634500Y796119D01*
X634461Y796184D01*
X634431Y796253D01*
X634359Y796356D01*
X634295Y796465D01*
X634290Y796470D01*
X634280Y796527D01*
X634275Y796541D01*
X634273Y796552D01*
X634270Y796559D01*
X634280Y796616D01*
X634279Y796781D01*
X634283Y796868D01*
X634278Y796903D01*
X634278Y796948D01*
X634226Y797544D01*
X634224Y797556D01*
X634224Y797567D01*
X634164Y797893D01*
X634009Y798471D01*
X633983Y798542D01*
X633965Y798616D01*
X633912Y798730D01*
X633867Y798848D01*
X633863Y798854D01*
X633863Y798912D01*
X633861Y798927D01*
X633860Y798938D01*
X633859Y798945D01*
X633879Y798999D01*
X633906Y799162D01*
X633926Y799247D01*
X633927Y799282D01*
X633935Y799326D01*
X633987Y799923D01*
X633987Y799934D01*
X633989Y799945D01*
X633987Y800277D01*
X633935Y800874D01*
X633920Y800948D01*
X633916Y801023D01*
X633883Y801145D01*
X633860Y801269D01*
X633857Y801276D01*
X633867Y801332D01*
X633867Y801347D01*
X633869Y801359D01*
X633869Y801366D01*
X633898Y801416D01*
X633953Y801572D01*
X633987Y801652D01*
X633994Y801686D01*
X634009Y801729D01*
X634164Y802307D01*
X634166Y802318D01*
X634170Y802328D01*
X634226Y802655D01*
X634278Y803252D01*
X634277Y803327D01*
X634286Y803403D01*
X634275Y803529D01*
X634273Y803655D01*
X634272Y803662D01*
X634291Y803716D01*
X634294Y803730D01*
X634298Y803742D01*
X634299Y803749D01*
X634336Y803793D01*
X634418Y803936D01*
X634465Y804010D01*
X634478Y804042D01*
X634500Y804081D01*
X634753Y804624D01*
X634757Y804634D01*
X634763Y804644D01*
X634874Y804957D01*
X635029Y805535D01*
X635041Y805610D01*
X635063Y805682D01*
X635074Y805808D01*
X635094Y805932D01*
X635094Y805940D01*
X635123Y805989D01*
X635128Y806003D01*
X635134Y806013D01*
X635136Y806020D01*
X635180Y806057D01*
X635285Y806184D01*
X635345Y806248D01*
X635363Y806278D01*
X635392Y806313D01*
X635735Y806803D01*
X635741Y806813D01*
X635748Y806822D01*
X635913Y807110D01*
X636166Y807653D01*
X636177Y807686D01*
X636179Y807689D01*
X636182Y807700D01*
X636191Y807724D01*
X636224Y807792D01*
X636257Y807914D01*
X636299Y808033D01*
X636300Y808040D01*
X636337Y808084D01*
X636344Y808097D01*
X636352Y808106D01*
X636355Y808112D01*
X636405Y808141D01*
X636531Y808248D01*
X636600Y808300D01*
X636624Y808327D01*
X636658Y808356D01*
X637081Y808779D01*
X637088Y808788D01*
X637097Y808795D01*
X637309Y809050D01*
X637652Y809541D01*
X637689Y809607D01*
X637734Y809668D01*
X637788Y809782D01*
X637849Y809892D01*
X637852Y809899D01*
X637896Y809936D01*
X637905Y809947D01*
X637914Y809955D01*
X637919Y809961D01*
X637973Y809980D01*
X638115Y810064D01*
X638193Y810103D01*
X638220Y810125D01*
X638259Y810148D01*
X638750Y810491D01*
X638758Y810498D01*
X638768Y810504D01*
X639021Y810719D01*
X639444Y811142D01*
X639492Y811201D01*
X639547Y811253D01*
X639619Y811356D01*
X639699Y811454D01*
X639703Y811460D01*
X639753Y811489D01*
X639764Y811498D01*
X639774Y811504D01*
X639780Y811509D01*
X639836Y811519D01*
X639991Y811577D01*
X640074Y811602D01*
X640105Y811619D01*
X640147Y811634D01*
X640690Y811887D01*
X640700Y811893D01*
X640710Y811897D01*
X640997Y812065D01*
X641487Y812408D01*
X641544Y812457D01*
X641608Y812499D01*
X641697Y812588D01*
X641793Y812671D01*
X641797Y812676D01*
X641851Y812696D01*
X641864Y812703D01*
X641875Y812707D01*
X641881Y812711D01*
X641938Y812711D01*
X642101Y812741D01*
X642188Y812752D01*
X642221Y812763D01*
X642265Y812771D01*
X642843Y812926D01*
X642854Y812930D01*
X642865Y812932D01*
X643176Y813047D01*
X643719Y813300D01*
X643784Y813338D01*
X643853Y813369D01*
X643957Y813441D01*
X644065Y813505D01*
X644071Y813510D01*
X644127Y813520D01*
X644141Y813525D01*
X644152Y813527D01*
X644159Y813530D01*
X644216Y813520D01*
X644381Y813521D01*
X644468Y813517D01*
X644503Y813522D01*
X644548Y813522D01*
X645144Y813574D01*
X645155Y813576D01*
X645167Y813576D01*
X645493Y813636D01*
X646071Y813791D01*
X646142Y813817D01*
X646216Y813835D01*
X646330Y813888D01*
X646448Y813933D01*
X646454Y813937D01*
X646512Y813937D01*
X646527Y813939D01*
X646538Y813940D01*
X646545Y813941D01*
X646599Y813921D01*
X646762Y813894D01*
X646847Y813874D01*
X646882Y813873D01*
X646926Y813866D01*
X647523Y813813D01*
X647534Y813813D01*
X647545Y813811D01*
X647877Y813813D01*
X648474Y813866D01*
X648548Y813880D01*
X648623Y813884D01*
X648745Y813917D01*
X648869Y813940D01*
X648876Y813943D01*
X648932Y813933D01*
X648947Y813933D01*
X648959Y813931D01*
X648966Y813931D01*
X649016Y813902D01*
X649172Y813847D01*
X649252Y813813D01*
X649286Y813806D01*
X649329Y813791D01*
X649907Y813636D01*
X649918Y813634D01*
X649929Y813630D01*
X650256Y813574D01*
X650852Y813522D01*
X650928Y813523D01*
X651003Y813514D01*
X651129Y813525D01*
X651255Y813527D01*
X651262Y813528D01*
X651316Y813509D01*
X651331Y813506D01*
X651342Y813502D01*
X651349Y813501D01*
X651393Y813464D01*
X651536Y813382D01*
X651610Y813335D01*
X651642Y813322D01*
X651681Y813300D01*
X652224Y813047D01*
X652234Y813043D01*
X652244Y813037D01*
X652557Y812926D01*
X653135Y812771D01*
X653210Y812759D01*
X653282Y812737D01*
X653408Y812726D01*
X653532Y812706D01*
X653540Y812706D01*
X653589Y812677D01*
X653603Y812672D01*
X653613Y812666D01*
X653620Y812664D01*
X653657Y812620D01*
X653784Y812515D01*
X653848Y812455D01*
X653878Y812437D01*
X653913Y812408D01*
X654403Y812065D01*
X654413Y812059D01*
X654422Y812052D01*
X654710Y811887D01*
X655253Y811634D01*
X655324Y811609D01*
X655392Y811576D01*
X655514Y811543D01*
X655633Y811501D01*
X655640Y811500D01*
X655684Y811463D01*
X655697Y811456D01*
X655706Y811448D01*
X655712Y811445D01*
X655741Y811395D01*
X655848Y811269D01*
X655900Y811200D01*
X655927Y811176D01*
X655956Y811142D01*
X656379Y810719D01*
X656388Y810712D01*
X656395Y810703D01*
X656650Y810491D01*
X657141Y810148D01*
X657207Y810111D01*
X657267Y810066D01*
X657382Y810013D01*
X657492Y809951D01*
X657499Y809948D01*
X657536Y809904D01*
X657547Y809895D01*
X657555Y809886D01*
X657561Y809881D01*
X657580Y809827D01*
X657664Y809685D01*
X657703Y809607D01*
X657725Y809580D01*
X657748Y809541D01*
X658091Y809050D01*
X658098Y809042D01*
X658104Y809032D01*
X658319Y808779D01*
X658742Y808356D01*
X658801Y808308D01*
X658853Y808253D01*
X658956Y808181D01*
X659054Y808101D01*
X659060Y808097D01*
X659089Y808047D01*
X659098Y808036D01*
X659104Y808026D01*
X659109Y808021D01*
X659119Y807964D01*
X659177Y807809D01*
X659202Y807726D01*
X659219Y807695D01*
X659234Y807653D01*
X659487Y807110D01*
X659493Y807100D01*
X659497Y807090D01*
X659665Y806803D01*
X660008Y806313D01*
X660057Y806256D01*
X660099Y806192D01*
X660188Y806103D01*
X660271Y806007D01*
X660276Y806003D01*
X660296Y805949D01*
X660303Y805936D01*
X660307Y805925D01*
X660311Y805919D01*
X660311Y805862D01*
X660341Y805699D01*
X660352Y805612D01*
X660363Y805579D01*
X660371Y805535D01*
X660526Y804957D01*
X660530Y804946D01*
X660532Y804935D01*
X660647Y804624D01*
X660900Y804081D01*
X660939Y804016D01*
X660969Y803947D01*
X661041Y803844D01*
X661105Y803735D01*
X661110Y803730D01*
X661120Y803673D01*
X661125Y803659D01*
X661127Y803648D01*
X661130Y803641D01*
X661120Y803584D01*
X661121Y803419D01*
X661117Y803332D01*
X661122Y803297D01*
X661122Y803252D01*
X661174Y802656D01*
X661176Y802645D01*
X661176Y802633D01*
X661236Y802307D01*
X661391Y801729D01*
X661417Y801658D01*
X661435Y801584D01*
X661488Y801470D01*
X661533Y801352D01*
X661537Y801346D01*
X661537Y801288D01*
X661539Y801273D01*
X661540Y801262D01*
X661541Y801255D01*
X661521Y801201D01*
X661494Y801038D01*
X661474Y800953D01*
X661473Y800918D01*
X661465Y800874D01*
X661413Y800277D01*
X661413Y800266D01*
X661411Y800255D01*
X661413Y799923D01*
X661465Y799326D01*
X661480Y799252D01*
X661484Y799177D01*
X661517Y799055D01*
X661540Y798931D01*
X661543Y798924D01*
X661533Y798868D01*
X661533Y798853D01*
X661531Y798841D01*
X661531Y798834D01*
X661502Y798784D01*
X661447Y798628D01*
X661413Y798548D01*
X661406Y798514D01*
X661391Y798471D01*
X661236Y797893D01*
X661234Y797882D01*
X661230Y797871D01*
X661174Y797544D01*
X661122Y796948D01*
X661123Y796872D01*
X661114Y796797D01*
X661125Y796671D01*
X661127Y796545D01*
X661128Y796538D01*
X661109Y796484D01*
X661106Y796469D01*
X661102Y796458D01*
X661101Y796451D01*
X661064Y796407D01*
X660982Y796264D01*
X660935Y796190D01*
X660922Y796158D01*
X660900Y796119D01*
X660647Y795576D01*
X660643Y795566D01*
X660637Y795556D01*
X660526Y795243D01*
X660371Y794665D01*
X660360Y794598D01*
X660357Y794589D01*
X660357Y794585D01*
X660337Y794518D01*
X660326Y794392D01*
X660306Y794268D01*
X660306Y794260D01*
X660277Y794211D01*
X660272Y794197D01*
X660266Y794187D01*
X660264Y794180D01*
X660220Y794143D01*
X660115Y794016D01*
X660055Y793952D01*
X660037Y793922D01*
X660008Y793887D01*
X659665Y793397D01*
X659659Y793387D01*
X659652Y793378D01*
X659487Y793090D01*
X659234Y792547D01*
X659209Y792476D01*
X659176Y792408D01*
X659143Y792286D01*
X659101Y792167D01*
X659100Y792160D01*
X659063Y792116D01*
X659056Y792103D01*
X659048Y792094D01*
X659045Y792088D01*
X658995Y792059D01*
X658869Y791952D01*
X658800Y791900D01*
X658776Y791873D01*
X658742Y791844D01*
X658319Y791421D01*
X658312Y791412D01*
X658303Y791405D01*
X658091Y791150D01*
X657748Y790659D01*
X657711Y790593D01*
X657666Y790533D01*
X657613Y790418D01*
X657551Y790308D01*
X657548Y790301D01*
X657504Y790264D01*
X657495Y790253D01*
X657486Y790245D01*
X657481Y790239D01*
X657427Y790220D01*
X657285Y790136D01*
X657207Y790097D01*
X657180Y790075D01*
X657141Y790052D01*
X656650Y789709D01*
X656642Y789702D01*
X656632Y789696D01*
X656379Y789481D01*
X655956Y789058D01*
X655908Y788999D01*
X655853Y788947D01*
X655781Y788844D01*
X655701Y788746D01*
X655697Y788740D01*
X655647Y788711D01*
X655636Y788702D01*
X655626Y788696D01*
X655621Y788691D01*
X655564Y788681D01*
X655409Y788623D01*
X655326Y788598D01*
X655295Y788581D01*
X655253Y788565D01*
X654710Y788312D01*
X654701Y788307D01*
X654690Y788303D01*
X654403Y788136D01*
X653913Y787792D01*
X653856Y787743D01*
X653792Y787701D01*
X653703Y787612D01*
X653607Y787529D01*
X653603Y787524D01*
X653549Y787504D01*
X653536Y787497D01*
X653525Y787493D01*
X653519Y787489D01*
X653462Y787489D01*
X653299Y787459D01*
X653212Y787448D01*
X653179Y787437D01*
X653135Y787429D01*
X652557Y787274D01*
X652546Y787270D01*
X652535Y787268D01*
X652224Y787153D01*
X651681Y786900D01*
X651616Y786861D01*
X651547Y786831D01*
X651444Y786759D01*
X651335Y786695D01*
X651330Y786690D01*
X651273Y786680D01*
X651259Y786675D01*
X651248Y786673D01*
X651241Y786670D01*
X651184Y786680D01*
X651019Y786679D01*
X650932Y786683D01*
X650897Y786678D01*
X650852Y786678D01*
X650256Y786626D01*
X650244Y786624D01*
X650233Y786624D01*
X649907Y786564D01*
X649329Y786409D01*
X649258Y786383D01*
X649184Y786365D01*
X649070Y786312D01*
X648952Y786267D01*
X648946Y786263D01*
X648888Y786263D01*
X648873Y786261D01*
X648862Y786260D01*
X648855Y786259D01*
X648801Y786279D01*
X648638Y786306D01*
X648553Y786326D01*
X648518Y786327D01*
X648474Y786335D01*
X647877Y786387D01*
X647866Y786387D01*
X647855Y786389D01*
X647523Y786387D01*
X646926Y786335D01*
X646852Y786320D01*
X646777Y786316D01*
X646655Y786283D01*
X646531Y786260D01*
X646524Y786257D01*
X646468Y786267D01*
G37*
%LPD*%
%LPC*%
G36*
X36868Y786267D02*
X36868Y786267D01*
X36853Y786267D01*
X36841Y786269D01*
X36834Y786269D01*
X36784Y786298D01*
X36628Y786353D01*
X36548Y786387D01*
X36514Y786394D01*
X36471Y786409D01*
X35893Y786564D01*
X35882Y786566D01*
X35871Y786570D01*
X35544Y786626D01*
X34948Y786678D01*
X34872Y786677D01*
X34797Y786686D01*
X34671Y786675D01*
X34545Y786673D01*
X34538Y786672D01*
X34484Y786691D01*
X34469Y786694D01*
X34458Y786698D01*
X34451Y786699D01*
X34407Y786736D01*
X34264Y786818D01*
X34190Y786865D01*
X34158Y786878D01*
X34119Y786900D01*
X33576Y787153D01*
X33566Y787157D01*
X33556Y787163D01*
X33243Y787274D01*
X32665Y787429D01*
X32590Y787441D01*
X32518Y787463D01*
X32392Y787474D01*
X32268Y787494D01*
X32260Y787494D01*
X32211Y787523D01*
X32197Y787528D01*
X32187Y787534D01*
X32180Y787536D01*
X32143Y787580D01*
X32016Y787685D01*
X31952Y787745D01*
X31922Y787763D01*
X31887Y787792D01*
X31397Y788135D01*
X31387Y788141D01*
X31378Y788148D01*
X31090Y788313D01*
X30547Y788566D01*
X30476Y788591D01*
X30408Y788624D01*
X30286Y788657D01*
X30167Y788699D01*
X30160Y788700D01*
X30116Y788737D01*
X30103Y788744D01*
X30094Y788752D01*
X30088Y788755D01*
X30059Y788805D01*
X29952Y788931D01*
X29900Y789000D01*
X29873Y789024D01*
X29844Y789058D01*
X29421Y789481D01*
X29412Y789488D01*
X29405Y789497D01*
X29150Y789709D01*
X28659Y790052D01*
X28593Y790089D01*
X28533Y790134D01*
X28418Y790187D01*
X28308Y790249D01*
X28301Y790252D01*
X28264Y790296D01*
X28253Y790305D01*
X28245Y790314D01*
X28239Y790319D01*
X28220Y790373D01*
X28136Y790515D01*
X28097Y790593D01*
X28075Y790620D01*
X28052Y790659D01*
X27709Y791150D01*
X27702Y791158D01*
X27696Y791168D01*
X27481Y791421D01*
X27058Y791844D01*
X26999Y791892D01*
X26947Y791947D01*
X26844Y792019D01*
X26746Y792099D01*
X26740Y792103D01*
X26711Y792153D01*
X26702Y792164D01*
X26696Y792174D01*
X26691Y792179D01*
X26681Y792236D01*
X26623Y792391D01*
X26598Y792474D01*
X26581Y792505D01*
X26566Y792547D01*
X26313Y793090D01*
X26307Y793100D01*
X26303Y793110D01*
X26135Y793397D01*
X25792Y793887D01*
X25743Y793944D01*
X25701Y794008D01*
X25612Y794097D01*
X25529Y794193D01*
X25524Y794197D01*
X25504Y794251D01*
X25497Y794264D01*
X25493Y794275D01*
X25489Y794281D01*
X25489Y794338D01*
X25459Y794501D01*
X25448Y794588D01*
X25437Y794621D01*
X25429Y794665D01*
X25274Y795243D01*
X25270Y795254D01*
X25268Y795265D01*
X25153Y795576D01*
X24900Y796119D01*
X24861Y796184D01*
X24831Y796253D01*
X24759Y796356D01*
X24695Y796465D01*
X24690Y796470D01*
X24680Y796527D01*
X24675Y796541D01*
X24673Y796552D01*
X24670Y796559D01*
X24680Y796616D01*
X24679Y796781D01*
X24683Y796868D01*
X24678Y796903D01*
X24678Y796948D01*
X24626Y797544D01*
X24624Y797555D01*
X24624Y797567D01*
X24564Y797893D01*
X24409Y798471D01*
X24383Y798542D01*
X24365Y798616D01*
X24312Y798730D01*
X24267Y798848D01*
X24263Y798854D01*
X24263Y798912D01*
X24261Y798927D01*
X24260Y798938D01*
X24259Y798945D01*
X24279Y798999D01*
X24306Y799162D01*
X24326Y799247D01*
X24327Y799282D01*
X24335Y799326D01*
X24387Y799923D01*
X24387Y799934D01*
X24389Y799945D01*
X24387Y800277D01*
X24335Y800874D01*
X24320Y800948D01*
X24316Y801023D01*
X24283Y801145D01*
X24260Y801269D01*
X24257Y801276D01*
X24267Y801332D01*
X24267Y801347D01*
X24269Y801359D01*
X24269Y801366D01*
X24298Y801416D01*
X24353Y801572D01*
X24387Y801652D01*
X24394Y801686D01*
X24409Y801729D01*
X24564Y802307D01*
X24566Y802318D01*
X24570Y802329D01*
X24626Y802656D01*
X24678Y803252D01*
X24677Y803328D01*
X24686Y803403D01*
X24675Y803529D01*
X24673Y803655D01*
X24672Y803662D01*
X24691Y803716D01*
X24694Y803731D01*
X24698Y803742D01*
X24699Y803749D01*
X24736Y803793D01*
X24818Y803936D01*
X24865Y804010D01*
X24878Y804042D01*
X24900Y804081D01*
X25153Y804624D01*
X25157Y804634D01*
X25163Y804644D01*
X25274Y804957D01*
X25429Y805535D01*
X25441Y805610D01*
X25463Y805682D01*
X25474Y805808D01*
X25494Y805932D01*
X25494Y805940D01*
X25523Y805989D01*
X25528Y806003D01*
X25534Y806013D01*
X25536Y806020D01*
X25580Y806057D01*
X25685Y806184D01*
X25745Y806248D01*
X25763Y806278D01*
X25792Y806313D01*
X26135Y806803D01*
X26141Y806813D01*
X26148Y806822D01*
X26313Y807110D01*
X26566Y807653D01*
X26577Y807686D01*
X26579Y807689D01*
X26582Y807700D01*
X26591Y807724D01*
X26624Y807792D01*
X26657Y807914D01*
X26699Y808033D01*
X26700Y808040D01*
X26737Y808084D01*
X26744Y808097D01*
X26752Y808106D01*
X26755Y808112D01*
X26805Y808141D01*
X26931Y808248D01*
X27000Y808300D01*
X27024Y808327D01*
X27058Y808356D01*
X27481Y808779D01*
X27488Y808788D01*
X27497Y808795D01*
X27709Y809050D01*
X28052Y809541D01*
X28089Y809607D01*
X28134Y809667D01*
X28187Y809782D01*
X28249Y809892D01*
X28252Y809899D01*
X28296Y809936D01*
X28305Y809947D01*
X28314Y809955D01*
X28319Y809961D01*
X28373Y809980D01*
X28515Y810064D01*
X28593Y810103D01*
X28620Y810125D01*
X28659Y810148D01*
X29150Y810491D01*
X29158Y810498D01*
X29168Y810504D01*
X29421Y810719D01*
X29844Y811142D01*
X29892Y811201D01*
X29947Y811253D01*
X30019Y811356D01*
X30099Y811454D01*
X30103Y811460D01*
X30153Y811489D01*
X30164Y811498D01*
X30174Y811504D01*
X30179Y811509D01*
X30236Y811519D01*
X30391Y811577D01*
X30474Y811602D01*
X30505Y811619D01*
X30547Y811634D01*
X31090Y811887D01*
X31100Y811893D01*
X31110Y811897D01*
X31397Y812065D01*
X31887Y812408D01*
X31944Y812457D01*
X32008Y812499D01*
X32097Y812588D01*
X32193Y812671D01*
X32197Y812676D01*
X32251Y812696D01*
X32264Y812703D01*
X32275Y812707D01*
X32281Y812711D01*
X32338Y812711D01*
X32501Y812741D01*
X32588Y812752D01*
X32621Y812763D01*
X32665Y812771D01*
X33243Y812926D01*
X33254Y812930D01*
X33265Y812932D01*
X33576Y813047D01*
X34119Y813300D01*
X34184Y813339D01*
X34253Y813369D01*
X34356Y813441D01*
X34465Y813505D01*
X34470Y813510D01*
X34527Y813520D01*
X34541Y813525D01*
X34552Y813527D01*
X34559Y813530D01*
X34616Y813520D01*
X34781Y813521D01*
X34868Y813517D01*
X34903Y813522D01*
X34948Y813522D01*
X35544Y813574D01*
X35556Y813576D01*
X35567Y813576D01*
X35893Y813636D01*
X36471Y813791D01*
X36542Y813817D01*
X36616Y813835D01*
X36730Y813888D01*
X36848Y813933D01*
X36854Y813937D01*
X36912Y813937D01*
X36927Y813939D01*
X36938Y813940D01*
X36945Y813941D01*
X36999Y813921D01*
X37162Y813894D01*
X37247Y813874D01*
X37282Y813873D01*
X37326Y813865D01*
X37923Y813813D01*
X37934Y813813D01*
X37945Y813811D01*
X38277Y813813D01*
X38874Y813865D01*
X38948Y813880D01*
X39023Y813884D01*
X39145Y813917D01*
X39269Y813940D01*
X39276Y813943D01*
X39332Y813933D01*
X39347Y813933D01*
X39359Y813931D01*
X39366Y813931D01*
X39416Y813902D01*
X39572Y813847D01*
X39652Y813813D01*
X39686Y813806D01*
X39729Y813791D01*
X40307Y813636D01*
X40318Y813634D01*
X40329Y813630D01*
X40656Y813574D01*
X41252Y813522D01*
X41328Y813523D01*
X41403Y813514D01*
X41529Y813525D01*
X41655Y813527D01*
X41662Y813528D01*
X41716Y813509D01*
X41731Y813506D01*
X41742Y813502D01*
X41749Y813501D01*
X41793Y813464D01*
X41936Y813382D01*
X42010Y813335D01*
X42042Y813322D01*
X42081Y813300D01*
X42624Y813047D01*
X42634Y813043D01*
X42644Y813037D01*
X42957Y812926D01*
X43535Y812771D01*
X43610Y812759D01*
X43682Y812737D01*
X43808Y812726D01*
X43932Y812706D01*
X43940Y812706D01*
X43989Y812677D01*
X44003Y812672D01*
X44013Y812666D01*
X44020Y812664D01*
X44057Y812620D01*
X44184Y812515D01*
X44248Y812455D01*
X44278Y812437D01*
X44313Y812408D01*
X44803Y812065D01*
X44813Y812059D01*
X44822Y812052D01*
X45110Y811887D01*
X45653Y811634D01*
X45724Y811609D01*
X45792Y811576D01*
X45914Y811543D01*
X46033Y811501D01*
X46040Y811500D01*
X46084Y811463D01*
X46097Y811456D01*
X46106Y811448D01*
X46112Y811445D01*
X46141Y811395D01*
X46248Y811269D01*
X46300Y811200D01*
X46327Y811176D01*
X46356Y811142D01*
X46779Y810719D01*
X46788Y810712D01*
X46795Y810703D01*
X47050Y810491D01*
X47541Y810148D01*
X47607Y810111D01*
X47667Y810066D01*
X47782Y810013D01*
X47892Y809951D01*
X47899Y809948D01*
X47936Y809904D01*
X47947Y809895D01*
X47955Y809886D01*
X47961Y809881D01*
X47980Y809827D01*
X48064Y809685D01*
X48103Y809607D01*
X48125Y809580D01*
X48148Y809541D01*
X48491Y809050D01*
X48498Y809042D01*
X48504Y809032D01*
X48719Y808779D01*
X49142Y808356D01*
X49201Y808308D01*
X49253Y808253D01*
X49356Y808181D01*
X49454Y808101D01*
X49460Y808097D01*
X49489Y808047D01*
X49498Y808036D01*
X49504Y808026D01*
X49509Y808021D01*
X49519Y807964D01*
X49577Y807809D01*
X49602Y807726D01*
X49619Y807695D01*
X49635Y807653D01*
X49888Y807110D01*
X49893Y807101D01*
X49897Y807090D01*
X50064Y806803D01*
X50408Y806313D01*
X50457Y806256D01*
X50499Y806192D01*
X50588Y806103D01*
X50671Y806007D01*
X50676Y806003D01*
X50696Y805949D01*
X50703Y805936D01*
X50707Y805925D01*
X50711Y805919D01*
X50711Y805861D01*
X50741Y805699D01*
X50752Y805612D01*
X50763Y805579D01*
X50771Y805535D01*
X50926Y804957D01*
X50930Y804946D01*
X50932Y804935D01*
X51047Y804624D01*
X51300Y804081D01*
X51339Y804016D01*
X51369Y803947D01*
X51441Y803844D01*
X51505Y803735D01*
X51510Y803730D01*
X51520Y803673D01*
X51525Y803659D01*
X51527Y803648D01*
X51530Y803641D01*
X51520Y803584D01*
X51521Y803419D01*
X51517Y803332D01*
X51522Y803297D01*
X51522Y803252D01*
X51574Y802656D01*
X51576Y802644D01*
X51576Y802633D01*
X51636Y802307D01*
X51791Y801729D01*
X51817Y801658D01*
X51835Y801584D01*
X51888Y801470D01*
X51933Y801352D01*
X51937Y801346D01*
X51937Y801288D01*
X51939Y801273D01*
X51940Y801262D01*
X51941Y801255D01*
X51921Y801201D01*
X51894Y801038D01*
X51874Y800953D01*
X51873Y800918D01*
X51865Y800874D01*
X51813Y800277D01*
X51813Y800266D01*
X51811Y800255D01*
X51813Y799923D01*
X51865Y799326D01*
X51880Y799252D01*
X51884Y799177D01*
X51917Y799055D01*
X51940Y798931D01*
X51943Y798924D01*
X51933Y798868D01*
X51933Y798853D01*
X51931Y798841D01*
X51931Y798834D01*
X51902Y798784D01*
X51847Y798628D01*
X51813Y798548D01*
X51806Y798514D01*
X51791Y798471D01*
X51636Y797893D01*
X51634Y797882D01*
X51630Y797871D01*
X51574Y797544D01*
X51522Y796948D01*
X51523Y796872D01*
X51514Y796797D01*
X51525Y796671D01*
X51527Y796545D01*
X51528Y796538D01*
X51509Y796484D01*
X51506Y796470D01*
X51502Y796458D01*
X51501Y796451D01*
X51464Y796407D01*
X51382Y796264D01*
X51335Y796190D01*
X51322Y796158D01*
X51300Y796119D01*
X51047Y795576D01*
X51043Y795566D01*
X51038Y795556D01*
X50926Y795243D01*
X50771Y794665D01*
X50760Y794598D01*
X50757Y794589D01*
X50757Y794585D01*
X50737Y794518D01*
X50726Y794392D01*
X50706Y794268D01*
X50706Y794260D01*
X50677Y794211D01*
X50672Y794197D01*
X50666Y794187D01*
X50664Y794180D01*
X50620Y794143D01*
X50515Y794016D01*
X50455Y793952D01*
X50437Y793922D01*
X50408Y793887D01*
X50065Y793397D01*
X50059Y793387D01*
X50052Y793378D01*
X49887Y793090D01*
X49634Y792547D01*
X49609Y792476D01*
X49576Y792408D01*
X49543Y792286D01*
X49501Y792167D01*
X49500Y792160D01*
X49463Y792116D01*
X49456Y792103D01*
X49448Y792094D01*
X49445Y792088D01*
X49395Y792059D01*
X49269Y791952D01*
X49200Y791900D01*
X49176Y791873D01*
X49142Y791844D01*
X48719Y791421D01*
X48712Y791412D01*
X48703Y791405D01*
X48491Y791150D01*
X48148Y790659D01*
X48111Y790593D01*
X48066Y790532D01*
X48012Y790418D01*
X47951Y790308D01*
X47948Y790301D01*
X47904Y790264D01*
X47895Y790253D01*
X47886Y790245D01*
X47881Y790239D01*
X47827Y790220D01*
X47685Y790136D01*
X47607Y790097D01*
X47580Y790075D01*
X47541Y790052D01*
X47050Y789709D01*
X47042Y789702D01*
X47032Y789696D01*
X46779Y789481D01*
X46356Y789058D01*
X46308Y788999D01*
X46253Y788947D01*
X46181Y788844D01*
X46101Y788746D01*
X46097Y788740D01*
X46047Y788711D01*
X46036Y788702D01*
X46026Y788696D01*
X46020Y788691D01*
X45964Y788681D01*
X45809Y788623D01*
X45726Y788598D01*
X45695Y788581D01*
X45653Y788566D01*
X45110Y788313D01*
X45100Y788307D01*
X45090Y788303D01*
X44803Y788135D01*
X44313Y787792D01*
X44256Y787743D01*
X44192Y787701D01*
X44103Y787612D01*
X44007Y787529D01*
X44003Y787524D01*
X43949Y787504D01*
X43936Y787497D01*
X43925Y787493D01*
X43919Y787489D01*
X43862Y787489D01*
X43699Y787459D01*
X43612Y787448D01*
X43579Y787437D01*
X43535Y787429D01*
X42957Y787274D01*
X42946Y787270D01*
X42935Y787268D01*
X42624Y787153D01*
X42081Y786900D01*
X42016Y786862D01*
X41947Y786831D01*
X41843Y786759D01*
X41735Y786695D01*
X41729Y786690D01*
X41673Y786680D01*
X41659Y786675D01*
X41648Y786673D01*
X41641Y786670D01*
X41584Y786680D01*
X41419Y786679D01*
X41332Y786683D01*
X41297Y786678D01*
X41252Y786678D01*
X40656Y786626D01*
X40645Y786624D01*
X40633Y786624D01*
X40307Y786564D01*
X39729Y786409D01*
X39658Y786383D01*
X39584Y786365D01*
X39470Y786312D01*
X39352Y786267D01*
X39346Y786263D01*
X39288Y786263D01*
X39273Y786261D01*
X39262Y786260D01*
X39255Y786259D01*
X39201Y786279D01*
X39038Y786306D01*
X38953Y786326D01*
X38918Y786327D01*
X38874Y786334D01*
X38277Y786387D01*
X38266Y786387D01*
X38255Y786389D01*
X37923Y786387D01*
X37326Y786334D01*
X37252Y786320D01*
X37177Y786316D01*
X37055Y786283D01*
X36931Y786260D01*
X36924Y786257D01*
X36868Y786267D01*
G37*
%LPD*%
%LPC*%
G36*
X84323Y319150D02*
X84323Y319150D01*
X77277Y326196D01*
X77263Y326208D01*
X77252Y326221D01*
X77108Y326335D01*
X76966Y326451D01*
X76950Y326460D01*
X76936Y326471D01*
X76772Y326554D01*
X76610Y326640D01*
X76593Y326645D01*
X76577Y326653D01*
X76400Y326702D01*
X76224Y326755D01*
X76206Y326756D01*
X76189Y326761D01*
X76006Y326775D01*
X75823Y326791D01*
X75805Y326789D01*
X75787Y326790D01*
X75606Y326768D01*
X75423Y326748D01*
X75406Y326742D01*
X75388Y326740D01*
X75215Y326682D01*
X75039Y326626D01*
X75023Y326618D01*
X75006Y326612D01*
X74847Y326520D01*
X74687Y326431D01*
X74673Y326420D01*
X74657Y326411D01*
X74404Y326196D01*
X67867Y319658D01*
X65531Y319658D01*
X65531Y330200D01*
X65531Y340742D01*
X67867Y340742D01*
X74404Y334204D01*
X74418Y334192D01*
X74430Y334179D01*
X74574Y334065D01*
X74716Y333949D01*
X74732Y333940D01*
X74746Y333929D01*
X74910Y333846D01*
X75072Y333760D01*
X75089Y333755D01*
X75105Y333747D01*
X75282Y333697D01*
X75458Y333645D01*
X75475Y333644D01*
X75493Y333639D01*
X75676Y333625D01*
X75859Y333609D01*
X75876Y333611D01*
X75894Y333610D01*
X76076Y333632D01*
X76259Y333652D01*
X76276Y333658D01*
X76294Y333660D01*
X76467Y333718D01*
X76643Y333774D01*
X76658Y333782D01*
X76675Y333788D01*
X76835Y333880D01*
X76995Y333969D01*
X77009Y333980D01*
X77024Y333989D01*
X77277Y334204D01*
X84323Y341250D01*
X93477Y341250D01*
X99950Y334777D01*
X99950Y325623D01*
X93477Y319150D01*
X84323Y319150D01*
G37*
%LPD*%
%LPC*%
G36*
X27173Y274700D02*
X27173Y274700D01*
X20700Y281173D01*
X20700Y290327D01*
X27173Y296800D01*
X36327Y296800D01*
X43373Y289754D01*
X43387Y289742D01*
X43398Y289729D01*
X43542Y289615D01*
X43684Y289499D01*
X43700Y289490D01*
X43714Y289479D01*
X43878Y289396D01*
X44040Y289310D01*
X44057Y289305D01*
X44073Y289297D01*
X44250Y289248D01*
X44426Y289195D01*
X44444Y289194D01*
X44461Y289189D01*
X44644Y289175D01*
X44827Y289159D01*
X44845Y289161D01*
X44863Y289160D01*
X45044Y289182D01*
X45227Y289202D01*
X45244Y289208D01*
X45262Y289210D01*
X45435Y289268D01*
X45611Y289324D01*
X45627Y289332D01*
X45644Y289338D01*
X45803Y289430D01*
X45963Y289519D01*
X45977Y289530D01*
X45993Y289539D01*
X46246Y289754D01*
X52783Y296292D01*
X55119Y296292D01*
X55119Y285750D01*
X55119Y275208D01*
X52783Y275208D01*
X46246Y281746D01*
X46232Y281758D01*
X46220Y281771D01*
X46076Y281885D01*
X45934Y282001D01*
X45918Y282010D01*
X45904Y282021D01*
X45740Y282104D01*
X45578Y282190D01*
X45561Y282195D01*
X45545Y282203D01*
X45368Y282253D01*
X45192Y282305D01*
X45175Y282306D01*
X45157Y282311D01*
X44974Y282325D01*
X44791Y282341D01*
X44774Y282339D01*
X44756Y282340D01*
X44574Y282318D01*
X44391Y282298D01*
X44374Y282292D01*
X44356Y282290D01*
X44183Y282232D01*
X44007Y282176D01*
X43992Y282168D01*
X43975Y282162D01*
X43815Y282070D01*
X43655Y281981D01*
X43641Y281970D01*
X43626Y281961D01*
X43373Y281746D01*
X36327Y274700D01*
X27173Y274700D01*
G37*
%LPD*%
%LPC*%
G36*
X490723Y281050D02*
X490723Y281050D01*
X484250Y287523D01*
X484250Y296677D01*
X490723Y303150D01*
X499877Y303150D01*
X506923Y296104D01*
X506937Y296092D01*
X506948Y296079D01*
X507092Y295965D01*
X507234Y295849D01*
X507250Y295840D01*
X507264Y295829D01*
X507428Y295746D01*
X507590Y295660D01*
X507607Y295655D01*
X507623Y295647D01*
X507800Y295598D01*
X507976Y295545D01*
X507994Y295544D01*
X508011Y295539D01*
X508194Y295525D01*
X508377Y295509D01*
X508395Y295511D01*
X508413Y295510D01*
X508594Y295532D01*
X508777Y295552D01*
X508794Y295558D01*
X508812Y295560D01*
X508985Y295618D01*
X509161Y295674D01*
X509177Y295682D01*
X509194Y295688D01*
X509353Y295780D01*
X509513Y295869D01*
X509527Y295880D01*
X509543Y295889D01*
X509796Y296104D01*
X516333Y302642D01*
X518669Y302642D01*
X518669Y292100D01*
X518669Y281558D01*
X516333Y281558D01*
X509796Y288096D01*
X509782Y288108D01*
X509770Y288121D01*
X509626Y288235D01*
X509484Y288351D01*
X509468Y288360D01*
X509454Y288371D01*
X509290Y288454D01*
X509128Y288540D01*
X509111Y288545D01*
X509095Y288553D01*
X508918Y288603D01*
X508742Y288655D01*
X508725Y288656D01*
X508707Y288661D01*
X508524Y288675D01*
X508341Y288691D01*
X508324Y288689D01*
X508306Y288690D01*
X508124Y288668D01*
X507941Y288648D01*
X507924Y288642D01*
X507906Y288640D01*
X507733Y288582D01*
X507557Y288526D01*
X507542Y288518D01*
X507525Y288512D01*
X507365Y288420D01*
X507205Y288331D01*
X507191Y288320D01*
X507176Y288311D01*
X506923Y288096D01*
X499877Y281050D01*
X490723Y281050D01*
G37*
%LPD*%
%LPC*%
G36*
X334352Y770000D02*
X334352Y770000D01*
X330291Y771682D01*
X327182Y774791D01*
X325600Y778612D01*
X325598Y778616D01*
X325596Y778620D01*
X325504Y778791D01*
X325409Y778967D01*
X325407Y778971D01*
X325404Y778975D01*
X325280Y779123D01*
X325153Y779278D01*
X325150Y779280D01*
X325147Y779284D01*
X324994Y779407D01*
X324840Y779531D01*
X324836Y779533D01*
X324833Y779536D01*
X324660Y779626D01*
X324484Y779718D01*
X324480Y779720D01*
X324476Y779722D01*
X324286Y779776D01*
X324097Y779831D01*
X324093Y779832D01*
X324089Y779833D01*
X323891Y779849D01*
X323696Y779866D01*
X323692Y779866D01*
X323687Y779866D01*
X323490Y779843D01*
X323296Y779821D01*
X323292Y779820D01*
X323288Y779819D01*
X323099Y779757D01*
X322913Y779698D01*
X322909Y779696D01*
X322905Y779694D01*
X322732Y779597D01*
X322561Y779501D01*
X322558Y779498D01*
X322554Y779496D01*
X322405Y779368D01*
X322256Y779240D01*
X322253Y779236D01*
X322249Y779233D01*
X322130Y779079D01*
X322007Y778922D01*
X322005Y778918D01*
X322003Y778915D01*
X321915Y778738D01*
X321827Y778563D01*
X321825Y778559D01*
X321823Y778554D01*
X321772Y778362D01*
X321720Y778174D01*
X321720Y778170D01*
X321719Y778166D01*
X321692Y777835D01*
X321692Y776683D01*
X315517Y770508D01*
X313181Y770508D01*
X313181Y781050D01*
X313181Y791592D01*
X315517Y791592D01*
X321692Y785417D01*
X321692Y784265D01*
X321692Y784261D01*
X321692Y784256D01*
X321712Y784062D01*
X321732Y783864D01*
X321733Y783860D01*
X321733Y783856D01*
X321791Y783670D01*
X321850Y783480D01*
X321852Y783476D01*
X321853Y783471D01*
X321948Y783298D01*
X322042Y783125D01*
X322044Y783122D01*
X322047Y783118D01*
X322175Y782965D01*
X322299Y782816D01*
X322303Y782813D01*
X322306Y782810D01*
X322460Y782687D01*
X322613Y782564D01*
X322617Y782562D01*
X322620Y782559D01*
X322795Y782469D01*
X322970Y782378D01*
X322975Y782377D01*
X322979Y782375D01*
X323166Y782322D01*
X323357Y782267D01*
X323362Y782267D01*
X323366Y782265D01*
X323559Y782250D01*
X323759Y782234D01*
X323763Y782235D01*
X323767Y782234D01*
X323960Y782258D01*
X324158Y782281D01*
X324163Y782282D01*
X324167Y782283D01*
X324350Y782344D01*
X324541Y782406D01*
X324545Y782408D01*
X324549Y782409D01*
X324718Y782506D01*
X324892Y782604D01*
X324895Y782607D01*
X324899Y782609D01*
X325048Y782739D01*
X325196Y782867D01*
X325199Y782870D01*
X325203Y782873D01*
X325323Y783029D01*
X325443Y783185D01*
X325445Y783189D01*
X325448Y783193D01*
X325600Y783488D01*
X327182Y787309D01*
X330291Y790418D01*
X334352Y792100D01*
X338748Y792100D01*
X342809Y790418D01*
X345918Y787309D01*
X347600Y783248D01*
X347600Y778852D01*
X345918Y774791D01*
X342809Y771682D01*
X338748Y770000D01*
X334352Y770000D01*
G37*
%LPD*%
%LPC*%
G36*
X505802Y325500D02*
X505802Y325500D01*
X501741Y327182D01*
X498632Y330291D01*
X496950Y334352D01*
X496950Y338748D01*
X498632Y342809D01*
X501741Y345918D01*
X505562Y347500D01*
X505566Y347502D01*
X505570Y347504D01*
X505743Y347597D01*
X505917Y347691D01*
X505921Y347693D01*
X505925Y347696D01*
X506073Y347820D01*
X506228Y347947D01*
X506230Y347950D01*
X506234Y347953D01*
X506357Y348106D01*
X506481Y348260D01*
X506483Y348264D01*
X506486Y348267D01*
X506577Y348441D01*
X506668Y348616D01*
X506670Y348620D01*
X506672Y348624D01*
X506725Y348811D01*
X506781Y349003D01*
X506782Y349007D01*
X506783Y349011D01*
X506799Y349209D01*
X506816Y349404D01*
X506816Y349408D01*
X506816Y349413D01*
X506793Y349610D01*
X506771Y349804D01*
X506770Y349808D01*
X506769Y349812D01*
X506707Y350001D01*
X506648Y350187D01*
X506646Y350191D01*
X506644Y350195D01*
X506547Y350367D01*
X506451Y350539D01*
X506448Y350542D01*
X506446Y350546D01*
X506318Y350695D01*
X506190Y350844D01*
X506186Y350847D01*
X506183Y350851D01*
X506029Y350970D01*
X505872Y351093D01*
X505868Y351095D01*
X505865Y351097D01*
X505688Y351185D01*
X505513Y351273D01*
X505509Y351275D01*
X505504Y351277D01*
X505312Y351328D01*
X505124Y351380D01*
X505120Y351380D01*
X505116Y351381D01*
X504785Y351408D01*
X503633Y351408D01*
X497458Y357583D01*
X497458Y359919D01*
X508000Y359919D01*
X518542Y359919D01*
X518542Y357583D01*
X512367Y351408D01*
X511215Y351408D01*
X511211Y351408D01*
X511206Y351408D01*
X511012Y351388D01*
X510814Y351368D01*
X510810Y351367D01*
X510806Y351367D01*
X510620Y351309D01*
X510430Y351250D01*
X510426Y351248D01*
X510421Y351247D01*
X510250Y351153D01*
X510075Y351058D01*
X510072Y351056D01*
X510068Y351053D01*
X509915Y350925D01*
X509766Y350801D01*
X509763Y350797D01*
X509760Y350794D01*
X509637Y350640D01*
X509514Y350487D01*
X509512Y350483D01*
X509509Y350480D01*
X509417Y350301D01*
X509328Y350130D01*
X509327Y350125D01*
X509325Y350121D01*
X509272Y349934D01*
X509217Y349743D01*
X509217Y349738D01*
X509215Y349734D01*
X509200Y349541D01*
X509184Y349341D01*
X509185Y349337D01*
X509184Y349333D01*
X509208Y349140D01*
X509231Y348942D01*
X509232Y348937D01*
X509233Y348933D01*
X509294Y348750D01*
X509356Y348559D01*
X509358Y348555D01*
X509359Y348551D01*
X509456Y348382D01*
X509554Y348208D01*
X509557Y348205D01*
X509559Y348201D01*
X509689Y348052D01*
X509817Y347904D01*
X509820Y347901D01*
X509823Y347897D01*
X509980Y347777D01*
X510135Y347657D01*
X510139Y347655D01*
X510143Y347652D01*
X510438Y347500D01*
X514259Y345918D01*
X517368Y342809D01*
X519050Y338748D01*
X519050Y334352D01*
X517368Y330291D01*
X514259Y327182D01*
X510198Y325500D01*
X505802Y325500D01*
G37*
%LPD*%
%LPC*%
G36*
X547189Y253999D02*
X547189Y253999D01*
X539749Y261439D01*
X539749Y271961D01*
X547189Y279401D01*
X557711Y279401D01*
X565151Y271961D01*
X565151Y261439D01*
X557711Y253999D01*
X547189Y253999D01*
G37*
%LPD*%
%LPC*%
G36*
X353740Y22451D02*
X353740Y22451D01*
X350304Y23875D01*
X347675Y26504D01*
X346251Y29940D01*
X346251Y46260D01*
X347675Y49696D01*
X350304Y52325D01*
X353740Y53749D01*
X357460Y53749D01*
X360896Y52325D01*
X363525Y49696D01*
X364949Y46260D01*
X364949Y29940D01*
X363525Y26504D01*
X360896Y23875D01*
X357460Y22451D01*
X353740Y22451D01*
G37*
%LPD*%
%LPC*%
G36*
X379140Y22451D02*
X379140Y22451D01*
X375704Y23875D01*
X373075Y26504D01*
X371651Y29940D01*
X371651Y46260D01*
X373075Y49696D01*
X375704Y52325D01*
X379140Y53749D01*
X382860Y53749D01*
X386296Y52325D01*
X388925Y49696D01*
X390349Y46260D01*
X390349Y29940D01*
X388925Y26504D01*
X386296Y23875D01*
X382860Y22451D01*
X379140Y22451D01*
G37*
%LPD*%
%LPC*%
G36*
X633140Y22451D02*
X633140Y22451D01*
X629704Y23875D01*
X627075Y26504D01*
X625651Y29940D01*
X625651Y46260D01*
X627075Y49696D01*
X629704Y52325D01*
X633140Y53749D01*
X636860Y53749D01*
X640296Y52325D01*
X642925Y49696D01*
X644349Y46260D01*
X644349Y29940D01*
X642925Y26504D01*
X640296Y23875D01*
X636860Y22451D01*
X633140Y22451D01*
G37*
%LPD*%
%LPC*%
G36*
X404540Y22451D02*
X404540Y22451D01*
X401104Y23875D01*
X398475Y26504D01*
X397051Y29940D01*
X397051Y46260D01*
X398475Y49696D01*
X401104Y52325D01*
X404540Y53749D01*
X408260Y53749D01*
X411696Y52325D01*
X414325Y49696D01*
X415749Y46260D01*
X415749Y29940D01*
X414325Y26504D01*
X411696Y23875D01*
X408260Y22451D01*
X404540Y22451D01*
G37*
%LPD*%
%LPC*%
G36*
X607740Y22451D02*
X607740Y22451D01*
X604304Y23875D01*
X601675Y26504D01*
X600251Y29940D01*
X600251Y46260D01*
X601675Y49696D01*
X604304Y52325D01*
X607740Y53749D01*
X611460Y53749D01*
X614896Y52325D01*
X617525Y49696D01*
X618949Y46260D01*
X618949Y29940D01*
X617525Y26504D01*
X614896Y23875D01*
X611460Y22451D01*
X607740Y22451D01*
G37*
%LPD*%
%LPC*%
G36*
X252140Y22451D02*
X252140Y22451D01*
X248704Y23875D01*
X246075Y26504D01*
X244651Y29940D01*
X244651Y46260D01*
X246075Y49696D01*
X248704Y52325D01*
X252140Y53749D01*
X255860Y53749D01*
X259296Y52325D01*
X261925Y49696D01*
X263349Y46260D01*
X263349Y29940D01*
X261925Y26504D01*
X259296Y23875D01*
X255860Y22451D01*
X252140Y22451D01*
G37*
%LPD*%
%LPC*%
G36*
X226740Y200251D02*
X226740Y200251D01*
X223304Y201675D01*
X220675Y204304D01*
X219251Y207740D01*
X219251Y224060D01*
X220675Y227496D01*
X223304Y230125D01*
X226740Y231549D01*
X230460Y231549D01*
X233896Y230125D01*
X236525Y227496D01*
X237949Y224060D01*
X237949Y207740D01*
X236525Y204304D01*
X233896Y201675D01*
X230460Y200251D01*
X226740Y200251D01*
G37*
%LPD*%
%LPC*%
G36*
X74340Y200251D02*
X74340Y200251D01*
X70904Y201675D01*
X68275Y204304D01*
X66851Y207740D01*
X66851Y224060D01*
X68275Y227496D01*
X70904Y230125D01*
X74340Y231549D01*
X78060Y231549D01*
X81496Y230125D01*
X84125Y227496D01*
X85549Y224060D01*
X85549Y207740D01*
X84125Y204304D01*
X81496Y201675D01*
X78060Y200251D01*
X74340Y200251D01*
G37*
%LPD*%
%LPC*%
G36*
X48940Y200251D02*
X48940Y200251D01*
X45504Y201675D01*
X42875Y204304D01*
X41451Y207740D01*
X41451Y224060D01*
X42875Y227496D01*
X45504Y230125D01*
X48940Y231549D01*
X52660Y231549D01*
X56096Y230125D01*
X58725Y227496D01*
X60149Y224060D01*
X60149Y207740D01*
X58725Y204304D01*
X56096Y201675D01*
X52660Y200251D01*
X48940Y200251D01*
G37*
%LPD*%
%LPC*%
G36*
X633140Y200251D02*
X633140Y200251D01*
X629704Y201675D01*
X627075Y204304D01*
X625651Y207740D01*
X625651Y224060D01*
X627075Y227496D01*
X629704Y230125D01*
X633140Y231549D01*
X636860Y231549D01*
X640296Y230125D01*
X642925Y227496D01*
X644349Y224060D01*
X644349Y207740D01*
X642925Y204304D01*
X640296Y201675D01*
X636860Y200251D01*
X633140Y200251D01*
G37*
%LPD*%
%LPC*%
G36*
X607740Y200251D02*
X607740Y200251D01*
X604304Y201675D01*
X601675Y204304D01*
X600251Y207740D01*
X600251Y224060D01*
X601675Y227496D01*
X604304Y230125D01*
X607740Y231549D01*
X611460Y231549D01*
X614896Y230125D01*
X617525Y227496D01*
X618949Y224060D01*
X618949Y207740D01*
X617525Y204304D01*
X614896Y201675D01*
X611460Y200251D01*
X607740Y200251D01*
G37*
%LPD*%
%LPC*%
G36*
X582340Y200251D02*
X582340Y200251D01*
X578904Y201675D01*
X576275Y204304D01*
X574851Y207740D01*
X574851Y224060D01*
X576275Y227496D01*
X578904Y230125D01*
X582340Y231549D01*
X586060Y231549D01*
X589496Y230125D01*
X592125Y227496D01*
X593549Y224060D01*
X593549Y207740D01*
X592125Y204304D01*
X589496Y201675D01*
X586060Y200251D01*
X582340Y200251D01*
G37*
%LPD*%
%LPC*%
G36*
X556940Y200251D02*
X556940Y200251D01*
X553504Y201675D01*
X550875Y204304D01*
X549451Y207740D01*
X549451Y224060D01*
X550875Y227496D01*
X553504Y230125D01*
X556940Y231549D01*
X560660Y231549D01*
X564096Y230125D01*
X566725Y227496D01*
X568149Y224060D01*
X568149Y207740D01*
X566725Y204304D01*
X564096Y201675D01*
X560660Y200251D01*
X556940Y200251D01*
G37*
%LPD*%
%LPC*%
G36*
X531540Y200251D02*
X531540Y200251D01*
X528104Y201675D01*
X525475Y204304D01*
X524051Y207740D01*
X524051Y224060D01*
X525475Y227496D01*
X528104Y230125D01*
X531540Y231549D01*
X535260Y231549D01*
X538696Y230125D01*
X541325Y227496D01*
X542749Y224060D01*
X542749Y207740D01*
X541325Y204304D01*
X538696Y201675D01*
X535260Y200251D01*
X531540Y200251D01*
G37*
%LPD*%
%LPC*%
G36*
X506140Y200251D02*
X506140Y200251D01*
X502704Y201675D01*
X500075Y204304D01*
X498651Y207740D01*
X498651Y224060D01*
X500075Y227496D01*
X502704Y230125D01*
X506140Y231549D01*
X509860Y231549D01*
X513296Y230125D01*
X515925Y227496D01*
X517349Y224060D01*
X517349Y207740D01*
X515925Y204304D01*
X513296Y201675D01*
X509860Y200251D01*
X506140Y200251D01*
G37*
%LPD*%
%LPC*%
G36*
X480740Y200251D02*
X480740Y200251D01*
X477304Y201675D01*
X474675Y204304D01*
X473251Y207740D01*
X473251Y224060D01*
X474675Y227496D01*
X477304Y230125D01*
X480740Y231549D01*
X484460Y231549D01*
X487896Y230125D01*
X490525Y227496D01*
X491949Y224060D01*
X491949Y207740D01*
X490525Y204304D01*
X487896Y201675D01*
X484460Y200251D01*
X480740Y200251D01*
G37*
%LPD*%
%LPC*%
G36*
X455340Y200251D02*
X455340Y200251D01*
X451904Y201675D01*
X449275Y204304D01*
X447851Y207740D01*
X447851Y224060D01*
X449275Y227496D01*
X451904Y230125D01*
X455340Y231549D01*
X459060Y231549D01*
X462496Y230125D01*
X465125Y227496D01*
X466549Y224060D01*
X466549Y207740D01*
X465125Y204304D01*
X462496Y201675D01*
X459060Y200251D01*
X455340Y200251D01*
G37*
%LPD*%
%LPC*%
G36*
X429940Y200251D02*
X429940Y200251D01*
X426504Y201675D01*
X423875Y204304D01*
X422451Y207740D01*
X422451Y224060D01*
X423875Y227496D01*
X426504Y230125D01*
X429940Y231549D01*
X433660Y231549D01*
X437096Y230125D01*
X439725Y227496D01*
X441149Y224060D01*
X441149Y207740D01*
X439725Y204304D01*
X437096Y201675D01*
X433660Y200251D01*
X429940Y200251D01*
G37*
%LPD*%
%LPC*%
G36*
X404540Y200251D02*
X404540Y200251D01*
X401104Y201675D01*
X398475Y204304D01*
X397051Y207740D01*
X397051Y224060D01*
X398475Y227496D01*
X401104Y230125D01*
X404540Y231549D01*
X408260Y231549D01*
X411696Y230125D01*
X414325Y227496D01*
X415749Y224060D01*
X415749Y207740D01*
X414325Y204304D01*
X411696Y201675D01*
X408260Y200251D01*
X404540Y200251D01*
G37*
%LPD*%
%LPC*%
G36*
X379140Y200251D02*
X379140Y200251D01*
X375704Y201675D01*
X373075Y204304D01*
X371651Y207740D01*
X371651Y224060D01*
X373075Y227496D01*
X375704Y230125D01*
X379140Y231549D01*
X382860Y231549D01*
X386296Y230125D01*
X388925Y227496D01*
X390349Y224060D01*
X390349Y207740D01*
X388925Y204304D01*
X386296Y201675D01*
X382860Y200251D01*
X379140Y200251D01*
G37*
%LPD*%
%LPC*%
G36*
X353740Y200251D02*
X353740Y200251D01*
X350304Y201675D01*
X347675Y204304D01*
X346251Y207740D01*
X346251Y224060D01*
X347675Y227496D01*
X350304Y230125D01*
X353740Y231549D01*
X357460Y231549D01*
X360896Y230125D01*
X363525Y227496D01*
X364949Y224060D01*
X364949Y207740D01*
X363525Y204304D01*
X360896Y201675D01*
X357460Y200251D01*
X353740Y200251D01*
G37*
%LPD*%
%LPC*%
G36*
X328340Y200251D02*
X328340Y200251D01*
X324904Y201675D01*
X322275Y204304D01*
X320851Y207740D01*
X320851Y224060D01*
X322275Y227496D01*
X324904Y230125D01*
X328340Y231549D01*
X332060Y231549D01*
X335496Y230125D01*
X338125Y227496D01*
X339549Y224060D01*
X339549Y207740D01*
X338125Y204304D01*
X335496Y201675D01*
X332060Y200251D01*
X328340Y200251D01*
G37*
%LPD*%
%LPC*%
G36*
X302940Y200251D02*
X302940Y200251D01*
X299504Y201675D01*
X296875Y204304D01*
X295451Y207740D01*
X295451Y224060D01*
X296875Y227496D01*
X299504Y230125D01*
X302940Y231549D01*
X306660Y231549D01*
X310096Y230125D01*
X312725Y227496D01*
X314149Y224060D01*
X314149Y207740D01*
X312725Y204304D01*
X310096Y201675D01*
X306660Y200251D01*
X302940Y200251D01*
G37*
%LPD*%
%LPC*%
G36*
X277540Y200251D02*
X277540Y200251D01*
X274104Y201675D01*
X271475Y204304D01*
X270051Y207740D01*
X270051Y224060D01*
X271475Y227496D01*
X274104Y230125D01*
X277540Y231549D01*
X281260Y231549D01*
X284696Y230125D01*
X287325Y227496D01*
X288749Y224060D01*
X288749Y207740D01*
X287325Y204304D01*
X284696Y201675D01*
X281260Y200251D01*
X277540Y200251D01*
G37*
%LPD*%
%LPC*%
G36*
X252140Y200251D02*
X252140Y200251D01*
X248704Y201675D01*
X246075Y204304D01*
X244651Y207740D01*
X244651Y224060D01*
X246075Y227496D01*
X248704Y230125D01*
X252140Y231549D01*
X255860Y231549D01*
X259296Y230125D01*
X261925Y227496D01*
X263349Y224060D01*
X263349Y207740D01*
X261925Y204304D01*
X259296Y201675D01*
X255860Y200251D01*
X252140Y200251D01*
G37*
%LPD*%
%LPC*%
G36*
X175940Y200251D02*
X175940Y200251D01*
X172504Y201675D01*
X169875Y204304D01*
X168451Y207740D01*
X168451Y224060D01*
X169875Y227496D01*
X172504Y230125D01*
X175940Y231549D01*
X179660Y231549D01*
X183096Y230125D01*
X185725Y227496D01*
X187149Y224060D01*
X187149Y207740D01*
X185725Y204304D01*
X183096Y201675D01*
X179660Y200251D01*
X175940Y200251D01*
G37*
%LPD*%
%LPC*%
G36*
X150540Y200251D02*
X150540Y200251D01*
X147104Y201675D01*
X144475Y204304D01*
X143051Y207740D01*
X143051Y224060D01*
X144475Y227496D01*
X147104Y230125D01*
X150540Y231549D01*
X154260Y231549D01*
X157696Y230125D01*
X160325Y227496D01*
X161749Y224060D01*
X161749Y207740D01*
X160325Y204304D01*
X157696Y201675D01*
X154260Y200251D01*
X150540Y200251D01*
G37*
%LPD*%
%LPC*%
G36*
X125140Y200251D02*
X125140Y200251D01*
X121704Y201675D01*
X119075Y204304D01*
X117651Y207740D01*
X117651Y224060D01*
X119075Y227496D01*
X121704Y230125D01*
X125140Y231549D01*
X128860Y231549D01*
X132296Y230125D01*
X134925Y227496D01*
X136349Y224060D01*
X136349Y207740D01*
X134925Y204304D01*
X132296Y201675D01*
X128860Y200251D01*
X125140Y200251D01*
G37*
%LPD*%
%LPC*%
G36*
X99740Y200251D02*
X99740Y200251D01*
X96304Y201675D01*
X93675Y204304D01*
X92251Y207740D01*
X92251Y224060D01*
X93675Y227496D01*
X96304Y230125D01*
X99740Y231549D01*
X103460Y231549D01*
X106896Y230125D01*
X109525Y227496D01*
X110949Y224060D01*
X110949Y207740D01*
X109525Y204304D01*
X106896Y201675D01*
X103460Y200251D01*
X99740Y200251D01*
G37*
%LPD*%
%LPC*%
G36*
X74340Y22451D02*
X74340Y22451D01*
X70904Y23875D01*
X68275Y26504D01*
X66851Y29940D01*
X66851Y46260D01*
X68275Y49696D01*
X70904Y52325D01*
X74340Y53749D01*
X78060Y53749D01*
X81496Y52325D01*
X84125Y49696D01*
X85549Y46260D01*
X85549Y29940D01*
X84125Y26504D01*
X81496Y23875D01*
X78060Y22451D01*
X74340Y22451D01*
G37*
%LPD*%
%LPC*%
G36*
X99740Y22451D02*
X99740Y22451D01*
X96304Y23875D01*
X93675Y26504D01*
X92251Y29940D01*
X92251Y46260D01*
X93675Y49696D01*
X96304Y52325D01*
X99740Y53749D01*
X103460Y53749D01*
X106896Y52325D01*
X109525Y49696D01*
X110949Y46260D01*
X110949Y29940D01*
X109525Y26504D01*
X106896Y23875D01*
X103460Y22451D01*
X99740Y22451D01*
G37*
%LPD*%
%LPC*%
G36*
X125140Y22451D02*
X125140Y22451D01*
X121704Y23875D01*
X119075Y26504D01*
X117651Y29940D01*
X117651Y46260D01*
X119075Y49696D01*
X121704Y52325D01*
X125140Y53749D01*
X128860Y53749D01*
X132296Y52325D01*
X134925Y49696D01*
X136349Y46260D01*
X136349Y29940D01*
X134925Y26504D01*
X132296Y23875D01*
X128860Y22451D01*
X125140Y22451D01*
G37*
%LPD*%
%LPC*%
G36*
X150540Y22451D02*
X150540Y22451D01*
X147104Y23875D01*
X144475Y26504D01*
X143051Y29940D01*
X143051Y46260D01*
X144475Y49696D01*
X147104Y52325D01*
X150540Y53749D01*
X154260Y53749D01*
X157696Y52325D01*
X160325Y49696D01*
X161749Y46260D01*
X161749Y29940D01*
X160325Y26504D01*
X157696Y23875D01*
X154260Y22451D01*
X150540Y22451D01*
G37*
%LPD*%
%LPC*%
G36*
X175940Y22451D02*
X175940Y22451D01*
X172504Y23875D01*
X169875Y26504D01*
X168451Y29940D01*
X168451Y46260D01*
X169875Y49696D01*
X172504Y52325D01*
X175940Y53749D01*
X179660Y53749D01*
X183096Y52325D01*
X185725Y49696D01*
X187149Y46260D01*
X187149Y29940D01*
X185725Y26504D01*
X183096Y23875D01*
X179660Y22451D01*
X175940Y22451D01*
G37*
%LPD*%
%LPC*%
G36*
X582340Y22451D02*
X582340Y22451D01*
X578904Y23875D01*
X576275Y26504D01*
X574851Y29940D01*
X574851Y46260D01*
X576275Y49696D01*
X578904Y52325D01*
X582340Y53749D01*
X586060Y53749D01*
X589496Y52325D01*
X592125Y49696D01*
X593549Y46260D01*
X593549Y29940D01*
X592125Y26504D01*
X589496Y23875D01*
X586060Y22451D01*
X582340Y22451D01*
G37*
%LPD*%
%LPC*%
G36*
X201340Y22451D02*
X201340Y22451D01*
X197904Y23875D01*
X195275Y26504D01*
X193851Y29940D01*
X193851Y46260D01*
X195275Y49696D01*
X197904Y52325D01*
X201340Y53749D01*
X205060Y53749D01*
X208496Y52325D01*
X211125Y49696D01*
X212549Y46260D01*
X212549Y29940D01*
X211125Y26504D01*
X208496Y23875D01*
X205060Y22451D01*
X201340Y22451D01*
G37*
%LPD*%
%LPC*%
G36*
X429940Y22451D02*
X429940Y22451D01*
X426504Y23875D01*
X423875Y26504D01*
X422451Y29940D01*
X422451Y46260D01*
X423875Y49696D01*
X426504Y52325D01*
X429940Y53749D01*
X433660Y53749D01*
X437096Y52325D01*
X439725Y49696D01*
X441149Y46260D01*
X441149Y29940D01*
X439725Y26504D01*
X437096Y23875D01*
X433660Y22451D01*
X429940Y22451D01*
G37*
%LPD*%
%LPC*%
G36*
X455340Y22451D02*
X455340Y22451D01*
X451904Y23875D01*
X449275Y26504D01*
X447851Y29940D01*
X447851Y46260D01*
X449275Y49696D01*
X451904Y52325D01*
X455340Y53749D01*
X459060Y53749D01*
X462496Y52325D01*
X465125Y49696D01*
X466549Y46260D01*
X466549Y29940D01*
X465125Y26504D01*
X462496Y23875D01*
X459060Y22451D01*
X455340Y22451D01*
G37*
%LPD*%
%LPC*%
G36*
X480740Y22451D02*
X480740Y22451D01*
X477304Y23875D01*
X474675Y26504D01*
X473251Y29940D01*
X473251Y46260D01*
X474675Y49696D01*
X477304Y52325D01*
X480740Y53749D01*
X484460Y53749D01*
X487896Y52325D01*
X490525Y49696D01*
X491949Y46260D01*
X491949Y29940D01*
X490525Y26504D01*
X487896Y23875D01*
X484460Y22451D01*
X480740Y22451D01*
G37*
%LPD*%
%LPC*%
G36*
X506140Y22451D02*
X506140Y22451D01*
X502704Y23875D01*
X500075Y26504D01*
X498651Y29940D01*
X498651Y46260D01*
X500075Y49696D01*
X502704Y52325D01*
X506140Y53749D01*
X509860Y53749D01*
X513296Y52325D01*
X515925Y49696D01*
X517349Y46260D01*
X517349Y29940D01*
X515925Y26504D01*
X513296Y23875D01*
X509860Y22451D01*
X506140Y22451D01*
G37*
%LPD*%
%LPC*%
G36*
X531540Y22451D02*
X531540Y22451D01*
X528104Y23875D01*
X525475Y26504D01*
X524051Y29940D01*
X524051Y46260D01*
X525475Y49696D01*
X528104Y52325D01*
X531540Y53749D01*
X535260Y53749D01*
X538696Y52325D01*
X541325Y49696D01*
X542749Y46260D01*
X542749Y29940D01*
X541325Y26504D01*
X538696Y23875D01*
X535260Y22451D01*
X531540Y22451D01*
G37*
%LPD*%
%LPC*%
G36*
X556940Y22451D02*
X556940Y22451D01*
X553504Y23875D01*
X550875Y26504D01*
X549451Y29940D01*
X549451Y46260D01*
X550875Y49696D01*
X553504Y52325D01*
X556940Y53749D01*
X560660Y53749D01*
X564096Y52325D01*
X566725Y49696D01*
X568149Y46260D01*
X568149Y29940D01*
X566725Y26504D01*
X564096Y23875D01*
X560660Y22451D01*
X556940Y22451D01*
G37*
%LPD*%
%LPC*%
G36*
X302940Y22451D02*
X302940Y22451D01*
X299504Y23875D01*
X296875Y26504D01*
X295451Y29940D01*
X295451Y46260D01*
X296875Y49696D01*
X299504Y52325D01*
X302940Y53749D01*
X306660Y53749D01*
X310096Y52325D01*
X312725Y49696D01*
X314149Y46260D01*
X314149Y29940D01*
X312725Y26504D01*
X310096Y23875D01*
X306660Y22451D01*
X302940Y22451D01*
G37*
%LPD*%
%LPC*%
G36*
X328340Y22451D02*
X328340Y22451D01*
X324904Y23875D01*
X322275Y26504D01*
X320851Y29940D01*
X320851Y46260D01*
X322275Y49696D01*
X324904Y52325D01*
X328340Y53749D01*
X332060Y53749D01*
X335496Y52325D01*
X338125Y49696D01*
X339549Y46260D01*
X339549Y29940D01*
X338125Y26504D01*
X335496Y23875D01*
X332060Y22451D01*
X328340Y22451D01*
G37*
%LPD*%
%LPC*%
G36*
X619220Y149401D02*
X619220Y149401D01*
X615784Y150825D01*
X613155Y153454D01*
X611731Y156890D01*
X611731Y160610D01*
X613155Y164046D01*
X615784Y166675D01*
X619220Y168099D01*
X635540Y168099D01*
X638976Y166675D01*
X641605Y164046D01*
X643029Y160610D01*
X643029Y156890D01*
X641605Y153454D01*
X638976Y150825D01*
X637369Y150159D01*
X635540Y149401D01*
X619220Y149401D01*
G37*
%LPD*%
%LPC*%
G36*
X366562Y277672D02*
X366562Y277672D01*
X363350Y279002D01*
X360892Y281461D01*
X359562Y284672D01*
X359562Y299528D01*
X360892Y302739D01*
X363350Y305198D01*
X366562Y306528D01*
X370038Y306528D01*
X373250Y305198D01*
X375708Y302739D01*
X377038Y299528D01*
X377038Y284672D01*
X375708Y281461D01*
X373250Y279002D01*
X370038Y277672D01*
X366562Y277672D01*
G37*
%LPD*%
%LPC*%
G36*
X264962Y277672D02*
X264962Y277672D01*
X261750Y279002D01*
X259292Y281461D01*
X257962Y284672D01*
X257962Y299528D01*
X259292Y302739D01*
X261750Y305198D01*
X264962Y306528D01*
X268438Y306528D01*
X271650Y305198D01*
X274108Y302739D01*
X275438Y299528D01*
X275438Y284672D01*
X274108Y281461D01*
X271650Y279002D01*
X268438Y277672D01*
X264962Y277672D01*
G37*
%LPD*%
%LPC*%
G36*
X391962Y277672D02*
X391962Y277672D01*
X388750Y279002D01*
X386292Y281461D01*
X384962Y284672D01*
X384962Y299528D01*
X386292Y302739D01*
X388750Y305198D01*
X391962Y306528D01*
X395438Y306528D01*
X398650Y305198D01*
X401108Y302739D01*
X402438Y299528D01*
X402438Y284672D01*
X401108Y281461D01*
X398650Y279002D01*
X395438Y277672D01*
X391962Y277672D01*
G37*
%LPD*%
%LPC*%
G36*
X417362Y353872D02*
X417362Y353872D01*
X414150Y355202D01*
X411692Y357661D01*
X410362Y360872D01*
X410362Y375728D01*
X411692Y378939D01*
X414150Y381398D01*
X417362Y382728D01*
X420838Y382728D01*
X424050Y381398D01*
X426508Y378939D01*
X427838Y375728D01*
X427838Y360872D01*
X426508Y357661D01*
X424050Y355202D01*
X420838Y353872D01*
X417362Y353872D01*
G37*
%LPD*%
%LPC*%
G36*
X391962Y353872D02*
X391962Y353872D01*
X388750Y355202D01*
X386292Y357661D01*
X384962Y360872D01*
X384962Y375728D01*
X386292Y378939D01*
X388750Y381398D01*
X391962Y382728D01*
X395438Y382728D01*
X398650Y381398D01*
X401108Y378939D01*
X402438Y375728D01*
X402438Y360872D01*
X401108Y357661D01*
X398650Y355202D01*
X395438Y353872D01*
X391962Y353872D01*
G37*
%LPD*%
%LPC*%
G36*
X341162Y353872D02*
X341162Y353872D01*
X337950Y355202D01*
X335492Y357661D01*
X334162Y360872D01*
X334162Y375728D01*
X335492Y378939D01*
X337950Y381398D01*
X341162Y382728D01*
X344638Y382728D01*
X347850Y381398D01*
X350308Y378939D01*
X351638Y375728D01*
X351638Y360872D01*
X350308Y357661D01*
X347850Y355202D01*
X344638Y353872D01*
X341162Y353872D01*
G37*
%LPD*%
%LPC*%
G36*
X239562Y353872D02*
X239562Y353872D01*
X236350Y355202D01*
X233892Y357661D01*
X232562Y360872D01*
X232562Y375728D01*
X233892Y378939D01*
X236350Y381398D01*
X239562Y382728D01*
X243038Y382728D01*
X246250Y381398D01*
X248708Y378939D01*
X250038Y375728D01*
X250038Y360872D01*
X248708Y357661D01*
X246250Y355202D01*
X243038Y353872D01*
X239562Y353872D01*
G37*
%LPD*%
%LPC*%
G36*
X264962Y353872D02*
X264962Y353872D01*
X261750Y355202D01*
X259292Y357661D01*
X257962Y360872D01*
X257962Y375728D01*
X259292Y378939D01*
X261750Y381398D01*
X264962Y382728D01*
X268438Y382728D01*
X271650Y381398D01*
X274108Y378939D01*
X275438Y375728D01*
X275438Y360872D01*
X274108Y357661D01*
X271650Y355202D01*
X268438Y353872D01*
X264962Y353872D01*
G37*
%LPD*%
%LPC*%
G36*
X290362Y353872D02*
X290362Y353872D01*
X287150Y355202D01*
X284692Y357661D01*
X283362Y360872D01*
X283362Y375728D01*
X284692Y378939D01*
X287150Y381398D01*
X290362Y382728D01*
X293838Y382728D01*
X297050Y381398D01*
X299508Y378939D01*
X300838Y375728D01*
X300838Y360872D01*
X299508Y357661D01*
X297050Y355202D01*
X293838Y353872D01*
X290362Y353872D01*
G37*
%LPD*%
%LPC*%
G36*
X315762Y353872D02*
X315762Y353872D01*
X312550Y355202D01*
X310092Y357661D01*
X308762Y360872D01*
X308762Y375728D01*
X310092Y378939D01*
X312550Y381398D01*
X315762Y382728D01*
X319238Y382728D01*
X322450Y381398D01*
X324908Y378939D01*
X326238Y375728D01*
X326238Y360872D01*
X324908Y357661D01*
X322450Y355202D01*
X319238Y353872D01*
X315762Y353872D01*
G37*
%LPD*%
%LPC*%
G36*
X315762Y277672D02*
X315762Y277672D01*
X312550Y279002D01*
X310092Y281461D01*
X308762Y284672D01*
X308762Y299528D01*
X310092Y302739D01*
X312550Y305198D01*
X315762Y306528D01*
X319238Y306528D01*
X322450Y305198D01*
X324908Y302739D01*
X326238Y299528D01*
X326238Y284672D01*
X324908Y281461D01*
X322450Y279002D01*
X319238Y277672D01*
X315762Y277672D01*
G37*
%LPD*%
%LPC*%
G36*
X290362Y277672D02*
X290362Y277672D01*
X287150Y279002D01*
X284692Y281461D01*
X283362Y284672D01*
X283362Y299528D01*
X284692Y302739D01*
X287150Y305198D01*
X290362Y306528D01*
X293838Y306528D01*
X297050Y305198D01*
X299508Y302739D01*
X300838Y299528D01*
X300838Y284672D01*
X299508Y281461D01*
X297050Y279002D01*
X293838Y277672D01*
X290362Y277672D01*
G37*
%LPD*%
%LPC*%
G36*
X239562Y277672D02*
X239562Y277672D01*
X236350Y279002D01*
X233892Y281461D01*
X232562Y284672D01*
X232562Y299528D01*
X233892Y302739D01*
X236350Y305198D01*
X239562Y306528D01*
X243038Y306528D01*
X246250Y305198D01*
X248708Y302739D01*
X250038Y299528D01*
X250038Y284672D01*
X248708Y281461D01*
X246250Y279002D01*
X243038Y277672D01*
X239562Y277672D01*
G37*
%LPD*%
%LPC*%
G36*
X214162Y277672D02*
X214162Y277672D01*
X210950Y279002D01*
X208492Y281461D01*
X207162Y284672D01*
X207162Y299528D01*
X208492Y302739D01*
X210950Y305198D01*
X214162Y306528D01*
X217638Y306528D01*
X220850Y305198D01*
X223308Y302739D01*
X224638Y299528D01*
X224638Y284672D01*
X223308Y281461D01*
X220850Y279002D01*
X217638Y277672D01*
X214162Y277672D01*
G37*
%LPD*%
%LPC*%
G36*
X442762Y277672D02*
X442762Y277672D01*
X439550Y279002D01*
X437092Y281461D01*
X435762Y284672D01*
X435762Y299528D01*
X437092Y302739D01*
X439550Y305198D01*
X442762Y306528D01*
X446238Y306528D01*
X449450Y305198D01*
X451908Y302739D01*
X453238Y299528D01*
X453238Y284672D01*
X451908Y281461D01*
X449450Y279002D01*
X446238Y277672D01*
X442762Y277672D01*
G37*
%LPD*%
%LPC*%
G36*
X341162Y277672D02*
X341162Y277672D01*
X337950Y279002D01*
X335492Y281461D01*
X334162Y284672D01*
X334162Y299528D01*
X335492Y302739D01*
X337950Y305198D01*
X341162Y306528D01*
X344638Y306528D01*
X347850Y305198D01*
X350308Y302739D01*
X351638Y299528D01*
X351638Y284672D01*
X350308Y281461D01*
X347850Y279002D01*
X344638Y277672D01*
X341162Y277672D01*
G37*
%LPD*%
%LPC*%
G36*
X366562Y353872D02*
X366562Y353872D01*
X363350Y355202D01*
X360892Y357661D01*
X359562Y360872D01*
X359562Y375728D01*
X360892Y378939D01*
X363350Y381398D01*
X366562Y382728D01*
X370038Y382728D01*
X373250Y381398D01*
X375708Y378939D01*
X377038Y375728D01*
X377038Y360872D01*
X375708Y357661D01*
X373250Y355202D01*
X370038Y353872D01*
X366562Y353872D01*
G37*
%LPD*%
%LPC*%
G36*
X417362Y277672D02*
X417362Y277672D01*
X414150Y279002D01*
X411692Y281461D01*
X410362Y284672D01*
X410362Y299528D01*
X411692Y302739D01*
X414150Y305198D01*
X417362Y306528D01*
X420838Y306528D01*
X424050Y305198D01*
X426508Y302739D01*
X427838Y299528D01*
X427838Y284672D01*
X426508Y281461D01*
X424050Y279002D01*
X420838Y277672D01*
X417362Y277672D01*
G37*
%LPD*%
%LPC*%
G36*
X586739Y453389D02*
X586739Y453389D01*
X586739Y460503D01*
X592072Y460503D01*
X593572Y460265D01*
X595017Y459796D01*
X596371Y459106D01*
X597600Y458213D01*
X598675Y457138D01*
X599568Y455909D01*
X600258Y454555D01*
X600636Y453389D01*
X586739Y453389D01*
G37*
%LPD*%
%LPC*%
G36*
X567764Y453389D02*
X567764Y453389D01*
X568142Y454555D01*
X568832Y455909D01*
X569725Y457138D01*
X570800Y458213D01*
X572029Y459106D01*
X573383Y459796D01*
X574828Y460265D01*
X576328Y460503D01*
X581661Y460503D01*
X581661Y453389D01*
X567764Y453389D01*
G37*
%LPD*%
%LPC*%
G36*
X586739Y441197D02*
X586739Y441197D01*
X586739Y448311D01*
X600636Y448311D01*
X600258Y447145D01*
X599568Y445791D01*
X598675Y444562D01*
X597600Y443487D01*
X596371Y442594D01*
X595017Y441904D01*
X593572Y441435D01*
X592072Y441197D01*
X586739Y441197D01*
G37*
%LPD*%
%LPC*%
G36*
X576328Y441197D02*
X576328Y441197D01*
X574828Y441435D01*
X573383Y441904D01*
X572029Y442594D01*
X570800Y443487D01*
X569725Y444562D01*
X568832Y445791D01*
X568142Y447145D01*
X567764Y448311D01*
X581661Y448311D01*
X581661Y441197D01*
X576328Y441197D01*
G37*
%LPD*%
%LPC*%
G36*
X281649Y40349D02*
X281649Y40349D01*
X281649Y52965D01*
X282794Y52593D01*
X284034Y51961D01*
X285159Y51143D01*
X286143Y50159D01*
X286961Y49034D01*
X287593Y47794D01*
X288023Y46470D01*
X288241Y45096D01*
X288241Y40349D01*
X281649Y40349D01*
G37*
%LPD*%
%LPC*%
G36*
X53049Y40349D02*
X53049Y40349D01*
X53049Y52965D01*
X54194Y52593D01*
X55434Y51961D01*
X56559Y51143D01*
X57543Y50159D01*
X58361Y49034D01*
X58993Y47794D01*
X59423Y46470D01*
X59641Y45096D01*
X59641Y40349D01*
X53049Y40349D01*
G37*
%LPD*%
%LPC*%
G36*
X629629Y186399D02*
X629629Y186399D01*
X629629Y192991D01*
X634376Y192991D01*
X635750Y192773D01*
X637074Y192343D01*
X638314Y191711D01*
X639439Y190893D01*
X640423Y189909D01*
X641241Y188784D01*
X641873Y187544D01*
X642245Y186399D01*
X629629Y186399D01*
G37*
%LPD*%
%LPC*%
G36*
X205449Y218149D02*
X205449Y218149D01*
X205449Y230765D01*
X206594Y230393D01*
X207834Y229761D01*
X208959Y228943D01*
X209943Y227959D01*
X210761Y226834D01*
X211393Y225594D01*
X211823Y224270D01*
X212041Y222896D01*
X212041Y218149D01*
X205449Y218149D01*
G37*
%LPD*%
%LPC*%
G36*
X53049Y35851D02*
X53049Y35851D01*
X59641Y35851D01*
X59641Y31104D01*
X59423Y29730D01*
X58993Y28406D01*
X58361Y27166D01*
X57543Y26041D01*
X56559Y25057D01*
X55434Y24239D01*
X54194Y23607D01*
X53049Y23235D01*
X53049Y35851D01*
G37*
%LPD*%
%LPC*%
G36*
X281649Y35851D02*
X281649Y35851D01*
X288241Y35851D01*
X288241Y31104D01*
X288023Y29730D01*
X287593Y28406D01*
X286961Y27166D01*
X286143Y26041D01*
X285159Y25057D01*
X284034Y24239D01*
X282794Y23607D01*
X281649Y23235D01*
X281649Y35851D01*
G37*
%LPD*%
%LPC*%
G36*
X612515Y186399D02*
X612515Y186399D01*
X612887Y187544D01*
X613519Y188784D01*
X614337Y189909D01*
X615321Y190893D01*
X616446Y191711D01*
X617686Y192343D01*
X619010Y192773D01*
X620384Y192991D01*
X625131Y192991D01*
X625131Y186399D01*
X612515Y186399D01*
G37*
%LPD*%
%LPC*%
G36*
X205449Y213651D02*
X205449Y213651D01*
X212041Y213651D01*
X212041Y208904D01*
X211823Y207530D01*
X211393Y206206D01*
X210761Y204966D01*
X209943Y203841D01*
X208959Y202857D01*
X207834Y202039D01*
X206594Y201407D01*
X205449Y201035D01*
X205449Y213651D01*
G37*
%LPD*%
%LPC*%
G36*
X270559Y40349D02*
X270559Y40349D01*
X270559Y45096D01*
X270777Y46470D01*
X271207Y47794D01*
X271839Y49034D01*
X272657Y50159D01*
X273641Y51143D01*
X274766Y51961D01*
X276006Y52593D01*
X277151Y52965D01*
X277151Y40349D01*
X270559Y40349D01*
G37*
%LPD*%
%LPC*%
G36*
X41959Y40349D02*
X41959Y40349D01*
X41959Y45096D01*
X42177Y46470D01*
X42607Y47794D01*
X43239Y49034D01*
X44057Y50159D01*
X45041Y51143D01*
X46166Y51961D01*
X47406Y52593D01*
X48551Y52965D01*
X48551Y40349D01*
X41959Y40349D01*
G37*
%LPD*%
%LPC*%
G36*
X629629Y175309D02*
X629629Y175309D01*
X629629Y181901D01*
X642245Y181901D01*
X641873Y180756D01*
X641241Y179516D01*
X640423Y178391D01*
X639439Y177407D01*
X638314Y176589D01*
X637074Y175957D01*
X635750Y175527D01*
X634376Y175309D01*
X629629Y175309D01*
G37*
%LPD*%
%LPC*%
G36*
X194359Y218149D02*
X194359Y218149D01*
X194359Y222896D01*
X194577Y224270D01*
X195007Y225594D01*
X195639Y226834D01*
X196457Y227959D01*
X197441Y228943D01*
X198566Y229761D01*
X199806Y230393D01*
X200951Y230765D01*
X200951Y218149D01*
X194359Y218149D01*
G37*
%LPD*%
%LPC*%
G36*
X620384Y175309D02*
X620384Y175309D01*
X619010Y175527D01*
X617686Y175957D01*
X616446Y176589D01*
X615321Y177407D01*
X614337Y178391D01*
X613519Y179516D01*
X612887Y180756D01*
X612515Y181901D01*
X625131Y181901D01*
X625131Y175309D01*
X620384Y175309D01*
G37*
%LPD*%
%LPC*%
G36*
X276006Y23607D02*
X276006Y23607D01*
X274766Y24239D01*
X273641Y25057D01*
X272657Y26041D01*
X271839Y27166D01*
X271207Y28406D01*
X270777Y29730D01*
X270559Y31104D01*
X270559Y35851D01*
X277151Y35851D01*
X277151Y23235D01*
X276006Y23607D01*
G37*
%LPD*%
%LPC*%
G36*
X47406Y23607D02*
X47406Y23607D01*
X46166Y24239D01*
X45041Y25057D01*
X44057Y26041D01*
X43239Y27166D01*
X42607Y28406D01*
X42177Y29730D01*
X41959Y31104D01*
X41959Y35851D01*
X48551Y35851D01*
X48551Y23235D01*
X47406Y23607D01*
G37*
%LPD*%
%LPC*%
G36*
X199806Y201407D02*
X199806Y201407D01*
X198566Y202039D01*
X197441Y202857D01*
X196457Y203841D01*
X195639Y204966D01*
X195007Y206206D01*
X194577Y207530D01*
X194359Y208904D01*
X194359Y213651D01*
X200951Y213651D01*
X200951Y201035D01*
X199806Y201407D01*
G37*
%LPD*%
%LPC*%
G36*
X446531Y370331D02*
X446531Y370331D01*
X446531Y381977D01*
X446901Y381904D01*
X448398Y381283D01*
X449747Y380382D01*
X450893Y379236D01*
X451794Y377888D01*
X452414Y376390D01*
X452730Y374800D01*
X452730Y370331D01*
X446531Y370331D01*
G37*
%LPD*%
%LPC*%
G36*
X217931Y370331D02*
X217931Y370331D01*
X217931Y381977D01*
X218301Y381904D01*
X219798Y381283D01*
X221147Y380382D01*
X222293Y379236D01*
X223194Y377888D01*
X223814Y376390D01*
X224130Y374800D01*
X224130Y370331D01*
X217931Y370331D01*
G37*
%LPD*%
%LPC*%
G36*
X217931Y366269D02*
X217931Y366269D01*
X224130Y366269D01*
X224130Y361800D01*
X223814Y360210D01*
X223194Y358712D01*
X222293Y357364D01*
X221147Y356218D01*
X219798Y355317D01*
X218301Y354696D01*
X217931Y354623D01*
X217931Y366269D01*
G37*
%LPD*%
%LPC*%
G36*
X446531Y366269D02*
X446531Y366269D01*
X452730Y366269D01*
X452730Y361800D01*
X452414Y360210D01*
X451794Y358712D01*
X450893Y357364D01*
X449747Y356218D01*
X448398Y355317D01*
X446901Y354696D01*
X446531Y354623D01*
X446531Y366269D01*
G37*
%LPD*%
%LPC*%
G36*
X436270Y370331D02*
X436270Y370331D01*
X436270Y374800D01*
X436586Y376390D01*
X437206Y377888D01*
X438107Y379236D01*
X439253Y380382D01*
X440602Y381283D01*
X442099Y381904D01*
X442469Y381977D01*
X442469Y370331D01*
X436270Y370331D01*
G37*
%LPD*%
%LPC*%
G36*
X207670Y370331D02*
X207670Y370331D01*
X207670Y374800D01*
X207986Y376390D01*
X208606Y377888D01*
X209507Y379236D01*
X210653Y380382D01*
X212002Y381283D01*
X213499Y381904D01*
X213869Y381977D01*
X213869Y370331D01*
X207670Y370331D01*
G37*
%LPD*%
%LPC*%
G36*
X442099Y354696D02*
X442099Y354696D01*
X440602Y355317D01*
X439253Y356218D01*
X438107Y357364D01*
X437206Y358712D01*
X436586Y360210D01*
X436270Y361800D01*
X436270Y366269D01*
X442469Y366269D01*
X442469Y354623D01*
X442099Y354696D01*
G37*
%LPD*%
%LPC*%
G36*
X213499Y354696D02*
X213499Y354696D01*
X212002Y355317D01*
X210653Y356218D01*
X209507Y357364D01*
X208606Y358712D01*
X207986Y360210D01*
X207670Y361800D01*
X207670Y366269D01*
X213869Y366269D01*
X213869Y354623D01*
X213499Y354696D01*
G37*
%LPD*%
%LPC*%
G36*
X510031Y363981D02*
X510031Y363981D01*
X510031Y372492D01*
X512367Y372492D01*
X518542Y366317D01*
X518542Y363981D01*
X510031Y363981D01*
G37*
%LPD*%
%LPC*%
G36*
X59181Y287781D02*
X59181Y287781D01*
X59181Y296292D01*
X61517Y296292D01*
X67692Y290117D01*
X67692Y287781D01*
X59181Y287781D01*
G37*
%LPD*%
%LPC*%
G36*
X522731Y294131D02*
X522731Y294131D01*
X522731Y302642D01*
X525067Y302642D01*
X531242Y296467D01*
X531242Y294131D01*
X522731Y294131D01*
G37*
%LPD*%
%LPC*%
G36*
X300608Y783081D02*
X300608Y783081D01*
X300608Y785417D01*
X306783Y791592D01*
X309119Y791592D01*
X309119Y783081D01*
X300608Y783081D01*
G37*
%LPD*%
%LPC*%
G36*
X522731Y281558D02*
X522731Y281558D01*
X522731Y290069D01*
X531242Y290069D01*
X531242Y287733D01*
X525067Y281558D01*
X522731Y281558D01*
G37*
%LPD*%
%LPC*%
G36*
X497458Y363981D02*
X497458Y363981D01*
X497458Y366317D01*
X503633Y372492D01*
X505969Y372492D01*
X505969Y363981D01*
X497458Y363981D01*
G37*
%LPD*%
%LPC*%
G36*
X59181Y275208D02*
X59181Y275208D01*
X59181Y283719D01*
X67692Y283719D01*
X67692Y281383D01*
X61517Y275208D01*
X59181Y275208D01*
G37*
%LPD*%
%LPC*%
G36*
X52958Y332231D02*
X52958Y332231D01*
X52958Y334567D01*
X59133Y340742D01*
X61469Y340742D01*
X61469Y332231D01*
X52958Y332231D01*
G37*
%LPD*%
%LPC*%
G36*
X306783Y770508D02*
X306783Y770508D01*
X300608Y776683D01*
X300608Y779019D01*
X309119Y779019D01*
X309119Y770508D01*
X306783Y770508D01*
G37*
%LPD*%
%LPC*%
G36*
X59133Y319658D02*
X59133Y319658D01*
X52958Y325833D01*
X52958Y328169D01*
X61469Y328169D01*
X61469Y319658D01*
X59133Y319658D01*
G37*
%LPD*%
%LPC*%
G36*
X14731Y444245D02*
X14731Y444245D01*
X14731Y446230D01*
X21130Y452629D01*
X23115Y452629D01*
X23115Y444245D01*
X14731Y444245D01*
G37*
%LPD*%
%LPC*%
G36*
X14731Y660145D02*
X14731Y660145D01*
X14731Y662130D01*
X21130Y668529D01*
X23115Y668529D01*
X23115Y660145D01*
X14731Y660145D01*
G37*
%LPD*%
%LPC*%
G36*
X28193Y646683D02*
X28193Y646683D01*
X28193Y655067D01*
X36577Y655067D01*
X36577Y653082D01*
X30178Y646683D01*
X28193Y646683D01*
G37*
%LPD*%
%LPC*%
G36*
X28193Y430783D02*
X28193Y430783D01*
X28193Y439167D01*
X36577Y439167D01*
X36577Y437182D01*
X30178Y430783D01*
X28193Y430783D01*
G37*
%LPD*%
%LPC*%
G36*
X21130Y430783D02*
X21130Y430783D01*
X14731Y437182D01*
X14731Y439167D01*
X23115Y439167D01*
X23115Y430783D01*
X21130Y430783D01*
G37*
%LPD*%
%LPC*%
G36*
X21130Y646683D02*
X21130Y646683D01*
X14731Y653082D01*
X14731Y655067D01*
X23115Y655067D01*
X23115Y646683D01*
X21130Y646683D01*
G37*
%LPD*%
%LPC*%
G36*
X304916Y742294D02*
X304916Y742294D01*
X306104Y742294D01*
X307380Y742041D01*
X308581Y741543D01*
X309663Y740820D01*
X310583Y739900D01*
X311306Y738818D01*
X312333Y736339D01*
X308108Y734589D01*
X304916Y742294D01*
G37*
%LPD*%
%LPC*%
G36*
X232939Y670058D02*
X232939Y670058D01*
X234689Y674283D01*
X237168Y673256D01*
X238250Y672533D01*
X239170Y671613D01*
X239893Y670531D01*
X240391Y669330D01*
X240644Y668054D01*
X240644Y666866D01*
X232939Y670058D01*
G37*
%LPD*%
%LPC*%
G36*
X309662Y730836D02*
X309662Y730836D01*
X313888Y732586D01*
X314914Y730107D01*
X315168Y728831D01*
X315168Y727530D01*
X314914Y726254D01*
X314417Y725052D01*
X313694Y723970D01*
X312854Y723130D01*
X309662Y730836D01*
G37*
%LPD*%
%LPC*%
G36*
X221480Y674804D02*
X221480Y674804D01*
X222320Y675644D01*
X223402Y676367D01*
X224604Y676864D01*
X225880Y677118D01*
X227181Y677118D01*
X228457Y676864D01*
X230936Y675838D01*
X229186Y671612D01*
X221480Y674804D01*
G37*
%LPD*%
%LPC*%
G36*
X404912Y723314D02*
X404912Y723314D01*
X408104Y731020D01*
X408944Y730180D01*
X409667Y729098D01*
X410164Y727896D01*
X410418Y726620D01*
X410418Y725319D01*
X410164Y724043D01*
X409138Y721564D01*
X404912Y723314D01*
G37*
%LPD*%
%LPC*%
G36*
X219914Y580588D02*
X219914Y580588D01*
X222393Y581614D01*
X223669Y581868D01*
X224970Y581868D01*
X226246Y581614D01*
X227448Y581117D01*
X228530Y580394D01*
X229370Y579554D01*
X221664Y576362D01*
X219914Y580588D01*
G37*
%LPD*%
%LPC*%
G36*
X278217Y501389D02*
X278217Y501389D01*
X279244Y503868D01*
X279967Y504950D01*
X280887Y505870D01*
X281969Y506593D01*
X283170Y507091D01*
X284446Y507344D01*
X285634Y507344D01*
X282442Y499639D01*
X278217Y501389D01*
G37*
%LPD*%
%LPC*%
G36*
X467889Y644392D02*
X467889Y644392D01*
X475594Y647584D01*
X475594Y646396D01*
X475341Y645120D01*
X474843Y643919D01*
X474120Y642837D01*
X473200Y641917D01*
X472118Y641194D01*
X469639Y640167D01*
X467889Y644392D01*
G37*
%LPD*%
%LPC*%
G36*
X400166Y711856D02*
X400166Y711856D01*
X403358Y719561D01*
X407583Y717811D01*
X406556Y715332D01*
X405833Y714250D01*
X404913Y713330D01*
X403831Y712607D01*
X402630Y712109D01*
X401354Y711856D01*
X400166Y711856D01*
G37*
%LPD*%
%LPC*%
G36*
X210206Y572804D02*
X210206Y572804D01*
X210459Y574080D01*
X210957Y575281D01*
X211680Y576363D01*
X212600Y577283D01*
X213682Y578006D01*
X216161Y579033D01*
X217911Y574808D01*
X212724Y572659D01*
X212723Y572659D01*
X210206Y571616D01*
X210206Y572804D01*
G37*
%LPD*%
%LPC*%
G36*
X460830Y637332D02*
X460830Y637332D01*
X459554Y637586D01*
X458352Y638083D01*
X457270Y638806D01*
X456430Y639646D01*
X464136Y642838D01*
X465886Y638612D01*
X463407Y637586D01*
X462131Y637332D01*
X460830Y637332D01*
G37*
%LPD*%
%LPC*%
G36*
X448632Y545944D02*
X448632Y545944D01*
X447550Y546667D01*
X446630Y547587D01*
X445907Y548669D01*
X445409Y549870D01*
X445156Y551146D01*
X445156Y552334D01*
X452861Y549142D01*
X451111Y544917D01*
X448632Y545944D01*
G37*
%LPD*%
%LPC*%
G36*
X357631Y700531D02*
X357631Y700531D01*
X357631Y708871D01*
X358728Y708417D01*
X359810Y707694D01*
X360730Y706774D01*
X361453Y705692D01*
X361951Y704491D01*
X362205Y703215D01*
X362205Y700531D01*
X357631Y700531D01*
G37*
%LPD*%
%LPC*%
G36*
X458619Y542082D02*
X458619Y542082D01*
X457343Y542336D01*
X454864Y543362D01*
X456614Y547588D01*
X464320Y544396D01*
X463480Y543556D01*
X462398Y542833D01*
X461196Y542336D01*
X459920Y542082D01*
X458619Y542082D01*
G37*
%LPD*%
%LPC*%
G36*
X370886Y489093D02*
X370886Y489093D01*
X370632Y490369D01*
X370632Y491670D01*
X370886Y492946D01*
X371383Y494148D01*
X372106Y495230D01*
X372946Y496070D01*
X376138Y488364D01*
X371912Y486614D01*
X370886Y489093D01*
G37*
%LPD*%
%LPC*%
G36*
X276856Y489020D02*
X276856Y489020D01*
X276133Y490102D01*
X275636Y491304D01*
X275382Y492580D01*
X275382Y493881D01*
X275636Y495157D01*
X276662Y497636D01*
X280888Y495886D01*
X277696Y488180D01*
X276856Y489020D01*
G37*
%LPD*%
%LPC*%
G36*
X265084Y671993D02*
X265084Y671993D01*
X266026Y672716D01*
X267193Y673292D01*
X268449Y673629D01*
X269748Y673714D01*
X271038Y673544D01*
X272270Y673126D01*
X274593Y671784D01*
X272306Y667823D01*
X265084Y671993D01*
G37*
%LPD*%
%LPC*%
G36*
X357631Y696469D02*
X357631Y696469D01*
X362205Y696469D01*
X362205Y693785D01*
X361951Y692509D01*
X361453Y691308D01*
X360730Y690226D01*
X359810Y689306D01*
X358728Y688583D01*
X357631Y688129D01*
X357631Y696469D01*
G37*
%LPD*%
%LPC*%
G36*
X379696Y476906D02*
X379696Y476906D01*
X378420Y477159D01*
X377219Y477657D01*
X376137Y478380D01*
X375217Y479300D01*
X374494Y480382D01*
X373467Y482861D01*
X377692Y484611D01*
X380884Y476906D01*
X379696Y476906D01*
G37*
%LPD*%
%LPC*%
G36*
X323595Y522731D02*
X323595Y522731D01*
X323595Y525415D01*
X323849Y526691D01*
X324347Y527892D01*
X325070Y528974D01*
X325990Y529894D01*
X327072Y530617D01*
X328169Y531071D01*
X328169Y522731D01*
X323595Y522731D01*
G37*
%LPD*%
%LPC*%
G36*
X275825Y665792D02*
X275825Y665792D01*
X278112Y669753D01*
X280435Y668411D01*
X281413Y667553D01*
X282205Y666521D01*
X282781Y665354D01*
X283118Y664098D01*
X283203Y662799D01*
X283048Y661622D01*
X275825Y665792D01*
G37*
%LPD*%
%LPC*%
G36*
X420849Y634471D02*
X420849Y634471D01*
X419593Y634808D01*
X418426Y635384D01*
X417484Y636106D01*
X424706Y640276D01*
X426993Y636316D01*
X424670Y634974D01*
X423438Y634556D01*
X422148Y634386D01*
X420849Y634471D01*
G37*
%LPD*%
%LPC*%
G36*
X250197Y573899D02*
X250197Y573899D01*
X250282Y575198D01*
X250619Y576454D01*
X251195Y577621D01*
X251987Y578653D01*
X252965Y579511D01*
X255288Y580853D01*
X257575Y576892D01*
X250352Y572722D01*
X250197Y573899D01*
G37*
%LPD*%
%LPC*%
G36*
X327072Y510783D02*
X327072Y510783D01*
X325990Y511506D01*
X325070Y512426D01*
X324347Y513508D01*
X323849Y514709D01*
X323595Y515985D01*
X323595Y518669D01*
X328169Y518669D01*
X328169Y510329D01*
X327072Y510783D01*
G37*
%LPD*%
%LPC*%
G36*
X258807Y582884D02*
X258807Y582884D01*
X261131Y584226D01*
X262363Y584644D01*
X263652Y584814D01*
X264951Y584729D01*
X266207Y584392D01*
X267374Y583816D01*
X268316Y583093D01*
X261094Y578923D01*
X258807Y582884D01*
G37*
%LPD*%
%LPC*%
G36*
X428225Y642308D02*
X428225Y642308D01*
X435448Y646478D01*
X435603Y645301D01*
X435518Y644002D01*
X435181Y642746D01*
X434605Y641579D01*
X433813Y640547D01*
X432835Y639689D01*
X430512Y638347D01*
X428225Y642308D01*
G37*
%LPD*%
%LPC*%
G36*
X405365Y550789D02*
X405365Y550789D01*
X404387Y551647D01*
X403595Y552679D01*
X403019Y553846D01*
X402682Y555102D01*
X402597Y556401D01*
X402752Y557578D01*
X409975Y553408D01*
X407688Y549447D01*
X405365Y550789D01*
G37*
%LPD*%
%LPC*%
G36*
X414763Y545656D02*
X414763Y545656D01*
X413530Y546074D01*
X411207Y547416D01*
X413494Y551376D01*
X420716Y547206D01*
X419774Y546484D01*
X418607Y545908D01*
X417351Y545571D01*
X416052Y545486D01*
X414763Y545656D01*
G37*
%LPD*%
D10*
X495300Y292100D03*
X520700Y292100D03*
D11*
X88900Y330200D03*
X63500Y330200D03*
D12*
X285177Y718266D02*
X281906Y726164D01*
X293639Y731024D02*
X296911Y723126D01*
D13*
X308564Y728180D02*
X305453Y735690D01*
D12*
X330200Y702774D02*
X330200Y694226D01*
X342900Y694226D02*
X342900Y702774D01*
D13*
X355600Y702564D02*
X355600Y694436D01*
D12*
X264051Y640914D02*
X256649Y645188D01*
X262999Y656187D02*
X270401Y651913D01*
D13*
X276570Y663017D02*
X269531Y667081D01*
D12*
X276751Y556288D02*
X269349Y552015D01*
X262999Y563013D02*
X270401Y567287D01*
D13*
X263870Y578180D02*
X256831Y574117D01*
D12*
X355600Y524974D02*
X355600Y516426D01*
X342900Y516426D02*
X342900Y524974D01*
D13*
X330200Y524764D02*
X330200Y516636D01*
D12*
X421749Y578285D02*
X429151Y574012D01*
X422801Y563013D02*
X415399Y567287D01*
D13*
X409231Y556183D02*
X416270Y552120D01*
D12*
X409049Y662912D02*
X416451Y667186D01*
X422801Y656187D02*
X415399Y651913D01*
D13*
X421931Y641019D02*
X428970Y645083D01*
D12*
X224514Y643856D02*
X216616Y647127D01*
X221476Y658861D02*
X229374Y655589D01*
D13*
X234040Y667403D02*
X226530Y670513D01*
D12*
X234234Y551877D02*
X226336Y548606D01*
X221476Y560339D02*
X229374Y563611D01*
D13*
X224320Y575263D02*
X216810Y572153D01*
D12*
X308644Y491214D02*
X305373Y483316D01*
X293639Y488176D02*
X296911Y496074D01*
D13*
X285097Y500740D02*
X281987Y493230D01*
D12*
X400623Y500934D02*
X403894Y493036D01*
X392161Y488176D02*
X388889Y496074D01*
D13*
X377237Y491020D02*
X380347Y483510D01*
D12*
X461286Y575344D02*
X469184Y572073D01*
X464324Y560339D02*
X456426Y563611D01*
D13*
X451760Y551797D02*
X459270Y548687D01*
D12*
X451566Y667323D02*
X459464Y670594D01*
X464324Y658861D02*
X456426Y655589D01*
D13*
X461480Y643937D02*
X468990Y647047D01*
D12*
X377156Y727986D02*
X380427Y735884D01*
X392161Y731024D02*
X388889Y723126D01*
D13*
X400703Y718460D02*
X403814Y725970D01*
D14*
X577088Y450850D02*
X591312Y450850D01*
X591312Y425450D02*
X577088Y425450D01*
X577088Y400050D02*
X591312Y400050D01*
X591312Y374650D02*
X577088Y374650D01*
X577088Y349250D02*
X591312Y349250D01*
D15*
X600939Y635000D02*
X623341Y635000D01*
X623341Y587502D02*
X600939Y587502D01*
X600939Y682498D02*
X623341Y682498D01*
D16*
X508000Y361950D03*
D17*
X508000Y336550D03*
D11*
X311150Y781050D03*
D17*
X336550Y781050D03*
D18*
X552450Y266700D03*
X654050Y266700D03*
D19*
X444500Y362610D02*
X444500Y373990D01*
X419100Y373990D02*
X419100Y362610D01*
X292100Y362610D02*
X292100Y373990D01*
X266700Y373990D02*
X266700Y362610D01*
X393700Y362610D02*
X393700Y373990D01*
X368300Y373990D02*
X368300Y362610D01*
X317500Y362610D02*
X317500Y373990D01*
X342900Y373990D02*
X342900Y362610D01*
X241300Y362610D02*
X241300Y373990D01*
X215900Y373990D02*
X215900Y362610D01*
X215900Y297790D02*
X215900Y286410D01*
X241300Y286410D02*
X241300Y297790D01*
X266700Y297790D02*
X266700Y286410D01*
X292100Y286410D02*
X292100Y297790D01*
X317500Y297790D02*
X317500Y286410D01*
X342900Y286410D02*
X342900Y297790D01*
X368300Y297790D02*
X368300Y286410D01*
X393700Y286410D02*
X393700Y297790D01*
X419100Y297790D02*
X419100Y286410D01*
X444500Y286410D02*
X444500Y297790D01*
D20*
X25654Y657606D03*
X25654Y612394D03*
D21*
X50546Y670052D03*
X50546Y599948D03*
D22*
X38100Y800100D03*
X647700Y800100D03*
X666750Y50800D03*
D10*
X31750Y285750D03*
X57150Y285750D03*
D20*
X25654Y441706D03*
X25654Y396494D03*
D21*
X50546Y454152D03*
X50546Y384048D03*
D23*
X482600Y222200D02*
X482600Y209600D01*
X457200Y209600D02*
X457200Y222200D01*
X431800Y222200D02*
X431800Y209600D01*
X406400Y209600D02*
X406400Y222200D01*
X381000Y222200D02*
X381000Y209600D01*
X355600Y209600D02*
X355600Y222200D01*
X330200Y222200D02*
X330200Y209600D01*
X304800Y209600D02*
X304800Y222200D01*
X279400Y222200D02*
X279400Y209600D01*
X254000Y209600D02*
X254000Y222200D01*
X254000Y44400D02*
X254000Y31800D01*
X279400Y31800D02*
X279400Y44400D01*
X304800Y44400D02*
X304800Y31800D01*
X330200Y31800D02*
X330200Y44400D01*
X355600Y44400D02*
X355600Y31800D01*
X381000Y31800D02*
X381000Y44400D01*
X406400Y44400D02*
X406400Y31800D01*
X431800Y31800D02*
X431800Y44400D01*
X457200Y44400D02*
X457200Y31800D01*
X482600Y31800D02*
X482600Y44400D01*
X621080Y158750D02*
X633680Y158750D01*
X633680Y184150D02*
X621080Y184150D01*
X228600Y209600D02*
X228600Y222200D01*
X203200Y222200D02*
X203200Y209600D01*
X508000Y44400D02*
X508000Y31800D01*
X533400Y31800D02*
X533400Y44400D01*
X558800Y44400D02*
X558800Y31800D01*
X584200Y31800D02*
X584200Y44400D01*
X609600Y44400D02*
X609600Y31800D01*
X635000Y31800D02*
X635000Y44400D01*
X508000Y209600D02*
X508000Y222200D01*
X533400Y222200D02*
X533400Y209600D01*
X558800Y209600D02*
X558800Y222200D01*
X584200Y222200D02*
X584200Y209600D01*
X609600Y209600D02*
X609600Y222200D01*
X635000Y222200D02*
X635000Y209600D01*
X177800Y209600D02*
X177800Y222200D01*
X152400Y222200D02*
X152400Y209600D01*
X127000Y209600D02*
X127000Y222200D01*
X101600Y222200D02*
X101600Y209600D01*
X76200Y209600D02*
X76200Y222200D01*
X50800Y222200D02*
X50800Y209600D01*
X228600Y44400D02*
X228600Y31800D01*
X203200Y31800D02*
X203200Y44400D01*
X177800Y44400D02*
X177800Y31800D01*
X152400Y31800D02*
X152400Y44400D01*
X127000Y44400D02*
X127000Y31800D01*
X101600Y31800D02*
X101600Y44400D01*
X76200Y44400D02*
X76200Y31800D01*
X50800Y31800D02*
X50800Y44400D01*
D24*
X654050Y266700D02*
X666750Y254000D01*
X666750Y139700D01*
X622300Y95250D01*
X247650Y95250D02*
X228600Y76200D01*
X228600Y38100D01*
X247650Y95250D02*
X622300Y95250D01*
M02*
