G04 EAGLE Gerber RS-274X export*
G75*
%MOMM*%
%FSLAX34Y34*%
%LPD*%
%IN*%
%IPPOS*%
%AMOC8*
5,1,8,0,0,1.08239X$1,22.5*%
G01*
%ADD10C,0.254000*%


D10*
X0Y0D02*
X685800Y0D01*
X685800Y838200D01*
X0Y838200D01*
X0Y0D01*
X174000Y432340D02*
X174071Y433418D01*
X174212Y434489D01*
X174422Y435549D01*
X174702Y436592D01*
X175049Y437615D01*
X175463Y438613D01*
X175941Y439582D01*
X176481Y440518D01*
X177081Y441416D01*
X177739Y442273D01*
X178451Y443085D01*
X179215Y443849D01*
X180027Y444562D01*
X180884Y445219D01*
X181782Y445819D01*
X182718Y446360D01*
X183687Y446837D01*
X184685Y447251D01*
X185708Y447598D01*
X186751Y447878D01*
X187811Y448088D01*
X188882Y448229D01*
X189960Y448300D01*
X191040Y448300D01*
X192118Y448229D01*
X193189Y448088D01*
X194249Y447878D01*
X195292Y447598D01*
X196315Y447251D01*
X197313Y446837D01*
X198282Y446360D01*
X199218Y445819D01*
X200116Y445219D01*
X200973Y444562D01*
X201785Y443849D01*
X202549Y443085D01*
X203262Y442273D01*
X203919Y441416D01*
X204519Y440518D01*
X205060Y439582D01*
X205537Y438613D01*
X205951Y437615D01*
X206298Y436592D01*
X206578Y435549D01*
X206788Y434489D01*
X206929Y433418D01*
X207000Y432340D01*
X207000Y431260D01*
X206929Y430182D01*
X206788Y429111D01*
X206578Y428051D01*
X206298Y427008D01*
X205951Y425985D01*
X205537Y424987D01*
X205060Y424018D01*
X204519Y423082D01*
X203919Y422184D01*
X203262Y421327D01*
X202549Y420515D01*
X201785Y419751D01*
X200973Y419039D01*
X200116Y418381D01*
X199218Y417781D01*
X198282Y417241D01*
X197313Y416763D01*
X196315Y416349D01*
X195292Y416002D01*
X194249Y415722D01*
X193189Y415512D01*
X192118Y415371D01*
X191040Y415300D01*
X189960Y415300D01*
X188882Y415371D01*
X187811Y415512D01*
X186751Y415722D01*
X185708Y416002D01*
X184685Y416349D01*
X183687Y416763D01*
X182718Y417241D01*
X181782Y417781D01*
X180884Y418381D01*
X180027Y419039D01*
X179215Y419751D01*
X178451Y420515D01*
X177739Y421327D01*
X177081Y422184D01*
X176481Y423082D01*
X175941Y424018D01*
X175463Y424987D01*
X175049Y425985D01*
X174702Y427008D01*
X174422Y428051D01*
X174212Y429111D01*
X174071Y430182D01*
X174000Y431260D01*
X174000Y432340D01*
X478800Y432340D02*
X478871Y433418D01*
X479012Y434489D01*
X479222Y435549D01*
X479502Y436592D01*
X479849Y437615D01*
X480263Y438613D01*
X480741Y439582D01*
X481281Y440518D01*
X481881Y441416D01*
X482539Y442273D01*
X483251Y443085D01*
X484015Y443849D01*
X484827Y444562D01*
X485684Y445219D01*
X486582Y445819D01*
X487518Y446360D01*
X488487Y446837D01*
X489485Y447251D01*
X490508Y447598D01*
X491551Y447878D01*
X492611Y448088D01*
X493682Y448229D01*
X494760Y448300D01*
X495840Y448300D01*
X496918Y448229D01*
X497989Y448088D01*
X499049Y447878D01*
X500092Y447598D01*
X501115Y447251D01*
X502113Y446837D01*
X503082Y446360D01*
X504018Y445819D01*
X504916Y445219D01*
X505773Y444562D01*
X506585Y443849D01*
X507349Y443085D01*
X508062Y442273D01*
X508719Y441416D01*
X509319Y440518D01*
X509860Y439582D01*
X510337Y438613D01*
X510751Y437615D01*
X511098Y436592D01*
X511378Y435549D01*
X511588Y434489D01*
X511729Y433418D01*
X511800Y432340D01*
X511800Y431260D01*
X511729Y430182D01*
X511588Y429111D01*
X511378Y428051D01*
X511098Y427008D01*
X510751Y425985D01*
X510337Y424987D01*
X509860Y424018D01*
X509319Y423082D01*
X508719Y422184D01*
X508062Y421327D01*
X507349Y420515D01*
X506585Y419751D01*
X505773Y419039D01*
X504916Y418381D01*
X504018Y417781D01*
X503082Y417241D01*
X502113Y416763D01*
X501115Y416349D01*
X500092Y416002D01*
X499049Y415722D01*
X497989Y415512D01*
X496918Y415371D01*
X495840Y415300D01*
X494760Y415300D01*
X493682Y415371D01*
X492611Y415512D01*
X491551Y415722D01*
X490508Y416002D01*
X489485Y416349D01*
X488487Y416763D01*
X487518Y417241D01*
X486582Y417781D01*
X485684Y418381D01*
X484827Y419039D01*
X484015Y419751D01*
X483251Y420515D01*
X482539Y421327D01*
X481881Y422184D01*
X481281Y423082D01*
X480741Y424018D01*
X480263Y424987D01*
X479849Y425985D01*
X479502Y427008D01*
X479222Y428051D01*
X479012Y429111D01*
X478871Y430182D01*
X478800Y431260D01*
X478800Y432340D01*
X174740Y782484D02*
X174452Y783525D01*
X174233Y784583D01*
X174084Y785653D01*
X174005Y786730D01*
X173996Y787811D01*
X174058Y788889D01*
X174191Y789961D01*
X174393Y791022D01*
X174665Y792068D01*
X175004Y793094D01*
X175410Y794095D01*
X175880Y795068D01*
X176413Y796007D01*
X177006Y796910D01*
X177657Y797773D01*
X178363Y798590D01*
X179120Y799360D01*
X179927Y800079D01*
X180779Y800743D01*
X181672Y801350D01*
X182604Y801898D01*
X183569Y802383D01*
X184564Y802805D01*
X185584Y803160D01*
X186625Y803448D01*
X187683Y803667D01*
X188753Y803816D01*
X189830Y803895D01*
X190911Y803904D01*
X191989Y803842D01*
X193061Y803709D01*
X194122Y803507D01*
X195168Y803235D01*
X196194Y802896D01*
X197195Y802490D01*
X198168Y802020D01*
X199107Y801487D01*
X200010Y800894D01*
X200873Y800243D01*
X201690Y799537D01*
X202460Y798780D01*
X203179Y797973D01*
X203843Y797121D01*
X204450Y796228D01*
X204998Y795296D01*
X205483Y794331D01*
X205905Y793336D01*
X206260Y792316D01*
X206548Y791275D01*
X206767Y790217D01*
X206916Y789147D01*
X206995Y788070D01*
X207004Y786989D01*
X206942Y785911D01*
X206809Y784839D01*
X206607Y783778D01*
X206335Y782732D01*
X205996Y781706D01*
X205590Y780705D01*
X205120Y779732D01*
X204587Y778793D01*
X203994Y777890D01*
X203343Y777027D01*
X202637Y776210D01*
X201880Y775440D01*
X201073Y774721D01*
X200221Y774057D01*
X199328Y773450D01*
X198396Y772902D01*
X197431Y772417D01*
X196436Y771995D01*
X195416Y771640D01*
X194375Y771352D01*
X193317Y771133D01*
X192247Y770984D01*
X191170Y770905D01*
X190089Y770896D01*
X189011Y770958D01*
X187939Y771091D01*
X186878Y771293D01*
X185832Y771565D01*
X184806Y771904D01*
X183805Y772310D01*
X182832Y772780D01*
X181893Y773313D01*
X180990Y773906D01*
X180127Y774557D01*
X179310Y775263D01*
X178540Y776020D01*
X177821Y776827D01*
X177157Y777679D01*
X176550Y778572D01*
X176002Y779504D01*
X175517Y780469D01*
X175095Y781464D01*
X174740Y782484D01*
X478800Y787940D02*
X478871Y789018D01*
X479012Y790089D01*
X479222Y791149D01*
X479502Y792192D01*
X479849Y793215D01*
X480263Y794213D01*
X480741Y795182D01*
X481281Y796118D01*
X481881Y797016D01*
X482539Y797873D01*
X483251Y798685D01*
X484015Y799449D01*
X484827Y800162D01*
X485684Y800819D01*
X486582Y801419D01*
X487518Y801960D01*
X488487Y802437D01*
X489485Y802851D01*
X490508Y803198D01*
X491551Y803478D01*
X492611Y803688D01*
X493682Y803829D01*
X494760Y803900D01*
X495840Y803900D01*
X496918Y803829D01*
X497989Y803688D01*
X499049Y803478D01*
X500092Y803198D01*
X501115Y802851D01*
X502113Y802437D01*
X503082Y801960D01*
X504018Y801419D01*
X504916Y800819D01*
X505773Y800162D01*
X506585Y799449D01*
X507349Y798685D01*
X508062Y797873D01*
X508719Y797016D01*
X509319Y796118D01*
X509860Y795182D01*
X510337Y794213D01*
X510751Y793215D01*
X511098Y792192D01*
X511378Y791149D01*
X511588Y790089D01*
X511729Y789018D01*
X511800Y787940D01*
X511800Y786860D01*
X511729Y785782D01*
X511588Y784711D01*
X511378Y783651D01*
X511098Y782608D01*
X510751Y781585D01*
X510337Y780587D01*
X509860Y779618D01*
X509319Y778682D01*
X508719Y777784D01*
X508062Y776927D01*
X507349Y776115D01*
X506585Y775351D01*
X505773Y774639D01*
X504916Y773981D01*
X504018Y773381D01*
X503082Y772841D01*
X502113Y772363D01*
X501115Y771949D01*
X500092Y771602D01*
X499049Y771322D01*
X497989Y771112D01*
X496918Y770971D01*
X495840Y770900D01*
X494760Y770900D01*
X493682Y770971D01*
X492611Y771112D01*
X491551Y771322D01*
X490508Y771602D01*
X489485Y771949D01*
X488487Y772363D01*
X487518Y772841D01*
X486582Y773381D01*
X485684Y773981D01*
X484827Y774639D01*
X484015Y775351D01*
X483251Y776115D01*
X482539Y776927D01*
X481881Y777784D01*
X481281Y778682D01*
X480741Y779618D01*
X480263Y780587D01*
X479849Y781585D01*
X479502Y782608D01*
X479222Y783651D01*
X479012Y784711D01*
X478871Y785782D01*
X478800Y786860D01*
X478800Y787940D01*
M02*
