G04 EAGLE Gerber RS-274X export*
G75*
%MOMM*%
%FSLAX34Y34*%
%LPD*%
%INSilkscreen Bottom*%
%IPPOS*%
%AMOC8*
5,1,8,0,0,1.08239X$1,22.5*%
G01*
%ADD10C,0.152400*%
%ADD11C,0.127000*%


D10*
X277172Y712703D02*
X272312Y724436D01*
X277172Y712703D02*
X285469Y709267D01*
X314802Y721417D01*
X318238Y729714D01*
X313378Y741447D01*
X305082Y744883D01*
X275748Y732733D01*
X272312Y724436D01*
D11*
X292025Y746424D02*
X288623Y754637D01*
X292025Y746424D02*
X292065Y746333D01*
X292109Y746243D01*
X292156Y746155D01*
X292206Y746069D01*
X292260Y745985D01*
X292317Y745903D01*
X292377Y745823D01*
X292441Y745746D01*
X292507Y745672D01*
X292576Y745600D01*
X292648Y745531D01*
X292722Y745465D01*
X292800Y745401D01*
X292879Y745341D01*
X292961Y745284D01*
X293045Y745230D01*
X293131Y745180D01*
X293219Y745133D01*
X293309Y745089D01*
X293400Y745049D01*
X293493Y745013D01*
X293587Y744980D01*
X293683Y744951D01*
X293779Y744926D01*
X293876Y744905D01*
X293975Y744887D01*
X294073Y744874D01*
X294173Y744864D01*
X294272Y744858D01*
X294372Y744856D01*
X294472Y744858D01*
X294571Y744864D01*
X294671Y744874D01*
X294769Y744887D01*
X294868Y744905D01*
X294965Y744926D01*
X295061Y744951D01*
X295157Y744980D01*
X295251Y745013D01*
X295344Y745049D01*
X295344Y745050D02*
X296517Y745536D01*
X287472Y741789D02*
X283098Y752349D01*
X280165Y751134D01*
X280062Y751090D01*
X279961Y751041D01*
X279862Y750989D01*
X279764Y750934D01*
X279669Y750875D01*
X279575Y750813D01*
X279484Y750748D01*
X279396Y750680D01*
X279309Y750608D01*
X279226Y750533D01*
X279145Y750456D01*
X279067Y750376D01*
X278991Y750293D01*
X278919Y750207D01*
X278850Y750119D01*
X278784Y750028D01*
X278721Y749936D01*
X278661Y749841D01*
X278605Y749744D01*
X278552Y749645D01*
X278503Y749544D01*
X278458Y749442D01*
X278416Y749338D01*
X278377Y749233D01*
X278343Y749126D01*
X278312Y749018D01*
X278285Y748909D01*
X278262Y748800D01*
X278243Y748689D01*
X278228Y748578D01*
X278216Y748467D01*
X278209Y748355D01*
X278205Y748243D01*
X278206Y748131D01*
X278210Y748019D01*
X278219Y747907D01*
X278231Y747796D01*
X278247Y747685D01*
X278267Y747575D01*
X278291Y747465D01*
X278319Y747357D01*
X278351Y747249D01*
X278386Y747143D01*
X278426Y747038D01*
X278469Y746934D01*
X278515Y746832D01*
X278565Y746732D01*
X278619Y746634D01*
X278676Y746537D01*
X278736Y746443D01*
X278800Y746351D01*
X278867Y746261D01*
X278937Y746173D01*
X279010Y746088D01*
X279086Y746006D01*
X279165Y745926D01*
X279246Y745850D01*
X279331Y745776D01*
X279418Y745705D01*
X279507Y745637D01*
X279599Y745573D01*
X279692Y745512D01*
X279788Y745454D01*
X279886Y745399D01*
X279986Y745348D01*
X280088Y745301D01*
X280191Y745257D01*
X280296Y745217D01*
X280402Y745181D01*
X280509Y745148D01*
X280617Y745119D01*
X280726Y745094D01*
X280836Y745073D01*
X280947Y745056D01*
X281058Y745042D01*
X281170Y745033D01*
X281282Y745028D01*
X281394Y745026D01*
X281506Y745029D01*
X281618Y745035D01*
X281730Y745045D01*
X281841Y745060D01*
X281951Y745078D01*
X282061Y745100D01*
X282170Y745126D01*
X282278Y745156D01*
X282385Y745189D01*
X282491Y745227D01*
X282595Y745268D01*
X282595Y745267D02*
X285528Y746482D01*
X274038Y745847D02*
X270133Y746978D01*
X274507Y736419D01*
X277440Y737634D02*
X271574Y735203D01*
D10*
X320675Y704850D02*
X320675Y692150D01*
X327025Y685800D01*
X358775Y685800D01*
X365125Y692150D01*
X365125Y704850D01*
X358775Y711200D01*
X327025Y711200D01*
X320675Y704850D01*
D11*
X358342Y718312D02*
X358342Y727202D01*
X358342Y718312D02*
X358344Y718212D01*
X358350Y718113D01*
X358360Y718013D01*
X358373Y717915D01*
X358391Y717816D01*
X358412Y717719D01*
X358437Y717623D01*
X358466Y717527D01*
X358499Y717433D01*
X358535Y717340D01*
X358575Y717249D01*
X358619Y717159D01*
X358666Y717071D01*
X358716Y716985D01*
X358770Y716901D01*
X358827Y716819D01*
X358887Y716740D01*
X358951Y716662D01*
X359017Y716588D01*
X359086Y716516D01*
X359158Y716447D01*
X359232Y716381D01*
X359310Y716317D01*
X359389Y716257D01*
X359471Y716200D01*
X359555Y716146D01*
X359641Y716096D01*
X359729Y716049D01*
X359819Y716005D01*
X359910Y715965D01*
X360003Y715929D01*
X360097Y715896D01*
X360193Y715867D01*
X360289Y715842D01*
X360386Y715821D01*
X360485Y715803D01*
X360583Y715790D01*
X360683Y715780D01*
X360782Y715774D01*
X360882Y715772D01*
X362152Y715772D01*
X352362Y715772D02*
X352362Y727202D01*
X349187Y727202D01*
X349076Y727200D01*
X348966Y727194D01*
X348855Y727185D01*
X348745Y727171D01*
X348636Y727154D01*
X348527Y727133D01*
X348419Y727108D01*
X348312Y727079D01*
X348206Y727047D01*
X348101Y727011D01*
X347998Y726971D01*
X347896Y726928D01*
X347795Y726881D01*
X347696Y726830D01*
X347600Y726777D01*
X347505Y726720D01*
X347412Y726659D01*
X347321Y726596D01*
X347232Y726529D01*
X347146Y726459D01*
X347063Y726386D01*
X346981Y726311D01*
X346903Y726233D01*
X346828Y726151D01*
X346755Y726068D01*
X346685Y725982D01*
X346618Y725893D01*
X346555Y725802D01*
X346494Y725709D01*
X346437Y725615D01*
X346384Y725518D01*
X346333Y725419D01*
X346286Y725318D01*
X346243Y725216D01*
X346203Y725113D01*
X346167Y725008D01*
X346135Y724902D01*
X346106Y724795D01*
X346081Y724687D01*
X346060Y724578D01*
X346043Y724469D01*
X346029Y724359D01*
X346020Y724248D01*
X346014Y724138D01*
X346012Y724027D01*
X346014Y723916D01*
X346020Y723806D01*
X346029Y723695D01*
X346043Y723585D01*
X346060Y723476D01*
X346081Y723367D01*
X346106Y723259D01*
X346135Y723152D01*
X346167Y723046D01*
X346203Y722941D01*
X346243Y722838D01*
X346286Y722736D01*
X346333Y722635D01*
X346384Y722536D01*
X346437Y722440D01*
X346494Y722345D01*
X346555Y722252D01*
X346618Y722161D01*
X346685Y722072D01*
X346755Y721986D01*
X346828Y721903D01*
X346903Y721821D01*
X346981Y721743D01*
X347063Y721668D01*
X347146Y721595D01*
X347232Y721525D01*
X347321Y721458D01*
X347412Y721395D01*
X347505Y721334D01*
X347600Y721277D01*
X347696Y721224D01*
X347795Y721173D01*
X347896Y721126D01*
X347998Y721083D01*
X348101Y721043D01*
X348206Y721007D01*
X348312Y720975D01*
X348419Y720946D01*
X348527Y720921D01*
X348636Y720900D01*
X348745Y720883D01*
X348855Y720869D01*
X348966Y720860D01*
X349076Y720854D01*
X349187Y720852D01*
X352362Y720852D01*
X341503Y724662D02*
X338328Y727202D01*
X338328Y715772D01*
X341503Y715772D02*
X335153Y715772D01*
X330073Y724662D02*
X326898Y727202D01*
X326898Y715772D01*
X330073Y715772D02*
X323723Y715772D01*
D10*
X261087Y631628D02*
X250088Y637978D01*
X261087Y631628D02*
X269761Y633952D01*
X285636Y661448D01*
X283312Y670122D01*
X272313Y676472D01*
X263639Y674148D01*
X247764Y646652D01*
X250088Y637978D01*
D11*
X291037Y658356D02*
X298736Y653911D01*
X298823Y653863D01*
X298912Y653818D01*
X299003Y653777D01*
X299096Y653740D01*
X299190Y653706D01*
X299285Y653676D01*
X299381Y653649D01*
X299478Y653627D01*
X299576Y653608D01*
X299674Y653593D01*
X299774Y653582D01*
X299873Y653574D01*
X299973Y653571D01*
X300072Y653572D01*
X300172Y653576D01*
X300271Y653585D01*
X300370Y653597D01*
X300469Y653614D01*
X300567Y653634D01*
X300663Y653658D01*
X300759Y653685D01*
X300854Y653717D01*
X300947Y653752D01*
X301039Y653791D01*
X301129Y653833D01*
X301218Y653879D01*
X301305Y653928D01*
X301389Y653981D01*
X301472Y654037D01*
X301552Y654096D01*
X301630Y654158D01*
X301706Y654223D01*
X301778Y654292D01*
X301848Y654363D01*
X301916Y654436D01*
X301980Y654513D01*
X302041Y654591D01*
X302099Y654672D01*
X302154Y654756D01*
X302206Y654841D01*
X302205Y654841D02*
X302840Y655941D01*
X297945Y647462D02*
X288047Y653177D01*
X286459Y650428D01*
X286406Y650331D01*
X286355Y650232D01*
X286308Y650131D01*
X286265Y650029D01*
X286225Y649926D01*
X286189Y649821D01*
X286157Y649715D01*
X286128Y649608D01*
X286103Y649500D01*
X286082Y649391D01*
X286065Y649282D01*
X286051Y649172D01*
X286042Y649061D01*
X286036Y648951D01*
X286034Y648840D01*
X286036Y648729D01*
X286042Y648619D01*
X286051Y648508D01*
X286065Y648398D01*
X286082Y648289D01*
X286103Y648180D01*
X286128Y648072D01*
X286157Y647965D01*
X286189Y647859D01*
X286225Y647754D01*
X286265Y647651D01*
X286308Y647549D01*
X286355Y647448D01*
X286406Y647349D01*
X286459Y647253D01*
X286516Y647158D01*
X286577Y647065D01*
X286640Y646974D01*
X286707Y646885D01*
X286777Y646799D01*
X286850Y646716D01*
X286925Y646634D01*
X287003Y646556D01*
X287085Y646481D01*
X287168Y646408D01*
X287254Y646338D01*
X287343Y646271D01*
X287434Y646208D01*
X287527Y646147D01*
X287621Y646090D01*
X287718Y646037D01*
X287817Y645986D01*
X287918Y645939D01*
X288020Y645896D01*
X288123Y645856D01*
X288228Y645820D01*
X288334Y645788D01*
X288441Y645759D01*
X288549Y645734D01*
X288658Y645713D01*
X288767Y645696D01*
X288877Y645682D01*
X288988Y645673D01*
X289098Y645667D01*
X289209Y645665D01*
X289320Y645667D01*
X289430Y645673D01*
X289541Y645682D01*
X289651Y645696D01*
X289760Y645713D01*
X289869Y645734D01*
X289977Y645759D01*
X290084Y645788D01*
X290190Y645820D01*
X290295Y645856D01*
X290398Y645896D01*
X290500Y645939D01*
X290601Y645986D01*
X290700Y646037D01*
X290796Y646090D01*
X290891Y646147D01*
X290984Y646208D01*
X291075Y646271D01*
X291164Y646338D01*
X291250Y646408D01*
X291333Y646481D01*
X291415Y646556D01*
X291493Y646634D01*
X291568Y646716D01*
X291641Y646799D01*
X291711Y646885D01*
X291778Y646974D01*
X291841Y647065D01*
X291902Y647158D01*
X291959Y647252D01*
X291958Y647253D02*
X293546Y650002D01*
X284817Y642503D02*
X281030Y641024D01*
X290928Y635309D01*
X292516Y638058D02*
X289341Y632559D01*
X275157Y630850D02*
X275106Y630758D01*
X275059Y630665D01*
X275015Y630570D01*
X274975Y630474D01*
X274938Y630376D01*
X274905Y630277D01*
X274876Y630177D01*
X274850Y630076D01*
X274828Y629974D01*
X274810Y629871D01*
X274795Y629768D01*
X274784Y629664D01*
X274777Y629560D01*
X274774Y629456D01*
X274775Y629351D01*
X274779Y629247D01*
X274788Y629143D01*
X274800Y629039D01*
X274815Y628936D01*
X274835Y628834D01*
X274858Y628732D01*
X274885Y628631D01*
X274916Y628532D01*
X274950Y628433D01*
X274988Y628336D01*
X275030Y628240D01*
X275074Y628146D01*
X275123Y628053D01*
X275174Y627962D01*
X275229Y627874D01*
X275287Y627787D01*
X275349Y627703D01*
X275413Y627620D01*
X275480Y627541D01*
X275550Y627463D01*
X275623Y627389D01*
X275699Y627317D01*
X275777Y627247D01*
X275857Y627181D01*
X275940Y627118D01*
X276026Y627058D01*
X276113Y627001D01*
X276203Y626947D01*
X275156Y630850D02*
X275217Y630951D01*
X275281Y631051D01*
X275348Y631148D01*
X275418Y631243D01*
X275492Y631336D01*
X275568Y631427D01*
X275647Y631515D01*
X275729Y631600D01*
X275814Y631683D01*
X275901Y631762D01*
X275991Y631839D01*
X276084Y631914D01*
X276178Y631985D01*
X276275Y632053D01*
X276374Y632117D01*
X276475Y632179D01*
X276578Y632237D01*
X276683Y632292D01*
X276790Y632344D01*
X276898Y632392D01*
X277007Y632437D01*
X277118Y632478D01*
X277231Y632515D01*
X277344Y632549D01*
X277459Y632579D01*
X277574Y632605D01*
X277690Y632628D01*
X277807Y632647D01*
X277924Y632662D01*
X278042Y632673D01*
X278160Y632681D01*
X278279Y632685D01*
X278397Y632684D01*
X278515Y632681D01*
X278634Y632673D01*
X278751Y632661D01*
X278869Y632646D01*
X278986Y632627D01*
X279102Y632604D01*
X278603Y626660D02*
X278499Y626631D01*
X278394Y626606D01*
X278288Y626585D01*
X278182Y626567D01*
X278074Y626554D01*
X277967Y626544D01*
X277859Y626537D01*
X277751Y626535D01*
X277643Y626536D01*
X277535Y626542D01*
X277427Y626551D01*
X277320Y626563D01*
X277213Y626580D01*
X277107Y626600D01*
X277002Y626624D01*
X276897Y626652D01*
X276794Y626684D01*
X276692Y626719D01*
X276591Y626757D01*
X276491Y626799D01*
X276393Y626845D01*
X276297Y626894D01*
X276202Y626946D01*
X278603Y626660D02*
X286801Y628160D01*
X283626Y622660D01*
D10*
X283312Y549078D02*
X272313Y542728D01*
X283312Y549078D02*
X285636Y557752D01*
X269761Y585248D01*
X261087Y587572D01*
X250088Y581222D01*
X247764Y572548D01*
X263639Y545052D01*
X272313Y542728D01*
D11*
X294062Y559231D02*
X301761Y563676D01*
X294062Y559232D02*
X293977Y559180D01*
X293893Y559125D01*
X293812Y559067D01*
X293734Y559006D01*
X293657Y558942D01*
X293584Y558874D01*
X293513Y558804D01*
X293444Y558732D01*
X293379Y558656D01*
X293317Y558578D01*
X293258Y558498D01*
X293202Y558415D01*
X293149Y558331D01*
X293100Y558244D01*
X293054Y558155D01*
X293012Y558065D01*
X292973Y557973D01*
X292938Y557880D01*
X292906Y557785D01*
X292879Y557689D01*
X292855Y557593D01*
X292835Y557495D01*
X292818Y557396D01*
X292806Y557298D01*
X292797Y557198D01*
X292793Y557099D01*
X292792Y556999D01*
X292795Y556899D01*
X292803Y556800D01*
X292814Y556700D01*
X292829Y556602D01*
X292847Y556504D01*
X292870Y556407D01*
X292897Y556311D01*
X292927Y556216D01*
X292961Y556122D01*
X292998Y556029D01*
X293039Y555939D01*
X293084Y555849D01*
X293132Y555762D01*
X293767Y554662D01*
X288872Y563140D02*
X298771Y568855D01*
X297183Y571605D01*
X297184Y571605D02*
X297127Y571699D01*
X297066Y571792D01*
X297003Y571883D01*
X296936Y571972D01*
X296866Y572058D01*
X296793Y572141D01*
X296718Y572223D01*
X296640Y572301D01*
X296558Y572376D01*
X296475Y572449D01*
X296389Y572519D01*
X296300Y572586D01*
X296209Y572649D01*
X296116Y572710D01*
X296021Y572767D01*
X295925Y572820D01*
X295826Y572871D01*
X295725Y572918D01*
X295623Y572961D01*
X295520Y573001D01*
X295415Y573037D01*
X295309Y573069D01*
X295202Y573098D01*
X295094Y573123D01*
X294985Y573144D01*
X294876Y573161D01*
X294766Y573175D01*
X294655Y573184D01*
X294545Y573190D01*
X294434Y573192D01*
X294323Y573190D01*
X294213Y573184D01*
X294102Y573175D01*
X293992Y573161D01*
X293883Y573144D01*
X293774Y573123D01*
X293666Y573098D01*
X293559Y573069D01*
X293453Y573037D01*
X293348Y573001D01*
X293245Y572961D01*
X293143Y572918D01*
X293042Y572871D01*
X292943Y572820D01*
X292846Y572767D01*
X292752Y572710D01*
X292659Y572649D01*
X292568Y572586D01*
X292479Y572519D01*
X292393Y572449D01*
X292310Y572376D01*
X292228Y572301D01*
X292150Y572223D01*
X292075Y572141D01*
X292002Y572058D01*
X291932Y571972D01*
X291865Y571883D01*
X291802Y571792D01*
X291741Y571699D01*
X291684Y571604D01*
X291631Y571508D01*
X291580Y571409D01*
X291533Y571308D01*
X291490Y571206D01*
X291450Y571103D01*
X291414Y570998D01*
X291382Y570892D01*
X291353Y570785D01*
X291328Y570677D01*
X291307Y570568D01*
X291290Y570459D01*
X291276Y570349D01*
X291267Y570238D01*
X291261Y570128D01*
X291259Y570017D01*
X291261Y569906D01*
X291267Y569796D01*
X291276Y569685D01*
X291290Y569575D01*
X291307Y569466D01*
X291328Y569357D01*
X291353Y569249D01*
X291382Y569142D01*
X291414Y569036D01*
X291450Y568931D01*
X291490Y568828D01*
X291533Y568726D01*
X291580Y568625D01*
X291631Y568526D01*
X291684Y568429D01*
X291684Y568430D02*
X293272Y565680D01*
X291142Y576989D02*
X291754Y581009D01*
X281855Y575294D01*
X280268Y578043D02*
X283443Y572544D01*
X277728Y582443D02*
X276140Y585192D01*
X276087Y585289D01*
X276036Y585388D01*
X275989Y585489D01*
X275946Y585591D01*
X275906Y585694D01*
X275870Y585799D01*
X275838Y585905D01*
X275809Y586012D01*
X275784Y586120D01*
X275763Y586229D01*
X275746Y586338D01*
X275732Y586448D01*
X275723Y586559D01*
X275717Y586669D01*
X275715Y586780D01*
X275717Y586891D01*
X275723Y587001D01*
X275732Y587112D01*
X275746Y587222D01*
X275763Y587331D01*
X275784Y587440D01*
X275809Y587548D01*
X275838Y587655D01*
X275870Y587761D01*
X275906Y587866D01*
X275946Y587969D01*
X275989Y588071D01*
X276036Y588172D01*
X276087Y588271D01*
X276140Y588368D01*
X276197Y588462D01*
X276258Y588555D01*
X276321Y588646D01*
X276388Y588735D01*
X276458Y588821D01*
X276531Y588904D01*
X276606Y588986D01*
X276684Y589064D01*
X276766Y589139D01*
X276849Y589212D01*
X276935Y589282D01*
X277024Y589349D01*
X277115Y589412D01*
X277208Y589473D01*
X277303Y589530D01*
X277399Y589583D01*
X277498Y589634D01*
X277599Y589681D01*
X277701Y589724D01*
X277804Y589764D01*
X277909Y589800D01*
X278015Y589832D01*
X278122Y589861D01*
X278230Y589886D01*
X278339Y589907D01*
X278448Y589924D01*
X278558Y589938D01*
X278669Y589947D01*
X278779Y589953D01*
X278890Y589955D01*
X279001Y589953D01*
X279111Y589947D01*
X279222Y589938D01*
X279332Y589924D01*
X279441Y589907D01*
X279550Y589886D01*
X279658Y589861D01*
X279765Y589832D01*
X279871Y589800D01*
X279976Y589764D01*
X280079Y589724D01*
X280181Y589681D01*
X280282Y589634D01*
X280381Y589583D01*
X280478Y589530D01*
X280573Y589473D01*
X280665Y589412D01*
X280756Y589349D01*
X280845Y589282D01*
X280931Y589212D01*
X281014Y589139D01*
X281096Y589064D01*
X281174Y588986D01*
X281249Y588904D01*
X281322Y588821D01*
X281392Y588735D01*
X281459Y588646D01*
X281522Y588555D01*
X281583Y588462D01*
X281640Y588367D01*
X285722Y591457D02*
X287627Y588158D01*
X285722Y591457D02*
X285670Y591542D01*
X285615Y591626D01*
X285557Y591707D01*
X285496Y591785D01*
X285432Y591862D01*
X285364Y591935D01*
X285294Y592006D01*
X285222Y592075D01*
X285146Y592140D01*
X285068Y592202D01*
X284988Y592261D01*
X284905Y592317D01*
X284821Y592370D01*
X284734Y592419D01*
X284645Y592465D01*
X284555Y592507D01*
X284463Y592546D01*
X284370Y592581D01*
X284275Y592613D01*
X284179Y592640D01*
X284083Y592664D01*
X283985Y592684D01*
X283886Y592701D01*
X283788Y592713D01*
X283688Y592722D01*
X283588Y592726D01*
X283489Y592727D01*
X283389Y592724D01*
X283290Y592716D01*
X283190Y592705D01*
X283092Y592690D01*
X282994Y592671D01*
X282897Y592649D01*
X282801Y592622D01*
X282706Y592592D01*
X282612Y592558D01*
X282519Y592521D01*
X282429Y592480D01*
X282339Y592435D01*
X282252Y592387D01*
X282167Y592335D01*
X282083Y592280D01*
X282002Y592222D01*
X281924Y592161D01*
X281847Y592097D01*
X281774Y592029D01*
X281703Y591959D01*
X281634Y591887D01*
X281569Y591811D01*
X281507Y591733D01*
X281448Y591653D01*
X281392Y591570D01*
X281339Y591486D01*
X281290Y591399D01*
X281244Y591310D01*
X281202Y591220D01*
X281163Y591128D01*
X281128Y591035D01*
X281096Y590940D01*
X281069Y590844D01*
X281045Y590748D01*
X281025Y590650D01*
X281008Y590551D01*
X280996Y590452D01*
X280987Y590353D01*
X280983Y590253D01*
X280982Y590154D01*
X280985Y590054D01*
X280993Y589955D01*
X281004Y589855D01*
X281019Y589757D01*
X281038Y589659D01*
X281060Y589562D01*
X281087Y589466D01*
X281117Y589371D01*
X281151Y589277D01*
X281188Y589184D01*
X281229Y589093D01*
X281274Y589004D01*
X281322Y588917D01*
X282592Y586718D01*
D10*
X365125Y527050D02*
X365125Y514350D01*
X365125Y527050D02*
X358775Y533400D01*
X327025Y533400D01*
X320675Y527050D01*
X320675Y514350D01*
X327025Y508000D01*
X358775Y508000D01*
X365125Y514350D01*
D11*
X358267Y542163D02*
X358267Y551053D01*
X358267Y542163D02*
X358269Y542063D01*
X358275Y541964D01*
X358285Y541864D01*
X358298Y541766D01*
X358316Y541667D01*
X358337Y541570D01*
X358362Y541474D01*
X358391Y541378D01*
X358424Y541284D01*
X358460Y541191D01*
X358500Y541100D01*
X358544Y541010D01*
X358591Y540922D01*
X358641Y540836D01*
X358695Y540752D01*
X358752Y540670D01*
X358812Y540591D01*
X358876Y540513D01*
X358942Y540439D01*
X359011Y540367D01*
X359083Y540298D01*
X359157Y540232D01*
X359235Y540168D01*
X359314Y540108D01*
X359396Y540051D01*
X359480Y539997D01*
X359566Y539947D01*
X359654Y539900D01*
X359744Y539856D01*
X359835Y539816D01*
X359928Y539780D01*
X360022Y539747D01*
X360118Y539718D01*
X360214Y539693D01*
X360311Y539672D01*
X360410Y539654D01*
X360508Y539641D01*
X360608Y539631D01*
X360707Y539625D01*
X360807Y539623D01*
X362077Y539623D01*
X352287Y539623D02*
X352287Y551053D01*
X349112Y551053D01*
X349001Y551051D01*
X348891Y551045D01*
X348780Y551036D01*
X348670Y551022D01*
X348561Y551005D01*
X348452Y550984D01*
X348344Y550959D01*
X348237Y550930D01*
X348131Y550898D01*
X348026Y550862D01*
X347923Y550822D01*
X347821Y550779D01*
X347720Y550732D01*
X347621Y550681D01*
X347525Y550628D01*
X347430Y550571D01*
X347337Y550510D01*
X347246Y550447D01*
X347157Y550380D01*
X347071Y550310D01*
X346988Y550237D01*
X346906Y550162D01*
X346828Y550084D01*
X346753Y550002D01*
X346680Y549919D01*
X346610Y549833D01*
X346543Y549744D01*
X346480Y549653D01*
X346419Y549560D01*
X346362Y549466D01*
X346309Y549369D01*
X346258Y549270D01*
X346211Y549169D01*
X346168Y549067D01*
X346128Y548964D01*
X346092Y548859D01*
X346060Y548753D01*
X346031Y548646D01*
X346006Y548538D01*
X345985Y548429D01*
X345968Y548320D01*
X345954Y548210D01*
X345945Y548099D01*
X345939Y547989D01*
X345937Y547878D01*
X345939Y547767D01*
X345945Y547657D01*
X345954Y547546D01*
X345968Y547436D01*
X345985Y547327D01*
X346006Y547218D01*
X346031Y547110D01*
X346060Y547003D01*
X346092Y546897D01*
X346128Y546792D01*
X346168Y546689D01*
X346211Y546587D01*
X346258Y546486D01*
X346309Y546387D01*
X346362Y546291D01*
X346419Y546196D01*
X346480Y546103D01*
X346543Y546012D01*
X346610Y545923D01*
X346680Y545837D01*
X346753Y545754D01*
X346828Y545672D01*
X346906Y545594D01*
X346988Y545519D01*
X347071Y545446D01*
X347157Y545376D01*
X347246Y545309D01*
X347337Y545246D01*
X347430Y545185D01*
X347525Y545128D01*
X347621Y545075D01*
X347720Y545024D01*
X347821Y544977D01*
X347923Y544934D01*
X348026Y544894D01*
X348131Y544858D01*
X348237Y544826D01*
X348344Y544797D01*
X348452Y544772D01*
X348561Y544751D01*
X348670Y544734D01*
X348780Y544720D01*
X348891Y544711D01*
X349001Y544705D01*
X349112Y544703D01*
X352287Y544703D01*
X341428Y548513D02*
X338253Y551053D01*
X338253Y539623D01*
X341428Y539623D02*
X335078Y539623D01*
X329998Y542163D02*
X327458Y551053D01*
X329998Y542163D02*
X323648Y542163D01*
X325553Y544703D02*
X325553Y539623D01*
D10*
X424713Y587572D02*
X435712Y581222D01*
X424713Y587572D02*
X416039Y585248D01*
X400164Y557752D01*
X402488Y549078D01*
X413487Y542728D01*
X422161Y545052D01*
X438036Y572548D01*
X435712Y581222D01*
D11*
X406495Y587321D02*
X398796Y591766D01*
X406495Y587321D02*
X406582Y587273D01*
X406671Y587228D01*
X406762Y587187D01*
X406855Y587150D01*
X406949Y587116D01*
X407044Y587086D01*
X407140Y587059D01*
X407237Y587037D01*
X407335Y587018D01*
X407433Y587003D01*
X407533Y586992D01*
X407632Y586984D01*
X407732Y586981D01*
X407831Y586982D01*
X407931Y586986D01*
X408030Y586995D01*
X408129Y587007D01*
X408228Y587024D01*
X408326Y587044D01*
X408422Y587068D01*
X408518Y587095D01*
X408613Y587127D01*
X408706Y587162D01*
X408798Y587201D01*
X408888Y587243D01*
X408977Y587289D01*
X409064Y587338D01*
X409148Y587391D01*
X409231Y587447D01*
X409311Y587506D01*
X409389Y587568D01*
X409465Y587633D01*
X409537Y587702D01*
X409607Y587773D01*
X409675Y587846D01*
X409739Y587923D01*
X409800Y588001D01*
X409858Y588082D01*
X409913Y588166D01*
X409965Y588251D01*
X409964Y588251D02*
X410599Y589351D01*
X405704Y580872D02*
X395805Y586587D01*
X394218Y583838D01*
X394165Y583741D01*
X394114Y583642D01*
X394067Y583541D01*
X394024Y583439D01*
X393984Y583336D01*
X393948Y583231D01*
X393916Y583125D01*
X393887Y583018D01*
X393862Y582910D01*
X393841Y582801D01*
X393824Y582692D01*
X393810Y582582D01*
X393801Y582471D01*
X393795Y582361D01*
X393793Y582250D01*
X393795Y582139D01*
X393801Y582029D01*
X393810Y581918D01*
X393824Y581808D01*
X393841Y581699D01*
X393862Y581590D01*
X393887Y581482D01*
X393916Y581375D01*
X393948Y581269D01*
X393984Y581164D01*
X394024Y581061D01*
X394067Y580959D01*
X394114Y580858D01*
X394165Y580759D01*
X394218Y580663D01*
X394275Y580568D01*
X394336Y580475D01*
X394399Y580384D01*
X394466Y580295D01*
X394536Y580209D01*
X394609Y580126D01*
X394684Y580044D01*
X394762Y579966D01*
X394844Y579891D01*
X394927Y579818D01*
X395013Y579748D01*
X395102Y579681D01*
X395193Y579618D01*
X395286Y579557D01*
X395380Y579500D01*
X395477Y579447D01*
X395576Y579396D01*
X395677Y579349D01*
X395779Y579306D01*
X395882Y579266D01*
X395987Y579230D01*
X396093Y579198D01*
X396200Y579169D01*
X396308Y579144D01*
X396417Y579123D01*
X396526Y579106D01*
X396636Y579092D01*
X396747Y579083D01*
X396857Y579077D01*
X396968Y579075D01*
X397079Y579077D01*
X397189Y579083D01*
X397300Y579092D01*
X397410Y579106D01*
X397519Y579123D01*
X397628Y579144D01*
X397736Y579169D01*
X397843Y579198D01*
X397949Y579230D01*
X398054Y579266D01*
X398157Y579306D01*
X398259Y579349D01*
X398360Y579396D01*
X398459Y579447D01*
X398555Y579500D01*
X398650Y579557D01*
X398743Y579618D01*
X398834Y579681D01*
X398923Y579748D01*
X399009Y579818D01*
X399092Y579891D01*
X399174Y579966D01*
X399252Y580044D01*
X399327Y580126D01*
X399400Y580209D01*
X399470Y580295D01*
X399537Y580384D01*
X399600Y580475D01*
X399661Y580568D01*
X399718Y580662D01*
X399717Y580663D02*
X401305Y583412D01*
X392576Y575914D02*
X388789Y574434D01*
X398687Y568719D01*
X400275Y571469D02*
X397100Y565969D01*
X394560Y561570D02*
X392655Y558270D01*
X392603Y558185D01*
X392548Y558101D01*
X392490Y558020D01*
X392429Y557942D01*
X392365Y557865D01*
X392297Y557792D01*
X392227Y557721D01*
X392155Y557652D01*
X392079Y557587D01*
X392001Y557525D01*
X391921Y557466D01*
X391838Y557410D01*
X391754Y557357D01*
X391667Y557308D01*
X391578Y557262D01*
X391488Y557220D01*
X391396Y557181D01*
X391303Y557146D01*
X391208Y557114D01*
X391112Y557087D01*
X391016Y557063D01*
X390918Y557043D01*
X390819Y557026D01*
X390721Y557014D01*
X390621Y557005D01*
X390522Y557001D01*
X390422Y557000D01*
X390322Y557003D01*
X390223Y557011D01*
X390123Y557022D01*
X390025Y557037D01*
X389927Y557055D01*
X389830Y557078D01*
X389734Y557105D01*
X389639Y557135D01*
X389545Y557169D01*
X389452Y557206D01*
X389362Y557247D01*
X389272Y557292D01*
X389185Y557340D01*
X389185Y557341D02*
X388085Y557976D01*
X388085Y557975D02*
X388000Y558027D01*
X387916Y558082D01*
X387835Y558140D01*
X387757Y558201D01*
X387680Y558265D01*
X387607Y558333D01*
X387536Y558403D01*
X387467Y558475D01*
X387402Y558551D01*
X387340Y558629D01*
X387281Y558709D01*
X387225Y558792D01*
X387172Y558876D01*
X387123Y558963D01*
X387077Y559052D01*
X387035Y559142D01*
X386996Y559234D01*
X386961Y559327D01*
X386929Y559422D01*
X386902Y559518D01*
X386878Y559614D01*
X386858Y559712D01*
X386841Y559811D01*
X386829Y559909D01*
X386820Y560009D01*
X386816Y560109D01*
X386815Y560208D01*
X386818Y560308D01*
X386826Y560407D01*
X386837Y560507D01*
X386852Y560605D01*
X386871Y560703D01*
X386893Y560800D01*
X386920Y560896D01*
X386950Y560991D01*
X386984Y561085D01*
X387021Y561178D01*
X387062Y561268D01*
X387107Y561358D01*
X387155Y561445D01*
X387156Y561445D02*
X389061Y564745D01*
X384661Y567285D01*
X381486Y561786D01*
D10*
X402488Y670122D02*
X413487Y676472D01*
X402488Y670122D02*
X400164Y661448D01*
X416039Y633952D01*
X424713Y631628D01*
X435712Y637978D01*
X438036Y646652D01*
X422161Y674148D01*
X413487Y676472D01*
D11*
X413584Y629477D02*
X405885Y625032D01*
X405885Y625033D02*
X405800Y624981D01*
X405716Y624926D01*
X405635Y624868D01*
X405557Y624807D01*
X405480Y624743D01*
X405407Y624675D01*
X405336Y624605D01*
X405267Y624533D01*
X405202Y624457D01*
X405140Y624379D01*
X405081Y624299D01*
X405025Y624216D01*
X404972Y624132D01*
X404923Y624045D01*
X404877Y623956D01*
X404835Y623866D01*
X404796Y623774D01*
X404761Y623681D01*
X404729Y623586D01*
X404702Y623490D01*
X404678Y623394D01*
X404658Y623296D01*
X404641Y623197D01*
X404629Y623099D01*
X404620Y622999D01*
X404616Y622900D01*
X404615Y622800D01*
X404618Y622700D01*
X404626Y622601D01*
X404637Y622501D01*
X404652Y622403D01*
X404670Y622305D01*
X404693Y622208D01*
X404720Y622112D01*
X404750Y622017D01*
X404784Y621923D01*
X404821Y621830D01*
X404862Y621740D01*
X404907Y621650D01*
X404955Y621563D01*
X405590Y620463D01*
X400695Y628941D02*
X410594Y634656D01*
X409006Y637406D01*
X409006Y637407D02*
X408949Y637501D01*
X408888Y637594D01*
X408825Y637685D01*
X408758Y637774D01*
X408688Y637860D01*
X408615Y637943D01*
X408540Y638025D01*
X408462Y638103D01*
X408380Y638178D01*
X408297Y638251D01*
X408211Y638321D01*
X408122Y638388D01*
X408031Y638451D01*
X407938Y638512D01*
X407843Y638569D01*
X407747Y638622D01*
X407648Y638673D01*
X407547Y638720D01*
X407445Y638763D01*
X407342Y638803D01*
X407237Y638839D01*
X407131Y638871D01*
X407024Y638900D01*
X406916Y638925D01*
X406807Y638946D01*
X406698Y638963D01*
X406588Y638977D01*
X406477Y638986D01*
X406367Y638992D01*
X406256Y638994D01*
X406145Y638992D01*
X406035Y638986D01*
X405924Y638977D01*
X405814Y638963D01*
X405705Y638946D01*
X405596Y638925D01*
X405488Y638900D01*
X405381Y638871D01*
X405275Y638839D01*
X405170Y638803D01*
X405067Y638763D01*
X404965Y638720D01*
X404864Y638673D01*
X404765Y638622D01*
X404668Y638569D01*
X404574Y638512D01*
X404481Y638451D01*
X404390Y638388D01*
X404301Y638321D01*
X404215Y638251D01*
X404132Y638178D01*
X404050Y638103D01*
X403972Y638025D01*
X403897Y637943D01*
X403824Y637860D01*
X403754Y637774D01*
X403687Y637685D01*
X403624Y637594D01*
X403563Y637501D01*
X403506Y637406D01*
X403453Y637310D01*
X403402Y637211D01*
X403355Y637110D01*
X403312Y637008D01*
X403272Y636905D01*
X403236Y636800D01*
X403204Y636694D01*
X403175Y636587D01*
X403150Y636479D01*
X403129Y636370D01*
X403112Y636261D01*
X403098Y636151D01*
X403089Y636040D01*
X403083Y635930D01*
X403081Y635819D01*
X403083Y635708D01*
X403089Y635598D01*
X403098Y635487D01*
X403112Y635377D01*
X403129Y635268D01*
X403150Y635159D01*
X403175Y635051D01*
X403204Y634944D01*
X403236Y634838D01*
X403272Y634733D01*
X403312Y634630D01*
X403355Y634528D01*
X403402Y634427D01*
X403453Y634328D01*
X403506Y634231D01*
X403507Y634231D02*
X405094Y631481D01*
X402965Y642790D02*
X403577Y646810D01*
X393678Y641095D01*
X392091Y643844D02*
X395266Y638345D01*
X395050Y651419D02*
X393145Y654718D01*
X393093Y654803D01*
X393038Y654887D01*
X392980Y654968D01*
X392919Y655046D01*
X392855Y655123D01*
X392787Y655196D01*
X392717Y655267D01*
X392645Y655336D01*
X392569Y655401D01*
X392491Y655463D01*
X392411Y655522D01*
X392328Y655578D01*
X392244Y655631D01*
X392157Y655680D01*
X392068Y655726D01*
X391978Y655768D01*
X391886Y655807D01*
X391793Y655842D01*
X391698Y655874D01*
X391602Y655901D01*
X391506Y655925D01*
X391408Y655945D01*
X391309Y655962D01*
X391211Y655974D01*
X391111Y655983D01*
X391012Y655987D01*
X390912Y655988D01*
X390812Y655985D01*
X390713Y655977D01*
X390613Y655966D01*
X390515Y655951D01*
X390417Y655933D01*
X390320Y655910D01*
X390224Y655883D01*
X390129Y655853D01*
X390035Y655819D01*
X389942Y655782D01*
X389852Y655741D01*
X389762Y655696D01*
X389675Y655648D01*
X389125Y655331D01*
X389029Y655273D01*
X388935Y655212D01*
X388844Y655147D01*
X388754Y655080D01*
X388667Y655009D01*
X388583Y654935D01*
X388501Y654859D01*
X388422Y654779D01*
X388346Y654697D01*
X388273Y654612D01*
X388203Y654525D01*
X388136Y654435D01*
X388072Y654343D01*
X388011Y654249D01*
X387954Y654152D01*
X387900Y654054D01*
X387850Y653954D01*
X387803Y653852D01*
X387760Y653748D01*
X387721Y653643D01*
X387685Y653537D01*
X387654Y653430D01*
X387626Y653321D01*
X387601Y653212D01*
X387581Y653102D01*
X387565Y652991D01*
X387552Y652879D01*
X387543Y652768D01*
X387539Y652656D01*
X387538Y652544D01*
X387542Y652432D01*
X387549Y652320D01*
X387560Y652208D01*
X387575Y652097D01*
X387594Y651987D01*
X387617Y651877D01*
X387644Y651768D01*
X387674Y651660D01*
X387709Y651554D01*
X387747Y651448D01*
X387789Y651344D01*
X387834Y651242D01*
X387883Y651141D01*
X387936Y651042D01*
X387992Y650945D01*
X388051Y650850D01*
X388114Y650757D01*
X388180Y650667D01*
X388249Y650579D01*
X388321Y650493D01*
X388396Y650410D01*
X388475Y650329D01*
X388555Y650252D01*
X388639Y650177D01*
X388725Y650105D01*
X388814Y650037D01*
X388905Y649971D01*
X388998Y649909D01*
X389093Y649850D01*
X389191Y649795D01*
X389290Y649743D01*
X389391Y649694D01*
X389494Y649649D01*
X389598Y649608D01*
X389703Y649571D01*
X389810Y649537D01*
X389918Y649507D01*
X390027Y649481D01*
X390137Y649459D01*
X390248Y649440D01*
X390359Y649426D01*
X390470Y649415D01*
X390582Y649409D01*
X390694Y649406D01*
X390806Y649407D01*
X390918Y649413D01*
X391030Y649422D01*
X391141Y649435D01*
X391252Y649452D01*
X391362Y649473D01*
X391471Y649498D01*
X391580Y649527D01*
X391687Y649559D01*
X391793Y649595D01*
X391898Y649635D01*
X392001Y649679D01*
X392103Y649726D01*
X392202Y649777D01*
X392300Y649831D01*
X395050Y651419D01*
X395170Y651490D01*
X395289Y651565D01*
X395405Y651643D01*
X395519Y651725D01*
X395630Y651809D01*
X395739Y651897D01*
X395846Y651987D01*
X395951Y652081D01*
X396052Y652177D01*
X396151Y652276D01*
X396247Y652377D01*
X396341Y652482D01*
X396431Y652589D01*
X396519Y652698D01*
X396603Y652809D01*
X396685Y652923D01*
X396763Y653040D01*
X396838Y653158D01*
X396909Y653278D01*
X396978Y653400D01*
X397043Y653524D01*
X397104Y653650D01*
X397162Y653777D01*
X397217Y653906D01*
X397267Y654037D01*
X397315Y654169D01*
X397358Y654302D01*
X397398Y654436D01*
X397435Y654571D01*
X397467Y654707D01*
X397496Y654844D01*
X397521Y654982D01*
X397542Y655120D01*
X397559Y655259D01*
X397573Y655399D01*
X397582Y655538D01*
X397588Y655678D01*
X397590Y655818D01*
X397588Y655958D01*
X397582Y656098D01*
X397573Y656238D01*
X397559Y656377D01*
X397542Y656516D01*
X397521Y656654D01*
X397496Y656792D01*
X397467Y656929D01*
X397435Y657065D01*
X397398Y657200D01*
X397358Y657334D01*
X397315Y657467D01*
X397267Y657599D01*
X397217Y657730D01*
X397162Y657859D01*
X397104Y657986D01*
X397043Y658112D01*
X396978Y658236D01*
X396909Y658358D01*
D10*
X222787Y634262D02*
X211053Y639122D01*
X222787Y634262D02*
X231083Y637698D01*
X243233Y667032D01*
X239797Y675328D01*
X228064Y680188D01*
X219767Y676752D01*
X207617Y647418D01*
X211053Y639122D01*
D11*
X210441Y670788D02*
X202228Y674190D01*
X210441Y670787D02*
X210534Y670751D01*
X210628Y670718D01*
X210724Y670689D01*
X210820Y670664D01*
X210917Y670643D01*
X211016Y670625D01*
X211114Y670612D01*
X211214Y670602D01*
X211313Y670596D01*
X211413Y670594D01*
X211513Y670596D01*
X211612Y670602D01*
X211712Y670612D01*
X211810Y670625D01*
X211909Y670643D01*
X212006Y670664D01*
X212102Y670689D01*
X212198Y670718D01*
X212292Y670751D01*
X212385Y670787D01*
X212476Y670827D01*
X212566Y670871D01*
X212654Y670918D01*
X212740Y670968D01*
X212824Y671022D01*
X212906Y671079D01*
X212986Y671139D01*
X213063Y671203D01*
X213137Y671269D01*
X213209Y671338D01*
X213278Y671410D01*
X213344Y671484D01*
X213408Y671562D01*
X213468Y671641D01*
X213525Y671723D01*
X213579Y671807D01*
X213629Y671893D01*
X213676Y671981D01*
X213720Y672071D01*
X213760Y672162D01*
X214246Y673336D01*
X210499Y664291D02*
X199939Y668665D01*
X198724Y665732D01*
X198725Y665732D02*
X198684Y665628D01*
X198646Y665522D01*
X198613Y665415D01*
X198583Y665307D01*
X198557Y665198D01*
X198535Y665088D01*
X198517Y664978D01*
X198502Y664867D01*
X198492Y664755D01*
X198486Y664643D01*
X198483Y664531D01*
X198485Y664419D01*
X198490Y664307D01*
X198499Y664195D01*
X198513Y664084D01*
X198530Y663973D01*
X198551Y663863D01*
X198576Y663754D01*
X198605Y663646D01*
X198638Y663539D01*
X198674Y663433D01*
X198714Y663328D01*
X198758Y663225D01*
X198805Y663123D01*
X198856Y663023D01*
X198911Y662925D01*
X198969Y662829D01*
X199030Y662736D01*
X199094Y662644D01*
X199162Y662555D01*
X199233Y662468D01*
X199307Y662384D01*
X199383Y662302D01*
X199463Y662223D01*
X199545Y662147D01*
X199630Y662074D01*
X199718Y662004D01*
X199808Y661937D01*
X199900Y661873D01*
X199994Y661813D01*
X200091Y661756D01*
X200189Y661702D01*
X200289Y661652D01*
X200391Y661606D01*
X200495Y661563D01*
X200600Y661523D01*
X200706Y661488D01*
X200814Y661456D01*
X200922Y661428D01*
X201032Y661404D01*
X201142Y661384D01*
X201253Y661368D01*
X201364Y661356D01*
X201476Y661347D01*
X201588Y661343D01*
X201700Y661342D01*
X201812Y661346D01*
X201924Y661353D01*
X202035Y661365D01*
X202146Y661380D01*
X202257Y661399D01*
X202366Y661422D01*
X202475Y661449D01*
X202583Y661480D01*
X202690Y661514D01*
X202795Y661553D01*
X202899Y661595D01*
X203001Y661640D01*
X203102Y661689D01*
X203201Y661742D01*
X203298Y661798D01*
X203393Y661858D01*
X203485Y661921D01*
X203576Y661987D01*
X203664Y662056D01*
X203750Y662128D01*
X203833Y662204D01*
X203913Y662282D01*
X203990Y662363D01*
X204065Y662446D01*
X204137Y662533D01*
X204205Y662621D01*
X204270Y662712D01*
X204332Y662806D01*
X204391Y662901D01*
X204446Y662999D01*
X204498Y663098D01*
X204547Y663199D01*
X204591Y663302D01*
X205806Y666235D01*
X194447Y655407D02*
X194407Y655307D01*
X194372Y655206D01*
X194341Y655104D01*
X194313Y655001D01*
X194289Y654897D01*
X194269Y654792D01*
X194253Y654686D01*
X194241Y654580D01*
X194233Y654473D01*
X194229Y654366D01*
X194229Y654260D01*
X194233Y654153D01*
X194241Y654046D01*
X194253Y653940D01*
X194269Y653834D01*
X194289Y653729D01*
X194313Y653625D01*
X194341Y653522D01*
X194372Y653420D01*
X194408Y653319D01*
X194447Y653219D01*
X194489Y653121D01*
X194536Y653025D01*
X194586Y652931D01*
X194639Y652838D01*
X194696Y652747D01*
X194756Y652659D01*
X194820Y652573D01*
X194886Y652490D01*
X194956Y652409D01*
X195029Y652330D01*
X195104Y652255D01*
X195183Y652182D01*
X195264Y652112D01*
X195347Y652046D01*
X195433Y651982D01*
X195521Y651922D01*
X195612Y651865D01*
X195705Y651812D01*
X195799Y651762D01*
X195895Y651715D01*
X195993Y651673D01*
X194447Y655406D02*
X194494Y655514D01*
X194545Y655621D01*
X194599Y655727D01*
X194656Y655830D01*
X194717Y655932D01*
X194781Y656032D01*
X194848Y656129D01*
X194918Y656225D01*
X194991Y656318D01*
X195067Y656408D01*
X195146Y656496D01*
X195228Y656582D01*
X195313Y656665D01*
X195400Y656745D01*
X195490Y656822D01*
X195582Y656896D01*
X195676Y656967D01*
X195773Y657036D01*
X195872Y657101D01*
X195973Y657162D01*
X196076Y657221D01*
X196181Y657276D01*
X196287Y657328D01*
X196395Y657376D01*
X196505Y657421D01*
X196616Y657462D01*
X196728Y657500D01*
X196841Y657534D01*
X196956Y657564D01*
X197071Y657591D01*
X197187Y657614D01*
X197304Y657633D01*
X197422Y657648D01*
X197539Y657660D01*
X197657Y657668D01*
X197776Y657671D01*
X197894Y657672D01*
X198012Y657668D01*
X198131Y657660D01*
X198411Y651702D02*
X198312Y651660D01*
X198211Y651622D01*
X198108Y651587D01*
X198005Y651555D01*
X197901Y651528D01*
X197795Y651504D01*
X197689Y651484D01*
X197582Y651467D01*
X197475Y651454D01*
X197367Y651445D01*
X197259Y651440D01*
X197151Y651439D01*
X197043Y651442D01*
X196936Y651448D01*
X196828Y651458D01*
X196721Y651472D01*
X196614Y651489D01*
X196508Y651511D01*
X196403Y651536D01*
X196299Y651565D01*
X196196Y651597D01*
X196094Y651633D01*
X195994Y651673D01*
X198412Y651702D02*
X206344Y654259D01*
X203914Y648392D01*
D10*
X239797Y543872D02*
X228064Y539012D01*
X239797Y543872D02*
X243233Y552168D01*
X231083Y581502D01*
X222787Y584938D01*
X211053Y580078D01*
X207617Y571782D01*
X219767Y542448D01*
X228064Y539012D01*
D11*
X215838Y541793D02*
X207625Y538391D01*
X207625Y538392D02*
X207534Y538352D01*
X207444Y538308D01*
X207356Y538261D01*
X207270Y538211D01*
X207186Y538157D01*
X207104Y538100D01*
X207025Y538040D01*
X206947Y537976D01*
X206873Y537910D01*
X206801Y537841D01*
X206732Y537769D01*
X206666Y537695D01*
X206602Y537618D01*
X206542Y537538D01*
X206485Y537456D01*
X206431Y537372D01*
X206381Y537286D01*
X206334Y537198D01*
X206290Y537108D01*
X206250Y537017D01*
X206214Y536924D01*
X206181Y536830D01*
X206152Y536734D01*
X206127Y536638D01*
X206106Y536541D01*
X206088Y536442D01*
X206075Y536344D01*
X206065Y536244D01*
X206059Y536145D01*
X206057Y536045D01*
X206059Y535945D01*
X206065Y535846D01*
X206075Y535747D01*
X206088Y535648D01*
X206106Y535550D01*
X206127Y535452D01*
X206152Y535356D01*
X206181Y535260D01*
X206214Y535166D01*
X206250Y535073D01*
X206736Y533899D01*
X202990Y542944D02*
X213550Y547318D01*
X212335Y550252D01*
X212291Y550355D01*
X212242Y550456D01*
X212190Y550555D01*
X212135Y550653D01*
X212076Y550748D01*
X212014Y550842D01*
X211949Y550933D01*
X211881Y551021D01*
X211809Y551108D01*
X211734Y551191D01*
X211657Y551272D01*
X211577Y551350D01*
X211494Y551426D01*
X211408Y551498D01*
X211320Y551567D01*
X211229Y551633D01*
X211137Y551696D01*
X211042Y551756D01*
X210945Y551812D01*
X210846Y551865D01*
X210745Y551914D01*
X210643Y551959D01*
X210539Y552001D01*
X210434Y552040D01*
X210327Y552074D01*
X210219Y552105D01*
X210110Y552132D01*
X210001Y552155D01*
X209890Y552174D01*
X209779Y552189D01*
X209668Y552201D01*
X209556Y552208D01*
X209444Y552212D01*
X209332Y552211D01*
X209220Y552207D01*
X209108Y552198D01*
X208997Y552186D01*
X208886Y552170D01*
X208776Y552150D01*
X208666Y552126D01*
X208558Y552098D01*
X208450Y552066D01*
X208344Y552031D01*
X208239Y551991D01*
X208135Y551948D01*
X208033Y551902D01*
X207933Y551852D01*
X207835Y551798D01*
X207738Y551741D01*
X207644Y551681D01*
X207552Y551617D01*
X207462Y551550D01*
X207374Y551480D01*
X207289Y551407D01*
X207207Y551331D01*
X207127Y551252D01*
X207051Y551171D01*
X206977Y551086D01*
X206906Y550999D01*
X206838Y550910D01*
X206774Y550818D01*
X206713Y550725D01*
X206655Y550629D01*
X206600Y550531D01*
X206549Y550431D01*
X206502Y550329D01*
X206458Y550226D01*
X206418Y550121D01*
X206382Y550015D01*
X206349Y549908D01*
X206320Y549800D01*
X206295Y549691D01*
X206274Y549581D01*
X206257Y549470D01*
X206243Y549359D01*
X206234Y549247D01*
X206229Y549135D01*
X206227Y549023D01*
X206230Y548911D01*
X206236Y548799D01*
X206246Y548687D01*
X206261Y548576D01*
X206279Y548466D01*
X206301Y548356D01*
X206327Y548247D01*
X206357Y548139D01*
X206390Y548032D01*
X206428Y547926D01*
X206469Y547822D01*
X206468Y547822D02*
X207683Y544888D01*
X198835Y552976D02*
X197620Y555909D01*
X197579Y556013D01*
X197541Y556119D01*
X197508Y556226D01*
X197478Y556334D01*
X197452Y556443D01*
X197430Y556553D01*
X197412Y556663D01*
X197397Y556774D01*
X197387Y556886D01*
X197381Y556998D01*
X197378Y557110D01*
X197380Y557222D01*
X197385Y557334D01*
X197394Y557446D01*
X197408Y557557D01*
X197425Y557668D01*
X197446Y557778D01*
X197471Y557887D01*
X197500Y557995D01*
X197533Y558102D01*
X197569Y558208D01*
X197609Y558313D01*
X197653Y558416D01*
X197700Y558518D01*
X197751Y558618D01*
X197806Y558716D01*
X197864Y558812D01*
X197925Y558905D01*
X197989Y558997D01*
X198057Y559086D01*
X198128Y559173D01*
X198202Y559258D01*
X198278Y559339D01*
X198358Y559418D01*
X198440Y559494D01*
X198525Y559567D01*
X198613Y559637D01*
X198703Y559704D01*
X198795Y559768D01*
X198889Y559828D01*
X198986Y559885D01*
X199084Y559939D01*
X199184Y559989D01*
X199286Y560035D01*
X199390Y560078D01*
X199495Y560118D01*
X199601Y560153D01*
X199709Y560185D01*
X199817Y560213D01*
X199927Y560237D01*
X200037Y560257D01*
X200148Y560273D01*
X200259Y560285D01*
X200371Y560294D01*
X200483Y560298D01*
X200595Y560299D01*
X200707Y560295D01*
X200819Y560288D01*
X200930Y560276D01*
X201041Y560261D01*
X201152Y560242D01*
X201261Y560219D01*
X201370Y560192D01*
X201478Y560161D01*
X201585Y560127D01*
X201690Y560088D01*
X201794Y560046D01*
X201896Y560001D01*
X201997Y559952D01*
X202096Y559899D01*
X202193Y559843D01*
X202288Y559783D01*
X202380Y559720D01*
X202471Y559654D01*
X202559Y559585D01*
X202645Y559513D01*
X202728Y559437D01*
X202808Y559359D01*
X202885Y559278D01*
X202960Y559195D01*
X203032Y559108D01*
X203100Y559020D01*
X203165Y558929D01*
X203227Y558835D01*
X203286Y558740D01*
X203341Y558642D01*
X203393Y558543D01*
X203442Y558442D01*
X203486Y558339D01*
X207937Y560870D02*
X209395Y557350D01*
X207937Y560870D02*
X207897Y560961D01*
X207853Y561051D01*
X207806Y561139D01*
X207756Y561225D01*
X207702Y561309D01*
X207645Y561391D01*
X207585Y561471D01*
X207521Y561548D01*
X207455Y561622D01*
X207386Y561694D01*
X207314Y561763D01*
X207240Y561829D01*
X207162Y561893D01*
X207083Y561953D01*
X207001Y562010D01*
X206917Y562064D01*
X206831Y562114D01*
X206743Y562161D01*
X206653Y562205D01*
X206562Y562245D01*
X206469Y562281D01*
X206375Y562314D01*
X206279Y562343D01*
X206183Y562368D01*
X206086Y562389D01*
X205987Y562407D01*
X205889Y562420D01*
X205789Y562430D01*
X205690Y562436D01*
X205590Y562438D01*
X205490Y562436D01*
X205391Y562430D01*
X205291Y562420D01*
X205193Y562407D01*
X205094Y562389D01*
X204997Y562368D01*
X204901Y562343D01*
X204805Y562314D01*
X204711Y562281D01*
X204618Y562245D01*
X204527Y562205D01*
X204437Y562161D01*
X204349Y562114D01*
X204263Y562064D01*
X204179Y562010D01*
X204097Y561953D01*
X204018Y561893D01*
X203940Y561829D01*
X203866Y561763D01*
X203794Y561694D01*
X203725Y561622D01*
X203659Y561548D01*
X203595Y561471D01*
X203535Y561391D01*
X203478Y561309D01*
X203424Y561225D01*
X203374Y561139D01*
X203327Y561051D01*
X203283Y560961D01*
X203243Y560870D01*
X203207Y560777D01*
X203174Y560683D01*
X203145Y560587D01*
X203120Y560491D01*
X203099Y560394D01*
X203081Y560295D01*
X203068Y560197D01*
X203058Y560097D01*
X203052Y559998D01*
X203050Y559898D01*
X203052Y559798D01*
X203058Y559699D01*
X203068Y559599D01*
X203081Y559501D01*
X203099Y559402D01*
X203120Y559305D01*
X203145Y559209D01*
X203174Y559113D01*
X203207Y559019D01*
X203243Y558926D01*
X204215Y556580D01*
D10*
X318238Y489486D02*
X313378Y477753D01*
X318238Y489486D02*
X314802Y497783D01*
X285469Y509933D01*
X277172Y506497D01*
X272312Y494764D01*
X275748Y486467D01*
X305082Y474317D01*
X313378Y477753D01*
D11*
X309886Y505133D02*
X313288Y513347D01*
X309885Y505133D02*
X309849Y505040D01*
X309816Y504946D01*
X309787Y504850D01*
X309762Y504754D01*
X309741Y504657D01*
X309723Y504558D01*
X309710Y504460D01*
X309700Y504360D01*
X309694Y504261D01*
X309692Y504161D01*
X309694Y504061D01*
X309700Y503962D01*
X309710Y503862D01*
X309723Y503764D01*
X309741Y503665D01*
X309762Y503568D01*
X309787Y503472D01*
X309816Y503376D01*
X309849Y503282D01*
X309885Y503189D01*
X309925Y503098D01*
X309969Y503008D01*
X310016Y502920D01*
X310066Y502834D01*
X310120Y502750D01*
X310177Y502668D01*
X310237Y502589D01*
X310301Y502511D01*
X310367Y502437D01*
X310436Y502365D01*
X310508Y502296D01*
X310582Y502230D01*
X310659Y502166D01*
X310739Y502106D01*
X310821Y502049D01*
X310905Y501995D01*
X310991Y501945D01*
X311079Y501898D01*
X311169Y501854D01*
X311260Y501814D01*
X311260Y501815D02*
X312434Y501329D01*
X303389Y505075D02*
X307763Y515635D01*
X304830Y516850D01*
X304726Y516891D01*
X304620Y516929D01*
X304513Y516962D01*
X304405Y516992D01*
X304296Y517018D01*
X304186Y517040D01*
X304076Y517058D01*
X303965Y517073D01*
X303853Y517083D01*
X303741Y517089D01*
X303629Y517092D01*
X303517Y517090D01*
X303405Y517085D01*
X303293Y517076D01*
X303182Y517062D01*
X303071Y517045D01*
X302961Y517024D01*
X302852Y516999D01*
X302744Y516970D01*
X302637Y516937D01*
X302531Y516901D01*
X302426Y516861D01*
X302323Y516817D01*
X302221Y516770D01*
X302121Y516719D01*
X302023Y516664D01*
X301927Y516606D01*
X301834Y516545D01*
X301742Y516481D01*
X301653Y516413D01*
X301566Y516342D01*
X301482Y516268D01*
X301400Y516192D01*
X301321Y516112D01*
X301245Y516030D01*
X301172Y515945D01*
X301102Y515857D01*
X301035Y515767D01*
X300971Y515675D01*
X300911Y515581D01*
X300854Y515484D01*
X300800Y515386D01*
X300750Y515286D01*
X300704Y515184D01*
X300661Y515080D01*
X300621Y514975D01*
X300586Y514869D01*
X300554Y514761D01*
X300526Y514653D01*
X300502Y514543D01*
X300482Y514433D01*
X300466Y514322D01*
X300454Y514211D01*
X300445Y514099D01*
X300441Y513987D01*
X300440Y513875D01*
X300444Y513763D01*
X300451Y513651D01*
X300463Y513540D01*
X300478Y513429D01*
X300497Y513318D01*
X300520Y513209D01*
X300547Y513100D01*
X300578Y512992D01*
X300612Y512885D01*
X300651Y512780D01*
X300693Y512676D01*
X300738Y512574D01*
X300787Y512473D01*
X300840Y512374D01*
X300896Y512277D01*
X300956Y512182D01*
X301019Y512090D01*
X301085Y511999D01*
X301154Y511911D01*
X301226Y511825D01*
X301302Y511742D01*
X301380Y511662D01*
X301461Y511585D01*
X301544Y511510D01*
X301631Y511438D01*
X301719Y511370D01*
X301810Y511305D01*
X301904Y511243D01*
X301999Y511184D01*
X302097Y511129D01*
X302196Y511077D01*
X302297Y511028D01*
X302400Y510984D01*
X305333Y509769D01*
X294329Y511577D02*
X295384Y520763D01*
X294329Y511577D02*
X288462Y514007D01*
X289250Y510932D02*
X291194Y515625D01*
D10*
X408628Y506497D02*
X413488Y494764D01*
X408628Y506497D02*
X400332Y509933D01*
X370998Y497783D01*
X367562Y489486D01*
X372422Y477753D01*
X380719Y474317D01*
X410052Y486467D01*
X413488Y494764D01*
D11*
X395059Y515600D02*
X391657Y523813D01*
X395058Y515600D02*
X395098Y515509D01*
X395142Y515419D01*
X395189Y515331D01*
X395239Y515245D01*
X395293Y515161D01*
X395350Y515079D01*
X395410Y514999D01*
X395474Y514922D01*
X395540Y514848D01*
X395609Y514776D01*
X395681Y514707D01*
X395755Y514641D01*
X395833Y514577D01*
X395912Y514517D01*
X395994Y514460D01*
X396078Y514406D01*
X396164Y514356D01*
X396252Y514309D01*
X396342Y514265D01*
X396433Y514225D01*
X396526Y514189D01*
X396620Y514156D01*
X396716Y514127D01*
X396812Y514102D01*
X396909Y514081D01*
X397008Y514063D01*
X397106Y514050D01*
X397206Y514040D01*
X397305Y514034D01*
X397405Y514032D01*
X397505Y514034D01*
X397604Y514040D01*
X397704Y514050D01*
X397802Y514063D01*
X397901Y514081D01*
X397998Y514102D01*
X398094Y514127D01*
X398190Y514156D01*
X398284Y514189D01*
X398377Y514225D01*
X399551Y514711D01*
X390506Y510965D02*
X386132Y521525D01*
X383198Y520310D01*
X383198Y520309D02*
X383095Y520265D01*
X382994Y520216D01*
X382895Y520164D01*
X382797Y520109D01*
X382702Y520050D01*
X382608Y519988D01*
X382517Y519923D01*
X382429Y519855D01*
X382342Y519783D01*
X382259Y519708D01*
X382178Y519631D01*
X382100Y519551D01*
X382024Y519468D01*
X381952Y519382D01*
X381883Y519294D01*
X381817Y519203D01*
X381754Y519111D01*
X381694Y519016D01*
X381638Y518919D01*
X381585Y518820D01*
X381536Y518719D01*
X381491Y518617D01*
X381449Y518513D01*
X381410Y518408D01*
X381376Y518301D01*
X381345Y518193D01*
X381318Y518084D01*
X381295Y517975D01*
X381276Y517864D01*
X381261Y517753D01*
X381249Y517642D01*
X381242Y517530D01*
X381238Y517418D01*
X381239Y517306D01*
X381243Y517194D01*
X381252Y517082D01*
X381264Y516971D01*
X381280Y516860D01*
X381300Y516750D01*
X381324Y516640D01*
X381352Y516532D01*
X381384Y516424D01*
X381419Y516318D01*
X381459Y516213D01*
X381502Y516109D01*
X381548Y516007D01*
X381598Y515907D01*
X381652Y515809D01*
X381709Y515712D01*
X381769Y515618D01*
X381833Y515526D01*
X381900Y515436D01*
X381970Y515348D01*
X382043Y515263D01*
X382119Y515181D01*
X382198Y515101D01*
X382279Y515025D01*
X382364Y514951D01*
X382451Y514880D01*
X382540Y514812D01*
X382632Y514748D01*
X382725Y514687D01*
X382821Y514629D01*
X382919Y514574D01*
X383019Y514523D01*
X383121Y514476D01*
X383224Y514432D01*
X383329Y514392D01*
X383435Y514356D01*
X383542Y514323D01*
X383650Y514294D01*
X383759Y514269D01*
X383869Y514248D01*
X383980Y514231D01*
X384091Y514217D01*
X384203Y514208D01*
X384315Y514203D01*
X384427Y514201D01*
X384539Y514204D01*
X384651Y514210D01*
X384763Y514220D01*
X384874Y514235D01*
X384984Y514253D01*
X385094Y514275D01*
X385203Y514301D01*
X385311Y514331D01*
X385418Y514364D01*
X385524Y514402D01*
X385628Y514443D01*
X388562Y515658D01*
X380474Y506809D02*
X376954Y505351D01*
X376861Y505315D01*
X376767Y505282D01*
X376671Y505253D01*
X376575Y505228D01*
X376478Y505207D01*
X376379Y505189D01*
X376281Y505176D01*
X376181Y505166D01*
X376082Y505160D01*
X375982Y505158D01*
X375882Y505160D01*
X375783Y505166D01*
X375683Y505176D01*
X375585Y505189D01*
X375486Y505207D01*
X375389Y505228D01*
X375293Y505253D01*
X375197Y505282D01*
X375103Y505315D01*
X375010Y505351D01*
X374919Y505391D01*
X374829Y505435D01*
X374741Y505482D01*
X374655Y505532D01*
X374571Y505586D01*
X374489Y505643D01*
X374410Y505703D01*
X374332Y505767D01*
X374258Y505833D01*
X374186Y505902D01*
X374117Y505974D01*
X374051Y506048D01*
X373987Y506125D01*
X373927Y506205D01*
X373870Y506287D01*
X373816Y506371D01*
X373766Y506457D01*
X373719Y506545D01*
X373675Y506635D01*
X373635Y506726D01*
X373149Y507899D01*
X373113Y507992D01*
X373080Y508086D01*
X373051Y508182D01*
X373026Y508278D01*
X373005Y508375D01*
X372987Y508474D01*
X372974Y508572D01*
X372964Y508672D01*
X372958Y508771D01*
X372956Y508871D01*
X372958Y508971D01*
X372964Y509070D01*
X372974Y509170D01*
X372987Y509268D01*
X373005Y509367D01*
X373026Y509464D01*
X373051Y509560D01*
X373080Y509656D01*
X373113Y509750D01*
X373149Y509843D01*
X373189Y509934D01*
X373233Y510024D01*
X373280Y510112D01*
X373330Y510198D01*
X373384Y510282D01*
X373441Y510364D01*
X373501Y510444D01*
X373565Y510521D01*
X373631Y510595D01*
X373700Y510667D01*
X373772Y510736D01*
X373846Y510802D01*
X373924Y510866D01*
X374003Y510926D01*
X374085Y510983D01*
X374169Y511037D01*
X374255Y511087D01*
X374343Y511134D01*
X374433Y511178D01*
X374524Y511218D01*
X378044Y512676D01*
X376100Y517369D01*
X370233Y514939D01*
D10*
X463014Y584938D02*
X474747Y580078D01*
X463014Y584938D02*
X454717Y581502D01*
X442567Y552168D01*
X446003Y543872D01*
X457737Y539012D01*
X466033Y542448D01*
X478183Y571782D01*
X474747Y580078D01*
D11*
X477253Y560938D02*
X485467Y557536D01*
X485467Y557535D02*
X485560Y557499D01*
X485654Y557466D01*
X485750Y557437D01*
X485846Y557412D01*
X485943Y557391D01*
X486042Y557373D01*
X486140Y557360D01*
X486240Y557350D01*
X486339Y557344D01*
X486439Y557342D01*
X486539Y557344D01*
X486638Y557350D01*
X486738Y557360D01*
X486836Y557373D01*
X486935Y557391D01*
X487032Y557412D01*
X487128Y557437D01*
X487224Y557466D01*
X487318Y557499D01*
X487411Y557535D01*
X487502Y557575D01*
X487592Y557619D01*
X487680Y557666D01*
X487766Y557716D01*
X487850Y557770D01*
X487932Y557827D01*
X488012Y557887D01*
X488089Y557951D01*
X488163Y558017D01*
X488235Y558086D01*
X488304Y558158D01*
X488370Y558232D01*
X488434Y558310D01*
X488494Y558389D01*
X488551Y558471D01*
X488605Y558555D01*
X488655Y558641D01*
X488702Y558729D01*
X488746Y558819D01*
X488786Y558910D01*
X488785Y558910D02*
X489271Y560084D01*
X485525Y551039D02*
X474965Y555413D01*
X473750Y552479D01*
X473709Y552375D01*
X473671Y552269D01*
X473638Y552162D01*
X473608Y552054D01*
X473582Y551945D01*
X473560Y551835D01*
X473542Y551725D01*
X473527Y551614D01*
X473517Y551502D01*
X473511Y551390D01*
X473508Y551278D01*
X473510Y551166D01*
X473515Y551054D01*
X473524Y550942D01*
X473538Y550831D01*
X473555Y550720D01*
X473576Y550610D01*
X473601Y550501D01*
X473630Y550393D01*
X473663Y550286D01*
X473699Y550180D01*
X473739Y550075D01*
X473783Y549972D01*
X473830Y549870D01*
X473881Y549770D01*
X473936Y549672D01*
X473994Y549576D01*
X474055Y549483D01*
X474119Y549391D01*
X474187Y549302D01*
X474258Y549215D01*
X474332Y549131D01*
X474408Y549049D01*
X474488Y548970D01*
X474570Y548894D01*
X474655Y548821D01*
X474743Y548751D01*
X474833Y548684D01*
X474925Y548620D01*
X475019Y548560D01*
X475116Y548503D01*
X475214Y548449D01*
X475314Y548399D01*
X475416Y548353D01*
X475520Y548310D01*
X475625Y548270D01*
X475731Y548235D01*
X475839Y548203D01*
X475947Y548175D01*
X476057Y548151D01*
X476167Y548131D01*
X476278Y548115D01*
X476389Y548103D01*
X476501Y548094D01*
X476613Y548090D01*
X476725Y548089D01*
X476837Y548093D01*
X476949Y548100D01*
X477060Y548112D01*
X477171Y548127D01*
X477282Y548146D01*
X477391Y548169D01*
X477500Y548196D01*
X477608Y548227D01*
X477715Y548261D01*
X477820Y548300D01*
X477924Y548342D01*
X478026Y548387D01*
X478127Y548436D01*
X478226Y548489D01*
X478323Y548545D01*
X478418Y548605D01*
X478510Y548668D01*
X478601Y548734D01*
X478689Y548803D01*
X478775Y548875D01*
X478858Y548951D01*
X478938Y549029D01*
X479015Y549110D01*
X479090Y549193D01*
X479162Y549280D01*
X479230Y549368D01*
X479295Y549459D01*
X479357Y549553D01*
X479416Y549648D01*
X479471Y549746D01*
X479523Y549845D01*
X479572Y549946D01*
X479616Y550049D01*
X480831Y552983D01*
X475503Y543437D02*
X474045Y539917D01*
X474044Y539917D02*
X474008Y539824D01*
X473975Y539730D01*
X473946Y539634D01*
X473921Y539538D01*
X473900Y539441D01*
X473882Y539342D01*
X473869Y539244D01*
X473859Y539144D01*
X473853Y539045D01*
X473851Y538945D01*
X473853Y538845D01*
X473859Y538746D01*
X473869Y538646D01*
X473882Y538548D01*
X473900Y538449D01*
X473921Y538352D01*
X473946Y538256D01*
X473975Y538160D01*
X474008Y538066D01*
X474044Y537973D01*
X474084Y537882D01*
X474128Y537792D01*
X474175Y537704D01*
X474225Y537618D01*
X474279Y537534D01*
X474336Y537452D01*
X474396Y537372D01*
X474460Y537295D01*
X474526Y537221D01*
X474595Y537149D01*
X474667Y537080D01*
X474741Y537014D01*
X474819Y536950D01*
X474898Y536890D01*
X474980Y536833D01*
X475064Y536779D01*
X475150Y536729D01*
X475238Y536682D01*
X475328Y536638D01*
X475419Y536598D01*
X476006Y536355D01*
X476110Y536314D01*
X476216Y536276D01*
X476323Y536243D01*
X476431Y536213D01*
X476540Y536187D01*
X476650Y536165D01*
X476760Y536147D01*
X476871Y536132D01*
X476983Y536122D01*
X477095Y536116D01*
X477207Y536113D01*
X477319Y536115D01*
X477431Y536120D01*
X477543Y536129D01*
X477654Y536143D01*
X477765Y536160D01*
X477875Y536181D01*
X477984Y536206D01*
X478092Y536235D01*
X478199Y536268D01*
X478305Y536304D01*
X478410Y536344D01*
X478513Y536388D01*
X478615Y536435D01*
X478715Y536486D01*
X478813Y536541D01*
X478909Y536599D01*
X479002Y536660D01*
X479094Y536724D01*
X479183Y536792D01*
X479270Y536863D01*
X479355Y536937D01*
X479436Y537013D01*
X479515Y537093D01*
X479591Y537175D01*
X479664Y537260D01*
X479734Y537348D01*
X479801Y537438D01*
X479865Y537530D01*
X479925Y537624D01*
X479982Y537721D01*
X480036Y537819D01*
X480086Y537919D01*
X480132Y538021D01*
X480175Y538125D01*
X480215Y538230D01*
X480250Y538336D01*
X480282Y538444D01*
X480310Y538552D01*
X480334Y538662D01*
X480354Y538772D01*
X480370Y538883D01*
X480382Y538994D01*
X480391Y539106D01*
X480395Y539218D01*
X480396Y539330D01*
X480392Y539442D01*
X480385Y539554D01*
X480373Y539665D01*
X480358Y539776D01*
X480339Y539887D01*
X480316Y539996D01*
X480289Y540105D01*
X480258Y540213D01*
X480224Y540320D01*
X480185Y540425D01*
X480143Y540529D01*
X480098Y540631D01*
X480049Y540732D01*
X479996Y540831D01*
X479940Y540928D01*
X479880Y541023D01*
X479817Y541115D01*
X479751Y541206D01*
X479682Y541294D01*
X479610Y541380D01*
X479534Y541463D01*
X479456Y541543D01*
X479375Y541620D01*
X479292Y541695D01*
X479205Y541767D01*
X479117Y541835D01*
X479026Y541900D01*
X478932Y541962D01*
X478837Y542021D01*
X478739Y542076D01*
X478640Y542128D01*
X478539Y542177D01*
X478436Y542221D01*
X478436Y542222D02*
X475503Y543437D01*
X475503Y543436D02*
X475373Y543488D01*
X475242Y543536D01*
X475109Y543581D01*
X474975Y543622D01*
X474840Y543659D01*
X474704Y543692D01*
X474567Y543722D01*
X474430Y543748D01*
X474291Y543770D01*
X474153Y543788D01*
X474013Y543803D01*
X473874Y543813D01*
X473734Y543820D01*
X473594Y543823D01*
X473454Y543822D01*
X473314Y543817D01*
X473174Y543808D01*
X473035Y543796D01*
X472896Y543780D01*
X472757Y543759D01*
X472620Y543735D01*
X472482Y543708D01*
X472346Y543676D01*
X472210Y543641D01*
X472076Y543602D01*
X471943Y543559D01*
X471811Y543513D01*
X471680Y543463D01*
X471551Y543409D01*
X471423Y543352D01*
X471297Y543291D01*
X471172Y543227D01*
X471049Y543160D01*
X470929Y543089D01*
X470810Y543015D01*
X470693Y542937D01*
X470579Y542857D01*
X470467Y542773D01*
X470357Y542687D01*
X470249Y542597D01*
X470144Y542504D01*
X470042Y542409D01*
X469942Y542310D01*
X469845Y542209D01*
X469751Y542106D01*
X469660Y541999D01*
X469572Y541891D01*
X469487Y541780D01*
X469404Y541666D01*
X469325Y541551D01*
X469250Y541433D01*
X469177Y541313D01*
X469108Y541192D01*
X469042Y541068D01*
X468980Y540943D01*
X468921Y540816D01*
X468866Y540687D01*
D10*
X446003Y675328D02*
X457737Y680188D01*
X446003Y675328D02*
X442567Y667032D01*
X454717Y637698D01*
X463014Y634262D01*
X474747Y639122D01*
X478183Y647418D01*
X466033Y676752D01*
X457737Y680188D01*
D11*
X482899Y654125D02*
X491113Y657527D01*
X482899Y654125D02*
X482808Y654085D01*
X482718Y654041D01*
X482630Y653994D01*
X482544Y653944D01*
X482460Y653890D01*
X482378Y653833D01*
X482299Y653773D01*
X482221Y653709D01*
X482147Y653643D01*
X482075Y653574D01*
X482006Y653502D01*
X481940Y653428D01*
X481876Y653351D01*
X481816Y653271D01*
X481759Y653189D01*
X481705Y653105D01*
X481655Y653019D01*
X481608Y652931D01*
X481564Y652841D01*
X481524Y652750D01*
X481488Y652657D01*
X481455Y652563D01*
X481426Y652467D01*
X481401Y652371D01*
X481380Y652274D01*
X481362Y652175D01*
X481349Y652077D01*
X481339Y651977D01*
X481333Y651878D01*
X481331Y651778D01*
X481333Y651678D01*
X481339Y651579D01*
X481349Y651480D01*
X481362Y651381D01*
X481380Y651283D01*
X481401Y651185D01*
X481426Y651089D01*
X481455Y650993D01*
X481488Y650899D01*
X481524Y650806D01*
X481525Y650806D02*
X482011Y649633D01*
X478264Y658678D02*
X488824Y663052D01*
X487609Y665985D01*
X487565Y666088D01*
X487516Y666189D01*
X487464Y666288D01*
X487409Y666386D01*
X487350Y666481D01*
X487288Y666575D01*
X487223Y666666D01*
X487155Y666754D01*
X487083Y666841D01*
X487008Y666924D01*
X486931Y667005D01*
X486851Y667083D01*
X486768Y667159D01*
X486682Y667231D01*
X486594Y667300D01*
X486503Y667366D01*
X486411Y667429D01*
X486316Y667489D01*
X486219Y667545D01*
X486120Y667598D01*
X486019Y667647D01*
X485917Y667692D01*
X485813Y667734D01*
X485708Y667773D01*
X485601Y667807D01*
X485493Y667838D01*
X485384Y667865D01*
X485275Y667888D01*
X485164Y667907D01*
X485053Y667922D01*
X484942Y667934D01*
X484830Y667941D01*
X484718Y667945D01*
X484606Y667944D01*
X484494Y667940D01*
X484382Y667931D01*
X484271Y667919D01*
X484160Y667903D01*
X484050Y667883D01*
X483940Y667859D01*
X483832Y667831D01*
X483724Y667799D01*
X483618Y667764D01*
X483513Y667724D01*
X483409Y667681D01*
X483307Y667635D01*
X483207Y667585D01*
X483109Y667531D01*
X483012Y667474D01*
X482918Y667414D01*
X482826Y667350D01*
X482736Y667283D01*
X482648Y667213D01*
X482563Y667140D01*
X482481Y667064D01*
X482401Y666985D01*
X482325Y666904D01*
X482251Y666819D01*
X482180Y666732D01*
X482112Y666643D01*
X482048Y666551D01*
X481987Y666458D01*
X481929Y666362D01*
X481874Y666264D01*
X481823Y666164D01*
X481776Y666062D01*
X481732Y665959D01*
X481692Y665854D01*
X481656Y665748D01*
X481623Y665641D01*
X481594Y665533D01*
X481569Y665424D01*
X481548Y665314D01*
X481531Y665203D01*
X481517Y665092D01*
X481508Y664980D01*
X481503Y664868D01*
X481501Y664756D01*
X481504Y664644D01*
X481510Y664532D01*
X481520Y664420D01*
X481535Y664309D01*
X481553Y664199D01*
X481575Y664089D01*
X481601Y663980D01*
X481631Y663872D01*
X481664Y663765D01*
X481702Y663659D01*
X481743Y663555D01*
X481742Y663555D02*
X482957Y660622D01*
X483495Y672598D02*
X484669Y673084D01*
X482239Y678950D01*
X472894Y671643D01*
D10*
X367562Y729714D02*
X372422Y741447D01*
X367562Y729714D02*
X370998Y721417D01*
X400332Y709267D01*
X408628Y712703D01*
X413488Y724436D01*
X410052Y732733D01*
X380719Y744883D01*
X372422Y741447D01*
D11*
X410438Y738884D02*
X413840Y747097D01*
X410438Y738884D02*
X410402Y738791D01*
X410369Y738697D01*
X410340Y738601D01*
X410315Y738505D01*
X410294Y738408D01*
X410276Y738309D01*
X410263Y738211D01*
X410253Y738111D01*
X410247Y738012D01*
X410245Y737912D01*
X410247Y737812D01*
X410253Y737713D01*
X410263Y737613D01*
X410276Y737515D01*
X410294Y737416D01*
X410315Y737319D01*
X410340Y737223D01*
X410369Y737127D01*
X410402Y737033D01*
X410438Y736940D01*
X410478Y736849D01*
X410522Y736759D01*
X410569Y736671D01*
X410619Y736585D01*
X410673Y736501D01*
X410730Y736419D01*
X410790Y736340D01*
X410854Y736262D01*
X410920Y736188D01*
X410989Y736116D01*
X411061Y736047D01*
X411135Y735981D01*
X411212Y735917D01*
X411292Y735857D01*
X411374Y735800D01*
X411458Y735746D01*
X411544Y735696D01*
X411632Y735649D01*
X411722Y735605D01*
X411813Y735565D01*
X412986Y735079D01*
X403941Y738826D02*
X408315Y749386D01*
X405382Y750601D01*
X405278Y750642D01*
X405172Y750680D01*
X405065Y750713D01*
X404957Y750743D01*
X404848Y750769D01*
X404738Y750791D01*
X404628Y750809D01*
X404517Y750824D01*
X404405Y750834D01*
X404293Y750840D01*
X404181Y750843D01*
X404069Y750841D01*
X403957Y750836D01*
X403845Y750827D01*
X403734Y750813D01*
X403623Y750796D01*
X403513Y750775D01*
X403404Y750750D01*
X403296Y750721D01*
X403189Y750688D01*
X403083Y750652D01*
X402978Y750612D01*
X402875Y750568D01*
X402773Y750521D01*
X402673Y750470D01*
X402575Y750415D01*
X402479Y750357D01*
X402386Y750296D01*
X402294Y750232D01*
X402205Y750164D01*
X402118Y750093D01*
X402034Y750019D01*
X401952Y749943D01*
X401873Y749863D01*
X401797Y749781D01*
X401724Y749696D01*
X401654Y749608D01*
X401587Y749518D01*
X401523Y749426D01*
X401463Y749332D01*
X401406Y749235D01*
X401352Y749137D01*
X401302Y749037D01*
X401256Y748935D01*
X401213Y748831D01*
X401173Y748726D01*
X401138Y748620D01*
X401106Y748512D01*
X401078Y748404D01*
X401054Y748294D01*
X401034Y748184D01*
X401018Y748073D01*
X401006Y747962D01*
X400997Y747850D01*
X400993Y747738D01*
X400992Y747626D01*
X400996Y747514D01*
X401003Y747402D01*
X401015Y747291D01*
X401030Y747180D01*
X401049Y747069D01*
X401072Y746960D01*
X401099Y746851D01*
X401130Y746743D01*
X401164Y746636D01*
X401203Y746531D01*
X401245Y746427D01*
X401290Y746325D01*
X401339Y746224D01*
X401392Y746125D01*
X401448Y746028D01*
X401508Y745933D01*
X401571Y745841D01*
X401637Y745750D01*
X401706Y745662D01*
X401778Y745576D01*
X401854Y745493D01*
X401932Y745413D01*
X402013Y745336D01*
X402096Y745261D01*
X402183Y745189D01*
X402271Y745121D01*
X402362Y745056D01*
X402456Y744994D01*
X402551Y744935D01*
X402649Y744880D01*
X402748Y744828D01*
X402849Y744779D01*
X402952Y744735D01*
X402952Y744734D02*
X405885Y743519D01*
X395124Y745915D02*
X395165Y746019D01*
X395203Y746125D01*
X395236Y746232D01*
X395266Y746340D01*
X395292Y746449D01*
X395314Y746559D01*
X395332Y746669D01*
X395347Y746781D01*
X395357Y746892D01*
X395363Y747004D01*
X395366Y747116D01*
X395364Y747228D01*
X395359Y747340D01*
X395350Y747452D01*
X395336Y747563D01*
X395319Y747674D01*
X395298Y747784D01*
X395273Y747893D01*
X395244Y748001D01*
X395211Y748108D01*
X395175Y748214D01*
X395135Y748319D01*
X395091Y748422D01*
X395044Y748524D01*
X394993Y748624D01*
X394938Y748722D01*
X394880Y748818D01*
X394819Y748911D01*
X394755Y749003D01*
X394687Y749092D01*
X394616Y749179D01*
X394542Y749264D01*
X394466Y749345D01*
X394386Y749424D01*
X394304Y749500D01*
X394219Y749573D01*
X394131Y749643D01*
X394041Y749710D01*
X393949Y749774D01*
X393855Y749834D01*
X393758Y749891D01*
X393660Y749945D01*
X393560Y749995D01*
X393458Y750041D01*
X393354Y750084D01*
X393249Y750124D01*
X393143Y750159D01*
X393035Y750191D01*
X392927Y750219D01*
X392817Y750243D01*
X392707Y750263D01*
X392596Y750279D01*
X392485Y750291D01*
X392373Y750300D01*
X392261Y750304D01*
X392149Y750305D01*
X392037Y750301D01*
X391925Y750294D01*
X391814Y750282D01*
X391703Y750267D01*
X391592Y750248D01*
X391483Y750225D01*
X391374Y750198D01*
X391266Y750167D01*
X391159Y750133D01*
X391054Y750094D01*
X390950Y750052D01*
X390848Y750007D01*
X390747Y749958D01*
X390648Y749905D01*
X390551Y749849D01*
X390456Y749789D01*
X390364Y749726D01*
X390273Y749660D01*
X390185Y749591D01*
X390099Y749519D01*
X390016Y749443D01*
X389936Y749365D01*
X389859Y749284D01*
X389784Y749201D01*
X389712Y749114D01*
X389644Y749026D01*
X389579Y748935D01*
X389517Y748841D01*
X389458Y748746D01*
X389403Y748648D01*
X389351Y748549D01*
X389302Y748448D01*
X389258Y748345D01*
X389217Y748242D01*
X389180Y748137D01*
X389147Y748032D01*
X389117Y747925D01*
X389091Y747817D01*
X389069Y747709D01*
X389051Y747599D01*
X389036Y747489D01*
X389026Y747379D01*
X389019Y747269D01*
X389016Y747158D01*
X389017Y747047D01*
X389022Y746936D01*
X389031Y746826D01*
X389043Y746716D01*
X389060Y746606D01*
X389080Y746497D01*
X389104Y746389D01*
X389131Y746282D01*
X389163Y746175D01*
X389198Y746070D01*
X389237Y745966D01*
X389279Y745864D01*
X389325Y745763D01*
X389375Y745664D01*
X389428Y745567D01*
X389484Y745471D01*
X389543Y745378D01*
X389606Y745286D01*
X389672Y745197D01*
X389741Y745110D01*
X389813Y745026D01*
X389888Y744944D01*
X389966Y744865D01*
X390046Y744789D01*
X390129Y744716D01*
X390215Y744645D01*
X390302Y744578D01*
X390393Y744513D01*
X390485Y744452D01*
X390580Y744394D01*
X390676Y744340D01*
X390774Y744289D01*
X390874Y744241D01*
X390976Y744197D01*
X391079Y744156D01*
X391184Y744119D01*
X391289Y744086D01*
X391396Y744056D01*
X391504Y744030D01*
X391612Y744008D01*
X391722Y743990D01*
X391832Y743975D01*
X391942Y743965D01*
X392053Y743958D01*
X392163Y743955D01*
X392274Y743956D01*
X392385Y743961D01*
X392495Y743970D01*
X392605Y743982D01*
X392715Y743999D01*
X392824Y744019D01*
X392932Y744043D01*
X393040Y744070D01*
X393146Y744102D01*
X393251Y744137D01*
X393355Y744176D01*
X393457Y744218D01*
X393558Y744264D01*
X393657Y744314D01*
X393754Y744367D01*
X393850Y744423D01*
X393943Y744482D01*
X394035Y744545D01*
X394124Y744611D01*
X394211Y744680D01*
X394295Y744752D01*
X394377Y744827D01*
X394456Y744905D01*
X394532Y744985D01*
X394605Y745068D01*
X394676Y745154D01*
X394743Y745241D01*
X394808Y745332D01*
X394869Y745424D01*
X394927Y745519D01*
X394981Y745615D01*
X395032Y745713D01*
X395080Y745813D01*
X395124Y745915D01*
X396725Y751438D02*
X396761Y751531D01*
X396794Y751625D01*
X396823Y751721D01*
X396848Y751817D01*
X396869Y751914D01*
X396887Y752013D01*
X396900Y752111D01*
X396910Y752211D01*
X396916Y752310D01*
X396918Y752410D01*
X396916Y752510D01*
X396910Y752609D01*
X396900Y752709D01*
X396887Y752807D01*
X396869Y752906D01*
X396848Y753003D01*
X396823Y753099D01*
X396794Y753195D01*
X396761Y753289D01*
X396725Y753382D01*
X396685Y753473D01*
X396641Y753563D01*
X396594Y753651D01*
X396544Y753737D01*
X396490Y753821D01*
X396433Y753903D01*
X396373Y753983D01*
X396309Y754060D01*
X396243Y754134D01*
X396174Y754206D01*
X396102Y754275D01*
X396028Y754341D01*
X395950Y754405D01*
X395871Y754465D01*
X395789Y754522D01*
X395705Y754576D01*
X395619Y754626D01*
X395531Y754673D01*
X395441Y754717D01*
X395350Y754757D01*
X395257Y754793D01*
X395163Y754826D01*
X395067Y754855D01*
X394971Y754880D01*
X394874Y754901D01*
X394775Y754919D01*
X394677Y754932D01*
X394577Y754942D01*
X394478Y754948D01*
X394378Y754950D01*
X394278Y754948D01*
X394179Y754942D01*
X394079Y754932D01*
X393981Y754919D01*
X393882Y754901D01*
X393785Y754880D01*
X393689Y754855D01*
X393593Y754826D01*
X393499Y754793D01*
X393406Y754757D01*
X393315Y754717D01*
X393225Y754673D01*
X393137Y754626D01*
X393051Y754576D01*
X392967Y754522D01*
X392885Y754465D01*
X392806Y754405D01*
X392728Y754341D01*
X392654Y754275D01*
X392582Y754206D01*
X392513Y754134D01*
X392447Y754060D01*
X392383Y753983D01*
X392323Y753903D01*
X392266Y753821D01*
X392212Y753737D01*
X392162Y753651D01*
X392115Y753563D01*
X392071Y753473D01*
X392031Y753382D01*
X391995Y753289D01*
X391962Y753195D01*
X391933Y753099D01*
X391908Y753003D01*
X391887Y752906D01*
X391869Y752807D01*
X391856Y752709D01*
X391846Y752609D01*
X391840Y752510D01*
X391838Y752410D01*
X391840Y752310D01*
X391846Y752211D01*
X391856Y752111D01*
X391869Y752013D01*
X391887Y751914D01*
X391908Y751817D01*
X391933Y751721D01*
X391962Y751625D01*
X391995Y751531D01*
X392031Y751438D01*
X392071Y751347D01*
X392115Y751257D01*
X392162Y751169D01*
X392212Y751083D01*
X392266Y750999D01*
X392323Y750917D01*
X392383Y750838D01*
X392447Y750760D01*
X392513Y750686D01*
X392582Y750614D01*
X392654Y750545D01*
X392728Y750479D01*
X392806Y750415D01*
X392885Y750355D01*
X392967Y750298D01*
X393051Y750244D01*
X393137Y750194D01*
X393225Y750147D01*
X393315Y750103D01*
X393406Y750063D01*
X393499Y750027D01*
X393593Y749994D01*
X393689Y749965D01*
X393785Y749940D01*
X393882Y749919D01*
X393981Y749901D01*
X394079Y749888D01*
X394179Y749878D01*
X394278Y749872D01*
X394378Y749870D01*
X394478Y749872D01*
X394577Y749878D01*
X394677Y749888D01*
X394775Y749901D01*
X394874Y749919D01*
X394971Y749940D01*
X395067Y749965D01*
X395163Y749994D01*
X395257Y750027D01*
X395350Y750063D01*
X395441Y750103D01*
X395531Y750147D01*
X395619Y750194D01*
X395705Y750244D01*
X395789Y750298D01*
X395871Y750355D01*
X395951Y750415D01*
X396028Y750479D01*
X396102Y750545D01*
X396174Y750614D01*
X396243Y750686D01*
X396309Y750760D01*
X396373Y750838D01*
X396433Y750917D01*
X396490Y750999D01*
X396544Y751083D01*
X396594Y751169D01*
X396641Y751257D01*
X396685Y751347D01*
X396725Y751438D01*
M02*
