G04 EAGLE Gerber RS-274X export*
G75*
%MOMM*%
%FSLAX34Y34*%
%LPD*%
%INSilkscreen Top*%
%IPPOS*%
%AMOC8*
5,1,8,0,0,1.08239X$1,22.5*%
G01*
%ADD10C,0.152400*%
%ADD11C,0.203200*%
%ADD12C,0.254000*%
%ADD13C,0.127000*%
%ADD14R,0.508000X2.540000*%
%ADD15R,1.905000X0.762000*%
%ADD16C,0.101600*%


D10*
X24638Y13462D02*
X8382Y13462D01*
X8382Y17978D01*
X8384Y18111D01*
X8390Y18243D01*
X8400Y18375D01*
X8413Y18507D01*
X8431Y18639D01*
X8452Y18769D01*
X8477Y18900D01*
X8506Y19029D01*
X8539Y19157D01*
X8575Y19285D01*
X8615Y19411D01*
X8659Y19536D01*
X8707Y19660D01*
X8758Y19782D01*
X8813Y19903D01*
X8871Y20022D01*
X8933Y20140D01*
X8998Y20255D01*
X9067Y20369D01*
X9138Y20480D01*
X9214Y20589D01*
X9292Y20696D01*
X9373Y20801D01*
X9458Y20903D01*
X9545Y21003D01*
X9635Y21100D01*
X9728Y21195D01*
X9824Y21286D01*
X9922Y21375D01*
X10023Y21461D01*
X10127Y21544D01*
X10233Y21624D01*
X10341Y21700D01*
X10451Y21774D01*
X10564Y21844D01*
X10678Y21911D01*
X10795Y21974D01*
X10913Y22034D01*
X11033Y22091D01*
X11155Y22144D01*
X11278Y22193D01*
X11402Y22239D01*
X11528Y22281D01*
X11655Y22319D01*
X11783Y22354D01*
X11912Y22385D01*
X12041Y22412D01*
X12172Y22435D01*
X12303Y22455D01*
X12435Y22470D01*
X12567Y22482D01*
X12699Y22490D01*
X12832Y22494D01*
X12964Y22494D01*
X13097Y22490D01*
X13229Y22482D01*
X13361Y22470D01*
X13493Y22455D01*
X13624Y22435D01*
X13755Y22412D01*
X13884Y22385D01*
X14013Y22354D01*
X14141Y22319D01*
X14268Y22281D01*
X14394Y22239D01*
X14518Y22193D01*
X14641Y22144D01*
X14763Y22091D01*
X14883Y22034D01*
X15001Y21974D01*
X15118Y21911D01*
X15232Y21844D01*
X15345Y21774D01*
X15455Y21700D01*
X15563Y21624D01*
X15669Y21544D01*
X15773Y21461D01*
X15874Y21375D01*
X15972Y21286D01*
X16068Y21195D01*
X16161Y21100D01*
X16251Y21003D01*
X16338Y20903D01*
X16423Y20801D01*
X16504Y20696D01*
X16582Y20589D01*
X16658Y20480D01*
X16729Y20369D01*
X16798Y20255D01*
X16863Y20140D01*
X16925Y20022D01*
X16983Y19903D01*
X17038Y19782D01*
X17089Y19660D01*
X17137Y19536D01*
X17181Y19411D01*
X17221Y19285D01*
X17257Y19157D01*
X17290Y19029D01*
X17319Y18900D01*
X17344Y18769D01*
X17365Y18639D01*
X17383Y18507D01*
X17396Y18375D01*
X17406Y18243D01*
X17412Y18111D01*
X17414Y17978D01*
X17413Y17978D02*
X17413Y13462D01*
X24638Y28974D02*
X8382Y28974D01*
X8382Y33489D01*
X8384Y33622D01*
X8390Y33754D01*
X8400Y33886D01*
X8413Y34018D01*
X8431Y34150D01*
X8452Y34280D01*
X8477Y34411D01*
X8506Y34540D01*
X8539Y34668D01*
X8575Y34796D01*
X8615Y34922D01*
X8659Y35047D01*
X8707Y35171D01*
X8758Y35293D01*
X8813Y35414D01*
X8871Y35533D01*
X8933Y35651D01*
X8998Y35766D01*
X9067Y35880D01*
X9138Y35991D01*
X9214Y36100D01*
X9292Y36207D01*
X9373Y36312D01*
X9458Y36414D01*
X9545Y36514D01*
X9635Y36611D01*
X9728Y36706D01*
X9824Y36797D01*
X9922Y36886D01*
X10023Y36972D01*
X10127Y37055D01*
X10233Y37135D01*
X10341Y37211D01*
X10451Y37285D01*
X10564Y37355D01*
X10678Y37422D01*
X10795Y37485D01*
X10913Y37545D01*
X11033Y37602D01*
X11155Y37655D01*
X11278Y37704D01*
X11402Y37750D01*
X11528Y37792D01*
X11655Y37830D01*
X11783Y37865D01*
X11912Y37896D01*
X12041Y37923D01*
X12172Y37946D01*
X12303Y37966D01*
X12435Y37981D01*
X12567Y37993D01*
X12699Y38001D01*
X12832Y38005D01*
X12964Y38005D01*
X13097Y38001D01*
X13229Y37993D01*
X13361Y37981D01*
X13493Y37966D01*
X13624Y37946D01*
X13755Y37923D01*
X13884Y37896D01*
X14013Y37865D01*
X14141Y37830D01*
X14268Y37792D01*
X14394Y37750D01*
X14518Y37704D01*
X14641Y37655D01*
X14763Y37602D01*
X14883Y37545D01*
X15001Y37485D01*
X15118Y37422D01*
X15232Y37355D01*
X15345Y37285D01*
X15455Y37211D01*
X15563Y37135D01*
X15669Y37055D01*
X15773Y36972D01*
X15874Y36886D01*
X15972Y36797D01*
X16068Y36706D01*
X16161Y36611D01*
X16251Y36514D01*
X16338Y36414D01*
X16423Y36312D01*
X16504Y36207D01*
X16582Y36100D01*
X16658Y35991D01*
X16729Y35880D01*
X16798Y35766D01*
X16863Y35651D01*
X16925Y35533D01*
X16983Y35414D01*
X17038Y35293D01*
X17089Y35171D01*
X17137Y35047D01*
X17181Y34922D01*
X17221Y34796D01*
X17257Y34668D01*
X17290Y34540D01*
X17319Y34411D01*
X17344Y34280D01*
X17365Y34150D01*
X17383Y34018D01*
X17396Y33886D01*
X17406Y33754D01*
X17412Y33622D01*
X17414Y33489D01*
X17413Y33489D02*
X17413Y28974D01*
X17413Y34393D02*
X24638Y38005D01*
X20122Y44514D02*
X12898Y44514D01*
X12898Y44513D02*
X12765Y44515D01*
X12633Y44521D01*
X12501Y44531D01*
X12369Y44544D01*
X12237Y44562D01*
X12107Y44583D01*
X11976Y44608D01*
X11847Y44637D01*
X11719Y44670D01*
X11591Y44706D01*
X11465Y44746D01*
X11340Y44790D01*
X11216Y44838D01*
X11094Y44889D01*
X10973Y44944D01*
X10854Y45002D01*
X10736Y45064D01*
X10621Y45129D01*
X10507Y45198D01*
X10396Y45269D01*
X10287Y45345D01*
X10180Y45423D01*
X10075Y45504D01*
X9973Y45589D01*
X9873Y45676D01*
X9776Y45766D01*
X9681Y45859D01*
X9590Y45955D01*
X9501Y46053D01*
X9415Y46154D01*
X9332Y46258D01*
X9252Y46364D01*
X9176Y46472D01*
X9102Y46582D01*
X9032Y46695D01*
X8965Y46809D01*
X8902Y46926D01*
X8842Y47044D01*
X8785Y47164D01*
X8732Y47286D01*
X8683Y47409D01*
X8637Y47533D01*
X8595Y47659D01*
X8557Y47786D01*
X8522Y47914D01*
X8491Y48043D01*
X8464Y48172D01*
X8441Y48303D01*
X8421Y48434D01*
X8406Y48566D01*
X8394Y48698D01*
X8386Y48830D01*
X8382Y48963D01*
X8382Y49095D01*
X8386Y49228D01*
X8394Y49360D01*
X8406Y49492D01*
X8421Y49624D01*
X8441Y49755D01*
X8464Y49886D01*
X8491Y50015D01*
X8522Y50144D01*
X8557Y50272D01*
X8595Y50399D01*
X8637Y50525D01*
X8683Y50649D01*
X8732Y50772D01*
X8785Y50894D01*
X8842Y51014D01*
X8902Y51132D01*
X8965Y51249D01*
X9032Y51363D01*
X9102Y51476D01*
X9176Y51586D01*
X9252Y51694D01*
X9332Y51800D01*
X9415Y51904D01*
X9501Y52005D01*
X9590Y52103D01*
X9681Y52199D01*
X9776Y52292D01*
X9873Y52382D01*
X9973Y52469D01*
X10075Y52554D01*
X10180Y52635D01*
X10287Y52713D01*
X10396Y52789D01*
X10507Y52860D01*
X10621Y52929D01*
X10736Y52994D01*
X10854Y53056D01*
X10973Y53114D01*
X11094Y53169D01*
X11216Y53220D01*
X11340Y53268D01*
X11465Y53312D01*
X11591Y53352D01*
X11719Y53388D01*
X11847Y53421D01*
X11976Y53450D01*
X12107Y53475D01*
X12237Y53496D01*
X12369Y53514D01*
X12501Y53527D01*
X12633Y53537D01*
X12765Y53543D01*
X12898Y53545D01*
X20122Y53545D01*
X20255Y53543D01*
X20387Y53537D01*
X20519Y53527D01*
X20651Y53514D01*
X20783Y53496D01*
X20913Y53475D01*
X21044Y53450D01*
X21173Y53421D01*
X21301Y53388D01*
X21429Y53352D01*
X21555Y53312D01*
X21680Y53268D01*
X21804Y53220D01*
X21926Y53169D01*
X22047Y53114D01*
X22166Y53056D01*
X22284Y52994D01*
X22399Y52929D01*
X22513Y52860D01*
X22624Y52789D01*
X22733Y52713D01*
X22840Y52635D01*
X22945Y52554D01*
X23047Y52469D01*
X23147Y52382D01*
X23244Y52292D01*
X23339Y52199D01*
X23430Y52103D01*
X23519Y52005D01*
X23605Y51904D01*
X23688Y51800D01*
X23768Y51694D01*
X23844Y51586D01*
X23918Y51476D01*
X23988Y51363D01*
X24055Y51249D01*
X24118Y51132D01*
X24178Y51014D01*
X24235Y50894D01*
X24288Y50772D01*
X24337Y50649D01*
X24383Y50525D01*
X24425Y50399D01*
X24463Y50272D01*
X24498Y50144D01*
X24529Y50015D01*
X24556Y49886D01*
X24579Y49755D01*
X24599Y49624D01*
X24614Y49492D01*
X24626Y49360D01*
X24634Y49228D01*
X24638Y49095D01*
X24638Y48963D01*
X24634Y48830D01*
X24626Y48698D01*
X24614Y48566D01*
X24599Y48434D01*
X24579Y48303D01*
X24556Y48172D01*
X24529Y48043D01*
X24498Y47914D01*
X24463Y47786D01*
X24425Y47659D01*
X24383Y47533D01*
X24337Y47409D01*
X24288Y47286D01*
X24235Y47164D01*
X24178Y47044D01*
X24118Y46926D01*
X24055Y46809D01*
X23988Y46695D01*
X23918Y46582D01*
X23844Y46472D01*
X23768Y46364D01*
X23688Y46258D01*
X23605Y46154D01*
X23519Y46053D01*
X23430Y45955D01*
X23339Y45859D01*
X23244Y45766D01*
X23147Y45676D01*
X23047Y45589D01*
X22945Y45504D01*
X22840Y45423D01*
X22733Y45345D01*
X22624Y45269D01*
X22513Y45198D01*
X22399Y45129D01*
X22284Y45064D01*
X22166Y45002D01*
X22047Y44944D01*
X21926Y44889D01*
X21804Y44838D01*
X21680Y44790D01*
X21555Y44746D01*
X21429Y44706D01*
X21301Y44670D01*
X21173Y44637D01*
X21044Y44608D01*
X20913Y44583D01*
X20783Y44562D01*
X20651Y44544D01*
X20519Y44531D01*
X20387Y44521D01*
X20255Y44515D01*
X20122Y44513D01*
X15607Y66988D02*
X15607Y69697D01*
X24638Y69697D01*
X24638Y64278D01*
X24636Y64160D01*
X24630Y64042D01*
X24621Y63924D01*
X24607Y63807D01*
X24590Y63690D01*
X24569Y63573D01*
X24544Y63458D01*
X24515Y63343D01*
X24482Y63229D01*
X24446Y63117D01*
X24406Y63006D01*
X24363Y62896D01*
X24316Y62787D01*
X24266Y62680D01*
X24211Y62575D01*
X24154Y62472D01*
X24093Y62371D01*
X24029Y62271D01*
X23962Y62174D01*
X23892Y62079D01*
X23818Y61987D01*
X23742Y61896D01*
X23662Y61809D01*
X23580Y61724D01*
X23495Y61642D01*
X23408Y61562D01*
X23317Y61486D01*
X23225Y61412D01*
X23130Y61342D01*
X23033Y61275D01*
X22933Y61211D01*
X22832Y61150D01*
X22729Y61093D01*
X22624Y61038D01*
X22517Y60988D01*
X22408Y60941D01*
X22298Y60898D01*
X22187Y60858D01*
X22075Y60822D01*
X21961Y60789D01*
X21846Y60760D01*
X21731Y60735D01*
X21614Y60714D01*
X21497Y60697D01*
X21380Y60683D01*
X21262Y60674D01*
X21144Y60668D01*
X21026Y60666D01*
X11994Y60666D01*
X11994Y60665D02*
X11876Y60667D01*
X11758Y60673D01*
X11640Y60682D01*
X11522Y60696D01*
X11405Y60713D01*
X11289Y60734D01*
X11174Y60759D01*
X11059Y60788D01*
X10945Y60821D01*
X10833Y60857D01*
X10721Y60897D01*
X10611Y60940D01*
X10503Y60987D01*
X10396Y61038D01*
X10291Y61092D01*
X10188Y61149D01*
X10086Y61210D01*
X9987Y61274D01*
X9890Y61341D01*
X9795Y61412D01*
X9702Y61485D01*
X9612Y61562D01*
X9524Y61641D01*
X9439Y61723D01*
X9357Y61808D01*
X9278Y61896D01*
X9201Y61986D01*
X9128Y62079D01*
X9057Y62173D01*
X8990Y62271D01*
X8926Y62370D01*
X8865Y62471D01*
X8808Y62575D01*
X8754Y62680D01*
X8703Y62787D01*
X8656Y62895D01*
X8613Y63005D01*
X8573Y63117D01*
X8537Y63229D01*
X8504Y63343D01*
X8475Y63458D01*
X8450Y63573D01*
X8429Y63689D01*
X8412Y63806D01*
X8398Y63924D01*
X8389Y64042D01*
X8383Y64160D01*
X8381Y64278D01*
X8382Y64278D02*
X8382Y69697D01*
X540512Y327126D02*
X556768Y327126D01*
X540512Y327126D02*
X540512Y331642D01*
X540514Y331775D01*
X540520Y331907D01*
X540530Y332039D01*
X540543Y332171D01*
X540561Y332303D01*
X540582Y332433D01*
X540607Y332564D01*
X540636Y332693D01*
X540669Y332821D01*
X540705Y332949D01*
X540745Y333075D01*
X540789Y333200D01*
X540837Y333324D01*
X540888Y333446D01*
X540943Y333567D01*
X541001Y333686D01*
X541063Y333804D01*
X541128Y333919D01*
X541197Y334033D01*
X541268Y334144D01*
X541344Y334253D01*
X541422Y334360D01*
X541503Y334465D01*
X541588Y334567D01*
X541675Y334667D01*
X541765Y334764D01*
X541858Y334859D01*
X541954Y334950D01*
X542052Y335039D01*
X542153Y335125D01*
X542257Y335208D01*
X542363Y335288D01*
X542471Y335364D01*
X542581Y335438D01*
X542694Y335508D01*
X542808Y335575D01*
X542925Y335638D01*
X543043Y335698D01*
X543163Y335755D01*
X543285Y335808D01*
X543408Y335857D01*
X543532Y335903D01*
X543658Y335945D01*
X543785Y335983D01*
X543913Y336018D01*
X544042Y336049D01*
X544171Y336076D01*
X544302Y336099D01*
X544433Y336119D01*
X544565Y336134D01*
X544697Y336146D01*
X544829Y336154D01*
X544962Y336158D01*
X545094Y336158D01*
X545227Y336154D01*
X545359Y336146D01*
X545491Y336134D01*
X545623Y336119D01*
X545754Y336099D01*
X545885Y336076D01*
X546014Y336049D01*
X546143Y336018D01*
X546271Y335983D01*
X546398Y335945D01*
X546524Y335903D01*
X546648Y335857D01*
X546771Y335808D01*
X546893Y335755D01*
X547013Y335698D01*
X547131Y335638D01*
X547248Y335575D01*
X547362Y335508D01*
X547475Y335438D01*
X547585Y335364D01*
X547693Y335288D01*
X547799Y335208D01*
X547903Y335125D01*
X548004Y335039D01*
X548102Y334950D01*
X548198Y334859D01*
X548291Y334764D01*
X548381Y334667D01*
X548468Y334567D01*
X548553Y334465D01*
X548634Y334360D01*
X548712Y334253D01*
X548788Y334144D01*
X548859Y334033D01*
X548928Y333919D01*
X548993Y333804D01*
X549055Y333686D01*
X549113Y333567D01*
X549168Y333446D01*
X549219Y333324D01*
X549267Y333200D01*
X549311Y333075D01*
X549351Y332949D01*
X549387Y332821D01*
X549420Y332693D01*
X549449Y332564D01*
X549474Y332433D01*
X549495Y332303D01*
X549513Y332171D01*
X549526Y332039D01*
X549536Y331907D01*
X549542Y331775D01*
X549544Y331642D01*
X549543Y331642D02*
X549543Y327126D01*
X552252Y342026D02*
X545028Y342026D01*
X545028Y342025D02*
X544895Y342027D01*
X544763Y342033D01*
X544631Y342043D01*
X544499Y342056D01*
X544367Y342074D01*
X544237Y342095D01*
X544106Y342120D01*
X543977Y342149D01*
X543849Y342182D01*
X543721Y342218D01*
X543595Y342258D01*
X543470Y342302D01*
X543346Y342350D01*
X543224Y342401D01*
X543103Y342456D01*
X542984Y342514D01*
X542866Y342576D01*
X542751Y342641D01*
X542637Y342710D01*
X542526Y342781D01*
X542417Y342857D01*
X542310Y342935D01*
X542205Y343016D01*
X542103Y343101D01*
X542003Y343188D01*
X541906Y343278D01*
X541811Y343371D01*
X541720Y343467D01*
X541631Y343565D01*
X541545Y343666D01*
X541462Y343770D01*
X541382Y343876D01*
X541306Y343984D01*
X541232Y344094D01*
X541162Y344207D01*
X541095Y344321D01*
X541032Y344438D01*
X540972Y344556D01*
X540915Y344676D01*
X540862Y344798D01*
X540813Y344921D01*
X540767Y345045D01*
X540725Y345171D01*
X540687Y345298D01*
X540652Y345426D01*
X540621Y345555D01*
X540594Y345684D01*
X540571Y345815D01*
X540551Y345946D01*
X540536Y346078D01*
X540524Y346210D01*
X540516Y346342D01*
X540512Y346475D01*
X540512Y346607D01*
X540516Y346740D01*
X540524Y346872D01*
X540536Y347004D01*
X540551Y347136D01*
X540571Y347267D01*
X540594Y347398D01*
X540621Y347527D01*
X540652Y347656D01*
X540687Y347784D01*
X540725Y347911D01*
X540767Y348037D01*
X540813Y348161D01*
X540862Y348284D01*
X540915Y348406D01*
X540972Y348526D01*
X541032Y348644D01*
X541095Y348761D01*
X541162Y348875D01*
X541232Y348988D01*
X541306Y349098D01*
X541382Y349206D01*
X541462Y349312D01*
X541545Y349416D01*
X541631Y349517D01*
X541720Y349615D01*
X541811Y349711D01*
X541906Y349804D01*
X542003Y349894D01*
X542103Y349981D01*
X542205Y350066D01*
X542310Y350147D01*
X542417Y350225D01*
X542526Y350301D01*
X542637Y350372D01*
X542751Y350441D01*
X542866Y350506D01*
X542984Y350568D01*
X543103Y350626D01*
X543224Y350681D01*
X543346Y350732D01*
X543470Y350780D01*
X543595Y350824D01*
X543721Y350864D01*
X543849Y350900D01*
X543977Y350933D01*
X544106Y350962D01*
X544237Y350987D01*
X544367Y351008D01*
X544499Y351026D01*
X544631Y351039D01*
X544763Y351049D01*
X544895Y351055D01*
X545028Y351057D01*
X552252Y351057D01*
X552385Y351055D01*
X552517Y351049D01*
X552649Y351039D01*
X552781Y351026D01*
X552913Y351008D01*
X553043Y350987D01*
X553174Y350962D01*
X553303Y350933D01*
X553431Y350900D01*
X553559Y350864D01*
X553685Y350824D01*
X553810Y350780D01*
X553934Y350732D01*
X554056Y350681D01*
X554177Y350626D01*
X554296Y350568D01*
X554414Y350506D01*
X554529Y350441D01*
X554643Y350372D01*
X554754Y350301D01*
X554863Y350225D01*
X554970Y350147D01*
X555075Y350066D01*
X555177Y349981D01*
X555277Y349894D01*
X555374Y349804D01*
X555469Y349711D01*
X555560Y349615D01*
X555649Y349517D01*
X555735Y349416D01*
X555818Y349312D01*
X555898Y349206D01*
X555974Y349098D01*
X556048Y348988D01*
X556118Y348875D01*
X556185Y348761D01*
X556248Y348644D01*
X556308Y348526D01*
X556365Y348406D01*
X556418Y348284D01*
X556467Y348161D01*
X556513Y348037D01*
X556555Y347911D01*
X556593Y347784D01*
X556628Y347656D01*
X556659Y347527D01*
X556686Y347398D01*
X556709Y347267D01*
X556729Y347136D01*
X556744Y347004D01*
X556756Y346872D01*
X556764Y346740D01*
X556768Y346607D01*
X556768Y346475D01*
X556764Y346342D01*
X556756Y346210D01*
X556744Y346078D01*
X556729Y345946D01*
X556709Y345815D01*
X556686Y345684D01*
X556659Y345555D01*
X556628Y345426D01*
X556593Y345298D01*
X556555Y345171D01*
X556513Y345045D01*
X556467Y344921D01*
X556418Y344798D01*
X556365Y344676D01*
X556308Y344556D01*
X556248Y344438D01*
X556185Y344321D01*
X556118Y344207D01*
X556048Y344094D01*
X555974Y343984D01*
X555898Y343876D01*
X555818Y343770D01*
X555735Y343666D01*
X555649Y343565D01*
X555560Y343467D01*
X555469Y343371D01*
X555374Y343278D01*
X555277Y343188D01*
X555177Y343101D01*
X555075Y343016D01*
X554970Y342935D01*
X554863Y342857D01*
X554754Y342781D01*
X554643Y342710D01*
X554529Y342641D01*
X554414Y342576D01*
X554296Y342514D01*
X554177Y342456D01*
X554056Y342401D01*
X553934Y342350D01*
X553810Y342302D01*
X553685Y342258D01*
X553559Y342218D01*
X553431Y342182D01*
X553303Y342149D01*
X553174Y342120D01*
X553043Y342095D01*
X552913Y342074D01*
X552781Y342056D01*
X552649Y342043D01*
X552517Y342033D01*
X552385Y342027D01*
X552252Y342025D01*
X540512Y357032D02*
X556768Y360644D01*
X545931Y364257D01*
X556768Y367869D01*
X540512Y371481D01*
X556768Y378007D02*
X556768Y385232D01*
X556768Y378007D02*
X540512Y378007D01*
X540512Y385232D01*
X547737Y383426D02*
X547737Y378007D01*
X540512Y391616D02*
X556768Y391616D01*
X540512Y391616D02*
X540512Y396132D01*
X540514Y396265D01*
X540520Y396397D01*
X540530Y396529D01*
X540543Y396661D01*
X540561Y396793D01*
X540582Y396923D01*
X540607Y397054D01*
X540636Y397183D01*
X540669Y397311D01*
X540705Y397439D01*
X540745Y397565D01*
X540789Y397690D01*
X540837Y397814D01*
X540888Y397936D01*
X540943Y398057D01*
X541001Y398176D01*
X541063Y398294D01*
X541128Y398409D01*
X541197Y398523D01*
X541268Y398634D01*
X541344Y398743D01*
X541422Y398850D01*
X541503Y398955D01*
X541588Y399057D01*
X541675Y399157D01*
X541765Y399254D01*
X541858Y399349D01*
X541954Y399440D01*
X542052Y399529D01*
X542153Y399615D01*
X542257Y399698D01*
X542363Y399778D01*
X542471Y399854D01*
X542581Y399928D01*
X542694Y399998D01*
X542808Y400065D01*
X542925Y400128D01*
X543043Y400188D01*
X543163Y400245D01*
X543285Y400298D01*
X543408Y400347D01*
X543532Y400393D01*
X543658Y400435D01*
X543785Y400473D01*
X543913Y400508D01*
X544042Y400539D01*
X544171Y400566D01*
X544302Y400589D01*
X544433Y400609D01*
X544565Y400624D01*
X544697Y400636D01*
X544829Y400644D01*
X544962Y400648D01*
X545094Y400648D01*
X545227Y400644D01*
X545359Y400636D01*
X545491Y400624D01*
X545623Y400609D01*
X545754Y400589D01*
X545885Y400566D01*
X546014Y400539D01*
X546143Y400508D01*
X546271Y400473D01*
X546398Y400435D01*
X546524Y400393D01*
X546648Y400347D01*
X546771Y400298D01*
X546893Y400245D01*
X547013Y400188D01*
X547131Y400128D01*
X547248Y400065D01*
X547362Y399998D01*
X547475Y399928D01*
X547585Y399854D01*
X547693Y399778D01*
X547799Y399698D01*
X547903Y399615D01*
X548004Y399529D01*
X548102Y399440D01*
X548198Y399349D01*
X548291Y399254D01*
X548381Y399157D01*
X548468Y399057D01*
X548553Y398955D01*
X548634Y398850D01*
X548712Y398743D01*
X548788Y398634D01*
X548859Y398523D01*
X548928Y398409D01*
X548993Y398294D01*
X549055Y398176D01*
X549113Y398057D01*
X549168Y397936D01*
X549219Y397814D01*
X549267Y397690D01*
X549311Y397565D01*
X549351Y397439D01*
X549387Y397311D01*
X549420Y397183D01*
X549449Y397054D01*
X549474Y396923D01*
X549495Y396793D01*
X549513Y396661D01*
X549526Y396529D01*
X549536Y396397D01*
X549542Y396265D01*
X549544Y396132D01*
X549543Y396132D02*
X549543Y391616D01*
X549543Y397035D02*
X556768Y400647D01*
X556768Y416882D02*
X540512Y416882D01*
X556768Y415075D02*
X556768Y418688D01*
X540512Y418688D02*
X540512Y415075D01*
X540512Y425392D02*
X556768Y425392D01*
X556768Y434423D02*
X540512Y425392D01*
X540512Y434423D02*
X556768Y434423D01*
X556768Y442276D02*
X540512Y442276D01*
X540512Y446792D01*
X540514Y446925D01*
X540520Y447057D01*
X540530Y447189D01*
X540543Y447321D01*
X540561Y447453D01*
X540582Y447583D01*
X540607Y447714D01*
X540636Y447843D01*
X540669Y447971D01*
X540705Y448099D01*
X540745Y448225D01*
X540789Y448350D01*
X540837Y448474D01*
X540888Y448596D01*
X540943Y448717D01*
X541001Y448836D01*
X541063Y448954D01*
X541128Y449069D01*
X541197Y449183D01*
X541268Y449294D01*
X541344Y449403D01*
X541422Y449510D01*
X541503Y449615D01*
X541588Y449717D01*
X541675Y449817D01*
X541765Y449914D01*
X541858Y450009D01*
X541954Y450100D01*
X542052Y450189D01*
X542153Y450275D01*
X542257Y450358D01*
X542363Y450438D01*
X542471Y450514D01*
X542581Y450588D01*
X542694Y450658D01*
X542808Y450725D01*
X542925Y450788D01*
X543043Y450848D01*
X543163Y450905D01*
X543285Y450958D01*
X543408Y451007D01*
X543532Y451053D01*
X543658Y451095D01*
X543785Y451133D01*
X543913Y451168D01*
X544042Y451199D01*
X544171Y451226D01*
X544302Y451249D01*
X544433Y451269D01*
X544565Y451284D01*
X544697Y451296D01*
X544829Y451304D01*
X544962Y451308D01*
X545094Y451308D01*
X545227Y451304D01*
X545359Y451296D01*
X545491Y451284D01*
X545623Y451269D01*
X545754Y451249D01*
X545885Y451226D01*
X546014Y451199D01*
X546143Y451168D01*
X546271Y451133D01*
X546398Y451095D01*
X546524Y451053D01*
X546648Y451007D01*
X546771Y450958D01*
X546893Y450905D01*
X547013Y450848D01*
X547131Y450788D01*
X547248Y450725D01*
X547362Y450658D01*
X547475Y450588D01*
X547585Y450514D01*
X547693Y450438D01*
X547799Y450358D01*
X547903Y450275D01*
X548004Y450189D01*
X548102Y450100D01*
X548198Y450009D01*
X548291Y449914D01*
X548381Y449817D01*
X548468Y449717D01*
X548553Y449615D01*
X548634Y449510D01*
X548712Y449403D01*
X548788Y449294D01*
X548859Y449183D01*
X548928Y449069D01*
X548993Y448954D01*
X549055Y448836D01*
X549113Y448717D01*
X549168Y448596D01*
X549219Y448474D01*
X549267Y448350D01*
X549311Y448225D01*
X549351Y448099D01*
X549387Y447971D01*
X549420Y447843D01*
X549449Y447714D01*
X549474Y447583D01*
X549495Y447453D01*
X549513Y447321D01*
X549526Y447189D01*
X549536Y447057D01*
X549542Y446925D01*
X549544Y446792D01*
X549543Y446792D02*
X549543Y442276D01*
X552252Y457697D02*
X540512Y457697D01*
X552252Y457696D02*
X552385Y457698D01*
X552517Y457704D01*
X552649Y457714D01*
X552781Y457727D01*
X552913Y457745D01*
X553043Y457766D01*
X553174Y457791D01*
X553303Y457820D01*
X553431Y457853D01*
X553559Y457889D01*
X553685Y457929D01*
X553810Y457973D01*
X553934Y458021D01*
X554056Y458072D01*
X554177Y458127D01*
X554296Y458185D01*
X554414Y458247D01*
X554529Y458312D01*
X554643Y458381D01*
X554754Y458452D01*
X554863Y458528D01*
X554970Y458606D01*
X555075Y458687D01*
X555177Y458772D01*
X555277Y458859D01*
X555374Y458949D01*
X555469Y459042D01*
X555560Y459138D01*
X555649Y459236D01*
X555735Y459337D01*
X555818Y459441D01*
X555898Y459547D01*
X555974Y459655D01*
X556048Y459765D01*
X556118Y459878D01*
X556185Y459992D01*
X556248Y460109D01*
X556308Y460227D01*
X556365Y460347D01*
X556418Y460469D01*
X556467Y460592D01*
X556513Y460716D01*
X556555Y460842D01*
X556593Y460969D01*
X556628Y461097D01*
X556659Y461226D01*
X556686Y461355D01*
X556709Y461486D01*
X556729Y461617D01*
X556744Y461749D01*
X556756Y461881D01*
X556764Y462013D01*
X556768Y462146D01*
X556768Y462278D01*
X556764Y462411D01*
X556756Y462543D01*
X556744Y462675D01*
X556729Y462807D01*
X556709Y462938D01*
X556686Y463069D01*
X556659Y463198D01*
X556628Y463327D01*
X556593Y463455D01*
X556555Y463582D01*
X556513Y463708D01*
X556467Y463832D01*
X556418Y463955D01*
X556365Y464077D01*
X556308Y464197D01*
X556248Y464315D01*
X556185Y464432D01*
X556118Y464546D01*
X556048Y464659D01*
X555974Y464769D01*
X555898Y464877D01*
X555818Y464983D01*
X555735Y465087D01*
X555649Y465188D01*
X555560Y465286D01*
X555469Y465382D01*
X555374Y465475D01*
X555277Y465565D01*
X555177Y465652D01*
X555075Y465737D01*
X554970Y465818D01*
X554863Y465896D01*
X554754Y465972D01*
X554643Y466043D01*
X554529Y466112D01*
X554414Y466177D01*
X554296Y466239D01*
X554177Y466297D01*
X554056Y466352D01*
X553934Y466403D01*
X553810Y466451D01*
X553685Y466495D01*
X553559Y466535D01*
X553431Y466571D01*
X553303Y466604D01*
X553174Y466633D01*
X553043Y466658D01*
X552913Y466679D01*
X552781Y466697D01*
X552649Y466710D01*
X552517Y466720D01*
X552385Y466726D01*
X552252Y466728D01*
X540512Y466728D01*
X540512Y477322D02*
X556768Y477322D01*
X540512Y472807D02*
X540512Y481838D01*
X276288Y450144D02*
X276286Y450026D01*
X276280Y449908D01*
X276271Y449790D01*
X276257Y449673D01*
X276240Y449556D01*
X276219Y449439D01*
X276194Y449324D01*
X276165Y449209D01*
X276132Y449095D01*
X276096Y448983D01*
X276056Y448872D01*
X276013Y448762D01*
X275966Y448653D01*
X275916Y448546D01*
X275861Y448441D01*
X275804Y448338D01*
X275743Y448237D01*
X275679Y448137D01*
X275612Y448040D01*
X275542Y447945D01*
X275468Y447853D01*
X275392Y447762D01*
X275312Y447675D01*
X275230Y447590D01*
X275145Y447508D01*
X275058Y447428D01*
X274967Y447352D01*
X274875Y447278D01*
X274780Y447208D01*
X274683Y447141D01*
X274583Y447077D01*
X274482Y447016D01*
X274379Y446959D01*
X274274Y446904D01*
X274167Y446854D01*
X274058Y446807D01*
X273948Y446764D01*
X273837Y446724D01*
X273725Y446688D01*
X273611Y446655D01*
X273496Y446626D01*
X273381Y446601D01*
X273264Y446580D01*
X273147Y446563D01*
X273030Y446549D01*
X272912Y446540D01*
X272794Y446534D01*
X272676Y446532D01*
X272493Y446534D01*
X272311Y446541D01*
X272129Y446552D01*
X271947Y446567D01*
X271765Y446587D01*
X271584Y446610D01*
X271404Y446639D01*
X271224Y446671D01*
X271045Y446708D01*
X270868Y446749D01*
X270691Y446795D01*
X270515Y446844D01*
X270341Y446898D01*
X270167Y446956D01*
X269996Y447018D01*
X269826Y447084D01*
X269657Y447155D01*
X269490Y447229D01*
X269325Y447307D01*
X269162Y447389D01*
X269001Y447475D01*
X268842Y447565D01*
X268685Y447659D01*
X268531Y447756D01*
X268379Y447857D01*
X268229Y447962D01*
X268082Y448070D01*
X267938Y448181D01*
X267796Y448296D01*
X267657Y448415D01*
X267521Y448537D01*
X267388Y448662D01*
X267258Y448790D01*
X267710Y459176D02*
X267712Y459294D01*
X267718Y459412D01*
X267727Y459530D01*
X267741Y459647D01*
X267758Y459764D01*
X267779Y459881D01*
X267804Y459996D01*
X267833Y460111D01*
X267866Y460225D01*
X267902Y460337D01*
X267942Y460448D01*
X267985Y460558D01*
X268032Y460667D01*
X268082Y460774D01*
X268137Y460879D01*
X268194Y460982D01*
X268255Y461083D01*
X268319Y461183D01*
X268386Y461280D01*
X268456Y461375D01*
X268530Y461467D01*
X268606Y461558D01*
X268686Y461645D01*
X268768Y461730D01*
X268853Y461812D01*
X268940Y461892D01*
X269031Y461968D01*
X269123Y462042D01*
X269218Y462112D01*
X269315Y462179D01*
X269415Y462243D01*
X269516Y462304D01*
X269619Y462362D01*
X269724Y462416D01*
X269831Y462466D01*
X269940Y462513D01*
X270050Y462557D01*
X270161Y462596D01*
X270274Y462632D01*
X270387Y462665D01*
X270502Y462694D01*
X270617Y462719D01*
X270734Y462740D01*
X270851Y462757D01*
X270968Y462771D01*
X271086Y462780D01*
X271204Y462786D01*
X271322Y462788D01*
X271483Y462786D01*
X271645Y462780D01*
X271806Y462771D01*
X271967Y462757D01*
X272127Y462740D01*
X272287Y462719D01*
X272447Y462694D01*
X272606Y462665D01*
X272764Y462633D01*
X272921Y462597D01*
X273077Y462557D01*
X273233Y462513D01*
X273387Y462465D01*
X273540Y462414D01*
X273692Y462360D01*
X273843Y462301D01*
X273992Y462240D01*
X274139Y462174D01*
X274285Y462105D01*
X274430Y462033D01*
X274572Y461957D01*
X274713Y461878D01*
X274852Y461796D01*
X274988Y461710D01*
X275123Y461621D01*
X275256Y461529D01*
X275386Y461433D01*
X269515Y456015D02*
X269414Y456077D01*
X269314Y456142D01*
X269217Y456211D01*
X269122Y456283D01*
X269029Y456357D01*
X268939Y456435D01*
X268851Y456516D01*
X268766Y456599D01*
X268684Y456685D01*
X268605Y456774D01*
X268528Y456865D01*
X268455Y456959D01*
X268384Y457055D01*
X268317Y457153D01*
X268253Y457253D01*
X268192Y457356D01*
X268135Y457460D01*
X268081Y457566D01*
X268031Y457674D01*
X267984Y457783D01*
X267940Y457894D01*
X267900Y458006D01*
X267864Y458120D01*
X267832Y458234D01*
X267803Y458350D01*
X267778Y458466D01*
X267757Y458583D01*
X267740Y458701D01*
X267726Y458819D01*
X267717Y458938D01*
X267711Y459057D01*
X267709Y459176D01*
X274483Y453305D02*
X274584Y453243D01*
X274684Y453178D01*
X274781Y453109D01*
X274876Y453037D01*
X274969Y452963D01*
X275059Y452885D01*
X275147Y452804D01*
X275232Y452721D01*
X275314Y452635D01*
X275393Y452546D01*
X275470Y452455D01*
X275543Y452361D01*
X275614Y452265D01*
X275681Y452167D01*
X275745Y452067D01*
X275806Y451964D01*
X275863Y451860D01*
X275917Y451754D01*
X275967Y451646D01*
X276014Y451537D01*
X276058Y451426D01*
X276098Y451314D01*
X276134Y451200D01*
X276166Y451086D01*
X276195Y450970D01*
X276220Y450854D01*
X276241Y450737D01*
X276258Y450619D01*
X276272Y450501D01*
X276281Y450382D01*
X276287Y450263D01*
X276289Y450144D01*
X274483Y453305D02*
X269515Y456015D01*
X285841Y462788D02*
X285841Y446532D01*
X281326Y462788D02*
X290357Y462788D01*
X300431Y462788D02*
X295012Y446532D01*
X305849Y446532D02*
X300431Y462788D01*
X304495Y450596D02*
X296367Y450596D01*
X312159Y446532D02*
X312159Y462788D01*
X316674Y462788D01*
X316807Y462786D01*
X316939Y462780D01*
X317071Y462770D01*
X317203Y462757D01*
X317335Y462739D01*
X317465Y462718D01*
X317596Y462693D01*
X317725Y462664D01*
X317853Y462631D01*
X317981Y462595D01*
X318107Y462555D01*
X318232Y462511D01*
X318356Y462463D01*
X318478Y462412D01*
X318599Y462357D01*
X318718Y462299D01*
X318836Y462237D01*
X318951Y462172D01*
X319065Y462103D01*
X319176Y462032D01*
X319285Y461956D01*
X319392Y461878D01*
X319497Y461797D01*
X319599Y461712D01*
X319699Y461625D01*
X319796Y461535D01*
X319891Y461442D01*
X319982Y461346D01*
X320071Y461248D01*
X320157Y461147D01*
X320240Y461043D01*
X320320Y460937D01*
X320396Y460829D01*
X320470Y460719D01*
X320540Y460606D01*
X320607Y460492D01*
X320670Y460375D01*
X320730Y460257D01*
X320787Y460137D01*
X320840Y460015D01*
X320889Y459892D01*
X320935Y459768D01*
X320977Y459642D01*
X321015Y459515D01*
X321050Y459387D01*
X321081Y459258D01*
X321108Y459129D01*
X321131Y458998D01*
X321151Y458867D01*
X321166Y458735D01*
X321178Y458603D01*
X321186Y458471D01*
X321190Y458338D01*
X321190Y458206D01*
X321186Y458073D01*
X321178Y457941D01*
X321166Y457809D01*
X321151Y457677D01*
X321131Y457546D01*
X321108Y457415D01*
X321081Y457286D01*
X321050Y457157D01*
X321015Y457029D01*
X320977Y456902D01*
X320935Y456776D01*
X320889Y456652D01*
X320840Y456529D01*
X320787Y456407D01*
X320730Y456287D01*
X320670Y456169D01*
X320607Y456052D01*
X320540Y455938D01*
X320470Y455825D01*
X320396Y455715D01*
X320320Y455607D01*
X320240Y455501D01*
X320157Y455397D01*
X320071Y455296D01*
X319982Y455198D01*
X319891Y455102D01*
X319796Y455009D01*
X319699Y454919D01*
X319599Y454832D01*
X319497Y454747D01*
X319392Y454666D01*
X319285Y454588D01*
X319176Y454512D01*
X319065Y454441D01*
X318951Y454372D01*
X318836Y454307D01*
X318718Y454245D01*
X318599Y454187D01*
X318478Y454132D01*
X318356Y454081D01*
X318232Y454033D01*
X318107Y453989D01*
X317981Y453949D01*
X317853Y453913D01*
X317725Y453880D01*
X317596Y453851D01*
X317465Y453826D01*
X317335Y453805D01*
X317203Y453787D01*
X317071Y453774D01*
X316939Y453764D01*
X316807Y453758D01*
X316674Y453756D01*
X316674Y453757D02*
X312159Y453757D01*
X317578Y453757D02*
X321190Y446532D01*
X328249Y446532D02*
X328249Y462788D01*
X328249Y446532D02*
X335474Y446532D01*
X342635Y446532D02*
X342635Y462788D01*
X340829Y446532D02*
X344441Y446532D01*
X344441Y462788D02*
X340829Y462788D01*
X354098Y462788D02*
X354098Y446532D01*
X349582Y462788D02*
X358613Y462788D01*
X364722Y446532D02*
X371947Y446532D01*
X364722Y446532D02*
X364722Y462788D01*
X371947Y462788D01*
X370141Y455563D02*
X364722Y455563D01*
X378378Y462788D02*
X378378Y446532D01*
X383797Y453757D02*
X378378Y462788D01*
X383797Y453757D02*
X389216Y462788D01*
X389216Y446532D01*
X395573Y446532D02*
X400991Y462788D01*
X406410Y446532D01*
X405055Y450596D02*
X396927Y450596D01*
X413496Y446532D02*
X413496Y462788D01*
X411690Y446532D02*
X415303Y446532D01*
X415303Y462788D02*
X411690Y462788D01*
X422007Y462788D02*
X422007Y446532D01*
X431038Y446532D02*
X422007Y462788D01*
X431038Y462788D02*
X431038Y446532D01*
X308969Y437388D02*
X308969Y421132D01*
X308969Y437388D02*
X313484Y437388D01*
X313617Y437386D01*
X313749Y437380D01*
X313881Y437370D01*
X314013Y437357D01*
X314145Y437339D01*
X314275Y437318D01*
X314406Y437293D01*
X314535Y437264D01*
X314663Y437231D01*
X314791Y437195D01*
X314917Y437155D01*
X315042Y437111D01*
X315166Y437063D01*
X315288Y437012D01*
X315409Y436957D01*
X315528Y436899D01*
X315646Y436837D01*
X315761Y436772D01*
X315875Y436703D01*
X315986Y436632D01*
X316095Y436556D01*
X316202Y436478D01*
X316307Y436397D01*
X316409Y436312D01*
X316509Y436225D01*
X316606Y436135D01*
X316701Y436042D01*
X316792Y435946D01*
X316881Y435848D01*
X316967Y435747D01*
X317050Y435643D01*
X317130Y435537D01*
X317206Y435429D01*
X317280Y435319D01*
X317350Y435206D01*
X317417Y435092D01*
X317480Y434975D01*
X317540Y434857D01*
X317597Y434737D01*
X317650Y434615D01*
X317699Y434492D01*
X317745Y434368D01*
X317787Y434242D01*
X317825Y434115D01*
X317860Y433987D01*
X317891Y433858D01*
X317918Y433729D01*
X317941Y433598D01*
X317961Y433467D01*
X317976Y433335D01*
X317988Y433203D01*
X317996Y433071D01*
X318000Y432938D01*
X318000Y432806D01*
X317996Y432673D01*
X317988Y432541D01*
X317976Y432409D01*
X317961Y432277D01*
X317941Y432146D01*
X317918Y432015D01*
X317891Y431886D01*
X317860Y431757D01*
X317825Y431629D01*
X317787Y431502D01*
X317745Y431376D01*
X317699Y431252D01*
X317650Y431129D01*
X317597Y431007D01*
X317540Y430887D01*
X317480Y430769D01*
X317417Y430652D01*
X317350Y430538D01*
X317280Y430425D01*
X317206Y430315D01*
X317130Y430207D01*
X317050Y430101D01*
X316967Y429997D01*
X316881Y429896D01*
X316792Y429798D01*
X316701Y429702D01*
X316606Y429609D01*
X316509Y429519D01*
X316409Y429432D01*
X316307Y429347D01*
X316202Y429266D01*
X316095Y429188D01*
X315986Y429112D01*
X315875Y429041D01*
X315761Y428972D01*
X315646Y428907D01*
X315528Y428845D01*
X315409Y428787D01*
X315288Y428732D01*
X315166Y428681D01*
X315042Y428633D01*
X314917Y428589D01*
X314791Y428549D01*
X314663Y428513D01*
X314535Y428480D01*
X314406Y428451D01*
X314275Y428426D01*
X314145Y428405D01*
X314013Y428387D01*
X313881Y428374D01*
X313749Y428364D01*
X313617Y428358D01*
X313484Y428356D01*
X313484Y428357D02*
X308969Y428357D01*
X314387Y428357D02*
X318000Y421132D01*
X325059Y421132D02*
X332284Y421132D01*
X325059Y421132D02*
X325059Y437388D01*
X332284Y437388D01*
X330478Y430163D02*
X325059Y430163D01*
X337152Y437388D02*
X342571Y421132D01*
X347990Y437388D01*
X366539Y437388D02*
X361120Y421132D01*
X371957Y421132D02*
X366539Y437388D01*
X370603Y425196D02*
X362475Y425196D01*
X377029Y422035D02*
X377029Y421132D01*
X377029Y422035D02*
X377932Y422035D01*
X377932Y421132D01*
X377029Y421132D01*
X383907Y429260D02*
X383911Y429580D01*
X383922Y429899D01*
X383941Y430219D01*
X383968Y430537D01*
X384002Y430855D01*
X384044Y431172D01*
X384094Y431488D01*
X384151Y431803D01*
X384215Y432116D01*
X384287Y432428D01*
X384366Y432738D01*
X384453Y433045D01*
X384547Y433351D01*
X384648Y433654D01*
X384757Y433955D01*
X384872Y434253D01*
X384995Y434549D01*
X385125Y434841D01*
X385262Y435130D01*
X385261Y435131D02*
X385300Y435239D01*
X385343Y435346D01*
X385389Y435451D01*
X385440Y435555D01*
X385493Y435657D01*
X385550Y435757D01*
X385611Y435855D01*
X385675Y435950D01*
X385742Y436044D01*
X385813Y436135D01*
X385886Y436224D01*
X385963Y436310D01*
X386042Y436393D01*
X386124Y436474D01*
X386209Y436552D01*
X386297Y436626D01*
X386387Y436698D01*
X386479Y436766D01*
X386574Y436832D01*
X386671Y436894D01*
X386770Y436952D01*
X386872Y437008D01*
X386974Y437059D01*
X387079Y437107D01*
X387185Y437152D01*
X387293Y437193D01*
X387402Y437230D01*
X387512Y437263D01*
X387624Y437292D01*
X387736Y437318D01*
X387849Y437340D01*
X387963Y437357D01*
X388077Y437371D01*
X388192Y437381D01*
X388307Y437387D01*
X388422Y437389D01*
X388422Y437388D02*
X388537Y437386D01*
X388652Y437380D01*
X388767Y437370D01*
X388881Y437356D01*
X388995Y437339D01*
X389108Y437317D01*
X389220Y437291D01*
X389332Y437262D01*
X389442Y437229D01*
X389551Y437192D01*
X389659Y437151D01*
X389765Y437106D01*
X389870Y437058D01*
X389972Y437007D01*
X390073Y436951D01*
X390173Y436893D01*
X390270Y436831D01*
X390364Y436766D01*
X390457Y436697D01*
X390547Y436625D01*
X390635Y436551D01*
X390720Y436473D01*
X390802Y436392D01*
X390881Y436309D01*
X390958Y436223D01*
X391031Y436134D01*
X391102Y436043D01*
X391169Y435949D01*
X391233Y435854D01*
X391294Y435756D01*
X391351Y435656D01*
X391404Y435554D01*
X391455Y435450D01*
X391501Y435345D01*
X391544Y435238D01*
X391583Y435130D01*
X391720Y434841D01*
X391850Y434549D01*
X391973Y434253D01*
X392088Y433955D01*
X392197Y433654D01*
X392298Y433351D01*
X392392Y433045D01*
X392479Y432738D01*
X392558Y432428D01*
X392630Y432116D01*
X392694Y431803D01*
X392751Y431488D01*
X392801Y431172D01*
X392843Y430855D01*
X392877Y430537D01*
X392904Y430219D01*
X392923Y429899D01*
X392934Y429580D01*
X392938Y429260D01*
X383907Y429260D02*
X383911Y428940D01*
X383922Y428621D01*
X383941Y428301D01*
X383968Y427983D01*
X384002Y427665D01*
X384044Y427348D01*
X384094Y427032D01*
X384151Y426717D01*
X384215Y426404D01*
X384287Y426092D01*
X384366Y425782D01*
X384453Y425475D01*
X384547Y425169D01*
X384648Y424866D01*
X384757Y424565D01*
X384872Y424267D01*
X384995Y423971D01*
X385125Y423679D01*
X385262Y423390D01*
X385261Y423390D02*
X385300Y423282D01*
X385343Y423175D01*
X385389Y423070D01*
X385440Y422966D01*
X385493Y422864D01*
X385550Y422764D01*
X385611Y422666D01*
X385675Y422571D01*
X385742Y422477D01*
X385813Y422386D01*
X385886Y422297D01*
X385963Y422211D01*
X386042Y422128D01*
X386124Y422047D01*
X386209Y421969D01*
X386297Y421895D01*
X386387Y421823D01*
X386480Y421754D01*
X386574Y421689D01*
X386671Y421627D01*
X386771Y421569D01*
X386872Y421513D01*
X386974Y421462D01*
X387079Y421414D01*
X387185Y421369D01*
X387293Y421328D01*
X387402Y421291D01*
X387512Y421258D01*
X387624Y421229D01*
X387736Y421203D01*
X387849Y421181D01*
X387963Y421164D01*
X388077Y421150D01*
X388192Y421140D01*
X388307Y421134D01*
X388422Y421132D01*
X391583Y423390D02*
X391720Y423679D01*
X391850Y423971D01*
X391973Y424267D01*
X392088Y424565D01*
X392197Y424866D01*
X392298Y425169D01*
X392392Y425475D01*
X392479Y425782D01*
X392558Y426092D01*
X392630Y426404D01*
X392694Y426717D01*
X392751Y427032D01*
X392801Y427348D01*
X392843Y427665D01*
X392877Y427983D01*
X392904Y428301D01*
X392923Y428621D01*
X392934Y428940D01*
X392938Y429260D01*
X391583Y423390D02*
X391544Y423282D01*
X391501Y423175D01*
X391455Y423070D01*
X391404Y422966D01*
X391351Y422864D01*
X391294Y422764D01*
X391233Y422666D01*
X391169Y422571D01*
X391102Y422477D01*
X391031Y422386D01*
X390958Y422297D01*
X390881Y422211D01*
X390802Y422128D01*
X390720Y422047D01*
X390635Y421969D01*
X390547Y421895D01*
X390457Y421823D01*
X390364Y421754D01*
X390270Y421689D01*
X390173Y421627D01*
X390073Y421569D01*
X389972Y421513D01*
X389869Y421462D01*
X389765Y421414D01*
X389659Y421369D01*
X389551Y421328D01*
X389442Y421291D01*
X389332Y421258D01*
X389220Y421229D01*
X389108Y421203D01*
X388995Y421181D01*
X388881Y421164D01*
X388767Y421150D01*
X388652Y421140D01*
X388537Y421134D01*
X388422Y421132D01*
X384810Y424744D02*
X392035Y433776D01*
X292773Y404763D02*
X290064Y404763D01*
X292773Y404763D02*
X292773Y395732D01*
X287354Y395732D01*
X287236Y395734D01*
X287118Y395740D01*
X287000Y395749D01*
X286883Y395763D01*
X286766Y395780D01*
X286649Y395801D01*
X286534Y395826D01*
X286419Y395855D01*
X286305Y395888D01*
X286193Y395924D01*
X286082Y395964D01*
X285972Y396007D01*
X285863Y396054D01*
X285756Y396104D01*
X285651Y396159D01*
X285548Y396216D01*
X285447Y396277D01*
X285347Y396341D01*
X285250Y396408D01*
X285155Y396478D01*
X285063Y396552D01*
X284972Y396628D01*
X284885Y396708D01*
X284800Y396790D01*
X284718Y396875D01*
X284638Y396962D01*
X284562Y397053D01*
X284488Y397145D01*
X284418Y397240D01*
X284351Y397337D01*
X284287Y397437D01*
X284226Y397538D01*
X284169Y397641D01*
X284114Y397746D01*
X284064Y397853D01*
X284017Y397962D01*
X283974Y398072D01*
X283934Y398183D01*
X283898Y398295D01*
X283865Y398409D01*
X283836Y398524D01*
X283811Y398639D01*
X283790Y398756D01*
X283773Y398873D01*
X283759Y398990D01*
X283750Y399108D01*
X283744Y399226D01*
X283742Y399344D01*
X283742Y408376D01*
X283744Y408494D01*
X283750Y408612D01*
X283759Y408730D01*
X283773Y408847D01*
X283790Y408964D01*
X283811Y409081D01*
X283836Y409196D01*
X283865Y409311D01*
X283898Y409425D01*
X283934Y409537D01*
X283974Y409648D01*
X284017Y409758D01*
X284064Y409867D01*
X284114Y409974D01*
X284168Y410079D01*
X284226Y410182D01*
X284287Y410283D01*
X284351Y410383D01*
X284418Y410480D01*
X284488Y410575D01*
X284562Y410667D01*
X284638Y410758D01*
X284718Y410845D01*
X284800Y410930D01*
X284885Y411012D01*
X284972Y411092D01*
X285063Y411168D01*
X285155Y411242D01*
X285250Y411312D01*
X285347Y411379D01*
X285447Y411443D01*
X285548Y411504D01*
X285651Y411561D01*
X285756Y411615D01*
X285863Y411666D01*
X285972Y411713D01*
X286082Y411756D01*
X286193Y411796D01*
X286305Y411832D01*
X286419Y411865D01*
X286534Y411894D01*
X286649Y411919D01*
X286766Y411940D01*
X286883Y411957D01*
X287000Y411971D01*
X287118Y411980D01*
X287236Y411986D01*
X287354Y411988D01*
X292773Y411988D01*
X299269Y396635D02*
X299269Y395732D01*
X299269Y396635D02*
X300172Y396635D01*
X300172Y395732D01*
X299269Y395732D01*
X321326Y404763D02*
X324035Y404763D01*
X324035Y395732D01*
X318617Y395732D01*
X318499Y395734D01*
X318381Y395740D01*
X318263Y395749D01*
X318146Y395763D01*
X318029Y395780D01*
X317912Y395801D01*
X317797Y395826D01*
X317682Y395855D01*
X317568Y395888D01*
X317456Y395924D01*
X317345Y395964D01*
X317235Y396007D01*
X317126Y396054D01*
X317019Y396104D01*
X316914Y396159D01*
X316811Y396216D01*
X316710Y396277D01*
X316610Y396341D01*
X316513Y396408D01*
X316418Y396478D01*
X316326Y396552D01*
X316235Y396628D01*
X316148Y396708D01*
X316063Y396790D01*
X315981Y396875D01*
X315901Y396962D01*
X315825Y397053D01*
X315751Y397145D01*
X315681Y397240D01*
X315614Y397337D01*
X315550Y397437D01*
X315489Y397538D01*
X315432Y397641D01*
X315377Y397746D01*
X315327Y397853D01*
X315280Y397962D01*
X315237Y398072D01*
X315197Y398183D01*
X315161Y398295D01*
X315128Y398409D01*
X315099Y398524D01*
X315074Y398639D01*
X315053Y398756D01*
X315036Y398873D01*
X315022Y398990D01*
X315013Y399108D01*
X315007Y399226D01*
X315005Y399344D01*
X315004Y399344D02*
X315004Y408376D01*
X315005Y408376D02*
X315007Y408494D01*
X315013Y408612D01*
X315022Y408730D01*
X315036Y408847D01*
X315053Y408964D01*
X315074Y409081D01*
X315099Y409196D01*
X315128Y409311D01*
X315161Y409425D01*
X315197Y409537D01*
X315237Y409648D01*
X315280Y409758D01*
X315327Y409867D01*
X315377Y409974D01*
X315431Y410079D01*
X315489Y410182D01*
X315550Y410283D01*
X315614Y410383D01*
X315681Y410480D01*
X315751Y410575D01*
X315825Y410667D01*
X315901Y410758D01*
X315981Y410845D01*
X316063Y410930D01*
X316148Y411012D01*
X316235Y411092D01*
X316326Y411168D01*
X316418Y411242D01*
X316513Y411312D01*
X316610Y411379D01*
X316710Y411443D01*
X316811Y411504D01*
X316914Y411561D01*
X317019Y411615D01*
X317126Y411666D01*
X317235Y411713D01*
X317345Y411756D01*
X317456Y411796D01*
X317568Y411832D01*
X317682Y411865D01*
X317797Y411894D01*
X317912Y411919D01*
X318029Y411940D01*
X318146Y411957D01*
X318263Y411971D01*
X318381Y411980D01*
X318499Y411986D01*
X318617Y411988D01*
X324035Y411988D01*
X331769Y411988D02*
X331769Y395732D01*
X331769Y411988D02*
X336285Y411988D01*
X336418Y411986D01*
X336550Y411980D01*
X336682Y411970D01*
X336814Y411957D01*
X336946Y411939D01*
X337076Y411918D01*
X337207Y411893D01*
X337336Y411864D01*
X337464Y411831D01*
X337592Y411795D01*
X337718Y411755D01*
X337843Y411711D01*
X337967Y411663D01*
X338089Y411612D01*
X338210Y411557D01*
X338329Y411499D01*
X338447Y411437D01*
X338562Y411372D01*
X338676Y411303D01*
X338787Y411232D01*
X338896Y411156D01*
X339003Y411078D01*
X339108Y410997D01*
X339210Y410912D01*
X339310Y410825D01*
X339407Y410735D01*
X339502Y410642D01*
X339593Y410546D01*
X339682Y410448D01*
X339768Y410347D01*
X339851Y410243D01*
X339931Y410137D01*
X340007Y410029D01*
X340081Y409919D01*
X340151Y409806D01*
X340218Y409692D01*
X340281Y409575D01*
X340341Y409457D01*
X340398Y409337D01*
X340451Y409215D01*
X340500Y409092D01*
X340546Y408968D01*
X340588Y408842D01*
X340626Y408715D01*
X340661Y408587D01*
X340692Y408458D01*
X340719Y408329D01*
X340742Y408198D01*
X340762Y408067D01*
X340777Y407935D01*
X340789Y407803D01*
X340797Y407671D01*
X340801Y407538D01*
X340801Y407406D01*
X340797Y407273D01*
X340789Y407141D01*
X340777Y407009D01*
X340762Y406877D01*
X340742Y406746D01*
X340719Y406615D01*
X340692Y406486D01*
X340661Y406357D01*
X340626Y406229D01*
X340588Y406102D01*
X340546Y405976D01*
X340500Y405852D01*
X340451Y405729D01*
X340398Y405607D01*
X340341Y405487D01*
X340281Y405369D01*
X340218Y405252D01*
X340151Y405138D01*
X340081Y405025D01*
X340007Y404915D01*
X339931Y404807D01*
X339851Y404701D01*
X339768Y404597D01*
X339682Y404496D01*
X339593Y404398D01*
X339502Y404302D01*
X339407Y404209D01*
X339310Y404119D01*
X339210Y404032D01*
X339108Y403947D01*
X339003Y403866D01*
X338896Y403788D01*
X338787Y403712D01*
X338676Y403641D01*
X338562Y403572D01*
X338447Y403507D01*
X338329Y403445D01*
X338210Y403387D01*
X338089Y403332D01*
X337967Y403281D01*
X337843Y403233D01*
X337718Y403189D01*
X337592Y403149D01*
X337464Y403113D01*
X337336Y403080D01*
X337207Y403051D01*
X337076Y403026D01*
X336946Y403005D01*
X336814Y402987D01*
X336682Y402974D01*
X336550Y402964D01*
X336418Y402958D01*
X336285Y402956D01*
X336285Y402957D02*
X331769Y402957D01*
X337188Y402957D02*
X340800Y395732D01*
X347830Y400248D02*
X347830Y411988D01*
X347829Y400248D02*
X347831Y400115D01*
X347837Y399983D01*
X347847Y399851D01*
X347860Y399719D01*
X347878Y399587D01*
X347899Y399457D01*
X347924Y399326D01*
X347953Y399197D01*
X347986Y399069D01*
X348022Y398941D01*
X348062Y398815D01*
X348106Y398690D01*
X348154Y398566D01*
X348205Y398444D01*
X348260Y398323D01*
X348318Y398204D01*
X348380Y398086D01*
X348445Y397971D01*
X348514Y397857D01*
X348585Y397746D01*
X348661Y397637D01*
X348739Y397530D01*
X348820Y397425D01*
X348905Y397323D01*
X348992Y397223D01*
X349082Y397126D01*
X349175Y397031D01*
X349271Y396940D01*
X349369Y396851D01*
X349470Y396765D01*
X349574Y396682D01*
X349680Y396602D01*
X349788Y396526D01*
X349898Y396452D01*
X350011Y396382D01*
X350125Y396315D01*
X350242Y396252D01*
X350360Y396192D01*
X350480Y396135D01*
X350602Y396082D01*
X350725Y396033D01*
X350849Y395987D01*
X350975Y395945D01*
X351102Y395907D01*
X351230Y395872D01*
X351359Y395841D01*
X351488Y395814D01*
X351619Y395791D01*
X351750Y395771D01*
X351882Y395756D01*
X352014Y395744D01*
X352146Y395736D01*
X352279Y395732D01*
X352411Y395732D01*
X352544Y395736D01*
X352676Y395744D01*
X352808Y395756D01*
X352940Y395771D01*
X353071Y395791D01*
X353202Y395814D01*
X353331Y395841D01*
X353460Y395872D01*
X353588Y395907D01*
X353715Y395945D01*
X353841Y395987D01*
X353965Y396033D01*
X354088Y396082D01*
X354210Y396135D01*
X354330Y396192D01*
X354448Y396252D01*
X354565Y396315D01*
X354679Y396382D01*
X354792Y396452D01*
X354902Y396526D01*
X355010Y396602D01*
X355116Y396682D01*
X355220Y396765D01*
X355321Y396851D01*
X355419Y396940D01*
X355515Y397031D01*
X355608Y397126D01*
X355698Y397223D01*
X355785Y397323D01*
X355870Y397425D01*
X355951Y397530D01*
X356029Y397637D01*
X356105Y397746D01*
X356176Y397857D01*
X356245Y397971D01*
X356310Y398086D01*
X356372Y398204D01*
X356430Y398323D01*
X356485Y398444D01*
X356536Y398566D01*
X356584Y398690D01*
X356628Y398815D01*
X356668Y398941D01*
X356704Y399069D01*
X356737Y399197D01*
X356766Y399326D01*
X356791Y399457D01*
X356812Y399587D01*
X356830Y399719D01*
X356843Y399851D01*
X356853Y399983D01*
X356859Y400115D01*
X356861Y400248D01*
X356861Y411988D01*
X364642Y411988D02*
X364642Y395732D01*
X370061Y402957D02*
X364642Y411988D01*
X370061Y402957D02*
X375480Y411988D01*
X375480Y395732D01*
X383400Y395732D02*
X383400Y411988D01*
X388818Y402957D01*
X394237Y411988D01*
X394237Y395732D01*
X402048Y395732D02*
X409273Y395732D01*
X402048Y395732D02*
X402048Y411988D01*
X409273Y411988D01*
X407467Y404763D02*
X402048Y404763D01*
X415657Y411988D02*
X415657Y395732D01*
X415657Y411988D02*
X420172Y411988D01*
X420305Y411986D01*
X420437Y411980D01*
X420569Y411970D01*
X420701Y411957D01*
X420833Y411939D01*
X420963Y411918D01*
X421094Y411893D01*
X421223Y411864D01*
X421351Y411831D01*
X421479Y411795D01*
X421605Y411755D01*
X421730Y411711D01*
X421854Y411663D01*
X421976Y411612D01*
X422097Y411557D01*
X422216Y411499D01*
X422334Y411437D01*
X422449Y411372D01*
X422563Y411303D01*
X422674Y411232D01*
X422783Y411156D01*
X422890Y411078D01*
X422995Y410997D01*
X423097Y410912D01*
X423197Y410825D01*
X423294Y410735D01*
X423389Y410642D01*
X423480Y410546D01*
X423569Y410448D01*
X423655Y410347D01*
X423738Y410243D01*
X423818Y410137D01*
X423894Y410029D01*
X423968Y409919D01*
X424038Y409806D01*
X424105Y409692D01*
X424168Y409575D01*
X424228Y409457D01*
X424285Y409337D01*
X424338Y409215D01*
X424387Y409092D01*
X424433Y408968D01*
X424475Y408842D01*
X424513Y408715D01*
X424548Y408587D01*
X424579Y408458D01*
X424606Y408329D01*
X424629Y408198D01*
X424649Y408067D01*
X424664Y407935D01*
X424676Y407803D01*
X424684Y407671D01*
X424688Y407538D01*
X424688Y407406D01*
X424684Y407273D01*
X424676Y407141D01*
X424664Y407009D01*
X424649Y406877D01*
X424629Y406746D01*
X424606Y406615D01*
X424579Y406486D01*
X424548Y406357D01*
X424513Y406229D01*
X424475Y406102D01*
X424433Y405976D01*
X424387Y405852D01*
X424338Y405729D01*
X424285Y405607D01*
X424228Y405487D01*
X424168Y405369D01*
X424105Y405252D01*
X424038Y405138D01*
X423968Y405025D01*
X423894Y404915D01*
X423818Y404807D01*
X423738Y404701D01*
X423655Y404597D01*
X423569Y404496D01*
X423480Y404398D01*
X423389Y404302D01*
X423294Y404209D01*
X423197Y404119D01*
X423097Y404032D01*
X422995Y403947D01*
X422890Y403866D01*
X422783Y403788D01*
X422674Y403712D01*
X422563Y403641D01*
X422449Y403572D01*
X422334Y403507D01*
X422216Y403445D01*
X422097Y403387D01*
X421976Y403332D01*
X421854Y403281D01*
X421730Y403233D01*
X421605Y403189D01*
X421479Y403149D01*
X421351Y403113D01*
X421223Y403080D01*
X421094Y403051D01*
X420963Y403026D01*
X420833Y403005D01*
X420701Y402987D01*
X420569Y402974D01*
X420437Y402964D01*
X420305Y402958D01*
X420172Y402956D01*
X420172Y402957D02*
X415657Y402957D01*
X421076Y402957D02*
X424688Y395732D01*
D11*
X577850Y298450D02*
X685800Y298450D01*
X577850Y298450D02*
X565150Y311150D01*
X565150Y488950D01*
X577850Y501650D01*
X685800Y501650D01*
D10*
X488188Y319504D02*
X477351Y319504D01*
X482769Y314085D02*
X482769Y324922D01*
X373888Y783054D02*
X363051Y783054D01*
X368469Y777635D02*
X368469Y788472D01*
X20122Y172212D02*
X12898Y172212D01*
X12765Y172214D01*
X12633Y172220D01*
X12501Y172230D01*
X12369Y172243D01*
X12237Y172261D01*
X12107Y172282D01*
X11976Y172307D01*
X11847Y172336D01*
X11719Y172369D01*
X11591Y172405D01*
X11465Y172445D01*
X11340Y172489D01*
X11216Y172537D01*
X11094Y172588D01*
X10973Y172643D01*
X10854Y172701D01*
X10736Y172763D01*
X10621Y172828D01*
X10507Y172897D01*
X10396Y172968D01*
X10287Y173044D01*
X10180Y173122D01*
X10075Y173203D01*
X9973Y173288D01*
X9873Y173375D01*
X9776Y173465D01*
X9681Y173558D01*
X9590Y173654D01*
X9501Y173752D01*
X9415Y173853D01*
X9332Y173957D01*
X9252Y174063D01*
X9176Y174171D01*
X9102Y174281D01*
X9032Y174394D01*
X8965Y174508D01*
X8902Y174625D01*
X8842Y174743D01*
X8785Y174863D01*
X8732Y174985D01*
X8683Y175108D01*
X8637Y175232D01*
X8595Y175358D01*
X8557Y175485D01*
X8522Y175613D01*
X8491Y175742D01*
X8464Y175871D01*
X8441Y176002D01*
X8421Y176133D01*
X8406Y176265D01*
X8394Y176397D01*
X8386Y176529D01*
X8382Y176662D01*
X8382Y176794D01*
X8386Y176927D01*
X8394Y177059D01*
X8406Y177191D01*
X8421Y177323D01*
X8441Y177454D01*
X8464Y177585D01*
X8491Y177714D01*
X8522Y177843D01*
X8557Y177971D01*
X8595Y178098D01*
X8637Y178224D01*
X8683Y178348D01*
X8732Y178471D01*
X8785Y178593D01*
X8842Y178713D01*
X8902Y178831D01*
X8965Y178948D01*
X9032Y179062D01*
X9102Y179175D01*
X9176Y179285D01*
X9252Y179393D01*
X9332Y179499D01*
X9415Y179603D01*
X9501Y179704D01*
X9590Y179802D01*
X9681Y179898D01*
X9776Y179991D01*
X9873Y180081D01*
X9973Y180168D01*
X10075Y180253D01*
X10180Y180334D01*
X10287Y180412D01*
X10396Y180488D01*
X10507Y180559D01*
X10621Y180628D01*
X10736Y180693D01*
X10854Y180755D01*
X10973Y180813D01*
X11094Y180868D01*
X11216Y180919D01*
X11340Y180967D01*
X11465Y181011D01*
X11591Y181051D01*
X11719Y181087D01*
X11847Y181120D01*
X11976Y181149D01*
X12107Y181174D01*
X12237Y181195D01*
X12369Y181213D01*
X12501Y181226D01*
X12633Y181236D01*
X12765Y181242D01*
X12898Y181244D01*
X12898Y181243D02*
X20122Y181243D01*
X20122Y181244D02*
X20255Y181242D01*
X20387Y181236D01*
X20519Y181226D01*
X20651Y181213D01*
X20783Y181195D01*
X20913Y181174D01*
X21044Y181149D01*
X21173Y181120D01*
X21301Y181087D01*
X21429Y181051D01*
X21555Y181011D01*
X21680Y180967D01*
X21804Y180919D01*
X21926Y180868D01*
X22047Y180813D01*
X22166Y180755D01*
X22284Y180693D01*
X22399Y180628D01*
X22513Y180559D01*
X22624Y180488D01*
X22733Y180412D01*
X22840Y180334D01*
X22945Y180253D01*
X23047Y180168D01*
X23147Y180081D01*
X23244Y179991D01*
X23339Y179898D01*
X23430Y179802D01*
X23519Y179704D01*
X23605Y179603D01*
X23688Y179499D01*
X23768Y179393D01*
X23844Y179285D01*
X23918Y179175D01*
X23988Y179062D01*
X24055Y178948D01*
X24118Y178831D01*
X24178Y178713D01*
X24235Y178593D01*
X24288Y178471D01*
X24337Y178348D01*
X24383Y178224D01*
X24425Y178098D01*
X24463Y177971D01*
X24498Y177843D01*
X24529Y177714D01*
X24556Y177585D01*
X24579Y177454D01*
X24599Y177323D01*
X24614Y177191D01*
X24626Y177059D01*
X24634Y176927D01*
X24638Y176794D01*
X24638Y176662D01*
X24634Y176529D01*
X24626Y176397D01*
X24614Y176265D01*
X24599Y176133D01*
X24579Y176002D01*
X24556Y175871D01*
X24529Y175742D01*
X24498Y175613D01*
X24463Y175485D01*
X24425Y175358D01*
X24383Y175232D01*
X24337Y175108D01*
X24288Y174985D01*
X24235Y174863D01*
X24178Y174743D01*
X24118Y174625D01*
X24055Y174508D01*
X23988Y174394D01*
X23918Y174281D01*
X23844Y174171D01*
X23768Y174063D01*
X23688Y173957D01*
X23605Y173853D01*
X23519Y173752D01*
X23430Y173654D01*
X23339Y173558D01*
X23244Y173465D01*
X23147Y173375D01*
X23047Y173288D01*
X22945Y173203D01*
X22840Y173122D01*
X22733Y173044D01*
X22624Y172968D01*
X22513Y172897D01*
X22399Y172828D01*
X22284Y172763D01*
X22166Y172701D01*
X22047Y172643D01*
X21926Y172588D01*
X21804Y172537D01*
X21680Y172489D01*
X21555Y172445D01*
X21429Y172405D01*
X21301Y172369D01*
X21173Y172336D01*
X21044Y172307D01*
X20913Y172282D01*
X20783Y172261D01*
X20651Y172243D01*
X20519Y172230D01*
X20387Y172220D01*
X20255Y172214D01*
X20122Y172212D01*
X24638Y188364D02*
X8382Y188364D01*
X24638Y197395D01*
X8382Y197395D01*
X8382Y205067D02*
X24638Y205067D01*
X24638Y212292D01*
X16058Y222579D02*
X8382Y217161D01*
X16058Y222579D02*
X8382Y227998D01*
X16058Y222579D02*
X24638Y222579D01*
X486410Y307340D02*
X529590Y307340D01*
X529590Y276860D02*
X486410Y276860D01*
X532130Y279400D02*
X532130Y304800D01*
X483870Y304800D02*
X483870Y279400D01*
X529590Y307340D02*
X529690Y307338D01*
X529789Y307332D01*
X529889Y307322D01*
X529987Y307309D01*
X530086Y307291D01*
X530183Y307270D01*
X530279Y307245D01*
X530375Y307216D01*
X530469Y307183D01*
X530562Y307147D01*
X530653Y307107D01*
X530743Y307063D01*
X530831Y307016D01*
X530917Y306966D01*
X531001Y306912D01*
X531083Y306855D01*
X531162Y306795D01*
X531240Y306731D01*
X531314Y306665D01*
X531386Y306596D01*
X531455Y306524D01*
X531521Y306450D01*
X531585Y306372D01*
X531645Y306293D01*
X531702Y306211D01*
X531756Y306127D01*
X531806Y306041D01*
X531853Y305953D01*
X531897Y305863D01*
X531937Y305772D01*
X531973Y305679D01*
X532006Y305585D01*
X532035Y305489D01*
X532060Y305393D01*
X532081Y305296D01*
X532099Y305197D01*
X532112Y305099D01*
X532122Y304999D01*
X532128Y304900D01*
X532130Y304800D01*
X486410Y307340D02*
X486310Y307338D01*
X486211Y307332D01*
X486111Y307322D01*
X486013Y307309D01*
X485914Y307291D01*
X485817Y307270D01*
X485721Y307245D01*
X485625Y307216D01*
X485531Y307183D01*
X485438Y307147D01*
X485347Y307107D01*
X485257Y307063D01*
X485169Y307016D01*
X485083Y306966D01*
X484999Y306912D01*
X484917Y306855D01*
X484838Y306795D01*
X484760Y306731D01*
X484686Y306665D01*
X484614Y306596D01*
X484545Y306524D01*
X484479Y306450D01*
X484415Y306372D01*
X484355Y306293D01*
X484298Y306211D01*
X484244Y306127D01*
X484194Y306041D01*
X484147Y305953D01*
X484103Y305863D01*
X484063Y305772D01*
X484027Y305679D01*
X483994Y305585D01*
X483965Y305489D01*
X483940Y305393D01*
X483919Y305296D01*
X483901Y305197D01*
X483888Y305099D01*
X483878Y304999D01*
X483872Y304900D01*
X483870Y304800D01*
X529590Y276860D02*
X529690Y276862D01*
X529789Y276868D01*
X529889Y276878D01*
X529987Y276891D01*
X530086Y276909D01*
X530183Y276930D01*
X530279Y276955D01*
X530375Y276984D01*
X530469Y277017D01*
X530562Y277053D01*
X530653Y277093D01*
X530743Y277137D01*
X530831Y277184D01*
X530917Y277234D01*
X531001Y277288D01*
X531083Y277345D01*
X531162Y277405D01*
X531240Y277469D01*
X531314Y277535D01*
X531386Y277604D01*
X531455Y277676D01*
X531521Y277750D01*
X531585Y277828D01*
X531645Y277907D01*
X531702Y277989D01*
X531756Y278073D01*
X531806Y278159D01*
X531853Y278247D01*
X531897Y278337D01*
X531937Y278428D01*
X531973Y278521D01*
X532006Y278615D01*
X532035Y278711D01*
X532060Y278807D01*
X532081Y278904D01*
X532099Y279003D01*
X532112Y279101D01*
X532122Y279201D01*
X532128Y279300D01*
X532130Y279400D01*
X486410Y276860D02*
X486310Y276862D01*
X486211Y276868D01*
X486111Y276878D01*
X486013Y276891D01*
X485914Y276909D01*
X485817Y276930D01*
X485721Y276955D01*
X485625Y276984D01*
X485531Y277017D01*
X485438Y277053D01*
X485347Y277093D01*
X485257Y277137D01*
X485169Y277184D01*
X485083Y277234D01*
X484999Y277288D01*
X484917Y277345D01*
X484838Y277405D01*
X484760Y277469D01*
X484686Y277535D01*
X484614Y277604D01*
X484545Y277676D01*
X484479Y277750D01*
X484415Y277828D01*
X484355Y277907D01*
X484298Y277989D01*
X484244Y278073D01*
X484194Y278159D01*
X484147Y278247D01*
X484103Y278337D01*
X484063Y278428D01*
X484027Y278521D01*
X483994Y278615D01*
X483965Y278711D01*
X483940Y278807D01*
X483919Y278904D01*
X483901Y279003D01*
X483888Y279101D01*
X483878Y279201D01*
X483872Y279300D01*
X483870Y279400D01*
X510540Y292100D02*
X511810Y292100D01*
D12*
X510540Y292100D02*
X510540Y299720D01*
X510540Y292100D02*
X510540Y284480D01*
X505460Y292100D02*
X505460Y299720D01*
X505460Y292100D02*
X505460Y284480D01*
D10*
X505460Y292100D02*
X504190Y292100D01*
D13*
X503555Y258445D02*
X506095Y258445D01*
X503555Y258445D02*
X503455Y258447D01*
X503356Y258453D01*
X503256Y258463D01*
X503158Y258476D01*
X503059Y258494D01*
X502962Y258515D01*
X502866Y258540D01*
X502770Y258569D01*
X502676Y258602D01*
X502583Y258638D01*
X502492Y258678D01*
X502402Y258722D01*
X502314Y258769D01*
X502228Y258819D01*
X502144Y258873D01*
X502062Y258930D01*
X501983Y258990D01*
X501905Y259054D01*
X501831Y259120D01*
X501759Y259189D01*
X501690Y259261D01*
X501624Y259335D01*
X501560Y259413D01*
X501500Y259492D01*
X501443Y259574D01*
X501389Y259658D01*
X501339Y259744D01*
X501292Y259832D01*
X501248Y259922D01*
X501208Y260013D01*
X501172Y260106D01*
X501139Y260200D01*
X501110Y260296D01*
X501085Y260392D01*
X501064Y260489D01*
X501046Y260588D01*
X501033Y260686D01*
X501023Y260786D01*
X501017Y260885D01*
X501015Y260985D01*
X501015Y267335D01*
X501017Y267435D01*
X501023Y267534D01*
X501033Y267634D01*
X501046Y267732D01*
X501064Y267831D01*
X501085Y267928D01*
X501110Y268024D01*
X501139Y268120D01*
X501172Y268214D01*
X501208Y268307D01*
X501248Y268398D01*
X501292Y268488D01*
X501339Y268576D01*
X501389Y268662D01*
X501443Y268746D01*
X501500Y268828D01*
X501560Y268907D01*
X501624Y268985D01*
X501690Y269059D01*
X501759Y269131D01*
X501831Y269200D01*
X501905Y269266D01*
X501983Y269330D01*
X502062Y269390D01*
X502144Y269447D01*
X502228Y269501D01*
X502314Y269551D01*
X502402Y269598D01*
X502492Y269642D01*
X502583Y269682D01*
X502676Y269718D01*
X502770Y269751D01*
X502866Y269780D01*
X502962Y269805D01*
X503059Y269826D01*
X503158Y269844D01*
X503256Y269857D01*
X503356Y269867D01*
X503455Y269873D01*
X503555Y269875D01*
X506095Y269875D01*
X510577Y267335D02*
X513752Y269875D01*
X513752Y258445D01*
X510577Y258445D02*
X516927Y258445D01*
D10*
X97790Y314960D02*
X54610Y314960D01*
X54610Y345440D02*
X97790Y345440D01*
X52070Y342900D02*
X52070Y317500D01*
X100330Y317500D02*
X100330Y342900D01*
X54610Y314960D02*
X54510Y314962D01*
X54411Y314968D01*
X54311Y314978D01*
X54213Y314991D01*
X54114Y315009D01*
X54017Y315030D01*
X53921Y315055D01*
X53825Y315084D01*
X53731Y315117D01*
X53638Y315153D01*
X53547Y315193D01*
X53457Y315237D01*
X53369Y315284D01*
X53283Y315334D01*
X53199Y315388D01*
X53117Y315445D01*
X53038Y315505D01*
X52960Y315569D01*
X52886Y315635D01*
X52814Y315704D01*
X52745Y315776D01*
X52679Y315850D01*
X52615Y315928D01*
X52555Y316007D01*
X52498Y316089D01*
X52444Y316173D01*
X52394Y316259D01*
X52347Y316347D01*
X52303Y316437D01*
X52263Y316528D01*
X52227Y316621D01*
X52194Y316715D01*
X52165Y316811D01*
X52140Y316907D01*
X52119Y317004D01*
X52101Y317103D01*
X52088Y317201D01*
X52078Y317301D01*
X52072Y317400D01*
X52070Y317500D01*
X97790Y314960D02*
X97890Y314962D01*
X97989Y314968D01*
X98089Y314978D01*
X98187Y314991D01*
X98286Y315009D01*
X98383Y315030D01*
X98479Y315055D01*
X98575Y315084D01*
X98669Y315117D01*
X98762Y315153D01*
X98853Y315193D01*
X98943Y315237D01*
X99031Y315284D01*
X99117Y315334D01*
X99201Y315388D01*
X99283Y315445D01*
X99362Y315505D01*
X99440Y315569D01*
X99514Y315635D01*
X99586Y315704D01*
X99655Y315776D01*
X99721Y315850D01*
X99785Y315928D01*
X99845Y316007D01*
X99902Y316089D01*
X99956Y316173D01*
X100006Y316259D01*
X100053Y316347D01*
X100097Y316437D01*
X100137Y316528D01*
X100173Y316621D01*
X100206Y316715D01*
X100235Y316811D01*
X100260Y316907D01*
X100281Y317004D01*
X100299Y317103D01*
X100312Y317201D01*
X100322Y317301D01*
X100328Y317400D01*
X100330Y317500D01*
X54610Y345440D02*
X54510Y345438D01*
X54411Y345432D01*
X54311Y345422D01*
X54213Y345409D01*
X54114Y345391D01*
X54017Y345370D01*
X53921Y345345D01*
X53825Y345316D01*
X53731Y345283D01*
X53638Y345247D01*
X53547Y345207D01*
X53457Y345163D01*
X53369Y345116D01*
X53283Y345066D01*
X53199Y345012D01*
X53117Y344955D01*
X53038Y344895D01*
X52960Y344831D01*
X52886Y344765D01*
X52814Y344696D01*
X52745Y344624D01*
X52679Y344550D01*
X52615Y344472D01*
X52555Y344393D01*
X52498Y344311D01*
X52444Y344227D01*
X52394Y344141D01*
X52347Y344053D01*
X52303Y343963D01*
X52263Y343872D01*
X52227Y343779D01*
X52194Y343685D01*
X52165Y343589D01*
X52140Y343493D01*
X52119Y343396D01*
X52101Y343297D01*
X52088Y343199D01*
X52078Y343099D01*
X52072Y343000D01*
X52070Y342900D01*
X97790Y345440D02*
X97890Y345438D01*
X97989Y345432D01*
X98089Y345422D01*
X98187Y345409D01*
X98286Y345391D01*
X98383Y345370D01*
X98479Y345345D01*
X98575Y345316D01*
X98669Y345283D01*
X98762Y345247D01*
X98853Y345207D01*
X98943Y345163D01*
X99031Y345116D01*
X99117Y345066D01*
X99201Y345012D01*
X99283Y344955D01*
X99362Y344895D01*
X99440Y344831D01*
X99514Y344765D01*
X99586Y344696D01*
X99655Y344624D01*
X99721Y344550D01*
X99785Y344472D01*
X99845Y344393D01*
X99902Y344311D01*
X99956Y344227D01*
X100006Y344141D01*
X100053Y344053D01*
X100097Y343963D01*
X100137Y343872D01*
X100173Y343779D01*
X100206Y343685D01*
X100235Y343589D01*
X100260Y343493D01*
X100281Y343396D01*
X100299Y343297D01*
X100312Y343199D01*
X100322Y343099D01*
X100328Y343000D01*
X100330Y342900D01*
X73660Y330200D02*
X72390Y330200D01*
D12*
X73660Y330200D02*
X73660Y322580D01*
X73660Y330200D02*
X73660Y337820D01*
X78740Y330200D02*
X78740Y322580D01*
X78740Y330200D02*
X78740Y337820D01*
D10*
X78740Y330200D02*
X80010Y330200D01*
D13*
X68543Y351155D02*
X66003Y351155D01*
X65903Y351157D01*
X65804Y351163D01*
X65704Y351173D01*
X65606Y351186D01*
X65507Y351204D01*
X65410Y351225D01*
X65314Y351250D01*
X65218Y351279D01*
X65124Y351312D01*
X65031Y351348D01*
X64940Y351388D01*
X64850Y351432D01*
X64762Y351479D01*
X64676Y351529D01*
X64592Y351583D01*
X64510Y351640D01*
X64431Y351700D01*
X64353Y351764D01*
X64279Y351830D01*
X64207Y351899D01*
X64138Y351971D01*
X64072Y352045D01*
X64008Y352123D01*
X63948Y352202D01*
X63891Y352284D01*
X63837Y352368D01*
X63787Y352454D01*
X63740Y352542D01*
X63696Y352632D01*
X63656Y352723D01*
X63620Y352816D01*
X63587Y352910D01*
X63558Y353006D01*
X63533Y353102D01*
X63512Y353199D01*
X63494Y353298D01*
X63481Y353396D01*
X63471Y353496D01*
X63465Y353595D01*
X63463Y353695D01*
X63463Y360045D01*
X63465Y360145D01*
X63471Y360244D01*
X63481Y360344D01*
X63494Y360442D01*
X63512Y360541D01*
X63533Y360638D01*
X63558Y360734D01*
X63587Y360830D01*
X63620Y360924D01*
X63656Y361017D01*
X63696Y361108D01*
X63740Y361198D01*
X63787Y361286D01*
X63837Y361372D01*
X63891Y361456D01*
X63948Y361538D01*
X64008Y361617D01*
X64072Y361695D01*
X64138Y361769D01*
X64207Y361841D01*
X64279Y361910D01*
X64353Y361976D01*
X64431Y362040D01*
X64510Y362100D01*
X64592Y362157D01*
X64676Y362211D01*
X64762Y362261D01*
X64850Y362308D01*
X64940Y362352D01*
X65031Y362392D01*
X65124Y362428D01*
X65218Y362461D01*
X65314Y362490D01*
X65410Y362515D01*
X65507Y362536D01*
X65606Y362554D01*
X65704Y362567D01*
X65804Y362577D01*
X65903Y362583D01*
X66003Y362585D01*
X68543Y362585D01*
X76518Y362586D02*
X76622Y362584D01*
X76727Y362578D01*
X76831Y362569D01*
X76934Y362556D01*
X77037Y362538D01*
X77139Y362518D01*
X77241Y362493D01*
X77341Y362465D01*
X77441Y362433D01*
X77539Y362397D01*
X77636Y362358D01*
X77731Y362316D01*
X77825Y362270D01*
X77917Y362220D01*
X78007Y362168D01*
X78095Y362112D01*
X78181Y362052D01*
X78265Y361990D01*
X78346Y361925D01*
X78425Y361857D01*
X78502Y361785D01*
X78575Y361712D01*
X78647Y361635D01*
X78715Y361556D01*
X78780Y361475D01*
X78842Y361391D01*
X78902Y361305D01*
X78958Y361217D01*
X79010Y361127D01*
X79060Y361035D01*
X79106Y360941D01*
X79148Y360846D01*
X79187Y360749D01*
X79223Y360651D01*
X79255Y360551D01*
X79283Y360451D01*
X79308Y360349D01*
X79328Y360247D01*
X79346Y360144D01*
X79359Y360041D01*
X79368Y359937D01*
X79374Y359832D01*
X79376Y359728D01*
X76518Y362585D02*
X76400Y362583D01*
X76281Y362577D01*
X76163Y362568D01*
X76046Y362555D01*
X75929Y362537D01*
X75812Y362517D01*
X75696Y362492D01*
X75581Y362464D01*
X75468Y362431D01*
X75355Y362396D01*
X75243Y362356D01*
X75133Y362314D01*
X75024Y362267D01*
X74916Y362217D01*
X74811Y362164D01*
X74707Y362107D01*
X74605Y362047D01*
X74505Y361984D01*
X74407Y361917D01*
X74311Y361848D01*
X74218Y361775D01*
X74127Y361699D01*
X74038Y361621D01*
X73952Y361539D01*
X73869Y361455D01*
X73788Y361369D01*
X73711Y361279D01*
X73636Y361188D01*
X73564Y361094D01*
X73495Y360997D01*
X73430Y360899D01*
X73367Y360798D01*
X73308Y360695D01*
X73252Y360591D01*
X73200Y360485D01*
X73151Y360377D01*
X73106Y360268D01*
X73064Y360157D01*
X73026Y360045D01*
X78423Y357506D02*
X78499Y357581D01*
X78574Y357660D01*
X78645Y357741D01*
X78714Y357825D01*
X78779Y357911D01*
X78841Y357999D01*
X78901Y358089D01*
X78957Y358181D01*
X79010Y358276D01*
X79059Y358372D01*
X79105Y358470D01*
X79148Y358569D01*
X79187Y358670D01*
X79222Y358772D01*
X79254Y358875D01*
X79282Y358979D01*
X79307Y359084D01*
X79328Y359191D01*
X79345Y359297D01*
X79358Y359404D01*
X79367Y359512D01*
X79373Y359620D01*
X79375Y359728D01*
X78423Y357505D02*
X73025Y351155D01*
X79375Y351155D01*
D10*
X156210Y431800D02*
X156220Y432642D01*
X156251Y433483D01*
X156303Y434323D01*
X156375Y435161D01*
X156468Y435997D01*
X156581Y436831D01*
X156715Y437662D01*
X156869Y438490D01*
X157043Y439313D01*
X157238Y440132D01*
X157452Y440946D01*
X157687Y441754D01*
X157941Y442556D01*
X158214Y443352D01*
X158508Y444141D01*
X158820Y444922D01*
X159152Y445696D01*
X159502Y446461D01*
X159871Y447217D01*
X160259Y447964D01*
X160665Y448701D01*
X161088Y449429D01*
X161530Y450145D01*
X161989Y450851D01*
X162465Y451544D01*
X162958Y452227D01*
X163468Y452896D01*
X163993Y453553D01*
X164535Y454197D01*
X165093Y454828D01*
X165666Y455444D01*
X166253Y456047D01*
X166856Y456634D01*
X167472Y457207D01*
X168103Y457765D01*
X168747Y458307D01*
X169404Y458832D01*
X170073Y459342D01*
X170756Y459835D01*
X171449Y460311D01*
X172155Y460770D01*
X172871Y461212D01*
X173599Y461635D01*
X174336Y462041D01*
X175083Y462429D01*
X175839Y462798D01*
X176604Y463148D01*
X177378Y463480D01*
X178159Y463792D01*
X178948Y464086D01*
X179744Y464359D01*
X180546Y464613D01*
X181354Y464848D01*
X182168Y465062D01*
X182987Y465257D01*
X183810Y465431D01*
X184638Y465585D01*
X185469Y465719D01*
X186303Y465832D01*
X187139Y465925D01*
X187977Y465997D01*
X188817Y466049D01*
X189658Y466080D01*
X190500Y466090D01*
X191342Y466080D01*
X192183Y466049D01*
X193023Y465997D01*
X193861Y465925D01*
X194697Y465832D01*
X195531Y465719D01*
X196362Y465585D01*
X197190Y465431D01*
X198013Y465257D01*
X198832Y465062D01*
X199646Y464848D01*
X200454Y464613D01*
X201256Y464359D01*
X202052Y464086D01*
X202841Y463792D01*
X203622Y463480D01*
X204396Y463148D01*
X205161Y462798D01*
X205917Y462429D01*
X206664Y462041D01*
X207401Y461635D01*
X208129Y461212D01*
X208845Y460770D01*
X209551Y460311D01*
X210244Y459835D01*
X210927Y459342D01*
X211596Y458832D01*
X212253Y458307D01*
X212897Y457765D01*
X213528Y457207D01*
X214144Y456634D01*
X214747Y456047D01*
X215334Y455444D01*
X215907Y454828D01*
X216465Y454197D01*
X217007Y453553D01*
X217532Y452896D01*
X218042Y452227D01*
X218535Y451544D01*
X219011Y450851D01*
X219470Y450145D01*
X219912Y449429D01*
X220335Y448701D01*
X220741Y447964D01*
X221129Y447217D01*
X221498Y446461D01*
X221848Y445696D01*
X222180Y444922D01*
X222492Y444141D01*
X222786Y443352D01*
X223059Y442556D01*
X223313Y441754D01*
X223548Y440946D01*
X223762Y440132D01*
X223957Y439313D01*
X224131Y438490D01*
X224285Y437662D01*
X224419Y436831D01*
X224532Y435997D01*
X224625Y435161D01*
X224697Y434323D01*
X224749Y433483D01*
X224780Y432642D01*
X224790Y431800D01*
X224780Y430958D01*
X224749Y430117D01*
X224697Y429277D01*
X224625Y428439D01*
X224532Y427603D01*
X224419Y426769D01*
X224285Y425938D01*
X224131Y425110D01*
X223957Y424287D01*
X223762Y423468D01*
X223548Y422654D01*
X223313Y421846D01*
X223059Y421044D01*
X222786Y420248D01*
X222492Y419459D01*
X222180Y418678D01*
X221848Y417904D01*
X221498Y417139D01*
X221129Y416383D01*
X220741Y415636D01*
X220335Y414899D01*
X219912Y414171D01*
X219470Y413455D01*
X219011Y412749D01*
X218535Y412056D01*
X218042Y411373D01*
X217532Y410704D01*
X217007Y410047D01*
X216465Y409403D01*
X215907Y408772D01*
X215334Y408156D01*
X214747Y407553D01*
X214144Y406966D01*
X213528Y406393D01*
X212897Y405835D01*
X212253Y405293D01*
X211596Y404768D01*
X210927Y404258D01*
X210244Y403765D01*
X209551Y403289D01*
X208845Y402830D01*
X208129Y402388D01*
X207401Y401965D01*
X206664Y401559D01*
X205917Y401171D01*
X205161Y400802D01*
X204396Y400452D01*
X203622Y400120D01*
X202841Y399808D01*
X202052Y399514D01*
X201256Y399241D01*
X200454Y398987D01*
X199646Y398752D01*
X198832Y398538D01*
X198013Y398343D01*
X197190Y398169D01*
X196362Y398015D01*
X195531Y397881D01*
X194697Y397768D01*
X193861Y397675D01*
X193023Y397603D01*
X192183Y397551D01*
X191342Y397520D01*
X190500Y397510D01*
X189658Y397520D01*
X188817Y397551D01*
X187977Y397603D01*
X187139Y397675D01*
X186303Y397768D01*
X185469Y397881D01*
X184638Y398015D01*
X183810Y398169D01*
X182987Y398343D01*
X182168Y398538D01*
X181354Y398752D01*
X180546Y398987D01*
X179744Y399241D01*
X178948Y399514D01*
X178159Y399808D01*
X177378Y400120D01*
X176604Y400452D01*
X175839Y400802D01*
X175083Y401171D01*
X174336Y401559D01*
X173599Y401965D01*
X172871Y402388D01*
X172155Y402830D01*
X171449Y403289D01*
X170756Y403765D01*
X170073Y404258D01*
X169404Y404768D01*
X168747Y405293D01*
X168103Y405835D01*
X167472Y406393D01*
X166856Y406966D01*
X166253Y407553D01*
X165666Y408156D01*
X165093Y408772D01*
X164535Y409403D01*
X163993Y410047D01*
X163468Y410704D01*
X162958Y411373D01*
X162465Y412056D01*
X161989Y412749D01*
X161530Y413455D01*
X161088Y414171D01*
X160665Y414899D01*
X160259Y415636D01*
X159871Y416383D01*
X159502Y417139D01*
X159152Y417904D01*
X158820Y418678D01*
X158508Y419459D01*
X158214Y420248D01*
X157941Y421044D01*
X157687Y421846D01*
X157452Y422654D01*
X157238Y423468D01*
X157043Y424287D01*
X156869Y425110D01*
X156715Y425938D01*
X156581Y426769D01*
X156468Y427603D01*
X156375Y428439D01*
X156303Y429277D01*
X156251Y430117D01*
X156220Y430958D01*
X156210Y431800D01*
D11*
X173000Y431800D02*
X173005Y432229D01*
X173021Y432659D01*
X173047Y433087D01*
X173084Y433515D01*
X173132Y433942D01*
X173189Y434368D01*
X173258Y434792D01*
X173336Y435214D01*
X173425Y435634D01*
X173524Y436052D01*
X173634Y436467D01*
X173754Y436880D01*
X173883Y437289D01*
X174023Y437696D01*
X174173Y438098D01*
X174332Y438497D01*
X174501Y438892D01*
X174680Y439282D01*
X174869Y439668D01*
X175066Y440049D01*
X175273Y440426D01*
X175490Y440797D01*
X175715Y441162D01*
X175949Y441522D01*
X176192Y441877D01*
X176444Y442225D01*
X176704Y442567D01*
X176972Y442902D01*
X177249Y443231D01*
X177533Y443552D01*
X177826Y443867D01*
X178126Y444174D01*
X178433Y444474D01*
X178748Y444767D01*
X179069Y445051D01*
X179398Y445328D01*
X179733Y445596D01*
X180075Y445856D01*
X180423Y446108D01*
X180778Y446351D01*
X181138Y446585D01*
X181503Y446810D01*
X181874Y447027D01*
X182251Y447234D01*
X182632Y447431D01*
X183018Y447620D01*
X183408Y447799D01*
X183803Y447968D01*
X184202Y448127D01*
X184604Y448277D01*
X185011Y448417D01*
X185420Y448546D01*
X185833Y448666D01*
X186248Y448776D01*
X186666Y448875D01*
X187086Y448964D01*
X187508Y449042D01*
X187932Y449111D01*
X188358Y449168D01*
X188785Y449216D01*
X189213Y449253D01*
X189641Y449279D01*
X190071Y449295D01*
X190500Y449300D01*
X190929Y449295D01*
X191359Y449279D01*
X191787Y449253D01*
X192215Y449216D01*
X192642Y449168D01*
X193068Y449111D01*
X193492Y449042D01*
X193914Y448964D01*
X194334Y448875D01*
X194752Y448776D01*
X195167Y448666D01*
X195580Y448546D01*
X195989Y448417D01*
X196396Y448277D01*
X196798Y448127D01*
X197197Y447968D01*
X197592Y447799D01*
X197982Y447620D01*
X198368Y447431D01*
X198749Y447234D01*
X199126Y447027D01*
X199497Y446810D01*
X199862Y446585D01*
X200222Y446351D01*
X200577Y446108D01*
X200925Y445856D01*
X201267Y445596D01*
X201602Y445328D01*
X201931Y445051D01*
X202252Y444767D01*
X202567Y444474D01*
X202874Y444174D01*
X203174Y443867D01*
X203467Y443552D01*
X203751Y443231D01*
X204028Y442902D01*
X204296Y442567D01*
X204556Y442225D01*
X204808Y441877D01*
X205051Y441522D01*
X205285Y441162D01*
X205510Y440797D01*
X205727Y440426D01*
X205934Y440049D01*
X206131Y439668D01*
X206320Y439282D01*
X206499Y438892D01*
X206668Y438497D01*
X206827Y438098D01*
X206977Y437696D01*
X207117Y437289D01*
X207246Y436880D01*
X207366Y436467D01*
X207476Y436052D01*
X207575Y435634D01*
X207664Y435214D01*
X207742Y434792D01*
X207811Y434368D01*
X207868Y433942D01*
X207916Y433515D01*
X207953Y433087D01*
X207979Y432659D01*
X207995Y432229D01*
X208000Y431800D01*
X207995Y431371D01*
X207979Y430941D01*
X207953Y430513D01*
X207916Y430085D01*
X207868Y429658D01*
X207811Y429232D01*
X207742Y428808D01*
X207664Y428386D01*
X207575Y427966D01*
X207476Y427548D01*
X207366Y427133D01*
X207246Y426720D01*
X207117Y426311D01*
X206977Y425904D01*
X206827Y425502D01*
X206668Y425103D01*
X206499Y424708D01*
X206320Y424318D01*
X206131Y423932D01*
X205934Y423551D01*
X205727Y423174D01*
X205510Y422803D01*
X205285Y422438D01*
X205051Y422078D01*
X204808Y421723D01*
X204556Y421375D01*
X204296Y421033D01*
X204028Y420698D01*
X203751Y420369D01*
X203467Y420048D01*
X203174Y419733D01*
X202874Y419426D01*
X202567Y419126D01*
X202252Y418833D01*
X201931Y418549D01*
X201602Y418272D01*
X201267Y418004D01*
X200925Y417744D01*
X200577Y417492D01*
X200222Y417249D01*
X199862Y417015D01*
X199497Y416790D01*
X199126Y416573D01*
X198749Y416366D01*
X198368Y416169D01*
X197982Y415980D01*
X197592Y415801D01*
X197197Y415632D01*
X196798Y415473D01*
X196396Y415323D01*
X195989Y415183D01*
X195580Y415054D01*
X195167Y414934D01*
X194752Y414824D01*
X194334Y414725D01*
X193914Y414636D01*
X193492Y414558D01*
X193068Y414489D01*
X192642Y414432D01*
X192215Y414384D01*
X191787Y414347D01*
X191359Y414321D01*
X190929Y414305D01*
X190500Y414300D01*
X190071Y414305D01*
X189641Y414321D01*
X189213Y414347D01*
X188785Y414384D01*
X188358Y414432D01*
X187932Y414489D01*
X187508Y414558D01*
X187086Y414636D01*
X186666Y414725D01*
X186248Y414824D01*
X185833Y414934D01*
X185420Y415054D01*
X185011Y415183D01*
X184604Y415323D01*
X184202Y415473D01*
X183803Y415632D01*
X183408Y415801D01*
X183018Y415980D01*
X182632Y416169D01*
X182251Y416366D01*
X181874Y416573D01*
X181503Y416790D01*
X181138Y417015D01*
X180778Y417249D01*
X180423Y417492D01*
X180075Y417744D01*
X179733Y418004D01*
X179398Y418272D01*
X179069Y418549D01*
X178748Y418833D01*
X178433Y419126D01*
X178126Y419426D01*
X177826Y419733D01*
X177533Y420048D01*
X177249Y420369D01*
X176972Y420698D01*
X176704Y421033D01*
X176444Y421375D01*
X176192Y421723D01*
X175949Y422078D01*
X175715Y422438D01*
X175490Y422803D01*
X175273Y423174D01*
X175066Y423551D01*
X174869Y423932D01*
X174680Y424318D01*
X174501Y424708D01*
X174332Y425103D01*
X174173Y425502D01*
X174023Y425904D01*
X173883Y426311D01*
X173754Y426720D01*
X173634Y427133D01*
X173524Y427548D01*
X173425Y427966D01*
X173336Y428386D01*
X173258Y428808D01*
X173189Y429232D01*
X173132Y429658D01*
X173084Y430085D01*
X173047Y430513D01*
X173021Y430941D01*
X173005Y431371D01*
X173000Y431800D01*
D10*
X461010Y431800D02*
X461020Y432642D01*
X461051Y433483D01*
X461103Y434323D01*
X461175Y435161D01*
X461268Y435997D01*
X461381Y436831D01*
X461515Y437662D01*
X461669Y438490D01*
X461843Y439313D01*
X462038Y440132D01*
X462252Y440946D01*
X462487Y441754D01*
X462741Y442556D01*
X463014Y443352D01*
X463308Y444141D01*
X463620Y444922D01*
X463952Y445696D01*
X464302Y446461D01*
X464671Y447217D01*
X465059Y447964D01*
X465465Y448701D01*
X465888Y449429D01*
X466330Y450145D01*
X466789Y450851D01*
X467265Y451544D01*
X467758Y452227D01*
X468268Y452896D01*
X468793Y453553D01*
X469335Y454197D01*
X469893Y454828D01*
X470466Y455444D01*
X471053Y456047D01*
X471656Y456634D01*
X472272Y457207D01*
X472903Y457765D01*
X473547Y458307D01*
X474204Y458832D01*
X474873Y459342D01*
X475556Y459835D01*
X476249Y460311D01*
X476955Y460770D01*
X477671Y461212D01*
X478399Y461635D01*
X479136Y462041D01*
X479883Y462429D01*
X480639Y462798D01*
X481404Y463148D01*
X482178Y463480D01*
X482959Y463792D01*
X483748Y464086D01*
X484544Y464359D01*
X485346Y464613D01*
X486154Y464848D01*
X486968Y465062D01*
X487787Y465257D01*
X488610Y465431D01*
X489438Y465585D01*
X490269Y465719D01*
X491103Y465832D01*
X491939Y465925D01*
X492777Y465997D01*
X493617Y466049D01*
X494458Y466080D01*
X495300Y466090D01*
X496142Y466080D01*
X496983Y466049D01*
X497823Y465997D01*
X498661Y465925D01*
X499497Y465832D01*
X500331Y465719D01*
X501162Y465585D01*
X501990Y465431D01*
X502813Y465257D01*
X503632Y465062D01*
X504446Y464848D01*
X505254Y464613D01*
X506056Y464359D01*
X506852Y464086D01*
X507641Y463792D01*
X508422Y463480D01*
X509196Y463148D01*
X509961Y462798D01*
X510717Y462429D01*
X511464Y462041D01*
X512201Y461635D01*
X512929Y461212D01*
X513645Y460770D01*
X514351Y460311D01*
X515044Y459835D01*
X515727Y459342D01*
X516396Y458832D01*
X517053Y458307D01*
X517697Y457765D01*
X518328Y457207D01*
X518944Y456634D01*
X519547Y456047D01*
X520134Y455444D01*
X520707Y454828D01*
X521265Y454197D01*
X521807Y453553D01*
X522332Y452896D01*
X522842Y452227D01*
X523335Y451544D01*
X523811Y450851D01*
X524270Y450145D01*
X524712Y449429D01*
X525135Y448701D01*
X525541Y447964D01*
X525929Y447217D01*
X526298Y446461D01*
X526648Y445696D01*
X526980Y444922D01*
X527292Y444141D01*
X527586Y443352D01*
X527859Y442556D01*
X528113Y441754D01*
X528348Y440946D01*
X528562Y440132D01*
X528757Y439313D01*
X528931Y438490D01*
X529085Y437662D01*
X529219Y436831D01*
X529332Y435997D01*
X529425Y435161D01*
X529497Y434323D01*
X529549Y433483D01*
X529580Y432642D01*
X529590Y431800D01*
X529580Y430958D01*
X529549Y430117D01*
X529497Y429277D01*
X529425Y428439D01*
X529332Y427603D01*
X529219Y426769D01*
X529085Y425938D01*
X528931Y425110D01*
X528757Y424287D01*
X528562Y423468D01*
X528348Y422654D01*
X528113Y421846D01*
X527859Y421044D01*
X527586Y420248D01*
X527292Y419459D01*
X526980Y418678D01*
X526648Y417904D01*
X526298Y417139D01*
X525929Y416383D01*
X525541Y415636D01*
X525135Y414899D01*
X524712Y414171D01*
X524270Y413455D01*
X523811Y412749D01*
X523335Y412056D01*
X522842Y411373D01*
X522332Y410704D01*
X521807Y410047D01*
X521265Y409403D01*
X520707Y408772D01*
X520134Y408156D01*
X519547Y407553D01*
X518944Y406966D01*
X518328Y406393D01*
X517697Y405835D01*
X517053Y405293D01*
X516396Y404768D01*
X515727Y404258D01*
X515044Y403765D01*
X514351Y403289D01*
X513645Y402830D01*
X512929Y402388D01*
X512201Y401965D01*
X511464Y401559D01*
X510717Y401171D01*
X509961Y400802D01*
X509196Y400452D01*
X508422Y400120D01*
X507641Y399808D01*
X506852Y399514D01*
X506056Y399241D01*
X505254Y398987D01*
X504446Y398752D01*
X503632Y398538D01*
X502813Y398343D01*
X501990Y398169D01*
X501162Y398015D01*
X500331Y397881D01*
X499497Y397768D01*
X498661Y397675D01*
X497823Y397603D01*
X496983Y397551D01*
X496142Y397520D01*
X495300Y397510D01*
X494458Y397520D01*
X493617Y397551D01*
X492777Y397603D01*
X491939Y397675D01*
X491103Y397768D01*
X490269Y397881D01*
X489438Y398015D01*
X488610Y398169D01*
X487787Y398343D01*
X486968Y398538D01*
X486154Y398752D01*
X485346Y398987D01*
X484544Y399241D01*
X483748Y399514D01*
X482959Y399808D01*
X482178Y400120D01*
X481404Y400452D01*
X480639Y400802D01*
X479883Y401171D01*
X479136Y401559D01*
X478399Y401965D01*
X477671Y402388D01*
X476955Y402830D01*
X476249Y403289D01*
X475556Y403765D01*
X474873Y404258D01*
X474204Y404768D01*
X473547Y405293D01*
X472903Y405835D01*
X472272Y406393D01*
X471656Y406966D01*
X471053Y407553D01*
X470466Y408156D01*
X469893Y408772D01*
X469335Y409403D01*
X468793Y410047D01*
X468268Y410704D01*
X467758Y411373D01*
X467265Y412056D01*
X466789Y412749D01*
X466330Y413455D01*
X465888Y414171D01*
X465465Y414899D01*
X465059Y415636D01*
X464671Y416383D01*
X464302Y417139D01*
X463952Y417904D01*
X463620Y418678D01*
X463308Y419459D01*
X463014Y420248D01*
X462741Y421044D01*
X462487Y421846D01*
X462252Y422654D01*
X462038Y423468D01*
X461843Y424287D01*
X461669Y425110D01*
X461515Y425938D01*
X461381Y426769D01*
X461268Y427603D01*
X461175Y428439D01*
X461103Y429277D01*
X461051Y430117D01*
X461020Y430958D01*
X461010Y431800D01*
D11*
X477800Y431800D02*
X477805Y432229D01*
X477821Y432659D01*
X477847Y433087D01*
X477884Y433515D01*
X477932Y433942D01*
X477989Y434368D01*
X478058Y434792D01*
X478136Y435214D01*
X478225Y435634D01*
X478324Y436052D01*
X478434Y436467D01*
X478554Y436880D01*
X478683Y437289D01*
X478823Y437696D01*
X478973Y438098D01*
X479132Y438497D01*
X479301Y438892D01*
X479480Y439282D01*
X479669Y439668D01*
X479866Y440049D01*
X480073Y440426D01*
X480290Y440797D01*
X480515Y441162D01*
X480749Y441522D01*
X480992Y441877D01*
X481244Y442225D01*
X481504Y442567D01*
X481772Y442902D01*
X482049Y443231D01*
X482333Y443552D01*
X482626Y443867D01*
X482926Y444174D01*
X483233Y444474D01*
X483548Y444767D01*
X483869Y445051D01*
X484198Y445328D01*
X484533Y445596D01*
X484875Y445856D01*
X485223Y446108D01*
X485578Y446351D01*
X485938Y446585D01*
X486303Y446810D01*
X486674Y447027D01*
X487051Y447234D01*
X487432Y447431D01*
X487818Y447620D01*
X488208Y447799D01*
X488603Y447968D01*
X489002Y448127D01*
X489404Y448277D01*
X489811Y448417D01*
X490220Y448546D01*
X490633Y448666D01*
X491048Y448776D01*
X491466Y448875D01*
X491886Y448964D01*
X492308Y449042D01*
X492732Y449111D01*
X493158Y449168D01*
X493585Y449216D01*
X494013Y449253D01*
X494441Y449279D01*
X494871Y449295D01*
X495300Y449300D01*
X495729Y449295D01*
X496159Y449279D01*
X496587Y449253D01*
X497015Y449216D01*
X497442Y449168D01*
X497868Y449111D01*
X498292Y449042D01*
X498714Y448964D01*
X499134Y448875D01*
X499552Y448776D01*
X499967Y448666D01*
X500380Y448546D01*
X500789Y448417D01*
X501196Y448277D01*
X501598Y448127D01*
X501997Y447968D01*
X502392Y447799D01*
X502782Y447620D01*
X503168Y447431D01*
X503549Y447234D01*
X503926Y447027D01*
X504297Y446810D01*
X504662Y446585D01*
X505022Y446351D01*
X505377Y446108D01*
X505725Y445856D01*
X506067Y445596D01*
X506402Y445328D01*
X506731Y445051D01*
X507052Y444767D01*
X507367Y444474D01*
X507674Y444174D01*
X507974Y443867D01*
X508267Y443552D01*
X508551Y443231D01*
X508828Y442902D01*
X509096Y442567D01*
X509356Y442225D01*
X509608Y441877D01*
X509851Y441522D01*
X510085Y441162D01*
X510310Y440797D01*
X510527Y440426D01*
X510734Y440049D01*
X510931Y439668D01*
X511120Y439282D01*
X511299Y438892D01*
X511468Y438497D01*
X511627Y438098D01*
X511777Y437696D01*
X511917Y437289D01*
X512046Y436880D01*
X512166Y436467D01*
X512276Y436052D01*
X512375Y435634D01*
X512464Y435214D01*
X512542Y434792D01*
X512611Y434368D01*
X512668Y433942D01*
X512716Y433515D01*
X512753Y433087D01*
X512779Y432659D01*
X512795Y432229D01*
X512800Y431800D01*
X512795Y431371D01*
X512779Y430941D01*
X512753Y430513D01*
X512716Y430085D01*
X512668Y429658D01*
X512611Y429232D01*
X512542Y428808D01*
X512464Y428386D01*
X512375Y427966D01*
X512276Y427548D01*
X512166Y427133D01*
X512046Y426720D01*
X511917Y426311D01*
X511777Y425904D01*
X511627Y425502D01*
X511468Y425103D01*
X511299Y424708D01*
X511120Y424318D01*
X510931Y423932D01*
X510734Y423551D01*
X510527Y423174D01*
X510310Y422803D01*
X510085Y422438D01*
X509851Y422078D01*
X509608Y421723D01*
X509356Y421375D01*
X509096Y421033D01*
X508828Y420698D01*
X508551Y420369D01*
X508267Y420048D01*
X507974Y419733D01*
X507674Y419426D01*
X507367Y419126D01*
X507052Y418833D01*
X506731Y418549D01*
X506402Y418272D01*
X506067Y418004D01*
X505725Y417744D01*
X505377Y417492D01*
X505022Y417249D01*
X504662Y417015D01*
X504297Y416790D01*
X503926Y416573D01*
X503549Y416366D01*
X503168Y416169D01*
X502782Y415980D01*
X502392Y415801D01*
X501997Y415632D01*
X501598Y415473D01*
X501196Y415323D01*
X500789Y415183D01*
X500380Y415054D01*
X499967Y414934D01*
X499552Y414824D01*
X499134Y414725D01*
X498714Y414636D01*
X498292Y414558D01*
X497868Y414489D01*
X497442Y414432D01*
X497015Y414384D01*
X496587Y414347D01*
X496159Y414321D01*
X495729Y414305D01*
X495300Y414300D01*
X494871Y414305D01*
X494441Y414321D01*
X494013Y414347D01*
X493585Y414384D01*
X493158Y414432D01*
X492732Y414489D01*
X492308Y414558D01*
X491886Y414636D01*
X491466Y414725D01*
X491048Y414824D01*
X490633Y414934D01*
X490220Y415054D01*
X489811Y415183D01*
X489404Y415323D01*
X489002Y415473D01*
X488603Y415632D01*
X488208Y415801D01*
X487818Y415980D01*
X487432Y416169D01*
X487051Y416366D01*
X486674Y416573D01*
X486303Y416790D01*
X485938Y417015D01*
X485578Y417249D01*
X485223Y417492D01*
X484875Y417744D01*
X484533Y418004D01*
X484198Y418272D01*
X483869Y418549D01*
X483548Y418833D01*
X483233Y419126D01*
X482926Y419426D01*
X482626Y419733D01*
X482333Y420048D01*
X482049Y420369D01*
X481772Y420698D01*
X481504Y421033D01*
X481244Y421375D01*
X480992Y421723D01*
X480749Y422078D01*
X480515Y422438D01*
X480290Y422803D01*
X480073Y423174D01*
X479866Y423551D01*
X479669Y423932D01*
X479480Y424318D01*
X479301Y424708D01*
X479132Y425103D01*
X478973Y425502D01*
X478823Y425904D01*
X478683Y426311D01*
X478554Y426720D01*
X478434Y427133D01*
X478324Y427548D01*
X478225Y427966D01*
X478136Y428386D01*
X478058Y428808D01*
X477989Y429232D01*
X477932Y429658D01*
X477884Y430085D01*
X477847Y430513D01*
X477821Y430941D01*
X477805Y431371D01*
X477800Y431800D01*
D10*
X156210Y787400D02*
X156220Y788242D01*
X156251Y789083D01*
X156303Y789923D01*
X156375Y790761D01*
X156468Y791597D01*
X156581Y792431D01*
X156715Y793262D01*
X156869Y794090D01*
X157043Y794913D01*
X157238Y795732D01*
X157452Y796546D01*
X157687Y797354D01*
X157941Y798156D01*
X158214Y798952D01*
X158508Y799741D01*
X158820Y800522D01*
X159152Y801296D01*
X159502Y802061D01*
X159871Y802817D01*
X160259Y803564D01*
X160665Y804301D01*
X161088Y805029D01*
X161530Y805745D01*
X161989Y806451D01*
X162465Y807144D01*
X162958Y807827D01*
X163468Y808496D01*
X163993Y809153D01*
X164535Y809797D01*
X165093Y810428D01*
X165666Y811044D01*
X166253Y811647D01*
X166856Y812234D01*
X167472Y812807D01*
X168103Y813365D01*
X168747Y813907D01*
X169404Y814432D01*
X170073Y814942D01*
X170756Y815435D01*
X171449Y815911D01*
X172155Y816370D01*
X172871Y816812D01*
X173599Y817235D01*
X174336Y817641D01*
X175083Y818029D01*
X175839Y818398D01*
X176604Y818748D01*
X177378Y819080D01*
X178159Y819392D01*
X178948Y819686D01*
X179744Y819959D01*
X180546Y820213D01*
X181354Y820448D01*
X182168Y820662D01*
X182987Y820857D01*
X183810Y821031D01*
X184638Y821185D01*
X185469Y821319D01*
X186303Y821432D01*
X187139Y821525D01*
X187977Y821597D01*
X188817Y821649D01*
X189658Y821680D01*
X190500Y821690D01*
X191342Y821680D01*
X192183Y821649D01*
X193023Y821597D01*
X193861Y821525D01*
X194697Y821432D01*
X195531Y821319D01*
X196362Y821185D01*
X197190Y821031D01*
X198013Y820857D01*
X198832Y820662D01*
X199646Y820448D01*
X200454Y820213D01*
X201256Y819959D01*
X202052Y819686D01*
X202841Y819392D01*
X203622Y819080D01*
X204396Y818748D01*
X205161Y818398D01*
X205917Y818029D01*
X206664Y817641D01*
X207401Y817235D01*
X208129Y816812D01*
X208845Y816370D01*
X209551Y815911D01*
X210244Y815435D01*
X210927Y814942D01*
X211596Y814432D01*
X212253Y813907D01*
X212897Y813365D01*
X213528Y812807D01*
X214144Y812234D01*
X214747Y811647D01*
X215334Y811044D01*
X215907Y810428D01*
X216465Y809797D01*
X217007Y809153D01*
X217532Y808496D01*
X218042Y807827D01*
X218535Y807144D01*
X219011Y806451D01*
X219470Y805745D01*
X219912Y805029D01*
X220335Y804301D01*
X220741Y803564D01*
X221129Y802817D01*
X221498Y802061D01*
X221848Y801296D01*
X222180Y800522D01*
X222492Y799741D01*
X222786Y798952D01*
X223059Y798156D01*
X223313Y797354D01*
X223548Y796546D01*
X223762Y795732D01*
X223957Y794913D01*
X224131Y794090D01*
X224285Y793262D01*
X224419Y792431D01*
X224532Y791597D01*
X224625Y790761D01*
X224697Y789923D01*
X224749Y789083D01*
X224780Y788242D01*
X224790Y787400D01*
X224780Y786558D01*
X224749Y785717D01*
X224697Y784877D01*
X224625Y784039D01*
X224532Y783203D01*
X224419Y782369D01*
X224285Y781538D01*
X224131Y780710D01*
X223957Y779887D01*
X223762Y779068D01*
X223548Y778254D01*
X223313Y777446D01*
X223059Y776644D01*
X222786Y775848D01*
X222492Y775059D01*
X222180Y774278D01*
X221848Y773504D01*
X221498Y772739D01*
X221129Y771983D01*
X220741Y771236D01*
X220335Y770499D01*
X219912Y769771D01*
X219470Y769055D01*
X219011Y768349D01*
X218535Y767656D01*
X218042Y766973D01*
X217532Y766304D01*
X217007Y765647D01*
X216465Y765003D01*
X215907Y764372D01*
X215334Y763756D01*
X214747Y763153D01*
X214144Y762566D01*
X213528Y761993D01*
X212897Y761435D01*
X212253Y760893D01*
X211596Y760368D01*
X210927Y759858D01*
X210244Y759365D01*
X209551Y758889D01*
X208845Y758430D01*
X208129Y757988D01*
X207401Y757565D01*
X206664Y757159D01*
X205917Y756771D01*
X205161Y756402D01*
X204396Y756052D01*
X203622Y755720D01*
X202841Y755408D01*
X202052Y755114D01*
X201256Y754841D01*
X200454Y754587D01*
X199646Y754352D01*
X198832Y754138D01*
X198013Y753943D01*
X197190Y753769D01*
X196362Y753615D01*
X195531Y753481D01*
X194697Y753368D01*
X193861Y753275D01*
X193023Y753203D01*
X192183Y753151D01*
X191342Y753120D01*
X190500Y753110D01*
X189658Y753120D01*
X188817Y753151D01*
X187977Y753203D01*
X187139Y753275D01*
X186303Y753368D01*
X185469Y753481D01*
X184638Y753615D01*
X183810Y753769D01*
X182987Y753943D01*
X182168Y754138D01*
X181354Y754352D01*
X180546Y754587D01*
X179744Y754841D01*
X178948Y755114D01*
X178159Y755408D01*
X177378Y755720D01*
X176604Y756052D01*
X175839Y756402D01*
X175083Y756771D01*
X174336Y757159D01*
X173599Y757565D01*
X172871Y757988D01*
X172155Y758430D01*
X171449Y758889D01*
X170756Y759365D01*
X170073Y759858D01*
X169404Y760368D01*
X168747Y760893D01*
X168103Y761435D01*
X167472Y761993D01*
X166856Y762566D01*
X166253Y763153D01*
X165666Y763756D01*
X165093Y764372D01*
X164535Y765003D01*
X163993Y765647D01*
X163468Y766304D01*
X162958Y766973D01*
X162465Y767656D01*
X161989Y768349D01*
X161530Y769055D01*
X161088Y769771D01*
X160665Y770499D01*
X160259Y771236D01*
X159871Y771983D01*
X159502Y772739D01*
X159152Y773504D01*
X158820Y774278D01*
X158508Y775059D01*
X158214Y775848D01*
X157941Y776644D01*
X157687Y777446D01*
X157452Y778254D01*
X157238Y779068D01*
X157043Y779887D01*
X156869Y780710D01*
X156715Y781538D01*
X156581Y782369D01*
X156468Y783203D01*
X156375Y784039D01*
X156303Y784877D01*
X156251Y785717D01*
X156220Y786558D01*
X156210Y787400D01*
D11*
X173000Y787400D02*
X173005Y787829D01*
X173021Y788259D01*
X173047Y788687D01*
X173084Y789115D01*
X173132Y789542D01*
X173189Y789968D01*
X173258Y790392D01*
X173336Y790814D01*
X173425Y791234D01*
X173524Y791652D01*
X173634Y792067D01*
X173754Y792480D01*
X173883Y792889D01*
X174023Y793296D01*
X174173Y793698D01*
X174332Y794097D01*
X174501Y794492D01*
X174680Y794882D01*
X174869Y795268D01*
X175066Y795649D01*
X175273Y796026D01*
X175490Y796397D01*
X175715Y796762D01*
X175949Y797122D01*
X176192Y797477D01*
X176444Y797825D01*
X176704Y798167D01*
X176972Y798502D01*
X177249Y798831D01*
X177533Y799152D01*
X177826Y799467D01*
X178126Y799774D01*
X178433Y800074D01*
X178748Y800367D01*
X179069Y800651D01*
X179398Y800928D01*
X179733Y801196D01*
X180075Y801456D01*
X180423Y801708D01*
X180778Y801951D01*
X181138Y802185D01*
X181503Y802410D01*
X181874Y802627D01*
X182251Y802834D01*
X182632Y803031D01*
X183018Y803220D01*
X183408Y803399D01*
X183803Y803568D01*
X184202Y803727D01*
X184604Y803877D01*
X185011Y804017D01*
X185420Y804146D01*
X185833Y804266D01*
X186248Y804376D01*
X186666Y804475D01*
X187086Y804564D01*
X187508Y804642D01*
X187932Y804711D01*
X188358Y804768D01*
X188785Y804816D01*
X189213Y804853D01*
X189641Y804879D01*
X190071Y804895D01*
X190500Y804900D01*
X190929Y804895D01*
X191359Y804879D01*
X191787Y804853D01*
X192215Y804816D01*
X192642Y804768D01*
X193068Y804711D01*
X193492Y804642D01*
X193914Y804564D01*
X194334Y804475D01*
X194752Y804376D01*
X195167Y804266D01*
X195580Y804146D01*
X195989Y804017D01*
X196396Y803877D01*
X196798Y803727D01*
X197197Y803568D01*
X197592Y803399D01*
X197982Y803220D01*
X198368Y803031D01*
X198749Y802834D01*
X199126Y802627D01*
X199497Y802410D01*
X199862Y802185D01*
X200222Y801951D01*
X200577Y801708D01*
X200925Y801456D01*
X201267Y801196D01*
X201602Y800928D01*
X201931Y800651D01*
X202252Y800367D01*
X202567Y800074D01*
X202874Y799774D01*
X203174Y799467D01*
X203467Y799152D01*
X203751Y798831D01*
X204028Y798502D01*
X204296Y798167D01*
X204556Y797825D01*
X204808Y797477D01*
X205051Y797122D01*
X205285Y796762D01*
X205510Y796397D01*
X205727Y796026D01*
X205934Y795649D01*
X206131Y795268D01*
X206320Y794882D01*
X206499Y794492D01*
X206668Y794097D01*
X206827Y793698D01*
X206977Y793296D01*
X207117Y792889D01*
X207246Y792480D01*
X207366Y792067D01*
X207476Y791652D01*
X207575Y791234D01*
X207664Y790814D01*
X207742Y790392D01*
X207811Y789968D01*
X207868Y789542D01*
X207916Y789115D01*
X207953Y788687D01*
X207979Y788259D01*
X207995Y787829D01*
X208000Y787400D01*
X207995Y786971D01*
X207979Y786541D01*
X207953Y786113D01*
X207916Y785685D01*
X207868Y785258D01*
X207811Y784832D01*
X207742Y784408D01*
X207664Y783986D01*
X207575Y783566D01*
X207476Y783148D01*
X207366Y782733D01*
X207246Y782320D01*
X207117Y781911D01*
X206977Y781504D01*
X206827Y781102D01*
X206668Y780703D01*
X206499Y780308D01*
X206320Y779918D01*
X206131Y779532D01*
X205934Y779151D01*
X205727Y778774D01*
X205510Y778403D01*
X205285Y778038D01*
X205051Y777678D01*
X204808Y777323D01*
X204556Y776975D01*
X204296Y776633D01*
X204028Y776298D01*
X203751Y775969D01*
X203467Y775648D01*
X203174Y775333D01*
X202874Y775026D01*
X202567Y774726D01*
X202252Y774433D01*
X201931Y774149D01*
X201602Y773872D01*
X201267Y773604D01*
X200925Y773344D01*
X200577Y773092D01*
X200222Y772849D01*
X199862Y772615D01*
X199497Y772390D01*
X199126Y772173D01*
X198749Y771966D01*
X198368Y771769D01*
X197982Y771580D01*
X197592Y771401D01*
X197197Y771232D01*
X196798Y771073D01*
X196396Y770923D01*
X195989Y770783D01*
X195580Y770654D01*
X195167Y770534D01*
X194752Y770424D01*
X194334Y770325D01*
X193914Y770236D01*
X193492Y770158D01*
X193068Y770089D01*
X192642Y770032D01*
X192215Y769984D01*
X191787Y769947D01*
X191359Y769921D01*
X190929Y769905D01*
X190500Y769900D01*
X190071Y769905D01*
X189641Y769921D01*
X189213Y769947D01*
X188785Y769984D01*
X188358Y770032D01*
X187932Y770089D01*
X187508Y770158D01*
X187086Y770236D01*
X186666Y770325D01*
X186248Y770424D01*
X185833Y770534D01*
X185420Y770654D01*
X185011Y770783D01*
X184604Y770923D01*
X184202Y771073D01*
X183803Y771232D01*
X183408Y771401D01*
X183018Y771580D01*
X182632Y771769D01*
X182251Y771966D01*
X181874Y772173D01*
X181503Y772390D01*
X181138Y772615D01*
X180778Y772849D01*
X180423Y773092D01*
X180075Y773344D01*
X179733Y773604D01*
X179398Y773872D01*
X179069Y774149D01*
X178748Y774433D01*
X178433Y774726D01*
X178126Y775026D01*
X177826Y775333D01*
X177533Y775648D01*
X177249Y775969D01*
X176972Y776298D01*
X176704Y776633D01*
X176444Y776975D01*
X176192Y777323D01*
X175949Y777678D01*
X175715Y778038D01*
X175490Y778403D01*
X175273Y778774D01*
X175066Y779151D01*
X174869Y779532D01*
X174680Y779918D01*
X174501Y780308D01*
X174332Y780703D01*
X174173Y781102D01*
X174023Y781504D01*
X173883Y781911D01*
X173754Y782320D01*
X173634Y782733D01*
X173524Y783148D01*
X173425Y783566D01*
X173336Y783986D01*
X173258Y784408D01*
X173189Y784832D01*
X173132Y785258D01*
X173084Y785685D01*
X173047Y786113D01*
X173021Y786541D01*
X173005Y786971D01*
X173000Y787400D01*
D10*
X461010Y787400D02*
X461020Y788242D01*
X461051Y789083D01*
X461103Y789923D01*
X461175Y790761D01*
X461268Y791597D01*
X461381Y792431D01*
X461515Y793262D01*
X461669Y794090D01*
X461843Y794913D01*
X462038Y795732D01*
X462252Y796546D01*
X462487Y797354D01*
X462741Y798156D01*
X463014Y798952D01*
X463308Y799741D01*
X463620Y800522D01*
X463952Y801296D01*
X464302Y802061D01*
X464671Y802817D01*
X465059Y803564D01*
X465465Y804301D01*
X465888Y805029D01*
X466330Y805745D01*
X466789Y806451D01*
X467265Y807144D01*
X467758Y807827D01*
X468268Y808496D01*
X468793Y809153D01*
X469335Y809797D01*
X469893Y810428D01*
X470466Y811044D01*
X471053Y811647D01*
X471656Y812234D01*
X472272Y812807D01*
X472903Y813365D01*
X473547Y813907D01*
X474204Y814432D01*
X474873Y814942D01*
X475556Y815435D01*
X476249Y815911D01*
X476955Y816370D01*
X477671Y816812D01*
X478399Y817235D01*
X479136Y817641D01*
X479883Y818029D01*
X480639Y818398D01*
X481404Y818748D01*
X482178Y819080D01*
X482959Y819392D01*
X483748Y819686D01*
X484544Y819959D01*
X485346Y820213D01*
X486154Y820448D01*
X486968Y820662D01*
X487787Y820857D01*
X488610Y821031D01*
X489438Y821185D01*
X490269Y821319D01*
X491103Y821432D01*
X491939Y821525D01*
X492777Y821597D01*
X493617Y821649D01*
X494458Y821680D01*
X495300Y821690D01*
X496142Y821680D01*
X496983Y821649D01*
X497823Y821597D01*
X498661Y821525D01*
X499497Y821432D01*
X500331Y821319D01*
X501162Y821185D01*
X501990Y821031D01*
X502813Y820857D01*
X503632Y820662D01*
X504446Y820448D01*
X505254Y820213D01*
X506056Y819959D01*
X506852Y819686D01*
X507641Y819392D01*
X508422Y819080D01*
X509196Y818748D01*
X509961Y818398D01*
X510717Y818029D01*
X511464Y817641D01*
X512201Y817235D01*
X512929Y816812D01*
X513645Y816370D01*
X514351Y815911D01*
X515044Y815435D01*
X515727Y814942D01*
X516396Y814432D01*
X517053Y813907D01*
X517697Y813365D01*
X518328Y812807D01*
X518944Y812234D01*
X519547Y811647D01*
X520134Y811044D01*
X520707Y810428D01*
X521265Y809797D01*
X521807Y809153D01*
X522332Y808496D01*
X522842Y807827D01*
X523335Y807144D01*
X523811Y806451D01*
X524270Y805745D01*
X524712Y805029D01*
X525135Y804301D01*
X525541Y803564D01*
X525929Y802817D01*
X526298Y802061D01*
X526648Y801296D01*
X526980Y800522D01*
X527292Y799741D01*
X527586Y798952D01*
X527859Y798156D01*
X528113Y797354D01*
X528348Y796546D01*
X528562Y795732D01*
X528757Y794913D01*
X528931Y794090D01*
X529085Y793262D01*
X529219Y792431D01*
X529332Y791597D01*
X529425Y790761D01*
X529497Y789923D01*
X529549Y789083D01*
X529580Y788242D01*
X529590Y787400D01*
X529580Y786558D01*
X529549Y785717D01*
X529497Y784877D01*
X529425Y784039D01*
X529332Y783203D01*
X529219Y782369D01*
X529085Y781538D01*
X528931Y780710D01*
X528757Y779887D01*
X528562Y779068D01*
X528348Y778254D01*
X528113Y777446D01*
X527859Y776644D01*
X527586Y775848D01*
X527292Y775059D01*
X526980Y774278D01*
X526648Y773504D01*
X526298Y772739D01*
X525929Y771983D01*
X525541Y771236D01*
X525135Y770499D01*
X524712Y769771D01*
X524270Y769055D01*
X523811Y768349D01*
X523335Y767656D01*
X522842Y766973D01*
X522332Y766304D01*
X521807Y765647D01*
X521265Y765003D01*
X520707Y764372D01*
X520134Y763756D01*
X519547Y763153D01*
X518944Y762566D01*
X518328Y761993D01*
X517697Y761435D01*
X517053Y760893D01*
X516396Y760368D01*
X515727Y759858D01*
X515044Y759365D01*
X514351Y758889D01*
X513645Y758430D01*
X512929Y757988D01*
X512201Y757565D01*
X511464Y757159D01*
X510717Y756771D01*
X509961Y756402D01*
X509196Y756052D01*
X508422Y755720D01*
X507641Y755408D01*
X506852Y755114D01*
X506056Y754841D01*
X505254Y754587D01*
X504446Y754352D01*
X503632Y754138D01*
X502813Y753943D01*
X501990Y753769D01*
X501162Y753615D01*
X500331Y753481D01*
X499497Y753368D01*
X498661Y753275D01*
X497823Y753203D01*
X496983Y753151D01*
X496142Y753120D01*
X495300Y753110D01*
X494458Y753120D01*
X493617Y753151D01*
X492777Y753203D01*
X491939Y753275D01*
X491103Y753368D01*
X490269Y753481D01*
X489438Y753615D01*
X488610Y753769D01*
X487787Y753943D01*
X486968Y754138D01*
X486154Y754352D01*
X485346Y754587D01*
X484544Y754841D01*
X483748Y755114D01*
X482959Y755408D01*
X482178Y755720D01*
X481404Y756052D01*
X480639Y756402D01*
X479883Y756771D01*
X479136Y757159D01*
X478399Y757565D01*
X477671Y757988D01*
X476955Y758430D01*
X476249Y758889D01*
X475556Y759365D01*
X474873Y759858D01*
X474204Y760368D01*
X473547Y760893D01*
X472903Y761435D01*
X472272Y761993D01*
X471656Y762566D01*
X471053Y763153D01*
X470466Y763756D01*
X469893Y764372D01*
X469335Y765003D01*
X468793Y765647D01*
X468268Y766304D01*
X467758Y766973D01*
X467265Y767656D01*
X466789Y768349D01*
X466330Y769055D01*
X465888Y769771D01*
X465465Y770499D01*
X465059Y771236D01*
X464671Y771983D01*
X464302Y772739D01*
X463952Y773504D01*
X463620Y774278D01*
X463308Y775059D01*
X463014Y775848D01*
X462741Y776644D01*
X462487Y777446D01*
X462252Y778254D01*
X462038Y779068D01*
X461843Y779887D01*
X461669Y780710D01*
X461515Y781538D01*
X461381Y782369D01*
X461268Y783203D01*
X461175Y784039D01*
X461103Y784877D01*
X461051Y785717D01*
X461020Y786558D01*
X461010Y787400D01*
D11*
X477800Y787400D02*
X477805Y787829D01*
X477821Y788259D01*
X477847Y788687D01*
X477884Y789115D01*
X477932Y789542D01*
X477989Y789968D01*
X478058Y790392D01*
X478136Y790814D01*
X478225Y791234D01*
X478324Y791652D01*
X478434Y792067D01*
X478554Y792480D01*
X478683Y792889D01*
X478823Y793296D01*
X478973Y793698D01*
X479132Y794097D01*
X479301Y794492D01*
X479480Y794882D01*
X479669Y795268D01*
X479866Y795649D01*
X480073Y796026D01*
X480290Y796397D01*
X480515Y796762D01*
X480749Y797122D01*
X480992Y797477D01*
X481244Y797825D01*
X481504Y798167D01*
X481772Y798502D01*
X482049Y798831D01*
X482333Y799152D01*
X482626Y799467D01*
X482926Y799774D01*
X483233Y800074D01*
X483548Y800367D01*
X483869Y800651D01*
X484198Y800928D01*
X484533Y801196D01*
X484875Y801456D01*
X485223Y801708D01*
X485578Y801951D01*
X485938Y802185D01*
X486303Y802410D01*
X486674Y802627D01*
X487051Y802834D01*
X487432Y803031D01*
X487818Y803220D01*
X488208Y803399D01*
X488603Y803568D01*
X489002Y803727D01*
X489404Y803877D01*
X489811Y804017D01*
X490220Y804146D01*
X490633Y804266D01*
X491048Y804376D01*
X491466Y804475D01*
X491886Y804564D01*
X492308Y804642D01*
X492732Y804711D01*
X493158Y804768D01*
X493585Y804816D01*
X494013Y804853D01*
X494441Y804879D01*
X494871Y804895D01*
X495300Y804900D01*
X495729Y804895D01*
X496159Y804879D01*
X496587Y804853D01*
X497015Y804816D01*
X497442Y804768D01*
X497868Y804711D01*
X498292Y804642D01*
X498714Y804564D01*
X499134Y804475D01*
X499552Y804376D01*
X499967Y804266D01*
X500380Y804146D01*
X500789Y804017D01*
X501196Y803877D01*
X501598Y803727D01*
X501997Y803568D01*
X502392Y803399D01*
X502782Y803220D01*
X503168Y803031D01*
X503549Y802834D01*
X503926Y802627D01*
X504297Y802410D01*
X504662Y802185D01*
X505022Y801951D01*
X505377Y801708D01*
X505725Y801456D01*
X506067Y801196D01*
X506402Y800928D01*
X506731Y800651D01*
X507052Y800367D01*
X507367Y800074D01*
X507674Y799774D01*
X507974Y799467D01*
X508267Y799152D01*
X508551Y798831D01*
X508828Y798502D01*
X509096Y798167D01*
X509356Y797825D01*
X509608Y797477D01*
X509851Y797122D01*
X510085Y796762D01*
X510310Y796397D01*
X510527Y796026D01*
X510734Y795649D01*
X510931Y795268D01*
X511120Y794882D01*
X511299Y794492D01*
X511468Y794097D01*
X511627Y793698D01*
X511777Y793296D01*
X511917Y792889D01*
X512046Y792480D01*
X512166Y792067D01*
X512276Y791652D01*
X512375Y791234D01*
X512464Y790814D01*
X512542Y790392D01*
X512611Y789968D01*
X512668Y789542D01*
X512716Y789115D01*
X512753Y788687D01*
X512779Y788259D01*
X512795Y787829D01*
X512800Y787400D01*
X512795Y786971D01*
X512779Y786541D01*
X512753Y786113D01*
X512716Y785685D01*
X512668Y785258D01*
X512611Y784832D01*
X512542Y784408D01*
X512464Y783986D01*
X512375Y783566D01*
X512276Y783148D01*
X512166Y782733D01*
X512046Y782320D01*
X511917Y781911D01*
X511777Y781504D01*
X511627Y781102D01*
X511468Y780703D01*
X511299Y780308D01*
X511120Y779918D01*
X510931Y779532D01*
X510734Y779151D01*
X510527Y778774D01*
X510310Y778403D01*
X510085Y778038D01*
X509851Y777678D01*
X509608Y777323D01*
X509356Y776975D01*
X509096Y776633D01*
X508828Y776298D01*
X508551Y775969D01*
X508267Y775648D01*
X507974Y775333D01*
X507674Y775026D01*
X507367Y774726D01*
X507052Y774433D01*
X506731Y774149D01*
X506402Y773872D01*
X506067Y773604D01*
X505725Y773344D01*
X505377Y773092D01*
X505022Y772849D01*
X504662Y772615D01*
X504297Y772390D01*
X503926Y772173D01*
X503549Y771966D01*
X503168Y771769D01*
X502782Y771580D01*
X502392Y771401D01*
X501997Y771232D01*
X501598Y771073D01*
X501196Y770923D01*
X500789Y770783D01*
X500380Y770654D01*
X499967Y770534D01*
X499552Y770424D01*
X499134Y770325D01*
X498714Y770236D01*
X498292Y770158D01*
X497868Y770089D01*
X497442Y770032D01*
X497015Y769984D01*
X496587Y769947D01*
X496159Y769921D01*
X495729Y769905D01*
X495300Y769900D01*
X494871Y769905D01*
X494441Y769921D01*
X494013Y769947D01*
X493585Y769984D01*
X493158Y770032D01*
X492732Y770089D01*
X492308Y770158D01*
X491886Y770236D01*
X491466Y770325D01*
X491048Y770424D01*
X490633Y770534D01*
X490220Y770654D01*
X489811Y770783D01*
X489404Y770923D01*
X489002Y771073D01*
X488603Y771232D01*
X488208Y771401D01*
X487818Y771580D01*
X487432Y771769D01*
X487051Y771966D01*
X486674Y772173D01*
X486303Y772390D01*
X485938Y772615D01*
X485578Y772849D01*
X485223Y773092D01*
X484875Y773344D01*
X484533Y773604D01*
X484198Y773872D01*
X483869Y774149D01*
X483548Y774433D01*
X483233Y774726D01*
X482926Y775026D01*
X482626Y775333D01*
X482333Y775648D01*
X482049Y775969D01*
X481772Y776298D01*
X481504Y776633D01*
X481244Y776975D01*
X480992Y777323D01*
X480749Y777678D01*
X480515Y778038D01*
X480290Y778403D01*
X480073Y778774D01*
X479866Y779151D01*
X479669Y779532D01*
X479480Y779918D01*
X479301Y780308D01*
X479132Y780703D01*
X478973Y781102D01*
X478823Y781504D01*
X478683Y781911D01*
X478554Y782320D01*
X478434Y782733D01*
X478324Y783148D01*
X478225Y783566D01*
X478136Y783986D01*
X478058Y784408D01*
X477989Y784832D01*
X477932Y785258D01*
X477884Y785685D01*
X477847Y786113D01*
X477821Y786541D01*
X477805Y786971D01*
X477800Y787400D01*
D10*
X596900Y381000D02*
X596900Y368300D01*
X590550Y361950D01*
X577850Y361950D01*
X571500Y368300D01*
X596900Y406400D02*
X590550Y412750D01*
X596900Y406400D02*
X596900Y393700D01*
X590550Y387350D01*
X577850Y387350D01*
X571500Y393700D01*
X571500Y406400D01*
X577850Y412750D01*
X590550Y387350D02*
X596900Y381000D01*
X577850Y387350D02*
X571500Y381000D01*
X571500Y368300D01*
X596900Y444500D02*
X596900Y457200D01*
X596900Y444500D02*
X590550Y438150D01*
X577850Y438150D01*
X571500Y444500D01*
X590550Y438150D02*
X596900Y431800D01*
X596900Y419100D01*
X590550Y412750D01*
X577850Y412750D01*
X571500Y419100D01*
X571500Y431800D01*
X577850Y438150D01*
X577850Y463550D02*
X590550Y463550D01*
X596900Y457200D01*
X577850Y463550D02*
X571500Y457200D01*
X571500Y444500D01*
X596900Y355600D02*
X596900Y342900D01*
X590550Y336550D01*
X577850Y336550D01*
X571500Y342900D01*
X590550Y361950D02*
X596900Y355600D01*
X577850Y361950D02*
X571500Y355600D01*
X571500Y342900D01*
D13*
X586538Y511937D02*
X586538Y520827D01*
X586538Y511937D02*
X586536Y511837D01*
X586530Y511738D01*
X586520Y511638D01*
X586507Y511540D01*
X586489Y511441D01*
X586468Y511344D01*
X586443Y511248D01*
X586414Y511152D01*
X586381Y511058D01*
X586345Y510965D01*
X586305Y510874D01*
X586261Y510784D01*
X586214Y510696D01*
X586164Y510610D01*
X586110Y510526D01*
X586053Y510444D01*
X585993Y510365D01*
X585929Y510287D01*
X585863Y510213D01*
X585794Y510141D01*
X585722Y510072D01*
X585648Y510006D01*
X585570Y509942D01*
X585491Y509882D01*
X585409Y509825D01*
X585325Y509771D01*
X585239Y509721D01*
X585151Y509674D01*
X585061Y509630D01*
X584970Y509590D01*
X584877Y509554D01*
X584783Y509521D01*
X584687Y509492D01*
X584591Y509467D01*
X584494Y509446D01*
X584395Y509428D01*
X584297Y509415D01*
X584197Y509405D01*
X584098Y509399D01*
X583998Y509397D01*
X582728Y509397D01*
X592519Y509397D02*
X592519Y520827D01*
X595694Y520827D01*
X595805Y520825D01*
X595915Y520819D01*
X596026Y520810D01*
X596136Y520796D01*
X596245Y520779D01*
X596354Y520758D01*
X596462Y520733D01*
X596569Y520704D01*
X596675Y520672D01*
X596780Y520636D01*
X596883Y520596D01*
X596985Y520553D01*
X597086Y520506D01*
X597185Y520455D01*
X597282Y520402D01*
X597376Y520345D01*
X597469Y520284D01*
X597560Y520221D01*
X597649Y520154D01*
X597735Y520084D01*
X597818Y520011D01*
X597900Y519936D01*
X597978Y519858D01*
X598053Y519776D01*
X598126Y519693D01*
X598196Y519607D01*
X598263Y519518D01*
X598326Y519427D01*
X598387Y519334D01*
X598444Y519239D01*
X598497Y519143D01*
X598548Y519044D01*
X598595Y518943D01*
X598638Y518841D01*
X598678Y518738D01*
X598714Y518633D01*
X598746Y518527D01*
X598775Y518420D01*
X598800Y518312D01*
X598821Y518203D01*
X598838Y518094D01*
X598852Y517984D01*
X598861Y517873D01*
X598867Y517763D01*
X598869Y517652D01*
X598867Y517541D01*
X598861Y517431D01*
X598852Y517320D01*
X598838Y517210D01*
X598821Y517101D01*
X598800Y516992D01*
X598775Y516884D01*
X598746Y516777D01*
X598714Y516671D01*
X598678Y516566D01*
X598638Y516463D01*
X598595Y516361D01*
X598548Y516260D01*
X598497Y516161D01*
X598444Y516064D01*
X598387Y515970D01*
X598326Y515877D01*
X598263Y515786D01*
X598196Y515697D01*
X598126Y515611D01*
X598053Y515528D01*
X597978Y515446D01*
X597900Y515368D01*
X597818Y515293D01*
X597735Y515220D01*
X597649Y515150D01*
X597560Y515083D01*
X597469Y515020D01*
X597376Y514959D01*
X597282Y514902D01*
X597185Y514849D01*
X597086Y514798D01*
X596985Y514751D01*
X596883Y514708D01*
X596780Y514668D01*
X596675Y514632D01*
X596569Y514600D01*
X596462Y514571D01*
X596354Y514546D01*
X596245Y514525D01*
X596136Y514508D01*
X596026Y514494D01*
X595915Y514485D01*
X595805Y514479D01*
X595694Y514477D01*
X592519Y514477D01*
X605917Y514477D02*
X609727Y514477D01*
X605917Y514477D02*
X605817Y514479D01*
X605718Y514485D01*
X605618Y514495D01*
X605520Y514508D01*
X605421Y514526D01*
X605324Y514547D01*
X605228Y514572D01*
X605132Y514601D01*
X605038Y514634D01*
X604945Y514670D01*
X604854Y514710D01*
X604764Y514754D01*
X604676Y514801D01*
X604590Y514851D01*
X604506Y514905D01*
X604424Y514962D01*
X604345Y515022D01*
X604267Y515086D01*
X604193Y515152D01*
X604121Y515221D01*
X604052Y515293D01*
X603986Y515367D01*
X603922Y515445D01*
X603862Y515524D01*
X603805Y515606D01*
X603751Y515690D01*
X603701Y515776D01*
X603654Y515864D01*
X603610Y515954D01*
X603570Y516045D01*
X603534Y516138D01*
X603501Y516232D01*
X603472Y516328D01*
X603447Y516424D01*
X603426Y516521D01*
X603408Y516620D01*
X603395Y516718D01*
X603385Y516818D01*
X603379Y516917D01*
X603377Y517017D01*
X603377Y517652D01*
X603379Y517763D01*
X603385Y517873D01*
X603394Y517984D01*
X603408Y518094D01*
X603425Y518203D01*
X603446Y518312D01*
X603471Y518420D01*
X603500Y518527D01*
X603532Y518633D01*
X603568Y518738D01*
X603608Y518841D01*
X603651Y518943D01*
X603698Y519044D01*
X603749Y519143D01*
X603802Y519240D01*
X603859Y519334D01*
X603920Y519427D01*
X603983Y519518D01*
X604050Y519607D01*
X604120Y519693D01*
X604193Y519776D01*
X604268Y519858D01*
X604346Y519936D01*
X604428Y520011D01*
X604511Y520084D01*
X604597Y520154D01*
X604686Y520221D01*
X604777Y520284D01*
X604870Y520345D01*
X604965Y520402D01*
X605061Y520455D01*
X605160Y520506D01*
X605261Y520553D01*
X605363Y520596D01*
X605466Y520636D01*
X605571Y520672D01*
X605677Y520704D01*
X605784Y520733D01*
X605892Y520758D01*
X606001Y520779D01*
X606110Y520796D01*
X606220Y520810D01*
X606331Y520819D01*
X606441Y520825D01*
X606552Y520827D01*
X606663Y520825D01*
X606773Y520819D01*
X606884Y520810D01*
X606994Y520796D01*
X607103Y520779D01*
X607212Y520758D01*
X607320Y520733D01*
X607427Y520704D01*
X607533Y520672D01*
X607638Y520636D01*
X607741Y520596D01*
X607843Y520553D01*
X607944Y520506D01*
X608043Y520455D01*
X608140Y520402D01*
X608234Y520345D01*
X608327Y520284D01*
X608418Y520221D01*
X608507Y520154D01*
X608593Y520084D01*
X608676Y520011D01*
X608758Y519936D01*
X608836Y519858D01*
X608911Y519776D01*
X608984Y519693D01*
X609054Y519607D01*
X609121Y519518D01*
X609184Y519427D01*
X609245Y519334D01*
X609302Y519240D01*
X609355Y519143D01*
X609406Y519044D01*
X609453Y518943D01*
X609496Y518841D01*
X609536Y518738D01*
X609572Y518633D01*
X609604Y518527D01*
X609633Y518420D01*
X609658Y518312D01*
X609679Y518203D01*
X609696Y518094D01*
X609710Y517984D01*
X609719Y517873D01*
X609725Y517763D01*
X609727Y517652D01*
X609727Y514477D01*
X609725Y514337D01*
X609719Y514197D01*
X609710Y514057D01*
X609696Y513918D01*
X609679Y513779D01*
X609658Y513641D01*
X609633Y513503D01*
X609604Y513366D01*
X609572Y513230D01*
X609535Y513095D01*
X609495Y512961D01*
X609452Y512828D01*
X609404Y512696D01*
X609354Y512565D01*
X609299Y512436D01*
X609241Y512309D01*
X609180Y512183D01*
X609115Y512059D01*
X609046Y511937D01*
X608975Y511817D01*
X608900Y511699D01*
X608822Y511582D01*
X608740Y511468D01*
X608656Y511357D01*
X608568Y511248D01*
X608478Y511141D01*
X608384Y511036D01*
X608288Y510935D01*
X608189Y510836D01*
X608088Y510740D01*
X607983Y510646D01*
X607876Y510556D01*
X607767Y510468D01*
X607656Y510384D01*
X607542Y510302D01*
X607425Y510224D01*
X607307Y510149D01*
X607187Y510078D01*
X607065Y510009D01*
X606941Y509944D01*
X606815Y509883D01*
X606688Y509825D01*
X606559Y509770D01*
X606428Y509720D01*
X606296Y509672D01*
X606163Y509629D01*
X606029Y509589D01*
X605894Y509552D01*
X605758Y509520D01*
X605621Y509491D01*
X605483Y509466D01*
X605345Y509445D01*
X605206Y509428D01*
X605067Y509414D01*
X604927Y509405D01*
X604787Y509399D01*
X604647Y509397D01*
X584200Y541020D02*
X584200Y734060D01*
X584200Y541020D02*
X685800Y541020D01*
X685800Y635000D01*
X685800Y685800D01*
X685800Y734060D01*
X584200Y734060D01*
X749300Y685800D02*
X749919Y685792D01*
X750537Y685770D01*
X751154Y685732D01*
X751770Y685680D01*
X752385Y685612D01*
X752998Y685529D01*
X753609Y685432D01*
X754217Y685319D01*
X754823Y685192D01*
X755425Y685050D01*
X756023Y684894D01*
X756618Y684723D01*
X757208Y684538D01*
X757793Y684338D01*
X758374Y684124D01*
X758949Y683896D01*
X759518Y683654D01*
X760081Y683398D01*
X760638Y683129D01*
X761188Y682846D01*
X761731Y682550D01*
X762267Y682241D01*
X762795Y681919D01*
X763315Y681584D01*
X763827Y681236D01*
X764330Y680876D01*
X764824Y680504D01*
X765309Y680120D01*
X765784Y679724D01*
X766250Y679317D01*
X766706Y678899D01*
X767151Y678470D01*
X767586Y678029D01*
X768009Y677579D01*
X768422Y677118D01*
X768824Y676648D01*
X769213Y676167D01*
X769592Y675678D01*
X769958Y675179D01*
X770311Y674672D01*
X770653Y674156D01*
X770981Y673632D01*
X771297Y673100D01*
X771600Y672561D01*
X771889Y672014D01*
X772165Y671460D01*
X772428Y670900D01*
X772677Y670334D01*
X772912Y669762D01*
X773133Y669184D01*
X773340Y668601D01*
X773532Y668013D01*
X773710Y667421D01*
X773874Y666825D01*
X774023Y666224D01*
X774158Y665620D01*
X774277Y665014D01*
X774382Y664404D01*
X774472Y663792D01*
X774548Y663178D01*
X774608Y662562D01*
X774653Y661945D01*
X774683Y661328D01*
X774698Y660709D01*
X774698Y660091D01*
X774683Y659472D01*
X774653Y658855D01*
X774608Y658238D01*
X774548Y657622D01*
X774472Y657008D01*
X774382Y656396D01*
X774277Y655786D01*
X774158Y655180D01*
X774023Y654576D01*
X773874Y653975D01*
X773710Y653379D01*
X773532Y652787D01*
X773340Y652199D01*
X773133Y651616D01*
X772912Y651038D01*
X772677Y650466D01*
X772428Y649900D01*
X772165Y649340D01*
X771889Y648786D01*
X771600Y648239D01*
X771297Y647700D01*
X770981Y647168D01*
X770653Y646644D01*
X770311Y646128D01*
X769958Y645621D01*
X769592Y645122D01*
X769213Y644633D01*
X768824Y644152D01*
X768422Y643682D01*
X768009Y643221D01*
X767586Y642771D01*
X767151Y642330D01*
X766706Y641901D01*
X766250Y641483D01*
X765784Y641076D01*
X765309Y640680D01*
X764824Y640296D01*
X764330Y639924D01*
X763827Y639564D01*
X763315Y639216D01*
X762795Y638881D01*
X762267Y638559D01*
X761731Y638250D01*
X761188Y637954D01*
X760638Y637671D01*
X760081Y637402D01*
X759518Y637146D01*
X758949Y636904D01*
X758374Y636676D01*
X757793Y636462D01*
X757208Y636262D01*
X756618Y636077D01*
X756023Y635906D01*
X755425Y635750D01*
X754823Y635608D01*
X754217Y635481D01*
X753609Y635368D01*
X752998Y635271D01*
X752385Y635188D01*
X751770Y635120D01*
X751154Y635068D01*
X750537Y635030D01*
X749919Y635008D01*
X749300Y635000D01*
X749300Y685800D02*
X685800Y685800D01*
X685800Y635000D02*
X749300Y635000D01*
X610616Y746125D02*
X610614Y746025D01*
X610608Y745926D01*
X610598Y745826D01*
X610585Y745728D01*
X610567Y745629D01*
X610546Y745532D01*
X610521Y745436D01*
X610492Y745340D01*
X610459Y745246D01*
X610423Y745153D01*
X610383Y745062D01*
X610339Y744972D01*
X610292Y744884D01*
X610242Y744798D01*
X610188Y744714D01*
X610131Y744632D01*
X610071Y744553D01*
X610007Y744475D01*
X609941Y744401D01*
X609872Y744329D01*
X609800Y744260D01*
X609726Y744194D01*
X609648Y744130D01*
X609569Y744070D01*
X609487Y744013D01*
X609403Y743959D01*
X609317Y743909D01*
X609229Y743862D01*
X609139Y743818D01*
X609048Y743778D01*
X608955Y743742D01*
X608861Y743709D01*
X608765Y743680D01*
X608669Y743655D01*
X608572Y743634D01*
X608473Y743616D01*
X608375Y743603D01*
X608275Y743593D01*
X608176Y743587D01*
X608076Y743585D01*
X607935Y743587D01*
X607794Y743592D01*
X607653Y743602D01*
X607512Y743615D01*
X607372Y743631D01*
X607232Y743652D01*
X607093Y743676D01*
X606954Y743704D01*
X606817Y743735D01*
X606680Y743770D01*
X606544Y743808D01*
X606409Y743850D01*
X606276Y743896D01*
X606143Y743945D01*
X606012Y743998D01*
X605883Y744054D01*
X605754Y744113D01*
X605628Y744176D01*
X605503Y744242D01*
X605380Y744311D01*
X605259Y744384D01*
X605140Y744460D01*
X605022Y744539D01*
X604907Y744620D01*
X604795Y744705D01*
X604684Y744793D01*
X604576Y744884D01*
X604470Y744977D01*
X604367Y745074D01*
X604266Y745173D01*
X604584Y752475D02*
X604586Y752575D01*
X604592Y752674D01*
X604602Y752774D01*
X604615Y752872D01*
X604633Y752971D01*
X604654Y753068D01*
X604679Y753164D01*
X604708Y753260D01*
X604741Y753354D01*
X604777Y753447D01*
X604817Y753538D01*
X604861Y753628D01*
X604908Y753716D01*
X604958Y753802D01*
X605012Y753886D01*
X605069Y753968D01*
X605129Y754047D01*
X605193Y754125D01*
X605259Y754199D01*
X605328Y754271D01*
X605400Y754340D01*
X605474Y754406D01*
X605552Y754470D01*
X605631Y754530D01*
X605713Y754587D01*
X605797Y754641D01*
X605883Y754691D01*
X605971Y754738D01*
X606061Y754782D01*
X606152Y754822D01*
X606245Y754858D01*
X606339Y754891D01*
X606435Y754920D01*
X606531Y754945D01*
X606628Y754966D01*
X606727Y754984D01*
X606825Y754997D01*
X606925Y755007D01*
X607024Y755013D01*
X607124Y755015D01*
X607124Y755016D02*
X607257Y755014D01*
X607390Y755009D01*
X607523Y754999D01*
X607656Y754986D01*
X607788Y754969D01*
X607920Y754949D01*
X608051Y754925D01*
X608181Y754897D01*
X608311Y754866D01*
X608439Y754831D01*
X608567Y754792D01*
X608693Y754750D01*
X608818Y754704D01*
X608942Y754655D01*
X609065Y754603D01*
X609186Y754547D01*
X609305Y754487D01*
X609423Y754425D01*
X609538Y754359D01*
X609652Y754290D01*
X609764Y754217D01*
X609874Y754142D01*
X609982Y754063D01*
X605853Y750252D02*
X605769Y750304D01*
X605686Y750359D01*
X605606Y750418D01*
X605528Y750479D01*
X605453Y750543D01*
X605380Y750611D01*
X605309Y750681D01*
X605242Y750753D01*
X605177Y750828D01*
X605115Y750906D01*
X605056Y750986D01*
X605000Y751068D01*
X604948Y751152D01*
X604899Y751238D01*
X604853Y751326D01*
X604810Y751416D01*
X604771Y751507D01*
X604736Y751600D01*
X604704Y751694D01*
X604676Y751789D01*
X604651Y751885D01*
X604631Y751982D01*
X604613Y752080D01*
X604600Y752178D01*
X604591Y752277D01*
X604585Y752376D01*
X604583Y752475D01*
X609346Y748348D02*
X609430Y748296D01*
X609513Y748241D01*
X609593Y748182D01*
X609671Y748121D01*
X609746Y748057D01*
X609819Y747989D01*
X609890Y747919D01*
X609957Y747847D01*
X610022Y747772D01*
X610084Y747694D01*
X610143Y747614D01*
X610199Y747532D01*
X610251Y747448D01*
X610300Y747362D01*
X610346Y747274D01*
X610389Y747184D01*
X610428Y747093D01*
X610463Y747000D01*
X610495Y746906D01*
X610523Y746811D01*
X610548Y746715D01*
X610568Y746618D01*
X610586Y746520D01*
X610599Y746422D01*
X610608Y746323D01*
X610614Y746224D01*
X610616Y746125D01*
X609346Y748348D02*
X605854Y750253D01*
X618808Y755016D02*
X618912Y755014D01*
X619017Y755008D01*
X619121Y754999D01*
X619224Y754986D01*
X619327Y754968D01*
X619429Y754948D01*
X619531Y754923D01*
X619631Y754895D01*
X619731Y754863D01*
X619829Y754827D01*
X619926Y754788D01*
X620021Y754746D01*
X620115Y754700D01*
X620207Y754650D01*
X620297Y754598D01*
X620385Y754542D01*
X620471Y754482D01*
X620555Y754420D01*
X620636Y754355D01*
X620715Y754287D01*
X620792Y754215D01*
X620865Y754142D01*
X620937Y754065D01*
X621005Y753986D01*
X621070Y753905D01*
X621132Y753821D01*
X621192Y753735D01*
X621248Y753647D01*
X621300Y753557D01*
X621350Y753465D01*
X621396Y753371D01*
X621438Y753276D01*
X621477Y753179D01*
X621513Y753081D01*
X621545Y752981D01*
X621573Y752881D01*
X621598Y752779D01*
X621618Y752677D01*
X621636Y752574D01*
X621649Y752471D01*
X621658Y752367D01*
X621664Y752262D01*
X621666Y752158D01*
X618808Y755015D02*
X618690Y755013D01*
X618571Y755007D01*
X618453Y754998D01*
X618336Y754985D01*
X618219Y754967D01*
X618102Y754947D01*
X617986Y754922D01*
X617871Y754894D01*
X617758Y754861D01*
X617645Y754826D01*
X617533Y754786D01*
X617423Y754744D01*
X617314Y754697D01*
X617206Y754647D01*
X617101Y754594D01*
X616997Y754537D01*
X616895Y754477D01*
X616795Y754414D01*
X616697Y754347D01*
X616601Y754278D01*
X616508Y754205D01*
X616417Y754129D01*
X616328Y754051D01*
X616242Y753969D01*
X616159Y753885D01*
X616078Y753799D01*
X616001Y753709D01*
X615926Y753618D01*
X615854Y753524D01*
X615785Y753427D01*
X615720Y753329D01*
X615657Y753228D01*
X615598Y753125D01*
X615542Y753021D01*
X615490Y752915D01*
X615441Y752807D01*
X615396Y752698D01*
X615354Y752587D01*
X615316Y752475D01*
X620713Y749936D02*
X620789Y750011D01*
X620864Y750090D01*
X620935Y750171D01*
X621004Y750255D01*
X621069Y750341D01*
X621131Y750429D01*
X621191Y750519D01*
X621247Y750611D01*
X621300Y750706D01*
X621349Y750802D01*
X621395Y750900D01*
X621438Y750999D01*
X621477Y751100D01*
X621512Y751202D01*
X621544Y751305D01*
X621572Y751409D01*
X621597Y751514D01*
X621618Y751621D01*
X621635Y751727D01*
X621648Y751834D01*
X621657Y751942D01*
X621663Y752050D01*
X621665Y752158D01*
X620713Y749935D02*
X615315Y743585D01*
X621665Y743585D01*
D10*
X495300Y332740D02*
X495300Y328930D01*
X495300Y332740D02*
X499110Y332740D01*
X495300Y332740D02*
X495300Y336550D01*
X495300Y332740D02*
X491490Y332740D01*
X480060Y349250D02*
X480068Y349936D01*
X480094Y350621D01*
X480136Y351305D01*
X480195Y351989D01*
X480270Y352670D01*
X480362Y353350D01*
X480471Y354027D01*
X480597Y354701D01*
X480739Y355372D01*
X480897Y356039D01*
X481072Y356702D01*
X481263Y357361D01*
X481470Y358014D01*
X481693Y358663D01*
X481932Y359305D01*
X482187Y359942D01*
X482457Y360572D01*
X482743Y361196D01*
X483043Y361812D01*
X483359Y362421D01*
X483690Y363022D01*
X484035Y363614D01*
X484395Y364198D01*
X484769Y364773D01*
X485157Y365338D01*
X485558Y365894D01*
X485974Y366440D01*
X486402Y366975D01*
X486844Y367500D01*
X487298Y368013D01*
X487765Y368516D01*
X488243Y369007D01*
X488734Y369485D01*
X489237Y369952D01*
X489750Y370406D01*
X490275Y370848D01*
X490810Y371276D01*
X491356Y371692D01*
X491912Y372093D01*
X492477Y372481D01*
X493052Y372855D01*
X493636Y373215D01*
X494228Y373560D01*
X494829Y373891D01*
X495438Y374207D01*
X496054Y374507D01*
X496678Y374793D01*
X497308Y375063D01*
X497945Y375318D01*
X498587Y375557D01*
X499236Y375780D01*
X499889Y375987D01*
X500548Y376178D01*
X501211Y376353D01*
X501878Y376511D01*
X502549Y376653D01*
X503223Y376779D01*
X503900Y376888D01*
X504580Y376980D01*
X505261Y377055D01*
X505945Y377114D01*
X506629Y377156D01*
X507314Y377182D01*
X508000Y377190D01*
X508686Y377182D01*
X509371Y377156D01*
X510055Y377114D01*
X510739Y377055D01*
X511420Y376980D01*
X512100Y376888D01*
X512777Y376779D01*
X513451Y376653D01*
X514122Y376511D01*
X514789Y376353D01*
X515452Y376178D01*
X516111Y375987D01*
X516764Y375780D01*
X517413Y375557D01*
X518055Y375318D01*
X518692Y375063D01*
X519322Y374793D01*
X519946Y374507D01*
X520562Y374207D01*
X521171Y373891D01*
X521772Y373560D01*
X522364Y373215D01*
X522948Y372855D01*
X523523Y372481D01*
X524088Y372093D01*
X524644Y371692D01*
X525190Y371276D01*
X525725Y370848D01*
X526250Y370406D01*
X526763Y369952D01*
X527266Y369485D01*
X527757Y369007D01*
X528235Y368516D01*
X528702Y368013D01*
X529156Y367500D01*
X529598Y366975D01*
X530026Y366440D01*
X530442Y365894D01*
X530843Y365338D01*
X531231Y364773D01*
X531605Y364198D01*
X531965Y363614D01*
X532310Y363022D01*
X532641Y362421D01*
X532957Y361812D01*
X533257Y361196D01*
X533543Y360572D01*
X533813Y359942D01*
X534068Y359305D01*
X534307Y358663D01*
X534530Y358014D01*
X534737Y357361D01*
X534928Y356702D01*
X535103Y356039D01*
X535261Y355372D01*
X535403Y354701D01*
X535529Y354027D01*
X535638Y353350D01*
X535730Y352670D01*
X535805Y351989D01*
X535864Y351305D01*
X535906Y350621D01*
X535932Y349936D01*
X535940Y349250D01*
X535932Y348564D01*
X535906Y347879D01*
X535864Y347195D01*
X535805Y346511D01*
X535730Y345830D01*
X535638Y345150D01*
X535529Y344473D01*
X535403Y343799D01*
X535261Y343128D01*
X535103Y342461D01*
X534928Y341798D01*
X534737Y341139D01*
X534530Y340486D01*
X534307Y339837D01*
X534068Y339195D01*
X533813Y338558D01*
X533543Y337928D01*
X533257Y337304D01*
X532957Y336688D01*
X532641Y336079D01*
X532310Y335478D01*
X531965Y334886D01*
X531605Y334302D01*
X531231Y333727D01*
X530843Y333162D01*
X530442Y332606D01*
X530026Y332060D01*
X529598Y331525D01*
X529156Y331000D01*
X528702Y330487D01*
X528235Y329984D01*
X527757Y329493D01*
X527266Y329015D01*
X526763Y328548D01*
X526250Y328094D01*
X525725Y327652D01*
X525190Y327224D01*
X524644Y326808D01*
X524088Y326407D01*
X523523Y326019D01*
X522948Y325645D01*
X522364Y325285D01*
X521772Y324940D01*
X521171Y324609D01*
X520562Y324293D01*
X519946Y323993D01*
X519322Y323707D01*
X518692Y323437D01*
X518055Y323182D01*
X517413Y322943D01*
X516764Y322720D01*
X516111Y322513D01*
X515452Y322322D01*
X514789Y322147D01*
X514122Y321989D01*
X513451Y321847D01*
X512777Y321721D01*
X512100Y321612D01*
X511420Y321520D01*
X510739Y321445D01*
X510055Y321386D01*
X509371Y321344D01*
X508686Y321318D01*
X508000Y321310D01*
X507314Y321318D01*
X506629Y321344D01*
X505945Y321386D01*
X505261Y321445D01*
X504580Y321520D01*
X503900Y321612D01*
X503223Y321721D01*
X502549Y321847D01*
X501878Y321989D01*
X501211Y322147D01*
X500548Y322322D01*
X499889Y322513D01*
X499236Y322720D01*
X498587Y322943D01*
X497945Y323182D01*
X497308Y323437D01*
X496678Y323707D01*
X496054Y323993D01*
X495438Y324293D01*
X494829Y324609D01*
X494228Y324940D01*
X493636Y325285D01*
X493052Y325645D01*
X492477Y326019D01*
X491912Y326407D01*
X491356Y326808D01*
X490810Y327224D01*
X490275Y327652D01*
X489750Y328094D01*
X489237Y328548D01*
X488734Y329015D01*
X488243Y329493D01*
X487765Y329984D01*
X487298Y330487D01*
X486844Y331000D01*
X486402Y331525D01*
X485974Y332060D01*
X485558Y332606D01*
X485157Y333162D01*
X484769Y333727D01*
X484395Y334302D01*
X484035Y334886D01*
X483690Y335478D01*
X483359Y336079D01*
X483043Y336688D01*
X482743Y337304D01*
X482457Y337928D01*
X482187Y338558D01*
X481932Y339195D01*
X481693Y339837D01*
X481470Y340486D01*
X481263Y341139D01*
X481072Y341798D01*
X480897Y342461D01*
X480739Y343128D01*
X480597Y343799D01*
X480471Y344473D01*
X480362Y345150D01*
X480270Y345830D01*
X480195Y346511D01*
X480136Y347195D01*
X480094Y347879D01*
X480068Y348564D01*
X480060Y349250D01*
D13*
X473673Y374015D02*
X471133Y374015D01*
X471033Y374017D01*
X470934Y374023D01*
X470834Y374033D01*
X470736Y374046D01*
X470637Y374064D01*
X470540Y374085D01*
X470444Y374110D01*
X470348Y374139D01*
X470254Y374172D01*
X470161Y374208D01*
X470070Y374248D01*
X469980Y374292D01*
X469892Y374339D01*
X469806Y374389D01*
X469722Y374443D01*
X469640Y374500D01*
X469561Y374560D01*
X469483Y374624D01*
X469409Y374690D01*
X469337Y374759D01*
X469268Y374831D01*
X469202Y374905D01*
X469138Y374983D01*
X469078Y375062D01*
X469021Y375144D01*
X468967Y375228D01*
X468917Y375314D01*
X468870Y375402D01*
X468826Y375492D01*
X468786Y375583D01*
X468750Y375676D01*
X468717Y375770D01*
X468688Y375866D01*
X468663Y375962D01*
X468642Y376059D01*
X468624Y376158D01*
X468611Y376256D01*
X468601Y376356D01*
X468595Y376455D01*
X468593Y376555D01*
X468593Y382905D01*
X468595Y383005D01*
X468601Y383104D01*
X468611Y383204D01*
X468624Y383302D01*
X468642Y383401D01*
X468663Y383498D01*
X468688Y383594D01*
X468717Y383690D01*
X468750Y383784D01*
X468786Y383877D01*
X468826Y383968D01*
X468870Y384058D01*
X468917Y384146D01*
X468967Y384232D01*
X469021Y384316D01*
X469078Y384398D01*
X469138Y384477D01*
X469202Y384555D01*
X469268Y384629D01*
X469337Y384701D01*
X469409Y384770D01*
X469483Y384836D01*
X469561Y384900D01*
X469640Y384960D01*
X469722Y385017D01*
X469806Y385071D01*
X469892Y385121D01*
X469980Y385168D01*
X470070Y385212D01*
X470161Y385252D01*
X470254Y385288D01*
X470348Y385321D01*
X470444Y385350D01*
X470540Y385375D01*
X470637Y385396D01*
X470736Y385414D01*
X470834Y385427D01*
X470934Y385437D01*
X471033Y385443D01*
X471133Y385445D01*
X473673Y385445D01*
X478155Y374015D02*
X481330Y374015D01*
X481441Y374017D01*
X481551Y374023D01*
X481662Y374032D01*
X481772Y374046D01*
X481881Y374063D01*
X481990Y374084D01*
X482098Y374109D01*
X482205Y374138D01*
X482311Y374170D01*
X482416Y374206D01*
X482519Y374246D01*
X482621Y374289D01*
X482722Y374336D01*
X482821Y374387D01*
X482918Y374440D01*
X483012Y374497D01*
X483105Y374558D01*
X483196Y374621D01*
X483285Y374688D01*
X483371Y374758D01*
X483454Y374831D01*
X483536Y374906D01*
X483614Y374984D01*
X483689Y375066D01*
X483762Y375149D01*
X483832Y375235D01*
X483899Y375324D01*
X483962Y375415D01*
X484023Y375508D01*
X484080Y375602D01*
X484133Y375699D01*
X484184Y375798D01*
X484231Y375899D01*
X484274Y376001D01*
X484314Y376104D01*
X484350Y376209D01*
X484382Y376315D01*
X484411Y376422D01*
X484436Y376530D01*
X484457Y376639D01*
X484474Y376748D01*
X484488Y376858D01*
X484497Y376969D01*
X484503Y377079D01*
X484505Y377190D01*
X484503Y377301D01*
X484497Y377411D01*
X484488Y377522D01*
X484474Y377632D01*
X484457Y377741D01*
X484436Y377850D01*
X484411Y377958D01*
X484382Y378065D01*
X484350Y378171D01*
X484314Y378276D01*
X484274Y378379D01*
X484231Y378481D01*
X484184Y378582D01*
X484133Y378681D01*
X484080Y378777D01*
X484023Y378872D01*
X483962Y378965D01*
X483899Y379056D01*
X483832Y379145D01*
X483762Y379231D01*
X483689Y379314D01*
X483614Y379396D01*
X483536Y379474D01*
X483454Y379549D01*
X483371Y379622D01*
X483285Y379692D01*
X483196Y379759D01*
X483105Y379822D01*
X483012Y379883D01*
X482918Y379940D01*
X482821Y379993D01*
X482722Y380044D01*
X482621Y380091D01*
X482519Y380134D01*
X482416Y380174D01*
X482311Y380210D01*
X482205Y380242D01*
X482098Y380271D01*
X481990Y380296D01*
X481881Y380317D01*
X481772Y380334D01*
X481662Y380348D01*
X481551Y380357D01*
X481441Y380363D01*
X481330Y380365D01*
X481965Y385445D02*
X478155Y385445D01*
X481965Y385445D02*
X482065Y385443D01*
X482164Y385437D01*
X482264Y385427D01*
X482362Y385414D01*
X482461Y385396D01*
X482558Y385375D01*
X482654Y385350D01*
X482750Y385321D01*
X482844Y385288D01*
X482937Y385252D01*
X483028Y385212D01*
X483118Y385168D01*
X483206Y385121D01*
X483292Y385071D01*
X483376Y385017D01*
X483458Y384960D01*
X483537Y384900D01*
X483615Y384836D01*
X483689Y384770D01*
X483761Y384701D01*
X483830Y384629D01*
X483896Y384555D01*
X483960Y384477D01*
X484020Y384398D01*
X484077Y384316D01*
X484131Y384232D01*
X484181Y384146D01*
X484228Y384058D01*
X484272Y383968D01*
X484312Y383877D01*
X484348Y383784D01*
X484381Y383690D01*
X484410Y383594D01*
X484435Y383498D01*
X484456Y383401D01*
X484474Y383302D01*
X484487Y383204D01*
X484497Y383104D01*
X484503Y383005D01*
X484505Y382905D01*
X484503Y382805D01*
X484497Y382706D01*
X484487Y382606D01*
X484474Y382508D01*
X484456Y382409D01*
X484435Y382312D01*
X484410Y382216D01*
X484381Y382120D01*
X484348Y382026D01*
X484312Y381933D01*
X484272Y381842D01*
X484228Y381752D01*
X484181Y381664D01*
X484131Y381578D01*
X484077Y381494D01*
X484020Y381412D01*
X483960Y381333D01*
X483896Y381255D01*
X483830Y381181D01*
X483761Y381109D01*
X483689Y381040D01*
X483615Y380974D01*
X483537Y380910D01*
X483458Y380850D01*
X483376Y380793D01*
X483292Y380739D01*
X483206Y380689D01*
X483118Y380642D01*
X483028Y380598D01*
X482937Y380558D01*
X482844Y380522D01*
X482750Y380489D01*
X482654Y380460D01*
X482558Y380435D01*
X482461Y380414D01*
X482362Y380396D01*
X482264Y380383D01*
X482164Y380373D01*
X482065Y380367D01*
X481965Y380365D01*
X479425Y380365D01*
D10*
X344170Y768350D02*
X340360Y768350D01*
X340360Y772160D01*
X340360Y768350D02*
X336550Y768350D01*
X340360Y768350D02*
X340360Y764540D01*
X295910Y781050D02*
X295918Y781736D01*
X295944Y782421D01*
X295986Y783105D01*
X296045Y783789D01*
X296120Y784470D01*
X296212Y785150D01*
X296321Y785827D01*
X296447Y786501D01*
X296589Y787172D01*
X296747Y787839D01*
X296922Y788502D01*
X297113Y789161D01*
X297320Y789814D01*
X297543Y790463D01*
X297782Y791105D01*
X298037Y791742D01*
X298307Y792372D01*
X298593Y792996D01*
X298893Y793612D01*
X299209Y794221D01*
X299540Y794822D01*
X299885Y795414D01*
X300245Y795998D01*
X300619Y796573D01*
X301007Y797138D01*
X301408Y797694D01*
X301824Y798240D01*
X302252Y798775D01*
X302694Y799300D01*
X303148Y799813D01*
X303615Y800316D01*
X304093Y800807D01*
X304584Y801285D01*
X305087Y801752D01*
X305600Y802206D01*
X306125Y802648D01*
X306660Y803076D01*
X307206Y803492D01*
X307762Y803893D01*
X308327Y804281D01*
X308902Y804655D01*
X309486Y805015D01*
X310078Y805360D01*
X310679Y805691D01*
X311288Y806007D01*
X311904Y806307D01*
X312528Y806593D01*
X313158Y806863D01*
X313795Y807118D01*
X314437Y807357D01*
X315086Y807580D01*
X315739Y807787D01*
X316398Y807978D01*
X317061Y808153D01*
X317728Y808311D01*
X318399Y808453D01*
X319073Y808579D01*
X319750Y808688D01*
X320430Y808780D01*
X321111Y808855D01*
X321795Y808914D01*
X322479Y808956D01*
X323164Y808982D01*
X323850Y808990D01*
X324536Y808982D01*
X325221Y808956D01*
X325905Y808914D01*
X326589Y808855D01*
X327270Y808780D01*
X327950Y808688D01*
X328627Y808579D01*
X329301Y808453D01*
X329972Y808311D01*
X330639Y808153D01*
X331302Y807978D01*
X331961Y807787D01*
X332614Y807580D01*
X333263Y807357D01*
X333905Y807118D01*
X334542Y806863D01*
X335172Y806593D01*
X335796Y806307D01*
X336412Y806007D01*
X337021Y805691D01*
X337622Y805360D01*
X338214Y805015D01*
X338798Y804655D01*
X339373Y804281D01*
X339938Y803893D01*
X340494Y803492D01*
X341040Y803076D01*
X341575Y802648D01*
X342100Y802206D01*
X342613Y801752D01*
X343116Y801285D01*
X343607Y800807D01*
X344085Y800316D01*
X344552Y799813D01*
X345006Y799300D01*
X345448Y798775D01*
X345876Y798240D01*
X346292Y797694D01*
X346693Y797138D01*
X347081Y796573D01*
X347455Y795998D01*
X347815Y795414D01*
X348160Y794822D01*
X348491Y794221D01*
X348807Y793612D01*
X349107Y792996D01*
X349393Y792372D01*
X349663Y791742D01*
X349918Y791105D01*
X350157Y790463D01*
X350380Y789814D01*
X350587Y789161D01*
X350778Y788502D01*
X350953Y787839D01*
X351111Y787172D01*
X351253Y786501D01*
X351379Y785827D01*
X351488Y785150D01*
X351580Y784470D01*
X351655Y783789D01*
X351714Y783105D01*
X351756Y782421D01*
X351782Y781736D01*
X351790Y781050D01*
X351782Y780364D01*
X351756Y779679D01*
X351714Y778995D01*
X351655Y778311D01*
X351580Y777630D01*
X351488Y776950D01*
X351379Y776273D01*
X351253Y775599D01*
X351111Y774928D01*
X350953Y774261D01*
X350778Y773598D01*
X350587Y772939D01*
X350380Y772286D01*
X350157Y771637D01*
X349918Y770995D01*
X349663Y770358D01*
X349393Y769728D01*
X349107Y769104D01*
X348807Y768488D01*
X348491Y767879D01*
X348160Y767278D01*
X347815Y766686D01*
X347455Y766102D01*
X347081Y765527D01*
X346693Y764962D01*
X346292Y764406D01*
X345876Y763860D01*
X345448Y763325D01*
X345006Y762800D01*
X344552Y762287D01*
X344085Y761784D01*
X343607Y761293D01*
X343116Y760815D01*
X342613Y760348D01*
X342100Y759894D01*
X341575Y759452D01*
X341040Y759024D01*
X340494Y758608D01*
X339938Y758207D01*
X339373Y757819D01*
X338798Y757445D01*
X338214Y757085D01*
X337622Y756740D01*
X337021Y756409D01*
X336412Y756093D01*
X335796Y755793D01*
X335172Y755507D01*
X334542Y755237D01*
X333905Y754982D01*
X333263Y754743D01*
X332614Y754520D01*
X331961Y754313D01*
X331302Y754122D01*
X330639Y753947D01*
X329972Y753789D01*
X329301Y753647D01*
X328627Y753521D01*
X327950Y753412D01*
X327270Y753320D01*
X326589Y753245D01*
X325905Y753186D01*
X325221Y753144D01*
X324536Y753118D01*
X323850Y753110D01*
X323164Y753118D01*
X322479Y753144D01*
X321795Y753186D01*
X321111Y753245D01*
X320430Y753320D01*
X319750Y753412D01*
X319073Y753521D01*
X318399Y753647D01*
X317728Y753789D01*
X317061Y753947D01*
X316398Y754122D01*
X315739Y754313D01*
X315086Y754520D01*
X314437Y754743D01*
X313795Y754982D01*
X313158Y755237D01*
X312528Y755507D01*
X311904Y755793D01*
X311288Y756093D01*
X310679Y756409D01*
X310078Y756740D01*
X309486Y757085D01*
X308902Y757445D01*
X308327Y757819D01*
X307762Y758207D01*
X307206Y758608D01*
X306660Y759024D01*
X306125Y759452D01*
X305600Y759894D01*
X305087Y760348D01*
X304584Y760815D01*
X304093Y761293D01*
X303615Y761784D01*
X303148Y762287D01*
X302694Y762800D01*
X302252Y763325D01*
X301824Y763860D01*
X301408Y764406D01*
X301007Y764962D01*
X300619Y765527D01*
X300245Y766102D01*
X299885Y766686D01*
X299540Y767278D01*
X299209Y767879D01*
X298893Y768488D01*
X298593Y769104D01*
X298307Y769728D01*
X298037Y770358D01*
X297782Y770995D01*
X297543Y771637D01*
X297320Y772286D01*
X297113Y772939D01*
X296922Y773598D01*
X296747Y774261D01*
X296589Y774928D01*
X296447Y775599D01*
X296321Y776273D01*
X296212Y776950D01*
X296120Y777630D01*
X296045Y778311D01*
X295986Y778995D01*
X295944Y779679D01*
X295918Y780364D01*
X295910Y781050D01*
D13*
X359373Y804545D02*
X361913Y804545D01*
X359373Y804545D02*
X359273Y804547D01*
X359174Y804553D01*
X359074Y804563D01*
X358976Y804576D01*
X358877Y804594D01*
X358780Y804615D01*
X358684Y804640D01*
X358588Y804669D01*
X358494Y804702D01*
X358401Y804738D01*
X358310Y804778D01*
X358220Y804822D01*
X358132Y804869D01*
X358046Y804919D01*
X357962Y804973D01*
X357880Y805030D01*
X357801Y805090D01*
X357723Y805154D01*
X357649Y805220D01*
X357577Y805289D01*
X357508Y805361D01*
X357442Y805435D01*
X357378Y805513D01*
X357318Y805592D01*
X357261Y805674D01*
X357207Y805758D01*
X357157Y805844D01*
X357110Y805932D01*
X357066Y806022D01*
X357026Y806113D01*
X356990Y806206D01*
X356957Y806300D01*
X356928Y806396D01*
X356903Y806492D01*
X356882Y806589D01*
X356864Y806688D01*
X356851Y806786D01*
X356841Y806886D01*
X356835Y806985D01*
X356833Y807085D01*
X356833Y813435D01*
X356835Y813535D01*
X356841Y813634D01*
X356851Y813734D01*
X356864Y813832D01*
X356882Y813931D01*
X356903Y814028D01*
X356928Y814124D01*
X356957Y814220D01*
X356990Y814314D01*
X357026Y814407D01*
X357066Y814498D01*
X357110Y814588D01*
X357157Y814676D01*
X357207Y814762D01*
X357261Y814846D01*
X357318Y814928D01*
X357378Y815007D01*
X357442Y815085D01*
X357508Y815159D01*
X357577Y815231D01*
X357649Y815300D01*
X357723Y815366D01*
X357801Y815430D01*
X357880Y815490D01*
X357962Y815547D01*
X358046Y815601D01*
X358132Y815651D01*
X358220Y815698D01*
X358310Y815742D01*
X358401Y815782D01*
X358494Y815818D01*
X358588Y815851D01*
X358684Y815880D01*
X358780Y815905D01*
X358877Y815926D01*
X358976Y815944D01*
X359074Y815957D01*
X359174Y815967D01*
X359273Y815973D01*
X359373Y815975D01*
X361913Y815975D01*
X368935Y815975D02*
X366395Y807085D01*
X372745Y807085D01*
X370840Y809625D02*
X370840Y804545D01*
D10*
X582930Y279400D02*
X623570Y279400D01*
X582930Y279400D02*
X582930Y254000D01*
X623570Y254000D01*
X623570Y279400D01*
X609600Y266700D02*
X603250Y266700D01*
X593090Y260350D02*
X593090Y273050D01*
X603250Y266700D01*
X588010Y266700D01*
X593090Y260350D02*
X603250Y266700D01*
X603250Y260350D01*
X603250Y266700D02*
X603250Y273050D01*
D14*
X617220Y266700D03*
D15*
X573405Y266700D03*
X633095Y266700D03*
D13*
X636524Y282575D02*
X636524Y294005D01*
X639699Y294005D01*
X639810Y294003D01*
X639920Y293997D01*
X640031Y293988D01*
X640141Y293974D01*
X640250Y293957D01*
X640359Y293936D01*
X640467Y293911D01*
X640574Y293882D01*
X640680Y293850D01*
X640785Y293814D01*
X640888Y293774D01*
X640990Y293731D01*
X641091Y293684D01*
X641190Y293633D01*
X641287Y293580D01*
X641381Y293523D01*
X641474Y293462D01*
X641565Y293399D01*
X641654Y293332D01*
X641740Y293262D01*
X641823Y293189D01*
X641905Y293114D01*
X641983Y293036D01*
X642058Y292954D01*
X642131Y292871D01*
X642201Y292785D01*
X642268Y292696D01*
X642331Y292605D01*
X642392Y292512D01*
X642449Y292418D01*
X642502Y292321D01*
X642553Y292222D01*
X642600Y292121D01*
X642643Y292019D01*
X642683Y291916D01*
X642719Y291811D01*
X642751Y291705D01*
X642780Y291598D01*
X642805Y291490D01*
X642826Y291381D01*
X642843Y291272D01*
X642857Y291162D01*
X642866Y291051D01*
X642872Y290941D01*
X642874Y290830D01*
X642874Y285750D01*
X642872Y285639D01*
X642866Y285529D01*
X642857Y285418D01*
X642843Y285308D01*
X642826Y285199D01*
X642805Y285090D01*
X642780Y284982D01*
X642751Y284875D01*
X642719Y284769D01*
X642683Y284664D01*
X642643Y284561D01*
X642600Y284459D01*
X642553Y284358D01*
X642502Y284259D01*
X642449Y284162D01*
X642392Y284068D01*
X642331Y283975D01*
X642268Y283884D01*
X642201Y283795D01*
X642131Y283709D01*
X642058Y283626D01*
X641983Y283544D01*
X641905Y283466D01*
X641823Y283391D01*
X641740Y283318D01*
X641654Y283248D01*
X641565Y283181D01*
X641474Y283118D01*
X641381Y283057D01*
X641287Y283000D01*
X641190Y282947D01*
X641091Y282896D01*
X640990Y282849D01*
X640888Y282806D01*
X640785Y282766D01*
X640680Y282730D01*
X640574Y282698D01*
X640467Y282669D01*
X640359Y282644D01*
X640250Y282623D01*
X640141Y282606D01*
X640031Y282592D01*
X639920Y282583D01*
X639810Y282577D01*
X639699Y282575D01*
X636524Y282575D01*
X648335Y291465D02*
X651510Y294005D01*
X651510Y282575D01*
X648335Y282575D02*
X654685Y282575D01*
D10*
X457200Y300990D02*
X203200Y300990D01*
X203200Y359410D02*
X457200Y359410D01*
X203200Y359410D02*
X203200Y300990D01*
X457200Y300990D02*
X457200Y320040D01*
X457200Y340360D02*
X457200Y359410D01*
X457200Y340360D02*
X456953Y340357D01*
X456705Y340348D01*
X456458Y340333D01*
X456212Y340312D01*
X455966Y340285D01*
X455721Y340252D01*
X455476Y340213D01*
X455233Y340168D01*
X454991Y340117D01*
X454750Y340060D01*
X454511Y339998D01*
X454273Y339929D01*
X454037Y339855D01*
X453803Y339775D01*
X453571Y339690D01*
X453341Y339598D01*
X453113Y339502D01*
X452888Y339399D01*
X452665Y339292D01*
X452445Y339178D01*
X452228Y339060D01*
X452013Y338936D01*
X451802Y338807D01*
X451594Y338673D01*
X451389Y338534D01*
X451188Y338390D01*
X450990Y338242D01*
X450796Y338088D01*
X450606Y337930D01*
X450420Y337767D01*
X450238Y337600D01*
X450060Y337428D01*
X449886Y337252D01*
X449716Y337072D01*
X449551Y336887D01*
X449391Y336699D01*
X449235Y336507D01*
X449083Y336311D01*
X448937Y336112D01*
X448795Y335909D01*
X448659Y335702D01*
X448527Y335493D01*
X448401Y335280D01*
X448280Y335064D01*
X448164Y334846D01*
X448054Y334624D01*
X447949Y334400D01*
X447849Y334174D01*
X447755Y333945D01*
X447667Y333714D01*
X447584Y333480D01*
X447507Y333245D01*
X447436Y333008D01*
X447370Y332770D01*
X447311Y332530D01*
X447257Y332288D01*
X447209Y332045D01*
X447167Y331802D01*
X447131Y331557D01*
X447101Y331311D01*
X447077Y331065D01*
X447059Y330818D01*
X447047Y330571D01*
X447041Y330324D01*
X447041Y330076D01*
X447047Y329829D01*
X447059Y329582D01*
X447077Y329335D01*
X447101Y329089D01*
X447131Y328843D01*
X447167Y328598D01*
X447209Y328355D01*
X447257Y328112D01*
X447311Y327870D01*
X447370Y327630D01*
X447436Y327392D01*
X447507Y327155D01*
X447584Y326920D01*
X447667Y326686D01*
X447755Y326455D01*
X447849Y326226D01*
X447949Y326000D01*
X448054Y325776D01*
X448164Y325554D01*
X448280Y325336D01*
X448401Y325120D01*
X448527Y324907D01*
X448659Y324698D01*
X448795Y324491D01*
X448937Y324288D01*
X449083Y324089D01*
X449235Y323893D01*
X449391Y323701D01*
X449551Y323513D01*
X449716Y323328D01*
X449886Y323148D01*
X450060Y322972D01*
X450238Y322800D01*
X450420Y322633D01*
X450606Y322470D01*
X450796Y322312D01*
X450990Y322158D01*
X451188Y322010D01*
X451389Y321866D01*
X451594Y321727D01*
X451802Y321593D01*
X452013Y321464D01*
X452228Y321340D01*
X452445Y321222D01*
X452665Y321108D01*
X452888Y321001D01*
X453113Y320898D01*
X453341Y320802D01*
X453571Y320710D01*
X453803Y320625D01*
X454037Y320545D01*
X454273Y320471D01*
X454511Y320402D01*
X454750Y320340D01*
X454991Y320283D01*
X455233Y320232D01*
X455476Y320187D01*
X455721Y320148D01*
X455966Y320115D01*
X456212Y320088D01*
X456458Y320067D01*
X456705Y320052D01*
X456953Y320043D01*
X457200Y320040D01*
D16*
X179578Y344114D02*
X179578Y352552D01*
X179578Y344114D02*
X179580Y344001D01*
X179586Y343888D01*
X179596Y343775D01*
X179610Y343662D01*
X179627Y343550D01*
X179649Y343439D01*
X179674Y343329D01*
X179704Y343219D01*
X179737Y343111D01*
X179774Y343004D01*
X179814Y342898D01*
X179859Y342794D01*
X179907Y342691D01*
X179958Y342590D01*
X180013Y342491D01*
X180071Y342394D01*
X180133Y342299D01*
X180198Y342206D01*
X180266Y342116D01*
X180337Y342028D01*
X180412Y341942D01*
X180489Y341859D01*
X180569Y341779D01*
X180652Y341702D01*
X180738Y341627D01*
X180826Y341556D01*
X180916Y341488D01*
X181009Y341423D01*
X181104Y341361D01*
X181201Y341303D01*
X181300Y341248D01*
X181401Y341197D01*
X181504Y341149D01*
X181608Y341104D01*
X181714Y341064D01*
X181821Y341027D01*
X181929Y340994D01*
X182039Y340964D01*
X182149Y340939D01*
X182260Y340917D01*
X182372Y340900D01*
X182485Y340886D01*
X182598Y340876D01*
X182711Y340870D01*
X182824Y340868D01*
X182937Y340870D01*
X183050Y340876D01*
X183163Y340886D01*
X183276Y340900D01*
X183388Y340917D01*
X183499Y340939D01*
X183609Y340964D01*
X183719Y340994D01*
X183827Y341027D01*
X183934Y341064D01*
X184040Y341104D01*
X184144Y341149D01*
X184247Y341197D01*
X184348Y341248D01*
X184447Y341303D01*
X184544Y341361D01*
X184639Y341423D01*
X184732Y341488D01*
X184822Y341556D01*
X184910Y341627D01*
X184996Y341702D01*
X185079Y341779D01*
X185159Y341859D01*
X185236Y341942D01*
X185311Y342028D01*
X185382Y342116D01*
X185450Y342206D01*
X185515Y342299D01*
X185577Y342394D01*
X185635Y342491D01*
X185690Y342590D01*
X185741Y342691D01*
X185789Y342794D01*
X185834Y342898D01*
X185874Y343004D01*
X185911Y343111D01*
X185944Y343219D01*
X185974Y343329D01*
X185999Y343439D01*
X186021Y343550D01*
X186038Y343662D01*
X186052Y343775D01*
X186062Y343888D01*
X186068Y344001D01*
X186070Y344114D01*
X186069Y344114D02*
X186069Y352552D01*
X194959Y352552D02*
X195066Y352550D01*
X195172Y352544D01*
X195278Y352534D01*
X195384Y352521D01*
X195490Y352503D01*
X195594Y352482D01*
X195698Y352457D01*
X195801Y352428D01*
X195902Y352396D01*
X196002Y352359D01*
X196101Y352319D01*
X196199Y352276D01*
X196295Y352229D01*
X196389Y352178D01*
X196481Y352124D01*
X196571Y352067D01*
X196659Y352007D01*
X196744Y351943D01*
X196827Y351876D01*
X196908Y351806D01*
X196986Y351734D01*
X197062Y351658D01*
X197134Y351580D01*
X197204Y351499D01*
X197271Y351416D01*
X197335Y351331D01*
X197395Y351243D01*
X197452Y351153D01*
X197506Y351061D01*
X197557Y350967D01*
X197604Y350871D01*
X197647Y350773D01*
X197687Y350674D01*
X197724Y350574D01*
X197756Y350473D01*
X197785Y350370D01*
X197810Y350266D01*
X197831Y350162D01*
X197849Y350056D01*
X197862Y349950D01*
X197872Y349844D01*
X197878Y349738D01*
X197880Y349631D01*
X194959Y352552D02*
X194838Y352550D01*
X194717Y352544D01*
X194597Y352534D01*
X194476Y352521D01*
X194357Y352503D01*
X194237Y352482D01*
X194119Y352457D01*
X194002Y352428D01*
X193885Y352395D01*
X193770Y352359D01*
X193656Y352318D01*
X193543Y352275D01*
X193431Y352227D01*
X193322Y352176D01*
X193214Y352121D01*
X193107Y352063D01*
X193003Y352002D01*
X192901Y351937D01*
X192801Y351869D01*
X192703Y351798D01*
X192607Y351724D01*
X192514Y351647D01*
X192424Y351566D01*
X192336Y351483D01*
X192251Y351397D01*
X192168Y351308D01*
X192089Y351217D01*
X192012Y351123D01*
X191939Y351027D01*
X191869Y350929D01*
X191802Y350828D01*
X191738Y350725D01*
X191678Y350620D01*
X191621Y350513D01*
X191567Y350405D01*
X191517Y350295D01*
X191471Y350183D01*
X191428Y350070D01*
X191389Y349955D01*
X196907Y347359D02*
X196986Y347436D01*
X197062Y347517D01*
X197135Y347600D01*
X197205Y347685D01*
X197272Y347773D01*
X197336Y347863D01*
X197396Y347955D01*
X197453Y348050D01*
X197507Y348146D01*
X197558Y348244D01*
X197605Y348344D01*
X197649Y348446D01*
X197689Y348549D01*
X197725Y348653D01*
X197757Y348759D01*
X197786Y348865D01*
X197811Y348973D01*
X197833Y349081D01*
X197850Y349191D01*
X197864Y349300D01*
X197873Y349410D01*
X197879Y349521D01*
X197881Y349631D01*
X196906Y347359D02*
X191389Y340868D01*
X197880Y340868D01*
D10*
X38100Y598170D02*
X2540Y598170D01*
X2540Y609600D01*
X2540Y671830D02*
X38100Y671830D01*
X5080Y669290D02*
X5080Y641350D01*
X2540Y660400D02*
X0Y660400D01*
X0Y647700D01*
X0Y609600D02*
X2540Y609600D01*
X2540Y671830D01*
X0Y647700D02*
X-3810Y647700D01*
X0Y647700D02*
X0Y622300D01*
X-3810Y622300D02*
X-3810Y647700D01*
X-3810Y622300D02*
X0Y622300D01*
X0Y609600D01*
X5080Y641350D02*
X15240Y641350D01*
X5080Y641350D02*
X5080Y628650D01*
X15240Y628650D02*
X15240Y641350D01*
X15240Y628650D02*
X5080Y628650D01*
X5080Y600710D01*
X38100Y661670D02*
X38100Y669290D01*
X38100Y661670D02*
X40640Y661670D01*
X40640Y654050D01*
X38100Y654050D01*
X38100Y642620D01*
X35560Y642620D01*
X35560Y627380D01*
X38100Y627380D01*
X38100Y617220D01*
X40640Y617220D01*
X40640Y608330D01*
X38100Y608330D01*
X38100Y600710D01*
X38100Y669290D02*
X33020Y669290D01*
X17780Y669290D02*
X5080Y669290D01*
X5080Y600710D02*
X17780Y600710D01*
X33020Y600710D02*
X38100Y600710D01*
D13*
X23495Y686435D02*
X23595Y686437D01*
X23694Y686443D01*
X23794Y686453D01*
X23892Y686466D01*
X23991Y686484D01*
X24088Y686505D01*
X24184Y686530D01*
X24280Y686559D01*
X24374Y686592D01*
X24467Y686628D01*
X24558Y686668D01*
X24648Y686712D01*
X24736Y686759D01*
X24822Y686809D01*
X24906Y686863D01*
X24988Y686920D01*
X25067Y686980D01*
X25145Y687044D01*
X25219Y687110D01*
X25291Y687179D01*
X25360Y687251D01*
X25426Y687325D01*
X25490Y687403D01*
X25550Y687482D01*
X25607Y687564D01*
X25661Y687648D01*
X25711Y687734D01*
X25758Y687822D01*
X25802Y687912D01*
X25842Y688003D01*
X25878Y688096D01*
X25911Y688190D01*
X25940Y688286D01*
X25965Y688382D01*
X25986Y688479D01*
X26004Y688578D01*
X26017Y688676D01*
X26027Y688776D01*
X26033Y688875D01*
X26035Y688975D01*
X23495Y686435D02*
X23354Y686437D01*
X23213Y686442D01*
X23072Y686452D01*
X22931Y686465D01*
X22791Y686481D01*
X22651Y686502D01*
X22512Y686526D01*
X22373Y686554D01*
X22236Y686585D01*
X22099Y686620D01*
X21963Y686658D01*
X21828Y686700D01*
X21695Y686746D01*
X21562Y686795D01*
X21431Y686848D01*
X21302Y686904D01*
X21173Y686963D01*
X21047Y687026D01*
X20922Y687092D01*
X20799Y687161D01*
X20678Y687234D01*
X20559Y687310D01*
X20441Y687389D01*
X20326Y687470D01*
X20214Y687555D01*
X20103Y687643D01*
X19995Y687734D01*
X19889Y687827D01*
X19786Y687924D01*
X19685Y688023D01*
X20003Y695325D02*
X20005Y695425D01*
X20011Y695524D01*
X20021Y695624D01*
X20034Y695722D01*
X20052Y695821D01*
X20073Y695918D01*
X20098Y696014D01*
X20127Y696110D01*
X20160Y696204D01*
X20196Y696297D01*
X20236Y696388D01*
X20280Y696478D01*
X20327Y696566D01*
X20377Y696652D01*
X20431Y696736D01*
X20488Y696818D01*
X20548Y696897D01*
X20612Y696975D01*
X20678Y697049D01*
X20747Y697121D01*
X20819Y697190D01*
X20893Y697256D01*
X20971Y697320D01*
X21050Y697380D01*
X21132Y697437D01*
X21216Y697491D01*
X21302Y697541D01*
X21390Y697588D01*
X21480Y697632D01*
X21571Y697672D01*
X21664Y697708D01*
X21758Y697741D01*
X21854Y697770D01*
X21950Y697795D01*
X22047Y697816D01*
X22146Y697834D01*
X22244Y697847D01*
X22344Y697857D01*
X22443Y697863D01*
X22543Y697865D01*
X22543Y697866D02*
X22676Y697864D01*
X22809Y697859D01*
X22942Y697849D01*
X23075Y697836D01*
X23207Y697819D01*
X23339Y697799D01*
X23470Y697775D01*
X23600Y697747D01*
X23730Y697716D01*
X23858Y697681D01*
X23986Y697642D01*
X24112Y697600D01*
X24237Y697554D01*
X24361Y697505D01*
X24484Y697453D01*
X24605Y697397D01*
X24724Y697337D01*
X24842Y697275D01*
X24957Y697209D01*
X25071Y697140D01*
X25183Y697067D01*
X25293Y696992D01*
X25401Y696913D01*
X21272Y693102D02*
X21188Y693154D01*
X21105Y693209D01*
X21025Y693268D01*
X20947Y693329D01*
X20872Y693393D01*
X20799Y693461D01*
X20728Y693531D01*
X20661Y693603D01*
X20596Y693678D01*
X20534Y693756D01*
X20475Y693836D01*
X20419Y693918D01*
X20367Y694002D01*
X20318Y694088D01*
X20272Y694176D01*
X20229Y694266D01*
X20190Y694357D01*
X20155Y694450D01*
X20123Y694544D01*
X20095Y694639D01*
X20070Y694735D01*
X20050Y694832D01*
X20032Y694930D01*
X20019Y695028D01*
X20010Y695127D01*
X20004Y695226D01*
X20002Y695325D01*
X24765Y691198D02*
X24849Y691146D01*
X24932Y691091D01*
X25012Y691032D01*
X25090Y690971D01*
X25165Y690907D01*
X25238Y690839D01*
X25309Y690769D01*
X25376Y690697D01*
X25441Y690622D01*
X25503Y690544D01*
X25562Y690464D01*
X25618Y690382D01*
X25670Y690298D01*
X25719Y690212D01*
X25765Y690124D01*
X25808Y690034D01*
X25847Y689943D01*
X25882Y689850D01*
X25914Y689756D01*
X25942Y689661D01*
X25967Y689565D01*
X25987Y689468D01*
X26005Y689370D01*
X26018Y689272D01*
X26027Y689173D01*
X26033Y689074D01*
X26035Y688975D01*
X24765Y691198D02*
X21273Y693103D01*
X30734Y695325D02*
X33909Y697865D01*
X33909Y686435D01*
X30734Y686435D02*
X37084Y686435D01*
D10*
X22860Y300990D02*
X66040Y300990D01*
X66040Y270510D02*
X22860Y270510D01*
X68580Y273050D02*
X68580Y298450D01*
X20320Y298450D02*
X20320Y273050D01*
X66040Y300990D02*
X66140Y300988D01*
X66239Y300982D01*
X66339Y300972D01*
X66437Y300959D01*
X66536Y300941D01*
X66633Y300920D01*
X66729Y300895D01*
X66825Y300866D01*
X66919Y300833D01*
X67012Y300797D01*
X67103Y300757D01*
X67193Y300713D01*
X67281Y300666D01*
X67367Y300616D01*
X67451Y300562D01*
X67533Y300505D01*
X67612Y300445D01*
X67690Y300381D01*
X67764Y300315D01*
X67836Y300246D01*
X67905Y300174D01*
X67971Y300100D01*
X68035Y300022D01*
X68095Y299943D01*
X68152Y299861D01*
X68206Y299777D01*
X68256Y299691D01*
X68303Y299603D01*
X68347Y299513D01*
X68387Y299422D01*
X68423Y299329D01*
X68456Y299235D01*
X68485Y299139D01*
X68510Y299043D01*
X68531Y298946D01*
X68549Y298847D01*
X68562Y298749D01*
X68572Y298649D01*
X68578Y298550D01*
X68580Y298450D01*
X22860Y300990D02*
X22760Y300988D01*
X22661Y300982D01*
X22561Y300972D01*
X22463Y300959D01*
X22364Y300941D01*
X22267Y300920D01*
X22171Y300895D01*
X22075Y300866D01*
X21981Y300833D01*
X21888Y300797D01*
X21797Y300757D01*
X21707Y300713D01*
X21619Y300666D01*
X21533Y300616D01*
X21449Y300562D01*
X21367Y300505D01*
X21288Y300445D01*
X21210Y300381D01*
X21136Y300315D01*
X21064Y300246D01*
X20995Y300174D01*
X20929Y300100D01*
X20865Y300022D01*
X20805Y299943D01*
X20748Y299861D01*
X20694Y299777D01*
X20644Y299691D01*
X20597Y299603D01*
X20553Y299513D01*
X20513Y299422D01*
X20477Y299329D01*
X20444Y299235D01*
X20415Y299139D01*
X20390Y299043D01*
X20369Y298946D01*
X20351Y298847D01*
X20338Y298749D01*
X20328Y298649D01*
X20322Y298550D01*
X20320Y298450D01*
X66040Y270510D02*
X66140Y270512D01*
X66239Y270518D01*
X66339Y270528D01*
X66437Y270541D01*
X66536Y270559D01*
X66633Y270580D01*
X66729Y270605D01*
X66825Y270634D01*
X66919Y270667D01*
X67012Y270703D01*
X67103Y270743D01*
X67193Y270787D01*
X67281Y270834D01*
X67367Y270884D01*
X67451Y270938D01*
X67533Y270995D01*
X67612Y271055D01*
X67690Y271119D01*
X67764Y271185D01*
X67836Y271254D01*
X67905Y271326D01*
X67971Y271400D01*
X68035Y271478D01*
X68095Y271557D01*
X68152Y271639D01*
X68206Y271723D01*
X68256Y271809D01*
X68303Y271897D01*
X68347Y271987D01*
X68387Y272078D01*
X68423Y272171D01*
X68456Y272265D01*
X68485Y272361D01*
X68510Y272457D01*
X68531Y272554D01*
X68549Y272653D01*
X68562Y272751D01*
X68572Y272851D01*
X68578Y272950D01*
X68580Y273050D01*
X22860Y270510D02*
X22760Y270512D01*
X22661Y270518D01*
X22561Y270528D01*
X22463Y270541D01*
X22364Y270559D01*
X22267Y270580D01*
X22171Y270605D01*
X22075Y270634D01*
X21981Y270667D01*
X21888Y270703D01*
X21797Y270743D01*
X21707Y270787D01*
X21619Y270834D01*
X21533Y270884D01*
X21449Y270938D01*
X21367Y270995D01*
X21288Y271055D01*
X21210Y271119D01*
X21136Y271185D01*
X21064Y271254D01*
X20995Y271326D01*
X20929Y271400D01*
X20865Y271478D01*
X20805Y271557D01*
X20748Y271639D01*
X20694Y271723D01*
X20644Y271809D01*
X20597Y271897D01*
X20553Y271987D01*
X20513Y272078D01*
X20477Y272171D01*
X20444Y272265D01*
X20415Y272361D01*
X20390Y272457D01*
X20369Y272554D01*
X20351Y272653D01*
X20338Y272751D01*
X20328Y272851D01*
X20322Y272950D01*
X20320Y273050D01*
X46990Y285750D02*
X48260Y285750D01*
D12*
X46990Y285750D02*
X46990Y293370D01*
X46990Y285750D02*
X46990Y278130D01*
X41910Y285750D02*
X41910Y293370D01*
X41910Y285750D02*
X41910Y278130D01*
D10*
X41910Y285750D02*
X40640Y285750D01*
D13*
X30443Y306705D02*
X27903Y306705D01*
X27803Y306707D01*
X27704Y306713D01*
X27604Y306723D01*
X27506Y306736D01*
X27407Y306754D01*
X27310Y306775D01*
X27214Y306800D01*
X27118Y306829D01*
X27024Y306862D01*
X26931Y306898D01*
X26840Y306938D01*
X26750Y306982D01*
X26662Y307029D01*
X26576Y307079D01*
X26492Y307133D01*
X26410Y307190D01*
X26331Y307250D01*
X26253Y307314D01*
X26179Y307380D01*
X26107Y307449D01*
X26038Y307521D01*
X25972Y307595D01*
X25908Y307673D01*
X25848Y307752D01*
X25791Y307834D01*
X25737Y307918D01*
X25687Y308004D01*
X25640Y308092D01*
X25596Y308182D01*
X25556Y308273D01*
X25520Y308366D01*
X25487Y308460D01*
X25458Y308556D01*
X25433Y308652D01*
X25412Y308749D01*
X25394Y308848D01*
X25381Y308946D01*
X25371Y309046D01*
X25365Y309145D01*
X25363Y309245D01*
X25363Y315595D01*
X25365Y315695D01*
X25371Y315794D01*
X25381Y315894D01*
X25394Y315992D01*
X25412Y316091D01*
X25433Y316188D01*
X25458Y316284D01*
X25487Y316380D01*
X25520Y316474D01*
X25556Y316567D01*
X25596Y316658D01*
X25640Y316748D01*
X25687Y316836D01*
X25737Y316922D01*
X25791Y317006D01*
X25848Y317088D01*
X25908Y317167D01*
X25972Y317245D01*
X26038Y317319D01*
X26107Y317391D01*
X26179Y317460D01*
X26253Y317526D01*
X26331Y317590D01*
X26410Y317650D01*
X26492Y317707D01*
X26576Y317761D01*
X26662Y317811D01*
X26750Y317858D01*
X26840Y317902D01*
X26931Y317942D01*
X27024Y317978D01*
X27118Y318011D01*
X27214Y318040D01*
X27310Y318065D01*
X27407Y318086D01*
X27506Y318104D01*
X27604Y318117D01*
X27704Y318127D01*
X27803Y318133D01*
X27903Y318135D01*
X30443Y318135D01*
X34925Y306705D02*
X38735Y306705D01*
X38835Y306707D01*
X38934Y306713D01*
X39034Y306723D01*
X39132Y306736D01*
X39231Y306754D01*
X39328Y306775D01*
X39424Y306800D01*
X39520Y306829D01*
X39614Y306862D01*
X39707Y306898D01*
X39798Y306938D01*
X39888Y306982D01*
X39976Y307029D01*
X40062Y307079D01*
X40146Y307133D01*
X40228Y307190D01*
X40307Y307250D01*
X40385Y307314D01*
X40459Y307380D01*
X40531Y307449D01*
X40600Y307521D01*
X40666Y307595D01*
X40730Y307673D01*
X40790Y307752D01*
X40847Y307834D01*
X40901Y307918D01*
X40951Y308004D01*
X40998Y308092D01*
X41042Y308182D01*
X41082Y308273D01*
X41118Y308366D01*
X41151Y308460D01*
X41180Y308556D01*
X41205Y308652D01*
X41226Y308749D01*
X41244Y308848D01*
X41257Y308946D01*
X41267Y309046D01*
X41273Y309145D01*
X41275Y309245D01*
X41275Y310515D01*
X41273Y310615D01*
X41267Y310714D01*
X41257Y310814D01*
X41244Y310912D01*
X41226Y311011D01*
X41205Y311108D01*
X41180Y311204D01*
X41151Y311300D01*
X41118Y311394D01*
X41082Y311487D01*
X41042Y311578D01*
X40998Y311668D01*
X40951Y311756D01*
X40901Y311842D01*
X40847Y311926D01*
X40790Y312008D01*
X40730Y312087D01*
X40666Y312165D01*
X40600Y312239D01*
X40531Y312311D01*
X40459Y312380D01*
X40385Y312446D01*
X40307Y312510D01*
X40228Y312570D01*
X40146Y312627D01*
X40062Y312681D01*
X39976Y312731D01*
X39888Y312778D01*
X39798Y312822D01*
X39707Y312862D01*
X39614Y312898D01*
X39520Y312931D01*
X39424Y312960D01*
X39328Y312985D01*
X39231Y313006D01*
X39132Y313024D01*
X39034Y313037D01*
X38934Y313047D01*
X38835Y313053D01*
X38735Y313055D01*
X34925Y313055D01*
X34925Y318135D01*
X41275Y318135D01*
D10*
X38100Y382270D02*
X2540Y382270D01*
X2540Y393700D01*
X2540Y455930D02*
X38100Y455930D01*
X5080Y453390D02*
X5080Y425450D01*
X2540Y444500D02*
X0Y444500D01*
X0Y431800D01*
X0Y393700D02*
X2540Y393700D01*
X2540Y455930D01*
X0Y431800D02*
X-3810Y431800D01*
X0Y431800D02*
X0Y406400D01*
X-3810Y406400D02*
X-3810Y431800D01*
X-3810Y406400D02*
X0Y406400D01*
X0Y393700D01*
X5080Y425450D02*
X15240Y425450D01*
X5080Y425450D02*
X5080Y412750D01*
X15240Y412750D02*
X15240Y425450D01*
X15240Y412750D02*
X5080Y412750D01*
X5080Y384810D01*
X38100Y445770D02*
X38100Y453390D01*
X38100Y445770D02*
X40640Y445770D01*
X40640Y438150D01*
X38100Y438150D01*
X38100Y426720D01*
X35560Y426720D01*
X35560Y411480D01*
X38100Y411480D01*
X38100Y401320D01*
X40640Y401320D01*
X40640Y392430D01*
X38100Y392430D01*
X38100Y384810D01*
X38100Y453390D02*
X33020Y453390D01*
X17780Y453390D02*
X5080Y453390D01*
X5080Y384810D02*
X17780Y384810D01*
X33020Y384810D02*
X38100Y384810D01*
D13*
X23495Y470535D02*
X23595Y470537D01*
X23694Y470543D01*
X23794Y470553D01*
X23892Y470566D01*
X23991Y470584D01*
X24088Y470605D01*
X24184Y470630D01*
X24280Y470659D01*
X24374Y470692D01*
X24467Y470728D01*
X24558Y470768D01*
X24648Y470812D01*
X24736Y470859D01*
X24822Y470909D01*
X24906Y470963D01*
X24988Y471020D01*
X25067Y471080D01*
X25145Y471144D01*
X25219Y471210D01*
X25291Y471279D01*
X25360Y471351D01*
X25426Y471425D01*
X25490Y471503D01*
X25550Y471582D01*
X25607Y471664D01*
X25661Y471748D01*
X25711Y471834D01*
X25758Y471922D01*
X25802Y472012D01*
X25842Y472103D01*
X25878Y472196D01*
X25911Y472290D01*
X25940Y472386D01*
X25965Y472482D01*
X25986Y472579D01*
X26004Y472678D01*
X26017Y472776D01*
X26027Y472876D01*
X26033Y472975D01*
X26035Y473075D01*
X23495Y470535D02*
X23354Y470537D01*
X23213Y470542D01*
X23072Y470552D01*
X22931Y470565D01*
X22791Y470581D01*
X22651Y470602D01*
X22512Y470626D01*
X22373Y470654D01*
X22236Y470685D01*
X22099Y470720D01*
X21963Y470758D01*
X21828Y470800D01*
X21695Y470846D01*
X21562Y470895D01*
X21431Y470948D01*
X21302Y471004D01*
X21173Y471063D01*
X21047Y471126D01*
X20922Y471192D01*
X20799Y471261D01*
X20678Y471334D01*
X20559Y471410D01*
X20441Y471489D01*
X20326Y471570D01*
X20214Y471655D01*
X20103Y471743D01*
X19995Y471834D01*
X19889Y471927D01*
X19786Y472024D01*
X19685Y472123D01*
X20003Y479425D02*
X20005Y479525D01*
X20011Y479624D01*
X20021Y479724D01*
X20034Y479822D01*
X20052Y479921D01*
X20073Y480018D01*
X20098Y480114D01*
X20127Y480210D01*
X20160Y480304D01*
X20196Y480397D01*
X20236Y480488D01*
X20280Y480578D01*
X20327Y480666D01*
X20377Y480752D01*
X20431Y480836D01*
X20488Y480918D01*
X20548Y480997D01*
X20612Y481075D01*
X20678Y481149D01*
X20747Y481221D01*
X20819Y481290D01*
X20893Y481356D01*
X20971Y481420D01*
X21050Y481480D01*
X21132Y481537D01*
X21216Y481591D01*
X21302Y481641D01*
X21390Y481688D01*
X21480Y481732D01*
X21571Y481772D01*
X21664Y481808D01*
X21758Y481841D01*
X21854Y481870D01*
X21950Y481895D01*
X22047Y481916D01*
X22146Y481934D01*
X22244Y481947D01*
X22344Y481957D01*
X22443Y481963D01*
X22543Y481965D01*
X22543Y481966D02*
X22676Y481964D01*
X22809Y481959D01*
X22942Y481949D01*
X23075Y481936D01*
X23207Y481919D01*
X23339Y481899D01*
X23470Y481875D01*
X23600Y481847D01*
X23730Y481816D01*
X23858Y481781D01*
X23986Y481742D01*
X24112Y481700D01*
X24237Y481654D01*
X24361Y481605D01*
X24484Y481553D01*
X24605Y481497D01*
X24724Y481437D01*
X24842Y481375D01*
X24957Y481309D01*
X25071Y481240D01*
X25183Y481167D01*
X25293Y481092D01*
X25401Y481013D01*
X21272Y477202D02*
X21188Y477254D01*
X21105Y477309D01*
X21025Y477368D01*
X20947Y477429D01*
X20872Y477493D01*
X20799Y477561D01*
X20728Y477631D01*
X20661Y477703D01*
X20596Y477778D01*
X20534Y477856D01*
X20475Y477936D01*
X20419Y478018D01*
X20367Y478102D01*
X20318Y478188D01*
X20272Y478276D01*
X20229Y478366D01*
X20190Y478457D01*
X20155Y478550D01*
X20123Y478644D01*
X20095Y478739D01*
X20070Y478835D01*
X20050Y478932D01*
X20032Y479030D01*
X20019Y479128D01*
X20010Y479227D01*
X20004Y479326D01*
X20002Y479425D01*
X24765Y475298D02*
X24849Y475246D01*
X24932Y475191D01*
X25012Y475132D01*
X25090Y475071D01*
X25165Y475007D01*
X25238Y474939D01*
X25309Y474869D01*
X25376Y474797D01*
X25441Y474722D01*
X25503Y474644D01*
X25562Y474564D01*
X25618Y474482D01*
X25670Y474398D01*
X25719Y474312D01*
X25765Y474224D01*
X25808Y474134D01*
X25847Y474043D01*
X25882Y473950D01*
X25914Y473856D01*
X25942Y473761D01*
X25967Y473665D01*
X25987Y473568D01*
X26005Y473470D01*
X26018Y473372D01*
X26027Y473273D01*
X26033Y473174D01*
X26035Y473075D01*
X24765Y475298D02*
X21273Y477203D01*
X30734Y470535D02*
X33909Y470535D01*
X34020Y470537D01*
X34130Y470543D01*
X34241Y470552D01*
X34351Y470566D01*
X34460Y470583D01*
X34569Y470604D01*
X34677Y470629D01*
X34784Y470658D01*
X34890Y470690D01*
X34995Y470726D01*
X35098Y470766D01*
X35200Y470809D01*
X35301Y470856D01*
X35400Y470907D01*
X35496Y470960D01*
X35591Y471017D01*
X35684Y471078D01*
X35775Y471141D01*
X35864Y471208D01*
X35950Y471278D01*
X36033Y471351D01*
X36115Y471426D01*
X36193Y471504D01*
X36268Y471586D01*
X36341Y471669D01*
X36411Y471755D01*
X36478Y471844D01*
X36541Y471935D01*
X36602Y472028D01*
X36659Y472122D01*
X36712Y472219D01*
X36763Y472318D01*
X36810Y472419D01*
X36853Y472521D01*
X36893Y472624D01*
X36929Y472729D01*
X36961Y472835D01*
X36990Y472942D01*
X37015Y473050D01*
X37036Y473159D01*
X37053Y473268D01*
X37067Y473378D01*
X37076Y473489D01*
X37082Y473599D01*
X37084Y473710D01*
X37082Y473821D01*
X37076Y473931D01*
X37067Y474042D01*
X37053Y474152D01*
X37036Y474261D01*
X37015Y474370D01*
X36990Y474478D01*
X36961Y474585D01*
X36929Y474691D01*
X36893Y474796D01*
X36853Y474899D01*
X36810Y475001D01*
X36763Y475102D01*
X36712Y475201D01*
X36659Y475297D01*
X36602Y475392D01*
X36541Y475485D01*
X36478Y475576D01*
X36411Y475665D01*
X36341Y475751D01*
X36268Y475834D01*
X36193Y475916D01*
X36115Y475994D01*
X36033Y476069D01*
X35950Y476142D01*
X35864Y476212D01*
X35775Y476279D01*
X35684Y476342D01*
X35591Y476403D01*
X35497Y476460D01*
X35400Y476513D01*
X35301Y476564D01*
X35200Y476611D01*
X35098Y476654D01*
X34995Y476694D01*
X34890Y476730D01*
X34784Y476762D01*
X34677Y476791D01*
X34569Y476816D01*
X34460Y476837D01*
X34351Y476854D01*
X34241Y476868D01*
X34130Y476877D01*
X34020Y476883D01*
X33909Y476885D01*
X34544Y481965D02*
X30734Y481965D01*
X34544Y481965D02*
X34644Y481963D01*
X34743Y481957D01*
X34843Y481947D01*
X34941Y481934D01*
X35040Y481916D01*
X35137Y481895D01*
X35233Y481870D01*
X35329Y481841D01*
X35423Y481808D01*
X35516Y481772D01*
X35607Y481732D01*
X35697Y481688D01*
X35785Y481641D01*
X35871Y481591D01*
X35955Y481537D01*
X36037Y481480D01*
X36116Y481420D01*
X36194Y481356D01*
X36268Y481290D01*
X36340Y481221D01*
X36409Y481149D01*
X36475Y481075D01*
X36539Y480997D01*
X36599Y480918D01*
X36656Y480836D01*
X36710Y480752D01*
X36760Y480666D01*
X36807Y480578D01*
X36851Y480488D01*
X36891Y480397D01*
X36927Y480304D01*
X36960Y480210D01*
X36989Y480114D01*
X37014Y480018D01*
X37035Y479921D01*
X37053Y479822D01*
X37066Y479724D01*
X37076Y479624D01*
X37082Y479525D01*
X37084Y479425D01*
X37082Y479325D01*
X37076Y479226D01*
X37066Y479126D01*
X37053Y479028D01*
X37035Y478929D01*
X37014Y478832D01*
X36989Y478736D01*
X36960Y478640D01*
X36927Y478546D01*
X36891Y478453D01*
X36851Y478362D01*
X36807Y478272D01*
X36760Y478184D01*
X36710Y478098D01*
X36656Y478014D01*
X36599Y477932D01*
X36539Y477853D01*
X36475Y477775D01*
X36409Y477701D01*
X36340Y477629D01*
X36268Y477560D01*
X36194Y477494D01*
X36116Y477430D01*
X36037Y477370D01*
X35955Y477313D01*
X35871Y477259D01*
X35785Y477209D01*
X35697Y477162D01*
X35607Y477118D01*
X35516Y477078D01*
X35423Y477042D01*
X35329Y477009D01*
X35233Y476980D01*
X35137Y476955D01*
X35040Y476934D01*
X34941Y476916D01*
X34843Y476903D01*
X34743Y476893D01*
X34644Y476887D01*
X34544Y476885D01*
X32004Y476885D01*
D10*
X31750Y234950D02*
X31750Y165100D01*
X31750Y88900D01*
X31750Y19050D01*
X654050Y19050D02*
X654050Y234950D01*
X654050Y19050D02*
X31750Y19050D01*
X31750Y234950D02*
X654050Y234950D01*
D13*
X82550Y165100D02*
X82550Y88900D01*
X31750Y88900D01*
X31750Y165100D02*
X82550Y165100D01*
X146685Y248920D02*
X146685Y257175D01*
X146685Y248920D02*
X146687Y248809D01*
X146693Y248699D01*
X146702Y248588D01*
X146716Y248478D01*
X146733Y248369D01*
X146754Y248260D01*
X146779Y248152D01*
X146808Y248045D01*
X146840Y247939D01*
X146876Y247834D01*
X146916Y247731D01*
X146959Y247629D01*
X147006Y247528D01*
X147057Y247429D01*
X147110Y247333D01*
X147167Y247238D01*
X147228Y247145D01*
X147291Y247054D01*
X147358Y246965D01*
X147428Y246879D01*
X147501Y246796D01*
X147576Y246714D01*
X147654Y246636D01*
X147736Y246561D01*
X147819Y246488D01*
X147905Y246418D01*
X147994Y246351D01*
X148085Y246288D01*
X148178Y246227D01*
X148273Y246170D01*
X148369Y246117D01*
X148468Y246066D01*
X148569Y246019D01*
X148671Y245976D01*
X148774Y245936D01*
X148879Y245900D01*
X148985Y245868D01*
X149092Y245839D01*
X149200Y245814D01*
X149309Y245793D01*
X149418Y245776D01*
X149528Y245762D01*
X149639Y245753D01*
X149749Y245747D01*
X149860Y245745D01*
X149971Y245747D01*
X150081Y245753D01*
X150192Y245762D01*
X150302Y245776D01*
X150411Y245793D01*
X150520Y245814D01*
X150628Y245839D01*
X150735Y245868D01*
X150841Y245900D01*
X150946Y245936D01*
X151049Y245976D01*
X151151Y246019D01*
X151252Y246066D01*
X151351Y246117D01*
X151447Y246170D01*
X151542Y246227D01*
X151635Y246288D01*
X151726Y246351D01*
X151815Y246418D01*
X151901Y246488D01*
X151984Y246561D01*
X152066Y246636D01*
X152144Y246714D01*
X152219Y246796D01*
X152292Y246879D01*
X152362Y246965D01*
X152429Y247054D01*
X152492Y247145D01*
X152553Y247238D01*
X152610Y247332D01*
X152663Y247429D01*
X152714Y247528D01*
X152761Y247629D01*
X152804Y247731D01*
X152844Y247834D01*
X152880Y247939D01*
X152912Y248045D01*
X152941Y248152D01*
X152966Y248260D01*
X152987Y248369D01*
X153004Y248478D01*
X153018Y248588D01*
X153027Y248699D01*
X153033Y248809D01*
X153035Y248920D01*
X153035Y257175D01*
X158496Y254635D02*
X161671Y257175D01*
X161671Y245745D01*
X158496Y245745D02*
X164846Y245745D01*
M02*
