M48
;GenerationSoftware,Autodesk,EAGLE,9.6.0*%
;CreationDate,2020-09-24T14:44:08Z*%
FMAT,2
ICI,OFF
METRIC,TZ,000.000
T9C0.500
T8C0.550
T7C0.813
T6C0.900
T5C1.016
T4C1.118
T3C1.499
T2C1.600
T1C3.300
%
G90
M71
T1
X19050Y43180
X49530Y43180
X19050Y78740
X49530Y78740
T2
X61214Y58750
X61214Y68250
X61214Y63500
T3
X5055Y59995
X5055Y67005
X5055Y38405
X5055Y45415
T4
X55245Y26670
X65405Y26670
T5
X2565Y39649
X2565Y61239
X2565Y65761
X58420Y45085
X58420Y42545
X58420Y40005
X2565Y44171
X58420Y37465
X58420Y34925
T6
X53340Y21590
X48260Y21590
X45720Y21590
X43180Y21590
X40640Y21590
X38100Y21590
X35560Y21590
X33020Y21590
X30480Y21590
X27940Y21590
X25400Y21590
X25400Y3810
X27940Y3810
X30480Y3810
X33020Y3810
X35560Y3810
X38100Y3810
X40640Y3810
X43180Y3810
X45720Y3810
X48260Y3810
X63246Y15875
X63246Y18415
X22860Y21590
X20320Y21590
X50800Y3810
X53340Y3810
X55880Y3810
X58420Y3810
X60960Y3810
X63500Y3810
X50800Y21590
X55880Y21590
X58420Y21590
X60960Y21590
X63500Y21590
X17780Y21590
X15240Y21590
X12700Y21590
X10160Y21590
X7620Y21590
X5080Y21590
X22860Y3810
X20320Y3810
X17780Y3810
X15240Y3810
X12700Y3810
X10160Y3810
X7620Y3810
X5080Y3810
T7
X49530Y29210
X52070Y29210
X8890Y33020
X6350Y33020
X26670Y36830
X41910Y29210
X31750Y36830
X44450Y36830
X39370Y29210
X34290Y29210
X50800Y36195
X50800Y33655
X34290Y36830
X36830Y29210
X44450Y29210
X33655Y78105
X31115Y78105
X36830Y36830
X39370Y36830
X3175Y28575
X5715Y28575
X24130Y36830
X29210Y36830
X41910Y36830
X21590Y36830
X21590Y29210
X24130Y29210
X26670Y29210
X29210Y29210
X31750Y29210
T8
X22542Y65723
X22542Y56197
X30701Y48726
X29527Y49212
X40226Y49699
X39053Y49212
X42545Y57615
X46037Y56197
X45551Y66896
X46037Y65723
X37879Y73194
X39053Y72708
X46524Y57371
X28354Y72221
X29527Y72708
X33020Y69850
X34290Y69850
X26035Y64305
X23029Y55024
X26670Y65405
X27305Y55415
X35560Y52070
X34290Y52070
X41910Y56515
X41275Y66505
X41910Y65405
X22056Y64549
X26670Y56515
T9
X40226Y72221
X45551Y55024
X37879Y48726
X28354Y49699
X22056Y57371
X23029Y66896
X42545Y64305
X41275Y55415
X35560Y69850
X33020Y52070
X26035Y57615
X27305Y66505
X30701Y73194
X46524Y64549
M30